G04 PROTEUS GERBER X2 FILE*
%TF.GenerationSoftware,Labcenter,Proteus,8.13-SP0-Build31525*%
%TF.CreationDate,2026-01-27T17:56:38+00:00*%
%TF.FileFunction,Plated,1,2,PTH*%
%TF.FilePolarity,Positive*%
%TF.Part,Single*%
%TF.SameCoordinates,{e3299123-324f-403d-aa4b-d4cc1432f4ee}*%
%FSLAX45Y45*%
%MOMM*%
G01*
%TA.AperFunction,ViaDrill*%
%ADD80C,0.381000*%
%TA.AperFunction,ComponentDrill*%
%ADD81C,0.800000*%
%TA.AperFunction,ComponentDrill*%
%ADD82C,1.016000*%
%ADD83C,0.762000*%
%TA.AperFunction,ComponentDrill*%
%ADD84C,1.270000*%
%TA.AperFunction,MechanicalDrill*%
%ADD85C,3.000000*%
%TA.AperFunction,ComponentDrill*%
%ADD86C,1.778000*%
%TA.AperFunction,OtherDrill,Unknown*%
%ADD87C,3.000000*%
%TA.AperFunction,ComponentDrill*%
%ADD88C,3.000000*%
%TA.AperFunction,ComponentDrill*%
%ADD89C,0.635000*%
%TD.AperFunction*%
D80*
X+8953500Y-13716000D03*
X+2603500Y-6858000D03*
X+3111500Y-6985000D03*
X+11684000Y-889000D03*
X+8255000Y-6286500D03*
X+8826500Y-6159500D03*
X+9144000Y-11811000D03*
X+9715500Y-7683500D03*
X+9715500Y-13271500D03*
X+9588500Y-9144000D03*
X+7810500Y-9334500D03*
X+8001000Y-11811000D03*
X+9461500Y-11112500D03*
X+8636000Y-5842000D03*
X+2413000Y-5778500D03*
X+3365500Y-6032500D03*
X+10096500Y-9207500D03*
X+12192000Y-9207500D03*
X+5207000Y-9779000D03*
X+5207000Y-8572500D03*
X+7366000Y-8572500D03*
X+8064500Y-9271000D03*
X+12192000Y-9715500D03*
X+3048000Y-9017000D03*
X+7810500Y-9525000D03*
X+8128000Y-9525000D03*
X+7493000Y-8001000D03*
X+12128500Y-10668000D03*
X+8445500Y-8255000D03*
X+2540000Y-1143000D03*
X+1778000Y-1079500D03*
X+6159500Y-7874000D03*
X+3556000Y-6032500D03*
X+11938000Y-5207000D03*
X+2984500Y-4064000D03*
X+10731500Y-3746500D03*
X+2794000Y-4254500D03*
X+9271000Y-4191000D03*
X+8382000Y-11430000D03*
X+10477500Y-10922000D03*
X+10350500Y-11239500D03*
X+7937500Y-9017000D03*
X+10350500Y-8890000D03*
X+10350500Y-6286500D03*
X+13525500Y-8445500D03*
X+8763000Y-2286000D03*
X+6286500Y-7302500D03*
X+6286500Y-5334000D03*
X+5461000Y-7302500D03*
D81*
X+8750000Y-1500000D03*
X+9004000Y-1500000D03*
X+9258000Y-1500000D03*
X+9512000Y-1500000D03*
X+9766000Y-1500000D03*
X+10020000Y-1500000D03*
X+10274000Y-1500000D03*
X+10528000Y-1500000D03*
X+10782000Y-1500000D03*
X+11036000Y-1500000D03*
X+11290000Y-1500000D03*
X+11544000Y-1500000D03*
X+11798000Y-1500000D03*
X+12052000Y-1500000D03*
X+12306000Y-1500000D03*
X+12306000Y+24000D03*
X+12052000Y+24000D03*
X+11798000Y+24000D03*
X+11544000Y+24000D03*
X+11290000Y+24000D03*
X+11036000Y+24000D03*
X+10782000Y+24000D03*
X+10528000Y+24000D03*
X+10274000Y+24000D03*
X+10020000Y+24000D03*
X+9766000Y+24000D03*
X+9512000Y+24000D03*
X+9258000Y+24000D03*
X+9004000Y+24000D03*
X+8750000Y+24000D03*
D82*
X+9000000Y-3750000D03*
X+9254000Y-3750000D03*
X+10250000Y-3750000D03*
X+10504000Y-3750000D03*
X+11500000Y-3750000D03*
X+11754000Y-3750000D03*
X+5250000Y+1500000D03*
X+5504000Y+1500000D03*
X+6250000Y+1500000D03*
X+6504000Y+1500000D03*
X+4250000Y+1500000D03*
X+4504000Y+1500000D03*
X+2250000Y+1500000D03*
X+2504000Y+1500000D03*
X+3250000Y+1500000D03*
X+3504000Y+1500000D03*
D83*
X+6500000Y+500000D03*
X+7516000Y+500000D03*
X+3400000Y-100000D03*
X+3400000Y-1116000D03*
X+4600000Y-100000D03*
X+4600000Y-1116000D03*
X+4200000Y-100000D03*
X+4200000Y-1116000D03*
X+3800000Y-100000D03*
X+3800000Y-1116000D03*
D82*
X+12997209Y-3939340D03*
X+12997209Y-4218740D03*
X+12997209Y-4498140D03*
X+12997209Y-4777540D03*
X+12997209Y-5056940D03*
X+13276609Y-4079040D03*
X+13276609Y-4358440D03*
X+13276609Y-4637840D03*
X+13276609Y-4917240D03*
X+3600000Y-3600000D03*
X+3854000Y-3600000D03*
X+4108000Y-3600000D03*
X+4362000Y-3600000D03*
X+4616000Y-3600000D03*
X+4870000Y-3600000D03*
X+7700000Y-8000000D03*
X+7954000Y-8000000D03*
X+9200000Y-8000000D03*
X+9454000Y-8000000D03*
X+8500000Y-9500000D03*
X+8754000Y-9500000D03*
D83*
X+3700000Y-5800000D03*
X+3954000Y-5800000D03*
X+4208000Y-5800000D03*
X+4462000Y-5800000D03*
X+4462000Y-5038000D03*
X+4208000Y-5038000D03*
X+3954000Y-5038000D03*
X+3700000Y-5038000D03*
D84*
X+11875000Y-12425000D03*
X+11875000Y-13175000D03*
X+11875000Y-13925000D03*
X+11625000Y-12675000D03*
X+11625000Y-13675000D03*
X+13375000Y-13425000D03*
X+13375000Y-12925000D03*
D85*
X+12875000Y-13925000D03*
X+12875000Y-12425000D03*
D83*
X+5446000Y-6846000D03*
X+5954000Y-6846000D03*
X+5700000Y-7100000D03*
X+5200000Y-5500000D03*
X+5200000Y-6516000D03*
X+5446000Y-7646000D03*
X+5954000Y-7646000D03*
X+5700000Y-7900000D03*
X+4700000Y-8200000D03*
X+5716000Y-8200000D03*
X+4400000Y-8200000D03*
X+3384000Y-8200000D03*
X+2200000Y-7000000D03*
X+2200000Y-5984000D03*
D82*
X+5400000Y-9300000D03*
X+5654000Y-9300000D03*
X+5908000Y-9300000D03*
D83*
X+3400000Y-5400000D03*
X+3400000Y-5654000D03*
X+9900000Y-12900000D03*
X+9900000Y-11884000D03*
X+8000000Y-8500000D03*
X+7746000Y-8500000D03*
X+8800000Y-10000000D03*
X+8546000Y-10000000D03*
X+9500000Y-8500000D03*
X+9246000Y-8500000D03*
D86*
X+750000Y+750000D03*
X+330000Y+750000D03*
X+750000Y+330000D03*
X+330000Y+330000D03*
X+750000Y-90000D03*
X+330000Y-90000D03*
X+750000Y-510000D03*
X+330000Y-510000D03*
X+750000Y-930000D03*
X+330000Y-930000D03*
X+750000Y-1350000D03*
X+330000Y-1350000D03*
X+750000Y-1770000D03*
X+330000Y-1770000D03*
X+750000Y-2190000D03*
X+330000Y-2190000D03*
X+750000Y-2610000D03*
X+330000Y-2610000D03*
X+750000Y-3030000D03*
X+330000Y-3030000D03*
X+750000Y-3450000D03*
X+330000Y-3450000D03*
X+750000Y-3870006D03*
X+330000Y-3870006D03*
D82*
X+1750000Y-2850000D03*
X+1750000Y-2596000D03*
D83*
X+1500000Y-600000D03*
X+1500000Y-346000D03*
X+800000Y-5100000D03*
X+1054000Y-5100000D03*
X+1700000Y-4550000D03*
X+1700000Y-4296000D03*
X+100000Y-5100000D03*
X+354000Y-5100000D03*
D82*
X+10500000Y+1250000D03*
X+10246000Y+1250000D03*
X+9992000Y+1250000D03*
D87*
X-200000Y+1800000D03*
X+13400000Y+1800000D03*
X+13400000Y-14700000D03*
X-200000Y-14700000D03*
D82*
X+6700000Y-400000D03*
X+6954000Y-400000D03*
X+7208000Y-400000D03*
X+7462000Y-400000D03*
X+2100000Y-400000D03*
X+2100000Y-654000D03*
X+2100000Y-908000D03*
D83*
X+12973000Y-7193420D03*
X+12973000Y-7470280D03*
X+12973000Y-7744600D03*
X+12973000Y-8021460D03*
X+12973000Y-8298320D03*
X+12973000Y-8572640D03*
X+12973000Y-8849500D03*
X+12973000Y-9126360D03*
X+12973000Y-9400680D03*
X+12973000Y-9677540D03*
X+12973000Y-9954400D03*
X+12973000Y-10228720D03*
X+12973000Y-10505580D03*
X+13227000Y-7330580D03*
X+13227000Y-7607440D03*
X+13227000Y-7881760D03*
X+13227000Y-8158620D03*
X+13227000Y-8435480D03*
X+13227000Y-8709800D03*
X+13227000Y-8986660D03*
X+13227000Y-9263520D03*
X+13227000Y-9537840D03*
X+13227000Y-9814700D03*
X+13227000Y-10091560D03*
X+13227000Y-10365880D03*
D88*
X+13100000Y-6500000D03*
X+13100000Y-11199000D03*
D82*
X+11600000Y-6000000D03*
X+11854000Y-6000000D03*
D89*
X+10773000Y-6800000D03*
X+10900000Y-6673000D03*
X+11027000Y-6800000D03*
D83*
X+9100000Y-6700000D03*
X+10116000Y-6700000D03*
X+9500000Y-7100000D03*
X+10516000Y-7100000D03*
X+6700000Y-2800000D03*
X+6954000Y-2800000D03*
X+7208000Y-2800000D03*
X+7462000Y-2800000D03*
X+7716000Y-2800000D03*
X+7970000Y-2800000D03*
X+8224000Y-2800000D03*
X+8224000Y-2038000D03*
X+7970000Y-2038000D03*
X+7716000Y-2038000D03*
X+7462000Y-2038000D03*
X+7208000Y-2038000D03*
X+6954000Y-2038000D03*
X+6700000Y-2038000D03*
X+7500000Y-1500000D03*
X+6484000Y-1500000D03*
X+7700000Y-1100000D03*
X+6684000Y-1100000D03*
X+1004000Y-7504000D03*
X+496000Y-7504000D03*
X+750000Y-7250000D03*
X+1004000Y-8504000D03*
X+496000Y-8504000D03*
X+750000Y-8250000D03*
X+1004000Y-9504000D03*
X+496000Y-9504000D03*
X+750000Y-9250000D03*
X+2000000Y-8250000D03*
X+2508000Y-8250000D03*
X+2254000Y-8504000D03*
X+2000000Y-7250000D03*
X+2508000Y-7250000D03*
X+2254000Y-7504000D03*
X+2000000Y-9250000D03*
X+2508000Y-9250000D03*
X+2254000Y-9504000D03*
X+8750000Y-11250000D03*
X+8750000Y-10996000D03*
X+8750000Y-10742000D03*
X+8750000Y-10488000D03*
X+7988000Y-10488000D03*
X+7988000Y-10742000D03*
X+7988000Y-10996000D03*
X+7988000Y-11250000D03*
X+8750000Y-12750000D03*
X+8750000Y-12496000D03*
X+8750000Y-12242000D03*
X+8750000Y-11988000D03*
X+7988000Y-11988000D03*
X+7988000Y-12242000D03*
X+7988000Y-12496000D03*
X+7988000Y-12750000D03*
X+8750000Y-14250000D03*
X+8750000Y-13996000D03*
X+8750000Y-13742000D03*
X+8750000Y-13488000D03*
X+7988000Y-13488000D03*
X+7988000Y-13742000D03*
X+7988000Y-13996000D03*
X+7988000Y-14250000D03*
X-16000Y-8000000D03*
X+1000000Y-8000000D03*
X+0Y-9000000D03*
X+1016000Y-9000000D03*
X+0Y-10000000D03*
X+1016000Y-10000000D03*
X+2766000Y-7750000D03*
X+1750000Y-7750000D03*
X+2750000Y-8750000D03*
X+1734000Y-8750000D03*
X+2750000Y-9750000D03*
X+1734000Y-9750000D03*
X+7500000Y-9000000D03*
X+6484000Y-9000000D03*
X+7500000Y-9500000D03*
X+6484000Y-9500000D03*
X+7500000Y-10000000D03*
X+6484000Y-10000000D03*
X+7750000Y-10500000D03*
X+7750000Y-11516000D03*
X+7750000Y-12000000D03*
X+7750000Y-13016000D03*
X+7750000Y-13500000D03*
X+7750000Y-14516000D03*
X+9250000Y-12254000D03*
X+9250000Y-12000000D03*
X+9250000Y-13754000D03*
X+9250000Y-13500000D03*
D82*
X+11000000Y-11400000D03*
X+11000000Y-11146000D03*
X+11000000Y-10892000D03*
X+11700000Y-10505580D03*
X+11700000Y-10251580D03*
X+11700000Y-9997580D03*
X+12400000Y-9700000D03*
X+12400000Y-9446000D03*
X+12400000Y-9192000D03*
D83*
X+9400000Y-10400000D03*
X+9400000Y-10654000D03*
M02*
