G04 PROTEUS GERBER X2 FILE*
%TF.GenerationSoftware,Labcenter,Proteus,8.13-SP0-Build31525*%
%TF.CreationDate,2025-11-15T09:29:02+00:00*%
%TF.FileFunction,AssemblyDrawing,Top*%
%TF.FilePolarity,Positive*%
%TF.Part,Single*%
%TF.SameCoordinates,{127dd545-9896-472c-b5e6-740e1155cc81}*%
%FSLAX45Y45*%
%MOMM*%
G01*
%TA.AperFunction,Material*%
%ADD29C,0.203200*%
%ADD45C,1.200000*%
%ADD46C,0.942330*%
%ADD47C,0.812800*%
%ADD48C,0.090710*%
%ADD49C,0.048840*%
%ADD50C,0.039680*%
%ADD51C,0.037350*%
%ADD52C,0.063500*%
%ADD53C,0.711200*%
%ADD54C,0.110230*%
%ADD55C,0.629920*%
%ADD56C,0.191580*%
%ADD57C,0.206420*%
%ADD58C,0.211660*%
%ADD59C,0.508000*%
%ADD60C,0.302420*%
%ADD61C,1.016000*%
%ADD62C,0.701460*%
%ADD63C,0.118530*%
%ADD64C,0.177800*%
%ADD65C,0.076450*%
%ADD66C,0.111760*%
%TA.AperFunction,Profile*%
%ADD28C,0.203200*%
%TA.AperFunction,Material*%
%ADD73C,0.127000*%
%ADD67C,0.050000*%
%ADD68C,0.914400*%
%ADD69C,0.614600*%
%ADD74C,0.220130*%
%ADD75C,0.304800*%
%ADD76C,0.038800*%
%ADD77C,0.486430*%
%ADD78C,0.070550*%
%TD.AperFunction*%
D29*
X+8295340Y-1700660D02*
X+12951160Y-1700660D01*
X+12951160Y+224660D01*
X+8295340Y+224660D01*
X+8295340Y-1700660D01*
D45*
X+8750000Y-1500000D02*
X+8750000Y-1500000D01*
D46*
X+10032475Y-455298D02*
X+10032475Y-926468D01*
X+10138488Y-1020702D01*
X+10562540Y-1020702D01*
X+10668553Y-926468D01*
X+10668553Y-455298D01*
X+11516658Y-832234D02*
X+10880580Y-832234D01*
X+11304632Y-455298D01*
X+11304632Y-1020702D01*
D29*
X+8735840Y-4014160D02*
X+9518160Y-4014160D01*
X+9518160Y-3358840D01*
X+8735840Y-3358840D01*
X+8735840Y-4014160D01*
D47*
X+9000000Y-3750000D02*
X+9000000Y-3750000D01*
D48*
X+9252186Y-3972247D02*
X+9306615Y-3972247D01*
X+9306615Y-3911016D01*
X+9306615Y-3890605D02*
X+9270329Y-3890605D01*
X+9252186Y-3870195D01*
X+9252186Y-3849784D01*
X+9270329Y-3829374D01*
X+9306615Y-3829374D01*
X+9288472Y-3890605D02*
X+9288472Y-3829374D01*
X+9297543Y-3808963D02*
X+9306615Y-3798758D01*
X+9306615Y-3757937D01*
X+9297543Y-3747732D01*
X+9288472Y-3747732D01*
X+9279400Y-3757937D01*
X+9279400Y-3798758D01*
X+9270329Y-3808963D01*
X+9261258Y-3808963D01*
X+9252186Y-3798758D01*
X+9252186Y-3757937D01*
X+9261258Y-3747732D01*
X+9306615Y-3666090D02*
X+9306615Y-3727321D01*
X+9252186Y-3727321D01*
X+9252186Y-3666090D01*
X+9279400Y-3727321D02*
X+9279400Y-3686500D01*
X+9306615Y-3645679D02*
X+9252186Y-3645679D01*
X+9252186Y-3594653D01*
X+9261258Y-3584448D01*
X+9270329Y-3584448D01*
X+9279400Y-3594653D01*
X+9279400Y-3645679D01*
X+9279400Y-3594653D02*
X+9288472Y-3584448D01*
X+9306615Y-3584448D01*
X+9306615Y-3482395D02*
X+9252186Y-3482395D01*
X+9252186Y-3431369D01*
X+9261258Y-3421164D01*
X+9270329Y-3421164D01*
X+9279400Y-3431369D01*
X+9279400Y-3482395D01*
X+9279400Y-3431369D02*
X+9288472Y-3421164D01*
X+9306615Y-3421164D01*
D29*
X+9985840Y-4014160D02*
X+10768160Y-4014160D01*
X+10768160Y-3358840D01*
X+9985840Y-3358840D01*
X+9985840Y-4014160D01*
D47*
X+10250000Y-3750000D02*
X+10250000Y-3750000D01*
D48*
X+10502186Y-3972247D02*
X+10556615Y-3972247D01*
X+10556615Y-3911016D01*
X+10556615Y-3890605D02*
X+10520329Y-3890605D01*
X+10502186Y-3870195D01*
X+10502186Y-3849784D01*
X+10520329Y-3829374D01*
X+10556615Y-3829374D01*
X+10538472Y-3890605D02*
X+10538472Y-3829374D01*
X+10547543Y-3808963D02*
X+10556615Y-3798758D01*
X+10556615Y-3757937D01*
X+10547543Y-3747732D01*
X+10538472Y-3747732D01*
X+10529400Y-3757937D01*
X+10529400Y-3798758D01*
X+10520329Y-3808963D01*
X+10511258Y-3808963D01*
X+10502186Y-3798758D01*
X+10502186Y-3757937D01*
X+10511258Y-3747732D01*
X+10556615Y-3666090D02*
X+10556615Y-3727321D01*
X+10502186Y-3727321D01*
X+10502186Y-3666090D01*
X+10529400Y-3727321D02*
X+10529400Y-3686500D01*
X+10556615Y-3645679D02*
X+10502186Y-3645679D01*
X+10502186Y-3594653D01*
X+10511258Y-3584448D01*
X+10520329Y-3584448D01*
X+10529400Y-3594653D01*
X+10529400Y-3645679D01*
X+10529400Y-3594653D02*
X+10538472Y-3584448D01*
X+10556615Y-3584448D01*
X+10538472Y-3441574D02*
X+10538472Y-3421164D01*
X+10556615Y-3421164D01*
X+10556615Y-3461985D01*
X+10538472Y-3482395D01*
X+10520329Y-3482395D01*
X+10502186Y-3461985D01*
X+10502186Y-3431369D01*
X+10511258Y-3421164D01*
D29*
X+11235840Y-4014160D02*
X+12018160Y-4014160D01*
X+12018160Y-3358840D01*
X+11235840Y-3358840D01*
X+11235840Y-4014160D01*
D47*
X+11500000Y-3750000D02*
X+11500000Y-3750000D01*
D48*
X+11752186Y-3972247D02*
X+11806615Y-3972247D01*
X+11806615Y-3911016D01*
X+11806615Y-3890605D02*
X+11770329Y-3890605D01*
X+11752186Y-3870195D01*
X+11752186Y-3849784D01*
X+11770329Y-3829374D01*
X+11806615Y-3829374D01*
X+11788472Y-3890605D02*
X+11788472Y-3829374D01*
X+11797543Y-3808963D02*
X+11806615Y-3798758D01*
X+11806615Y-3757937D01*
X+11797543Y-3747732D01*
X+11788472Y-3747732D01*
X+11779400Y-3757937D01*
X+11779400Y-3798758D01*
X+11770329Y-3808963D01*
X+11761258Y-3808963D01*
X+11752186Y-3798758D01*
X+11752186Y-3757937D01*
X+11761258Y-3747732D01*
X+11806615Y-3666090D02*
X+11806615Y-3727321D01*
X+11752186Y-3727321D01*
X+11752186Y-3666090D01*
X+11779400Y-3727321D02*
X+11779400Y-3686500D01*
X+11806615Y-3645679D02*
X+11752186Y-3645679D01*
X+11752186Y-3594653D01*
X+11761258Y-3584448D01*
X+11770329Y-3584448D01*
X+11779400Y-3594653D01*
X+11779400Y-3645679D01*
X+11779400Y-3594653D02*
X+11788472Y-3584448D01*
X+11806615Y-3584448D01*
X+11806615Y-3482395D02*
X+11752186Y-3482395D01*
X+11752186Y-3431369D01*
X+11761258Y-3421164D01*
X+11770329Y-3421164D01*
X+11779400Y-3431369D01*
X+11788472Y-3421164D01*
X+11797543Y-3421164D01*
X+11806615Y-3431369D01*
X+11806615Y-3482395D01*
X+11779400Y-3482395D02*
X+11779400Y-3431369D01*
D29*
X+4985840Y+1235840D02*
X+5768160Y+1235840D01*
X+5768160Y+1891160D01*
X+4985840Y+1891160D01*
X+4985840Y+1235840D01*
D47*
X+5250000Y+1500000D02*
X+5250000Y+1500000D01*
D49*
X+5544054Y+1277754D02*
X+5514747Y+1277754D01*
X+5514747Y+1305229D01*
X+5519631Y+1310724D01*
X+5524516Y+1310724D01*
X+5529400Y+1305229D01*
X+5529400Y+1277754D01*
X+5544054Y+1354685D02*
X+5544054Y+1321715D01*
X+5514747Y+1321715D01*
X+5514747Y+1354685D01*
X+5529400Y+1321715D02*
X+5529400Y+1343695D01*
X+5544054Y+1365676D02*
X+5514747Y+1365676D01*
X+5514747Y+1387656D01*
X+5524516Y+1398646D01*
X+5534285Y+1398646D01*
X+5544054Y+1387656D01*
X+5544054Y+1365676D01*
X+5544054Y+1409637D02*
X+5524516Y+1409637D01*
X+5514747Y+1420627D01*
X+5514747Y+1431617D01*
X+5524516Y+1442607D01*
X+5544054Y+1442607D01*
X+5534285Y+1409637D02*
X+5534285Y+1442607D01*
X+5514747Y+1453598D02*
X+5544054Y+1453598D01*
X+5544054Y+1486568D01*
X+5544054Y+1530529D02*
X+5544054Y+1497559D01*
X+5514747Y+1497559D01*
X+5514747Y+1530529D01*
X+5529400Y+1497559D02*
X+5529400Y+1519539D01*
X+5544054Y+1585481D02*
X+5514747Y+1585481D01*
X+5514747Y+1612956D01*
X+5519631Y+1618451D01*
X+5524516Y+1618451D01*
X+5529400Y+1612956D01*
X+5529400Y+1585481D01*
X+5534285Y+1651422D02*
X+5534285Y+1662412D01*
X+5544054Y+1662412D01*
X+5544054Y+1640432D01*
X+5534285Y+1629442D01*
X+5524516Y+1629442D01*
X+5514747Y+1640432D01*
X+5514747Y+1656917D01*
X+5519631Y+1662412D01*
X+5544054Y+1673403D02*
X+5514747Y+1673403D01*
X+5529400Y+1689888D01*
X+5514747Y+1706373D01*
X+5544054Y+1706373D01*
X+5529400Y+1766820D02*
X+5529400Y+1794295D01*
X+5529400Y+1810781D02*
X+5529400Y+1838256D01*
D29*
X+5985840Y+1235840D02*
X+6768160Y+1235840D01*
X+6768160Y+1891160D01*
X+5985840Y+1891160D01*
X+5985840Y+1235840D01*
D47*
X+6250000Y+1500000D02*
X+6250000Y+1500000D01*
D50*
X+6541306Y+1277756D02*
X+6517494Y+1277756D01*
X+6517494Y+1300079D01*
X+6521463Y+1304544D01*
X+6525431Y+1304544D01*
X+6529400Y+1300079D01*
X+6529400Y+1277756D01*
X+6541306Y+1340262D02*
X+6541306Y+1313474D01*
X+6517494Y+1313474D01*
X+6517494Y+1340262D01*
X+6529400Y+1313474D02*
X+6529400Y+1331333D01*
X+6541306Y+1349192D02*
X+6517494Y+1349192D01*
X+6517494Y+1367051D01*
X+6525431Y+1375980D01*
X+6533369Y+1375980D01*
X+6541306Y+1367051D01*
X+6541306Y+1349192D01*
X+6541306Y+1384910D02*
X+6525431Y+1384910D01*
X+6517494Y+1393839D01*
X+6517494Y+1402769D01*
X+6525431Y+1411698D01*
X+6541306Y+1411698D01*
X+6533369Y+1384910D02*
X+6533369Y+1411698D01*
X+6517494Y+1420628D02*
X+6541306Y+1420628D01*
X+6541306Y+1447416D01*
X+6541306Y+1483134D02*
X+6541306Y+1456346D01*
X+6517494Y+1456346D01*
X+6517494Y+1483134D01*
X+6529400Y+1456346D02*
X+6529400Y+1474205D01*
X+6517494Y+1527782D02*
X+6529400Y+1527782D01*
X+6541306Y+1541176D01*
X+6529400Y+1554570D01*
X+6517494Y+1554570D01*
X+6541306Y+1563500D02*
X+6525431Y+1563500D01*
X+6517494Y+1572429D01*
X+6517494Y+1581359D01*
X+6525431Y+1590288D01*
X+6541306Y+1590288D01*
X+6533369Y+1563500D02*
X+6533369Y+1590288D01*
X+6541306Y+1599218D02*
X+6517494Y+1599218D01*
X+6517494Y+1621541D01*
X+6521463Y+1626006D01*
X+6525431Y+1626006D01*
X+6529400Y+1621541D01*
X+6529400Y+1599218D01*
X+6529400Y+1621541D02*
X+6533369Y+1626006D01*
X+6541306Y+1626006D01*
X+6517494Y+1639400D02*
X+6517494Y+1657259D01*
X+6517494Y+1648330D02*
X+6541306Y+1648330D01*
X+6541306Y+1639400D02*
X+6541306Y+1657259D01*
X+6541306Y+1670654D02*
X+6525431Y+1670654D01*
X+6517494Y+1679583D01*
X+6517494Y+1688513D01*
X+6525431Y+1697442D01*
X+6541306Y+1697442D01*
X+6533369Y+1670654D02*
X+6533369Y+1697442D01*
X+6517494Y+1706372D02*
X+6517494Y+1733160D01*
X+6517494Y+1719766D02*
X+6541306Y+1719766D01*
X+6517494Y+1746554D02*
X+6517494Y+1764413D01*
X+6517494Y+1755484D02*
X+6541306Y+1755484D01*
X+6541306Y+1746554D02*
X+6541306Y+1764413D01*
X+6525431Y+1777808D02*
X+6517494Y+1786737D01*
X+6517494Y+1795667D01*
X+6525431Y+1804596D01*
X+6533369Y+1804596D01*
X+6541306Y+1795667D01*
X+6541306Y+1786737D01*
X+6533369Y+1777808D01*
X+6525431Y+1777808D01*
X+6541306Y+1813526D02*
X+6517494Y+1813526D01*
X+6541306Y+1840314D01*
X+6517494Y+1840314D01*
D29*
X+3985840Y+1235840D02*
X+4768160Y+1235840D01*
X+4768160Y+1891160D01*
X+3985840Y+1891160D01*
X+3985840Y+1235840D01*
D47*
X+4250000Y+1500000D02*
X+4250000Y+1500000D01*
D49*
X+4544054Y+1277754D02*
X+4514747Y+1277754D01*
X+4514747Y+1305229D01*
X+4519631Y+1310724D01*
X+4524516Y+1310724D01*
X+4529400Y+1305229D01*
X+4529400Y+1277754D01*
X+4544054Y+1354685D02*
X+4544054Y+1321715D01*
X+4514747Y+1321715D01*
X+4514747Y+1354685D01*
X+4529400Y+1321715D02*
X+4529400Y+1343695D01*
X+4544054Y+1365676D02*
X+4514747Y+1365676D01*
X+4514747Y+1387656D01*
X+4524516Y+1398646D01*
X+4534285Y+1398646D01*
X+4544054Y+1387656D01*
X+4544054Y+1365676D01*
X+4544054Y+1409637D02*
X+4524516Y+1409637D01*
X+4514747Y+1420627D01*
X+4514747Y+1431617D01*
X+4524516Y+1442607D01*
X+4544054Y+1442607D01*
X+4534285Y+1409637D02*
X+4534285Y+1442607D01*
X+4514747Y+1453598D02*
X+4544054Y+1453598D01*
X+4544054Y+1486568D01*
X+4544054Y+1530529D02*
X+4544054Y+1497559D01*
X+4514747Y+1497559D01*
X+4514747Y+1530529D01*
X+4529400Y+1497559D02*
X+4529400Y+1519539D01*
X+4544054Y+1585481D02*
X+4514747Y+1585481D01*
X+4514747Y+1612956D01*
X+4519631Y+1618451D01*
X+4524516Y+1618451D01*
X+4529400Y+1612956D01*
X+4529400Y+1585481D01*
X+4534285Y+1651422D02*
X+4534285Y+1662412D01*
X+4544054Y+1662412D01*
X+4544054Y+1640432D01*
X+4534285Y+1629442D01*
X+4524516Y+1629442D01*
X+4514747Y+1640432D01*
X+4514747Y+1656917D01*
X+4519631Y+1662412D01*
X+4544054Y+1673403D02*
X+4514747Y+1673403D01*
X+4529400Y+1689888D01*
X+4514747Y+1706373D01*
X+4544054Y+1706373D01*
X+4529400Y+1761325D02*
X+4529400Y+1794295D01*
X+4519631Y+1777810D02*
X+4539170Y+1777810D01*
X+4529400Y+1805286D02*
X+4529400Y+1838256D01*
X+4519631Y+1821771D02*
X+4539170Y+1821771D01*
D29*
X+1985840Y+1235840D02*
X+2768160Y+1235840D01*
X+2768160Y+1891160D01*
X+1985840Y+1891160D01*
X+1985840Y+1235840D01*
D47*
X+2250000Y+1500000D02*
X+2250000Y+1500000D01*
D51*
X+2540606Y+1277764D02*
X+2518195Y+1277764D01*
X+2518195Y+1298774D01*
X+2521930Y+1302976D01*
X+2525665Y+1302976D01*
X+2529400Y+1298774D01*
X+2529400Y+1277764D01*
X+2540606Y+1336592D02*
X+2540606Y+1311380D01*
X+2518195Y+1311380D01*
X+2518195Y+1336592D01*
X+2529400Y+1311380D02*
X+2529400Y+1328188D01*
X+2540606Y+1344996D02*
X+2518195Y+1344996D01*
X+2518195Y+1361804D01*
X+2525665Y+1370208D01*
X+2533136Y+1370208D01*
X+2540606Y+1361804D01*
X+2540606Y+1344996D01*
X+2540606Y+1378612D02*
X+2525665Y+1378612D01*
X+2518195Y+1387016D01*
X+2518195Y+1395420D01*
X+2525665Y+1403824D01*
X+2540606Y+1403824D01*
X+2533136Y+1378612D02*
X+2533136Y+1403824D01*
X+2518195Y+1412228D02*
X+2540606Y+1412228D01*
X+2540606Y+1437440D01*
X+2540606Y+1471056D02*
X+2540606Y+1445844D01*
X+2518195Y+1445844D01*
X+2518195Y+1471056D01*
X+2529400Y+1445844D02*
X+2529400Y+1462652D01*
X+2525665Y+1513076D02*
X+2518195Y+1521480D01*
X+2518195Y+1529884D01*
X+2525665Y+1538288D01*
X+2533136Y+1538288D01*
X+2540606Y+1529884D01*
X+2540606Y+1521480D01*
X+2533136Y+1513076D01*
X+2525665Y+1513076D01*
X+2540606Y+1546692D02*
X+2518195Y+1546692D01*
X+2518195Y+1567702D01*
X+2521930Y+1571904D01*
X+2525665Y+1571904D01*
X+2529400Y+1567702D01*
X+2529400Y+1546692D01*
X+2540606Y+1605520D02*
X+2540606Y+1580308D01*
X+2518195Y+1580308D01*
X+2518195Y+1605520D01*
X+2529400Y+1580308D02*
X+2529400Y+1597116D01*
X+2540606Y+1613924D02*
X+2518195Y+1613924D01*
X+2540606Y+1639136D01*
X+2518195Y+1639136D01*
X+2518195Y+1672752D02*
X+2540606Y+1647540D01*
X+2536871Y+1706368D02*
X+2540606Y+1702166D01*
X+2540606Y+1689560D01*
X+2533136Y+1681156D01*
X+2525665Y+1681156D01*
X+2518195Y+1689560D01*
X+2518195Y+1702166D01*
X+2521930Y+1706368D01*
X+2518195Y+1714772D02*
X+2540606Y+1714772D01*
X+2540606Y+1739984D01*
X+2525665Y+1748388D02*
X+2518195Y+1756792D01*
X+2518195Y+1765196D01*
X+2525665Y+1773600D01*
X+2533136Y+1773600D01*
X+2540606Y+1765196D01*
X+2540606Y+1756792D01*
X+2533136Y+1748388D01*
X+2525665Y+1748388D01*
X+2536871Y+1782004D02*
X+2540606Y+1786206D01*
X+2540606Y+1803014D01*
X+2536871Y+1807216D01*
X+2533136Y+1807216D01*
X+2529400Y+1803014D01*
X+2529400Y+1786206D01*
X+2525665Y+1782004D01*
X+2521930Y+1782004D01*
X+2518195Y+1786206D01*
X+2518195Y+1803014D01*
X+2521930Y+1807216D01*
X+2540606Y+1840832D02*
X+2540606Y+1815620D01*
X+2518195Y+1815620D01*
X+2518195Y+1840832D01*
X+2529400Y+1815620D02*
X+2529400Y+1832428D01*
D29*
X+2985840Y+1235840D02*
X+3768160Y+1235840D01*
X+3768160Y+1891160D01*
X+2985840Y+1891160D01*
X+2985840Y+1235840D01*
D47*
X+3250000Y+1500000D02*
X+3250000Y+1500000D01*
D52*
X+3548450Y+1277750D02*
X+3510350Y+1277750D01*
X+3510350Y+1313468D01*
X+3516700Y+1320612D01*
X+3523050Y+1320612D01*
X+3529400Y+1313468D01*
X+3529400Y+1277750D01*
X+3548450Y+1377762D02*
X+3548450Y+1334900D01*
X+3510350Y+1334900D01*
X+3510350Y+1377762D01*
X+3529400Y+1334900D02*
X+3529400Y+1363475D01*
X+3548450Y+1392050D02*
X+3510350Y+1392050D01*
X+3510350Y+1420625D01*
X+3523050Y+1434912D01*
X+3535750Y+1434912D01*
X+3548450Y+1420625D01*
X+3548450Y+1392050D01*
X+3548450Y+1449200D02*
X+3523050Y+1449200D01*
X+3510350Y+1463487D01*
X+3510350Y+1477775D01*
X+3523050Y+1492062D01*
X+3548450Y+1492062D01*
X+3535750Y+1449200D02*
X+3535750Y+1492062D01*
X+3510350Y+1506350D02*
X+3548450Y+1506350D01*
X+3548450Y+1549212D01*
X+3548450Y+1606362D02*
X+3548450Y+1563500D01*
X+3510350Y+1563500D01*
X+3510350Y+1606362D01*
X+3529400Y+1563500D02*
X+3529400Y+1592075D01*
X+3548450Y+1677800D02*
X+3523050Y+1677800D01*
X+3510350Y+1692087D01*
X+3510350Y+1706375D01*
X+3523050Y+1720662D01*
X+3548450Y+1720662D01*
X+3535750Y+1677800D02*
X+3535750Y+1720662D01*
X+3510350Y+1734950D02*
X+3542100Y+1734950D01*
X+3548450Y+1742093D01*
X+3548450Y+1770668D01*
X+3542100Y+1777812D01*
X+3510350Y+1777812D01*
X+3510350Y+1792100D02*
X+3548450Y+1834962D01*
X+3548450Y+1792100D02*
X+3510350Y+1834962D01*
D29*
X+6411100Y+411100D02*
X+7604900Y+411100D01*
X+7604900Y+588900D01*
X+6411100Y+588900D01*
X+6411100Y+411100D01*
D53*
X+6500000Y+500000D02*
X+6500000Y+500000D01*
D54*
X+6971018Y+466929D02*
X+6971018Y+533070D01*
X+7033025Y+533070D01*
X+7045427Y+522047D01*
X+7045427Y+511023D01*
X+7033025Y+500000D01*
X+6971018Y+500000D01*
X+7033025Y+500000D02*
X+7045427Y+488976D01*
X+7045427Y+466929D01*
X+7082631Y+533070D02*
X+7144639Y+533070D01*
X+7144639Y+522047D01*
X+7082631Y+466929D01*
D29*
X+3311100Y-1204900D02*
X+3488900Y-1204900D01*
X+3488900Y-11100D01*
X+3311100Y-11100D01*
X+3311100Y-1204900D01*
D53*
X+3400000Y-100000D02*
X+3400000Y-100000D01*
D54*
X+3433071Y-769442D02*
X+3366930Y-769442D01*
X+3366930Y-707435D01*
X+3377953Y-695033D01*
X+3388977Y-695033D01*
X+3400000Y-707435D01*
X+3400000Y-769442D01*
X+3400000Y-707435D02*
X+3411024Y-695033D01*
X+3433071Y-695033D01*
X+3377953Y-595821D02*
X+3366930Y-608223D01*
X+3366930Y-645427D01*
X+3377953Y-657829D01*
X+3422048Y-657829D01*
X+3433071Y-645427D01*
X+3433071Y-608223D01*
X+3422048Y-595821D01*
X+3411024Y-595821D01*
X+3400000Y-608223D01*
X+3400000Y-657829D01*
D29*
X+4511100Y-1204900D02*
X+4688900Y-1204900D01*
X+4688900Y-11100D01*
X+4511100Y-11100D01*
X+4511100Y-1204900D01*
D53*
X+4600000Y-100000D02*
X+4600000Y-100000D01*
D54*
X+4633071Y-819048D02*
X+4566930Y-819048D01*
X+4566930Y-757041D01*
X+4577953Y-744639D01*
X+4588977Y-744639D01*
X+4600000Y-757041D01*
X+4600000Y-819048D01*
X+4600000Y-757041D02*
X+4611024Y-744639D01*
X+4633071Y-744639D01*
X+4588977Y-695033D02*
X+4566930Y-670230D01*
X+4633071Y-670230D01*
X+4622048Y-620624D02*
X+4577953Y-620624D01*
X+4566930Y-608223D01*
X+4566930Y-558617D01*
X+4577953Y-546215D01*
X+4622048Y-546215D01*
X+4633071Y-558617D01*
X+4633071Y-608223D01*
X+4622048Y-620624D01*
X+4633071Y-620624D02*
X+4566930Y-546215D01*
D29*
X+4111100Y-1204900D02*
X+4288900Y-1204900D01*
X+4288900Y-11100D01*
X+4111100Y-11100D01*
X+4111100Y-1204900D01*
D53*
X+4200000Y-100000D02*
X+4200000Y-100000D01*
D54*
X+4233071Y-819048D02*
X+4166930Y-819048D01*
X+4166930Y-757041D01*
X+4177953Y-744639D01*
X+4188977Y-744639D01*
X+4200000Y-757041D01*
X+4200000Y-819048D01*
X+4200000Y-757041D02*
X+4211024Y-744639D01*
X+4233071Y-744639D01*
X+4188977Y-695033D02*
X+4166930Y-670230D01*
X+4233071Y-670230D01*
X+4188977Y-595821D02*
X+4166930Y-571018D01*
X+4233071Y-571018D01*
D29*
X+3711100Y-1204900D02*
X+3888900Y-1204900D01*
X+3888900Y-11100D01*
X+3711100Y-11100D01*
X+3711100Y-1204900D01*
D53*
X+3800000Y-100000D02*
X+3800000Y-100000D01*
D54*
X+3833071Y-819048D02*
X+3766930Y-819048D01*
X+3766930Y-757041D01*
X+3777953Y-744639D01*
X+3788977Y-744639D01*
X+3800000Y-757041D01*
X+3800000Y-819048D01*
X+3800000Y-757041D02*
X+3811024Y-744639D01*
X+3833071Y-744639D01*
X+3788977Y-695033D02*
X+3766930Y-670230D01*
X+3833071Y-670230D01*
X+3777953Y-608223D02*
X+3766930Y-595821D01*
X+3766930Y-558617D01*
X+3777953Y-546215D01*
X+3788977Y-546215D01*
X+3800000Y-558617D01*
X+3800000Y-595821D01*
X+3811024Y-608223D01*
X+3833071Y-608223D01*
X+3833071Y-546215D01*
D29*
X+12508259Y-6028490D02*
X+13765559Y-6028490D01*
X+13765559Y-2967790D01*
X+12508259Y-2967790D01*
X+12508259Y-6028490D01*
D55*
X+12997209Y-3939340D02*
X+12997209Y-3939340D01*
D56*
X+13175226Y-5861783D02*
X+13194384Y-5840230D01*
X+13194384Y-5754018D01*
X+13175226Y-5732465D01*
X+13156067Y-5732465D01*
X+13136909Y-5754018D01*
X+13136909Y-5840230D01*
X+13117751Y-5861783D01*
X+13098592Y-5861783D01*
X+13079434Y-5840230D01*
X+13079434Y-5754018D01*
X+13098592Y-5732465D01*
X+13194384Y-5560041D02*
X+13194384Y-5689359D01*
X+13079434Y-5689359D01*
X+13079434Y-5560041D01*
X+13136909Y-5689359D02*
X+13136909Y-5603147D01*
X+13194384Y-5516935D02*
X+13079434Y-5516935D01*
X+13194384Y-5387617D01*
X+13079434Y-5387617D01*
X+13175226Y-5344511D02*
X+13194384Y-5322958D01*
X+13194384Y-5236746D01*
X+13175226Y-5215193D01*
X+13156067Y-5215193D01*
X+13136909Y-5236746D01*
X+13136909Y-5322958D01*
X+13117751Y-5344511D01*
X+13098592Y-5344511D01*
X+13079434Y-5322958D01*
X+13079434Y-5236746D01*
X+13098592Y-5215193D01*
X+13117751Y-5172087D02*
X+13079434Y-5128981D01*
X+13079434Y-5085875D01*
X+13117751Y-5042769D01*
X+13156067Y-5042769D01*
X+13194384Y-5085875D01*
X+13194384Y-5128981D01*
X+13156067Y-5172087D01*
X+13117751Y-5172087D01*
X+13194384Y-4999663D02*
X+13079434Y-4999663D01*
X+13079434Y-4891898D01*
X+13098592Y-4870345D01*
X+13117751Y-4870345D01*
X+13136909Y-4891898D01*
X+13136909Y-4999663D01*
X+13136909Y-4891898D02*
X+13156067Y-4870345D01*
X+13194384Y-4870345D01*
X+13194384Y-4654815D02*
X+13079434Y-4654815D01*
X+13079434Y-4568603D01*
X+13117751Y-4525497D01*
X+13156067Y-4525497D01*
X+13194384Y-4568603D01*
X+13194384Y-4654815D01*
X+13194384Y-4482391D02*
X+13079434Y-4482391D01*
X+13079434Y-4374626D01*
X+13098592Y-4353073D01*
X+13117751Y-4353073D01*
X+13136909Y-4374626D01*
X+13156067Y-4353073D01*
X+13175226Y-4353073D01*
X+13194384Y-4374626D01*
X+13194384Y-4482391D01*
X+13136909Y-4482391D02*
X+13136909Y-4374626D01*
X+13117751Y-4180649D02*
X+13136909Y-4202202D01*
X+13136909Y-4266861D01*
X+13117751Y-4288414D01*
X+13098592Y-4288414D01*
X+13079434Y-4266861D01*
X+13079434Y-4202202D01*
X+13098592Y-4180649D01*
X+13175226Y-4180649D01*
X+13194384Y-4202202D01*
X+13194384Y-4266861D01*
D29*
X+3335840Y-3864160D02*
X+5134160Y-3864160D01*
X+5134160Y-3208840D01*
X+3335840Y-3208840D01*
X+3335840Y-3864160D01*
D47*
X+3600000Y-3600000D02*
X+3600000Y-3600000D01*
D57*
X+3737163Y-3598427D02*
X+3737163Y-3474572D01*
X+3806831Y-3536500D01*
X+3876499Y-3474572D01*
X+3876499Y-3598427D01*
X+4062281Y-3577785D02*
X+4039058Y-3598427D01*
X+3969390Y-3598427D01*
X+3922945Y-3557142D01*
X+3922945Y-3515857D01*
X+3969390Y-3474572D01*
X+4039058Y-3474572D01*
X+4062281Y-3495215D01*
X+4108727Y-3598427D02*
X+4108727Y-3474572D01*
X+4224840Y-3474572D01*
X+4248063Y-3495215D01*
X+4248063Y-3515857D01*
X+4224840Y-3536500D01*
X+4108727Y-3536500D01*
X+4433845Y-3557142D02*
X+4294509Y-3557142D01*
X+4387400Y-3474572D01*
X+4387400Y-3598427D01*
X+4503513Y-3474572D02*
X+4619627Y-3474572D01*
X+4619627Y-3495215D01*
X+4503513Y-3598427D01*
X+4689295Y-3495215D02*
X+4712518Y-3474572D01*
X+4782186Y-3474572D01*
X+4805409Y-3495215D01*
X+4805409Y-3515857D01*
X+4782186Y-3536500D01*
X+4712518Y-3536500D01*
X+4689295Y-3557142D01*
X+4689295Y-3598427D01*
X+4805409Y-3598427D01*
X+4991191Y-3474572D02*
X+4875077Y-3474572D01*
X+4875077Y-3515857D01*
X+4967968Y-3515857D01*
X+4991191Y-3536500D01*
X+4991191Y-3577785D01*
X+4967968Y-3598427D01*
X+4898300Y-3598427D01*
X+4875077Y-3577785D01*
D29*
X+7435840Y-8264160D02*
X+8218160Y-8264160D01*
X+8218160Y-7608840D01*
X+7435840Y-7608840D01*
X+7435840Y-8264160D01*
D47*
X+7700000Y-8000000D02*
X+7700000Y-8000000D01*
D58*
X+8042900Y-8031749D02*
X+7915901Y-8031749D01*
X+7915901Y-7912688D01*
X+7937067Y-7888875D01*
X+7958234Y-7888875D01*
X+7979400Y-7912688D01*
X+7979400Y-8031749D01*
X+7979400Y-7912688D02*
X+8000567Y-7888875D01*
X+8042900Y-7888875D01*
D29*
X+8935840Y-8264160D02*
X+9718160Y-8264160D01*
X+9718160Y-7608840D01*
X+8935840Y-7608840D01*
X+8935840Y-8264160D01*
D47*
X+9200000Y-8000000D02*
X+9200000Y-8000000D01*
D58*
X+9500567Y-7936500D02*
X+9500567Y-7888875D01*
X+9542900Y-7888875D01*
X+9542900Y-7984125D01*
X+9500567Y-8031749D01*
X+9458234Y-8031749D01*
X+9415901Y-7984125D01*
X+9415901Y-7912688D01*
X+9437067Y-7888875D01*
D29*
X+8235840Y-9764160D02*
X+9018160Y-9764160D01*
X+9018160Y-9108840D01*
X+8235840Y-9108840D01*
X+8235840Y-9764160D01*
D47*
X+8500000Y-9500000D02*
X+8500000Y-9500000D01*
D58*
X+8842900Y-9531749D02*
X+8715901Y-9531749D01*
X+8715901Y-9412688D01*
X+8737067Y-9388875D01*
X+8758234Y-9388875D01*
X+8779400Y-9412688D01*
X+8800567Y-9388875D01*
X+8821734Y-9388875D01*
X+8842900Y-9412688D01*
X+8842900Y-9531749D01*
X+8779400Y-9531749D02*
X+8779400Y-9412688D01*
D29*
X+3562840Y-5863500D02*
X+4599160Y-5863500D01*
X+4599160Y-4974500D01*
X+3562840Y-4974500D01*
X+3562840Y-5863500D01*
D59*
X+3700000Y-5800000D02*
X+3700000Y-5800000D01*
D60*
X+3808814Y-5283821D02*
X+3808814Y-5435036D01*
X+3842837Y-5465279D01*
X+3978930Y-5465279D01*
X+4012953Y-5435036D01*
X+4012953Y-5283821D01*
X+4149046Y-5344307D02*
X+4217093Y-5283821D01*
X+4217093Y-5465279D01*
D29*
X+11102840Y-14328160D02*
X+13757160Y-14328160D01*
X+13757160Y-12021840D01*
X+11102840Y-12021840D01*
X+11102840Y-14328160D01*
D61*
X+11875000Y-12425000D02*
X+11875000Y-12425000D01*
D62*
X+11483029Y-13612418D02*
X+11483029Y-13191542D01*
X+11719771Y-13401980D01*
X+11956514Y-13191542D01*
X+11956514Y-13612418D01*
X+12114343Y-13472126D02*
X+12114343Y-13542272D01*
X+12193257Y-13612418D01*
X+12508914Y-13612418D01*
X+12587828Y-13542272D01*
X+12587828Y-13191542D01*
X+12903485Y-13331834D02*
X+13061314Y-13191542D01*
X+13061314Y-13612418D01*
D29*
X+5181840Y-7237160D02*
X+6218160Y-7237160D01*
X+6218160Y-6708840D01*
X+5181840Y-6708840D01*
X+5181840Y-7237160D01*
D47*
X+5446000Y-6846000D02*
X+5446000Y-6846000D01*
D63*
X+5532363Y-6961147D02*
X+5559032Y-6937440D01*
X+5585702Y-6937440D01*
X+5612372Y-6961147D01*
X+5612372Y-6984853D01*
X+5585702Y-7008560D01*
X+5559032Y-7008560D01*
X+5532363Y-6984853D01*
X+5532363Y-6961147D01*
X+5639042Y-7008560D02*
X+5639042Y-6937440D01*
X+5719051Y-6937440D01*
X+5639042Y-6973000D02*
X+5692381Y-6973000D01*
X+5745721Y-7008560D02*
X+5745721Y-6937440D01*
X+5825730Y-6937440D01*
X+5745721Y-6973000D02*
X+5799060Y-6973000D01*
X+5852400Y-6996707D02*
X+5865734Y-7008560D01*
X+5919074Y-7008560D01*
X+5932409Y-6996707D01*
X+5932409Y-6984853D01*
X+5919074Y-6973000D01*
X+5865734Y-6973000D01*
X+5852400Y-6961147D01*
X+5852400Y-6949293D01*
X+5865734Y-6937440D01*
X+5919074Y-6937440D01*
X+5932409Y-6949293D01*
X+6039088Y-7008560D02*
X+5959079Y-7008560D01*
X+5959079Y-6937440D01*
X+6039088Y-6937440D01*
X+5959079Y-6973000D02*
X+6012418Y-6973000D01*
X+6065758Y-6937440D02*
X+6145767Y-6937440D01*
X+6105762Y-6937440D02*
X+6105762Y-7008560D01*
D29*
X+5111100Y-6604900D02*
X+5288900Y-6604900D01*
X+5288900Y-5411100D01*
X+5111100Y-5411100D01*
X+5111100Y-6604900D01*
D53*
X+5200000Y-5500000D02*
X+5200000Y-5500000D01*
D54*
X+5233071Y-6169442D02*
X+5166930Y-6169442D01*
X+5166930Y-6107435D01*
X+5177953Y-6095033D01*
X+5188977Y-6095033D01*
X+5200000Y-6107435D01*
X+5200000Y-6169442D01*
X+5200000Y-6107435D02*
X+5211024Y-6095033D01*
X+5233071Y-6095033D01*
X+5188977Y-6045427D02*
X+5166930Y-6020624D01*
X+5233071Y-6020624D01*
D29*
X+5181840Y-8037160D02*
X+6218160Y-8037160D01*
X+6218160Y-7508840D01*
X+5181840Y-7508840D01*
X+5181840Y-8037160D01*
D47*
X+5446000Y-7646000D02*
X+5446000Y-7646000D01*
D64*
X+5612370Y-7790780D02*
X+5652375Y-7790780D01*
X+5652375Y-7826340D01*
X+5572365Y-7826340D01*
X+5532360Y-7790780D01*
X+5532360Y-7755220D01*
X+5572365Y-7719660D01*
X+5632372Y-7719660D01*
X+5652375Y-7737440D01*
X+5692380Y-7826340D02*
X+5692380Y-7755220D01*
X+5732385Y-7719660D01*
X+5772390Y-7719660D01*
X+5812395Y-7755220D01*
X+5812395Y-7826340D01*
X+5692380Y-7790780D02*
X+5812395Y-7790780D01*
X+5872402Y-7719660D02*
X+5952412Y-7719660D01*
X+5912407Y-7719660D02*
X+5912407Y-7826340D01*
X+5872402Y-7826340D02*
X+5952412Y-7826340D01*
X+6012420Y-7826340D02*
X+6012420Y-7719660D01*
X+6132435Y-7826340D01*
X+6132435Y-7719660D01*
D29*
X+4611100Y-8288900D02*
X+5804900Y-8288900D01*
X+5804900Y-8111100D01*
X+4611100Y-8111100D01*
X+4611100Y-8288900D01*
D53*
X+4700000Y-8200000D02*
X+4700000Y-8200000D01*
D54*
X+5171018Y-8233071D02*
X+5171018Y-8166930D01*
X+5233025Y-8166930D01*
X+5245427Y-8177953D01*
X+5245427Y-8188977D01*
X+5233025Y-8200000D01*
X+5171018Y-8200000D01*
X+5233025Y-8200000D02*
X+5245427Y-8211024D01*
X+5245427Y-8233071D01*
X+5282631Y-8177953D02*
X+5295033Y-8166930D01*
X+5332237Y-8166930D01*
X+5344639Y-8177953D01*
X+5344639Y-8188977D01*
X+5332237Y-8200000D01*
X+5295033Y-8200000D01*
X+5282631Y-8211024D01*
X+5282631Y-8233071D01*
X+5344639Y-8233071D01*
D29*
X+3295100Y-8288900D02*
X+4488900Y-8288900D01*
X+4488900Y-8111100D01*
X+3295100Y-8111100D01*
X+3295100Y-8288900D01*
D53*
X+4400000Y-8200000D02*
X+4400000Y-8200000D01*
D54*
X+3730558Y-8233071D02*
X+3730558Y-8166930D01*
X+3792565Y-8166930D01*
X+3804967Y-8177953D01*
X+3804967Y-8188977D01*
X+3792565Y-8200000D01*
X+3730558Y-8200000D01*
X+3792565Y-8200000D02*
X+3804967Y-8211024D01*
X+3804967Y-8233071D01*
X+3842171Y-8177953D02*
X+3854573Y-8166930D01*
X+3891777Y-8166930D01*
X+3904179Y-8177953D01*
X+3904179Y-8188977D01*
X+3891777Y-8200000D01*
X+3904179Y-8211024D01*
X+3904179Y-8222048D01*
X+3891777Y-8233071D01*
X+3854573Y-8233071D01*
X+3842171Y-8222048D01*
X+3866974Y-8200000D02*
X+3891777Y-8200000D01*
D29*
X+2111100Y-7088900D02*
X+2288900Y-7088900D01*
X+2288900Y-5895100D01*
X+2111100Y-5895100D01*
X+2111100Y-7088900D01*
D53*
X+2200000Y-7000000D02*
X+2200000Y-7000000D01*
D54*
X+2233071Y-6528982D02*
X+2166930Y-6528982D01*
X+2166930Y-6466975D01*
X+2177953Y-6454573D01*
X+2188977Y-6454573D01*
X+2200000Y-6466975D01*
X+2200000Y-6528982D01*
X+2200000Y-6466975D02*
X+2211024Y-6454573D01*
X+2233071Y-6454573D01*
X+2211024Y-6355361D02*
X+2211024Y-6429770D01*
X+2166930Y-6380164D01*
X+2233071Y-6380164D01*
D29*
X+5135840Y-9564160D02*
X+6172160Y-9564160D01*
X+6172160Y-8908840D01*
X+5135840Y-8908840D01*
X+5135840Y-9564160D01*
D47*
X+5400000Y-9300000D02*
X+5400000Y-9300000D01*
D65*
X+5496755Y-9228855D02*
X+5513957Y-9213564D01*
X+5531160Y-9213564D01*
X+5548362Y-9228855D01*
X+5548362Y-9244146D01*
X+5531160Y-9259437D01*
X+5513957Y-9259437D01*
X+5496755Y-9244146D01*
X+5496755Y-9228855D01*
X+5565565Y-9213564D02*
X+5565565Y-9251792D01*
X+5574166Y-9259437D01*
X+5608571Y-9259437D01*
X+5617172Y-9251792D01*
X+5617172Y-9213564D01*
X+5634375Y-9213564D02*
X+5685982Y-9213564D01*
X+5660178Y-9213564D02*
X+5660178Y-9259437D01*
X+5806400Y-9244146D02*
X+5823602Y-9244146D01*
X+5823602Y-9259437D01*
X+5789197Y-9259437D01*
X+5771995Y-9244146D01*
X+5771995Y-9228855D01*
X+5789197Y-9213564D01*
X+5815001Y-9213564D01*
X+5823602Y-9221209D01*
X+5840805Y-9259437D02*
X+5840805Y-9228855D01*
X+5858007Y-9213564D01*
X+5875210Y-9213564D01*
X+5892412Y-9228855D01*
X+5892412Y-9259437D01*
X+5840805Y-9244146D02*
X+5892412Y-9244146D01*
X+5909615Y-9213564D02*
X+5909615Y-9259437D01*
X+5961222Y-9259437D01*
X+5978425Y-9213564D02*
X+5978425Y-9236500D01*
X+6004228Y-9259437D01*
X+6030032Y-9236500D01*
X+6030032Y-9213564D01*
X+6047235Y-9228855D02*
X+6064437Y-9213564D01*
X+6081640Y-9213564D01*
X+6098842Y-9228855D01*
X+6098842Y-9244146D01*
X+6081640Y-9259437D01*
X+6064437Y-9259437D01*
X+6047235Y-9244146D01*
X+6047235Y-9228855D01*
D29*
X+3262840Y-5791160D02*
X+3537160Y-5791160D01*
X+3537160Y-5262840D01*
X+3262840Y-5262840D01*
X+3262840Y-5791160D01*
D53*
X+3400000Y-5400000D02*
X+3400000Y-5400000D01*
D66*
X+3422352Y-5638506D02*
X+3433528Y-5651079D01*
X+3433528Y-5688798D01*
X+3411176Y-5713944D01*
X+3388824Y-5713944D01*
X+3366472Y-5688798D01*
X+3366472Y-5651079D01*
X+3377648Y-5638506D01*
X+3388824Y-5588214D02*
X+3366472Y-5563068D01*
X+3433528Y-5563068D01*
D29*
X+9811100Y-12988900D02*
X+9988900Y-12988900D01*
X+9988900Y-11795100D01*
X+9811100Y-11795100D01*
X+9811100Y-12988900D01*
D53*
X+9900000Y-12900000D02*
X+9900000Y-12900000D01*
D54*
X+9933071Y-12428982D02*
X+9866930Y-12428982D01*
X+9866930Y-12366975D01*
X+9877953Y-12354573D01*
X+9888977Y-12354573D01*
X+9900000Y-12366975D01*
X+9900000Y-12428982D01*
X+9900000Y-12366975D02*
X+9911024Y-12354573D01*
X+9933071Y-12354573D01*
X+9900000Y-12304967D02*
X+9888977Y-12317369D01*
X+9877953Y-12317369D01*
X+9866930Y-12304967D01*
X+9866930Y-12267763D01*
X+9877953Y-12255361D01*
X+9888977Y-12255361D01*
X+9900000Y-12267763D01*
X+9900000Y-12304967D01*
X+9911024Y-12317369D01*
X+9922048Y-12317369D01*
X+9933071Y-12304967D01*
X+9933071Y-12267763D01*
X+9922048Y-12255361D01*
X+9911024Y-12255361D01*
X+9900000Y-12267763D01*
D29*
X+7608840Y-8637160D02*
X+8137160Y-8637160D01*
X+8137160Y-8362840D01*
X+7608840Y-8362840D01*
X+7608840Y-8637160D01*
D53*
X+8000000Y-8500000D02*
X+8000000Y-8500000D01*
D66*
X+7761494Y-8522352D02*
X+7748921Y-8533528D01*
X+7711202Y-8533528D01*
X+7686056Y-8511176D01*
X+7686056Y-8488824D01*
X+7711202Y-8466472D01*
X+7748921Y-8466472D01*
X+7761494Y-8477648D01*
X+7799213Y-8477648D02*
X+7811786Y-8466472D01*
X+7849505Y-8466472D01*
X+7862078Y-8477648D01*
X+7862078Y-8488824D01*
X+7849505Y-8500000D01*
X+7862078Y-8511176D01*
X+7862078Y-8522352D01*
X+7849505Y-8533528D01*
X+7811786Y-8533528D01*
X+7799213Y-8522352D01*
X+7824359Y-8500000D02*
X+7849505Y-8500000D01*
D29*
X+8408840Y-10137160D02*
X+8937160Y-10137160D01*
X+8937160Y-9862840D01*
X+8408840Y-9862840D01*
X+8408840Y-10137160D01*
D53*
X+8800000Y-10000000D02*
X+8800000Y-10000000D01*
D66*
X+8561494Y-10022352D02*
X+8548921Y-10033528D01*
X+8511202Y-10033528D01*
X+8486056Y-10011176D01*
X+8486056Y-9988824D01*
X+8511202Y-9966472D01*
X+8548921Y-9966472D01*
X+8561494Y-9977648D01*
X+8662078Y-10011176D02*
X+8586640Y-10011176D01*
X+8636932Y-9966472D01*
X+8636932Y-10033528D01*
D29*
X+9108840Y-8637160D02*
X+9637160Y-8637160D01*
X+9637160Y-8362840D01*
X+9108840Y-8362840D01*
X+9108840Y-8637160D01*
D53*
X+9500000Y-8500000D02*
X+9500000Y-8500000D01*
D66*
X+9261494Y-8522352D02*
X+9248921Y-8533528D01*
X+9211202Y-8533528D01*
X+9186056Y-8511176D01*
X+9186056Y-8488824D01*
X+9211202Y-8466472D01*
X+9248921Y-8466472D01*
X+9261494Y-8477648D01*
X+9362078Y-8466472D02*
X+9299213Y-8466472D01*
X+9299213Y-8488824D01*
X+9349505Y-8488824D01*
X+9362078Y-8500000D01*
X+9362078Y-8522352D01*
X+9349505Y-8533528D01*
X+9311786Y-8533528D01*
X+9299213Y-8522352D01*
D28*
X-600000Y-15100000D02*
X+13800000Y-15100000D01*
X+13800000Y+2200000D01*
X-600000Y+2200000D01*
X-600000Y-15100000D01*
D29*
X+12235840Y-8491160D02*
X+12637160Y-8491160D01*
X+12637160Y-7962840D01*
X+12235840Y-7962840D01*
X+12235840Y-8491160D01*
D59*
X+12500000Y-8354000D02*
X+12500000Y-8354000D01*
D73*
X+12322200Y-8133020D02*
X+12350775Y-8107620D01*
X+12379350Y-8107620D01*
X+12407925Y-8133020D01*
X+12407925Y-8158420D01*
X+12379350Y-8183820D01*
X+12350775Y-8183820D01*
X+12322200Y-8158420D01*
X+12322200Y-8133020D01*
X+12379350Y-8158420D02*
X+12407925Y-8183820D01*
X+12465075Y-8133020D02*
X+12493650Y-8107620D01*
X+12493650Y-8183820D01*
D67*
X-160000Y+1405000D02*
X+980000Y+1405000D01*
X+980000Y-4160000D01*
X-160000Y-4160000D01*
X-160000Y+1405000D01*
D68*
X+750000Y+750000D02*
X+750000Y+750000D01*
D69*
X+471460Y-2282254D02*
X+532921Y-2282254D01*
X+594381Y-2213111D01*
X+594381Y-1936539D01*
X+532921Y-1867396D01*
X+225618Y-1867396D01*
X+348539Y-1590824D02*
X+225618Y-1452538D01*
X+594381Y-1452538D01*
D29*
X+1358840Y-3114160D02*
X+2014160Y-3114160D01*
X+2014160Y-2331840D01*
X+1358840Y-2331840D01*
X+1358840Y-3114160D01*
D47*
X+1750000Y-2850000D02*
X+1750000Y-2850000D01*
D58*
X+1496001Y-2591767D02*
X+1496001Y-2612934D01*
X+1519813Y-2634100D01*
X+1615062Y-2634100D01*
X+1638875Y-2612934D01*
X+1638875Y-2507101D01*
X+1710312Y-2528267D02*
X+1734124Y-2507101D01*
X+1805561Y-2507101D01*
X+1829374Y-2528267D01*
X+1829374Y-2549434D01*
X+1805561Y-2570600D01*
X+1734124Y-2570600D01*
X+1710312Y-2591767D01*
X+1710312Y-2634100D01*
X+1829374Y-2634100D01*
D29*
X+1362840Y-737160D02*
X+1637160Y-737160D01*
X+1637160Y-208840D01*
X+1362840Y-208840D01*
X+1362840Y-737160D01*
D53*
X+1500000Y-600000D02*
X+1500000Y-600000D01*
D66*
X+1522352Y-411786D02*
X+1533528Y-424359D01*
X+1533528Y-462078D01*
X+1511176Y-487224D01*
X+1488824Y-487224D01*
X+1466472Y-462078D01*
X+1466472Y-424359D01*
X+1477648Y-411786D01*
X+1477648Y-311202D02*
X+1466472Y-323775D01*
X+1466472Y-361494D01*
X+1477648Y-374067D01*
X+1522352Y-374067D01*
X+1533528Y-361494D01*
X+1533528Y-323775D01*
X+1522352Y-311202D01*
X+1511176Y-311202D01*
X+1500000Y-323775D01*
X+1500000Y-374067D01*
D29*
X+662840Y-5237160D02*
X+1191160Y-5237160D01*
X+1191160Y-4962840D01*
X+662840Y-4962840D01*
X+662840Y-5237160D01*
D53*
X+800000Y-5100000D02*
X+800000Y-5100000D01*
D66*
X+988214Y-5122352D02*
X+975641Y-5133528D01*
X+937922Y-5133528D01*
X+912776Y-5111176D01*
X+912776Y-5088824D01*
X+937922Y-5066472D01*
X+975641Y-5066472D01*
X+988214Y-5077648D01*
X+1025933Y-5066472D02*
X+1088798Y-5066472D01*
X+1088798Y-5077648D01*
X+1025933Y-5133528D01*
D29*
X+1562840Y-4687160D02*
X+1837160Y-4687160D01*
X+1837160Y-4158840D01*
X+1562840Y-4158840D01*
X+1562840Y-4687160D01*
D53*
X+1700000Y-4550000D02*
X+1700000Y-4550000D01*
D66*
X+1722352Y-4361786D02*
X+1733528Y-4374359D01*
X+1733528Y-4412078D01*
X+1711176Y-4437224D01*
X+1688824Y-4437224D01*
X+1666472Y-4412078D01*
X+1666472Y-4374359D01*
X+1677648Y-4361786D01*
X+1700000Y-4311494D02*
X+1688824Y-4324067D01*
X+1677648Y-4324067D01*
X+1666472Y-4311494D01*
X+1666472Y-4273775D01*
X+1677648Y-4261202D01*
X+1688824Y-4261202D01*
X+1700000Y-4273775D01*
X+1700000Y-4311494D01*
X+1711176Y-4324067D01*
X+1722352Y-4324067D01*
X+1733528Y-4311494D01*
X+1733528Y-4273775D01*
X+1722352Y-4261202D01*
X+1711176Y-4261202D01*
X+1700000Y-4273775D01*
D29*
X-37160Y-5237160D02*
X+491160Y-5237160D01*
X+491160Y-4962840D01*
X-37160Y-4962840D01*
X-37160Y-5237160D01*
D53*
X+100000Y-5100000D02*
X+100000Y-5100000D01*
D66*
X+288214Y-5122352D02*
X+275641Y-5133528D01*
X+237922Y-5133528D01*
X+212776Y-5111176D01*
X+212776Y-5088824D01*
X+237922Y-5066472D01*
X+275641Y-5066472D01*
X+288214Y-5077648D01*
X+388798Y-5088824D02*
X+376225Y-5100000D01*
X+338506Y-5100000D01*
X+325933Y-5088824D01*
X+325933Y-5077648D01*
X+338506Y-5066472D01*
X+376225Y-5066472D01*
X+388798Y-5077648D01*
X+388798Y-5122352D01*
X+376225Y-5133528D01*
X+338506Y-5133528D01*
D29*
X+9727840Y+858840D02*
X+10764160Y+858840D01*
X+10764160Y+1514160D01*
X+9727840Y+1514160D01*
X+9727840Y+858840D01*
D47*
X+10500000Y+1250000D02*
X+10500000Y+1250000D01*
D74*
X+9895481Y+1164487D02*
X+9895481Y+1142473D01*
X+9920245Y+1120460D01*
X+10019305Y+1120460D01*
X+10044070Y+1142473D01*
X+10044070Y+1252540D01*
X+10118364Y+1230527D02*
X+10143129Y+1252540D01*
X+10217424Y+1252540D01*
X+10242189Y+1230527D01*
X+10242189Y+1208513D01*
X+10217424Y+1186500D01*
X+10242189Y+1164487D01*
X+10242189Y+1142473D01*
X+10217424Y+1120460D01*
X+10143129Y+1120460D01*
X+10118364Y+1142473D01*
X+10167894Y+1186500D02*
X+10217424Y+1186500D01*
D29*
X+6435840Y-664160D02*
X+7726160Y-664160D01*
X+7726160Y-8840D01*
X+6435840Y-8840D01*
X+6435840Y-664160D01*
D47*
X+6700000Y-400000D02*
X+6700000Y-400000D01*
D75*
X+6959080Y-366980D02*
X+6959080Y-397460D01*
X+6993370Y-427940D01*
X+7130530Y-427940D01*
X+7164820Y-397460D01*
X+7164820Y-245060D01*
X+7439140Y-366980D02*
X+7233400Y-366980D01*
X+7370560Y-245060D01*
X+7370560Y-427940D01*
D29*
X+1835840Y-1172160D02*
X+2491160Y-1172160D01*
X+2491160Y-135840D01*
X+1835840Y-135840D01*
X+1835840Y-1172160D01*
D47*
X+2100000Y-400000D02*
X+2100000Y-400000D01*
D76*
X+2171261Y-1120716D02*
X+2175141Y-1116351D01*
X+2175141Y-1098889D01*
X+2171261Y-1094523D01*
X+2167380Y-1094523D01*
X+2163500Y-1098889D01*
X+2163500Y-1116351D01*
X+2159619Y-1120716D01*
X+2155739Y-1120716D01*
X+2151858Y-1116351D01*
X+2151858Y-1098889D01*
X+2155739Y-1094523D01*
X+2175141Y-1059599D02*
X+2175141Y-1085792D01*
X+2151858Y-1085792D01*
X+2151858Y-1059599D01*
X+2163500Y-1085792D02*
X+2163500Y-1068330D01*
X+2151858Y-1050868D02*
X+2175141Y-1050868D01*
X+2175141Y-1024675D01*
X+2175141Y-989751D02*
X+2175141Y-1015944D01*
X+2151858Y-1015944D01*
X+2151858Y-989751D01*
X+2163500Y-1015944D02*
X+2163500Y-998482D01*
X+2171261Y-954827D02*
X+2175141Y-959193D01*
X+2175141Y-972289D01*
X+2167380Y-981020D01*
X+2159619Y-981020D01*
X+2151858Y-972289D01*
X+2151858Y-959193D01*
X+2155739Y-954827D01*
X+2151858Y-946096D02*
X+2151858Y-919903D01*
X+2151858Y-933000D02*
X+2175141Y-933000D01*
X+2151858Y-876248D02*
X+2175141Y-876248D01*
X+2175141Y-850055D01*
X+2159619Y-841324D02*
X+2151858Y-832593D01*
X+2151858Y-823862D01*
X+2159619Y-815131D01*
X+2167380Y-815131D01*
X+2175141Y-823862D01*
X+2175141Y-832593D01*
X+2167380Y-841324D01*
X+2159619Y-841324D01*
X+2167380Y-788938D02*
X+2167380Y-780207D01*
X+2175141Y-780207D01*
X+2175141Y-797669D01*
X+2167380Y-806400D01*
X+2159619Y-806400D01*
X+2151858Y-797669D01*
X+2151858Y-784573D01*
X+2155739Y-780207D01*
X+2151858Y-767111D02*
X+2151858Y-749649D01*
X+2151858Y-758380D02*
X+2175141Y-758380D01*
X+2175141Y-767111D02*
X+2175141Y-749649D01*
X+2171261Y-710359D02*
X+2175141Y-714725D01*
X+2175141Y-727821D01*
X+2167380Y-736552D01*
X+2159619Y-736552D01*
X+2151858Y-727821D01*
X+2151858Y-714725D01*
X+2155739Y-710359D01*
X+2151858Y-666704D02*
X+2175141Y-666704D01*
X+2175141Y-640511D01*
X+2175141Y-605587D02*
X+2175141Y-631780D01*
X+2151858Y-631780D01*
X+2151858Y-605587D01*
X+2163500Y-631780D02*
X+2163500Y-614318D01*
X+2151858Y-596856D02*
X+2163500Y-596856D01*
X+2175141Y-583760D01*
X+2163500Y-570663D01*
X+2151858Y-570663D01*
X+2175141Y-535739D02*
X+2175141Y-561932D01*
X+2151858Y-561932D01*
X+2151858Y-535739D01*
X+2163500Y-561932D02*
X+2163500Y-544470D01*
X+2151858Y-527008D02*
X+2175141Y-527008D01*
X+2175141Y-500815D01*
D29*
X+12772340Y-11590160D02*
X+14253160Y-11590160D01*
X+14253160Y-6108840D01*
X+12772340Y-6108840D01*
X+12772340Y-11590160D01*
D53*
X+12973000Y-7193420D02*
X+12973000Y-7193420D01*
D77*
X+13484930Y-11202632D02*
X+13484930Y-10983736D01*
X+13484930Y-11093184D02*
X+13776791Y-11093184D01*
X+13776791Y-11202632D02*
X+13776791Y-10983736D01*
X+13484930Y-10819564D02*
X+13776791Y-10819564D01*
X+13776791Y-10491220D01*
X+13776791Y-10381772D02*
X+13484930Y-10381772D01*
X+13484930Y-10162876D01*
X+13582217Y-10053428D01*
X+13679504Y-10053428D01*
X+13776791Y-10162876D01*
X+13776791Y-10381772D01*
X+13776791Y-9943980D02*
X+13582217Y-9943980D01*
X+13484930Y-9834532D01*
X+13484930Y-9725084D01*
X+13582217Y-9615636D01*
X+13776791Y-9615636D01*
X+13679504Y-9943980D02*
X+13679504Y-9615636D01*
X+13582217Y-9068396D02*
X+13484930Y-8958948D01*
X+13484930Y-8849500D01*
X+13582217Y-8740052D01*
X+13679504Y-8740052D01*
X+13776791Y-8849500D01*
X+13776791Y-8958948D01*
X+13679504Y-9068396D01*
X+13582217Y-9068396D01*
X+13484930Y-8630604D02*
X+13728148Y-8630604D01*
X+13776791Y-8575880D01*
X+13776791Y-8356984D01*
X+13728148Y-8302260D01*
X+13484930Y-8302260D01*
X+13484930Y-8192812D02*
X+13484930Y-7864468D01*
X+13484930Y-8028640D02*
X+13776791Y-8028640D01*
X+13776791Y-7755020D02*
X+13484930Y-7755020D01*
X+13484930Y-7481400D01*
X+13533573Y-7426676D01*
X+13582217Y-7426676D01*
X+13630860Y-7481400D01*
X+13630860Y-7755020D01*
X+13484930Y-7317228D02*
X+13728148Y-7317228D01*
X+13776791Y-7262504D01*
X+13776791Y-7043608D01*
X+13728148Y-6988884D01*
X+13484930Y-6988884D01*
X+13484930Y-6879436D02*
X+13484930Y-6551092D01*
X+13484930Y-6715264D02*
X+13776791Y-6715264D01*
D29*
X+11335840Y-6264160D02*
X+12118160Y-6264160D01*
X+12118160Y-5608840D01*
X+11335840Y-5608840D01*
X+11335840Y-6264160D01*
D47*
X+11600000Y-6000000D02*
X+11600000Y-6000000D01*
D78*
X+11858233Y-6214308D02*
X+11858233Y-6182559D01*
X+11858233Y-6198433D02*
X+11900566Y-6198433D01*
X+11900566Y-6214308D02*
X+11900566Y-6182559D01*
X+11900566Y-6158746D02*
X+11858233Y-6158746D01*
X+11900566Y-6111122D01*
X+11858233Y-6111122D01*
X+11858233Y-6095247D02*
X+11858233Y-6047623D01*
X+11858233Y-6071435D02*
X+11900566Y-6071435D01*
X+11900566Y-5984124D02*
X+11900566Y-6031748D01*
X+11858233Y-6031748D01*
X+11858233Y-5984124D01*
X+11879400Y-6031748D02*
X+11879400Y-5999999D01*
X+11900566Y-5968249D02*
X+11858233Y-5968249D01*
X+11858233Y-5928563D01*
X+11865289Y-5920625D01*
X+11872344Y-5920625D01*
X+11879400Y-5928563D01*
X+11879400Y-5968249D01*
X+11879400Y-5928563D02*
X+11886455Y-5920625D01*
X+11900566Y-5920625D01*
X+11858233Y-5904750D02*
X+11900566Y-5904750D01*
X+11900566Y-5857126D01*
X+11872344Y-5841251D02*
X+11858233Y-5825377D01*
X+11858233Y-5809502D01*
X+11872344Y-5793627D01*
X+11886455Y-5793627D01*
X+11900566Y-5809502D01*
X+11900566Y-5825377D01*
X+11886455Y-5841251D01*
X+11872344Y-5841251D01*
X+11893511Y-5730128D02*
X+11900566Y-5738066D01*
X+11900566Y-5761878D01*
X+11886455Y-5777752D01*
X+11872344Y-5777752D01*
X+11858233Y-5761878D01*
X+11858233Y-5738066D01*
X+11865289Y-5730128D01*
X+11858233Y-5714253D02*
X+11900566Y-5714253D01*
X+11858233Y-5666629D02*
X+11879400Y-5690441D01*
X+11900566Y-5666629D01*
X+11879400Y-5714253D02*
X+11879400Y-5690441D01*
D29*
X+11811100Y-8604900D02*
X+11988900Y-8604900D01*
X+11988900Y-7411100D01*
X+11811100Y-7411100D01*
X+11811100Y-8604900D01*
D53*
X+11900000Y-7500000D02*
X+11900000Y-7500000D01*
D54*
X+11933071Y-8169442D02*
X+11866930Y-8169442D01*
X+11866930Y-8107435D01*
X+11877953Y-8095033D01*
X+11888977Y-8095033D01*
X+11900000Y-8107435D01*
X+11900000Y-8169442D01*
X+11900000Y-8107435D02*
X+11911024Y-8095033D01*
X+11933071Y-8095033D01*
X+11888977Y-7995821D02*
X+11900000Y-8008223D01*
X+11900000Y-8045427D01*
X+11888977Y-8057829D01*
X+11877953Y-8057829D01*
X+11866930Y-8045427D01*
X+11866930Y-8008223D01*
X+11877953Y-7995821D01*
X+11922048Y-7995821D01*
X+11933071Y-8008223D01*
X+11933071Y-8045427D01*
D29*
X+11307826Y-10901626D02*
X+11485626Y-10901626D01*
X+11485626Y-9707826D01*
X+11307826Y-9707826D01*
X+11307826Y-10901626D01*
D53*
X+11396726Y-9796726D02*
X+11396726Y-9796726D01*
D54*
X+11429797Y-10515774D02*
X+11363656Y-10515774D01*
X+11363656Y-10453767D01*
X+11374679Y-10441365D01*
X+11385703Y-10441365D01*
X+11396726Y-10453767D01*
X+11396726Y-10515774D01*
X+11396726Y-10453767D02*
X+11407750Y-10441365D01*
X+11429797Y-10441365D01*
X+11385703Y-10391759D02*
X+11363656Y-10366956D01*
X+11429797Y-10366956D01*
X+11374679Y-10242941D02*
X+11363656Y-10255343D01*
X+11363656Y-10292547D01*
X+11374679Y-10304949D01*
X+11418774Y-10304949D01*
X+11429797Y-10292547D01*
X+11429797Y-10255343D01*
X+11418774Y-10242941D01*
X+11407750Y-10242941D01*
X+11396726Y-10255343D01*
X+11396726Y-10304949D01*
D29*
X+11076199Y-8904900D02*
X+11253999Y-8904900D01*
X+11253999Y-7711100D01*
X+11076199Y-7711100D01*
X+11076199Y-8904900D01*
D53*
X+11165099Y-7800000D02*
X+11165099Y-7800000D01*
D54*
X+11198170Y-8519048D02*
X+11132029Y-8519048D01*
X+11132029Y-8457041D01*
X+11143052Y-8444639D01*
X+11154076Y-8444639D01*
X+11165099Y-8457041D01*
X+11165099Y-8519048D01*
X+11165099Y-8457041D02*
X+11176123Y-8444639D01*
X+11198170Y-8444639D01*
X+11154076Y-8395033D02*
X+11132029Y-8370230D01*
X+11198170Y-8370230D01*
X+11132029Y-8308223D02*
X+11132029Y-8246215D01*
X+11143052Y-8246215D01*
X+11198170Y-8308223D01*
D29*
X+11811100Y-11388900D02*
X+11988900Y-11388900D01*
X+11988900Y-10195100D01*
X+11811100Y-10195100D01*
X+11811100Y-11388900D01*
D53*
X+11900000Y-11300000D02*
X+11900000Y-11300000D01*
D54*
X+11933071Y-10878588D02*
X+11866930Y-10878588D01*
X+11866930Y-10816581D01*
X+11877953Y-10804179D01*
X+11888977Y-10804179D01*
X+11900000Y-10816581D01*
X+11900000Y-10878588D01*
X+11900000Y-10816581D02*
X+11911024Y-10804179D01*
X+11933071Y-10804179D01*
X+11888977Y-10754573D02*
X+11866930Y-10729770D01*
X+11933071Y-10729770D01*
X+11900000Y-10655361D02*
X+11888977Y-10667763D01*
X+11877953Y-10667763D01*
X+11866930Y-10655361D01*
X+11866930Y-10618157D01*
X+11877953Y-10605755D01*
X+11888977Y-10605755D01*
X+11900000Y-10618157D01*
X+11900000Y-10655361D01*
X+11911024Y-10667763D01*
X+11922048Y-10667763D01*
X+11933071Y-10655361D01*
X+11933071Y-10618157D01*
X+11922048Y-10605755D01*
X+11911024Y-10605755D01*
X+11900000Y-10618157D01*
D29*
X+11611100Y-9788900D02*
X+11788900Y-9788900D01*
X+11788900Y-8595100D01*
X+11611100Y-8595100D01*
X+11611100Y-9788900D01*
D53*
X+11700000Y-9700000D02*
X+11700000Y-9700000D01*
D54*
X+11733071Y-9278588D02*
X+11666930Y-9278588D01*
X+11666930Y-9216581D01*
X+11677953Y-9204179D01*
X+11688977Y-9204179D01*
X+11700000Y-9216581D01*
X+11700000Y-9278588D01*
X+11700000Y-9216581D02*
X+11711024Y-9204179D01*
X+11733071Y-9204179D01*
X+11688977Y-9154573D02*
X+11666930Y-9129770D01*
X+11733071Y-9129770D01*
X+11688977Y-9005755D02*
X+11700000Y-9018157D01*
X+11700000Y-9055361D01*
X+11688977Y-9067763D01*
X+11677953Y-9067763D01*
X+11666930Y-9055361D01*
X+11666930Y-9018157D01*
X+11677953Y-9005755D01*
X+11722048Y-9005755D01*
X+11733071Y-9018157D01*
X+11733071Y-9055361D01*
D29*
X+10341298Y-11220900D02*
X+10519098Y-11220900D01*
X+10519098Y-10027100D01*
X+10341298Y-10027100D01*
X+10341298Y-11220900D01*
D53*
X+10430198Y-10116000D02*
X+10430198Y-10116000D01*
D54*
X+10463269Y-10835048D02*
X+10397128Y-10835048D01*
X+10397128Y-10773041D01*
X+10408151Y-10760639D01*
X+10419175Y-10760639D01*
X+10430198Y-10773041D01*
X+10430198Y-10835048D01*
X+10430198Y-10773041D02*
X+10441222Y-10760639D01*
X+10463269Y-10760639D01*
X+10408151Y-10723435D02*
X+10397128Y-10711033D01*
X+10397128Y-10673829D01*
X+10408151Y-10661427D01*
X+10419175Y-10661427D01*
X+10430198Y-10673829D01*
X+10430198Y-10711033D01*
X+10441222Y-10723435D01*
X+10463269Y-10723435D01*
X+10463269Y-10661427D01*
X+10452246Y-10636624D02*
X+10408151Y-10636624D01*
X+10397128Y-10624223D01*
X+10397128Y-10574617D01*
X+10408151Y-10562215D01*
X+10452246Y-10562215D01*
X+10463269Y-10574617D01*
X+10463269Y-10624223D01*
X+10452246Y-10636624D01*
X+10463269Y-10636624D02*
X+10397128Y-10562215D01*
D29*
X+12235840Y-9764160D02*
X+12637160Y-9764160D01*
X+12637160Y-9235840D01*
X+12235840Y-9235840D01*
X+12235840Y-9764160D01*
D59*
X+12500000Y-9627000D02*
X+12500000Y-9627000D01*
D73*
X+12322200Y-9406020D02*
X+12350775Y-9380620D01*
X+12379350Y-9380620D01*
X+12407925Y-9406020D01*
X+12407925Y-9431420D01*
X+12379350Y-9456820D01*
X+12350775Y-9456820D01*
X+12322200Y-9431420D01*
X+12322200Y-9406020D01*
X+12379350Y-9431420D02*
X+12407925Y-9456820D01*
X+12450787Y-9393320D02*
X+12465075Y-9380620D01*
X+12507937Y-9380620D01*
X+12522225Y-9393320D01*
X+12522225Y-9406020D01*
X+12507937Y-9418720D01*
X+12465075Y-9418720D01*
X+12450787Y-9431420D01*
X+12450787Y-9456820D01*
X+12522225Y-9456820D01*
D29*
X+12245341Y-9143067D02*
X+12646661Y-9143067D01*
X+12646661Y-8614747D01*
X+12245341Y-8614747D01*
X+12245341Y-9143067D01*
D59*
X+12509501Y-9005907D02*
X+12509501Y-9005907D01*
D73*
X+12331701Y-8784927D02*
X+12360276Y-8759527D01*
X+12388851Y-8759527D01*
X+12417426Y-8784927D01*
X+12417426Y-8810327D01*
X+12388851Y-8835727D01*
X+12360276Y-8835727D01*
X+12331701Y-8810327D01*
X+12331701Y-8784927D01*
X+12388851Y-8810327D02*
X+12417426Y-8835727D01*
X+12460288Y-8772227D02*
X+12474576Y-8759527D01*
X+12517438Y-8759527D01*
X+12531726Y-8772227D01*
X+12531726Y-8784927D01*
X+12517438Y-8797627D01*
X+12531726Y-8810327D01*
X+12531726Y-8823027D01*
X+12517438Y-8835727D01*
X+12474576Y-8835727D01*
X+12460288Y-8823027D01*
X+12488863Y-8797627D02*
X+12517438Y-8797627D01*
D29*
X+10635840Y-6937160D02*
X+11164160Y-6937160D01*
X+11164160Y-6535840D01*
X+10635840Y-6535840D01*
X+10635840Y-6937160D01*
D59*
X+10773000Y-6800000D02*
X+10773000Y-6800000D01*
D73*
X+10968580Y-6850800D02*
X+10943180Y-6822225D01*
X+10943180Y-6793650D01*
X+10968580Y-6765075D01*
X+10993980Y-6765075D01*
X+11019380Y-6793650D01*
X+11019380Y-6822225D01*
X+10993980Y-6850800D01*
X+10968580Y-6850800D01*
X+10993980Y-6793650D02*
X+11019380Y-6765075D01*
X+10993980Y-6650775D02*
X+10993980Y-6736500D01*
X+10943180Y-6679350D01*
X+11019380Y-6679350D01*
D29*
X+9011100Y-6788900D02*
X+10204900Y-6788900D01*
X+10204900Y-6611100D01*
X+9011100Y-6611100D01*
X+9011100Y-6788900D01*
D53*
X+9100000Y-6700000D02*
X+9100000Y-6700000D01*
D54*
X+9521412Y-6733071D02*
X+9521412Y-6666930D01*
X+9583419Y-6666930D01*
X+9595821Y-6677953D01*
X+9595821Y-6688977D01*
X+9583419Y-6700000D01*
X+9521412Y-6700000D01*
X+9583419Y-6700000D02*
X+9595821Y-6711024D01*
X+9595821Y-6733071D01*
X+9645427Y-6688977D02*
X+9670230Y-6666930D01*
X+9670230Y-6733071D01*
X+9732237Y-6677953D02*
X+9744639Y-6666930D01*
X+9781843Y-6666930D01*
X+9794245Y-6677953D01*
X+9794245Y-6688977D01*
X+9781843Y-6700000D01*
X+9794245Y-6711024D01*
X+9794245Y-6722048D01*
X+9781843Y-6733071D01*
X+9744639Y-6733071D01*
X+9732237Y-6722048D01*
X+9757040Y-6700000D02*
X+9781843Y-6700000D01*
D29*
X+9411100Y-7188900D02*
X+10604900Y-7188900D01*
X+10604900Y-7011100D01*
X+9411100Y-7011100D01*
X+9411100Y-7188900D01*
D53*
X+9500000Y-7100000D02*
X+9500000Y-7100000D01*
D54*
X+9921412Y-7133071D02*
X+9921412Y-7066930D01*
X+9983419Y-7066930D01*
X+9995821Y-7077953D01*
X+9995821Y-7088977D01*
X+9983419Y-7100000D01*
X+9921412Y-7100000D01*
X+9983419Y-7100000D02*
X+9995821Y-7111024D01*
X+9995821Y-7133071D01*
X+10045427Y-7088977D02*
X+10070230Y-7066930D01*
X+10070230Y-7133071D01*
X+10194245Y-7066930D02*
X+10132237Y-7066930D01*
X+10132237Y-7088977D01*
X+10181843Y-7088977D01*
X+10194245Y-7100000D01*
X+10194245Y-7122048D01*
X+10181843Y-7133071D01*
X+10144639Y-7133071D01*
X+10132237Y-7122048D01*
D29*
X+10511100Y-9404900D02*
X+10688900Y-9404900D01*
X+10688900Y-8211100D01*
X+10511100Y-8211100D01*
X+10511100Y-9404900D01*
D53*
X+10600000Y-8300000D02*
X+10600000Y-8300000D01*
D54*
X+10633071Y-9019048D02*
X+10566930Y-9019048D01*
X+10566930Y-8957041D01*
X+10577953Y-8944639D01*
X+10588977Y-8944639D01*
X+10600000Y-8957041D01*
X+10600000Y-9019048D01*
X+10600000Y-8957041D02*
X+10611024Y-8944639D01*
X+10633071Y-8944639D01*
X+10588977Y-8895033D02*
X+10566930Y-8870230D01*
X+10633071Y-8870230D01*
X+10611024Y-8746215D02*
X+10611024Y-8820624D01*
X+10566930Y-8771018D01*
X+10633071Y-8771018D01*
D29*
X+10711100Y-10588900D02*
X+10888900Y-10588900D01*
X+10888900Y-9395100D01*
X+10711100Y-9395100D01*
X+10711100Y-10588900D01*
D53*
X+10800000Y-10500000D02*
X+10800000Y-10500000D01*
D54*
X+10833071Y-10078588D02*
X+10766930Y-10078588D01*
X+10766930Y-10016581D01*
X+10777953Y-10004179D01*
X+10788977Y-10004179D01*
X+10800000Y-10016581D01*
X+10800000Y-10078588D01*
X+10800000Y-10016581D02*
X+10811024Y-10004179D01*
X+10833071Y-10004179D01*
X+10777953Y-9966975D02*
X+10766930Y-9954573D01*
X+10766930Y-9917369D01*
X+10777953Y-9904967D01*
X+10788977Y-9904967D01*
X+10800000Y-9917369D01*
X+10800000Y-9954573D01*
X+10811024Y-9966975D01*
X+10833071Y-9966975D01*
X+10833071Y-9904967D01*
X+10788977Y-9855361D02*
X+10766930Y-9830558D01*
X+10833071Y-9830558D01*
D29*
X+11011100Y-10804900D02*
X+11188900Y-10804900D01*
X+11188900Y-9611100D01*
X+11011100Y-9611100D01*
X+11011100Y-10804900D01*
D53*
X+11100000Y-9700000D02*
X+11100000Y-9700000D01*
D54*
X+11133071Y-10419048D02*
X+11066930Y-10419048D01*
X+11066930Y-10357041D01*
X+11077953Y-10344639D01*
X+11088977Y-10344639D01*
X+11100000Y-10357041D01*
X+11100000Y-10419048D01*
X+11100000Y-10357041D02*
X+11111024Y-10344639D01*
X+11133071Y-10344639D01*
X+11077953Y-10307435D02*
X+11066930Y-10295033D01*
X+11066930Y-10257829D01*
X+11077953Y-10245427D01*
X+11088977Y-10245427D01*
X+11100000Y-10257829D01*
X+11100000Y-10295033D01*
X+11111024Y-10307435D01*
X+11133071Y-10307435D01*
X+11133071Y-10245427D01*
X+11077953Y-10208223D02*
X+11066930Y-10195821D01*
X+11066930Y-10158617D01*
X+11077953Y-10146215D01*
X+11088977Y-10146215D01*
X+11100000Y-10158617D01*
X+11100000Y-10195821D01*
X+11111024Y-10208223D01*
X+11133071Y-10208223D01*
X+11133071Y-10146215D01*
M02*
