G04 PROTEUS GERBER X2 FILE*
%TF.GenerationSoftware,Labcenter,Proteus,8.13-SP0-Build31525*%
%TF.CreationDate,2025-11-07T22:54:52+00:00*%
%TF.FileFunction,Plated,1,2,PTH*%
%TF.FilePolarity,Positive*%
%TF.Part,Single*%
%TF.SameCoordinates,{597a0788-1f2a-4186-b242-b041fcb5a55c}*%
%FSLAX45Y45*%
%MOMM*%
G01*
%TA.AperFunction,ViaDrill*%
%ADD84C,0.381000*%
%TA.AperFunction,MechanicalDrill*%
%ADD85C,0.381000*%
%TA.AperFunction,ComponentDrill*%
%ADD86C,0.800000*%
%TA.AperFunction,ComponentDrill*%
%ADD87C,1.016000*%
%ADD88C,0.762000*%
%TA.AperFunction,ComponentDrill*%
%ADD89C,1.270000*%
%TA.AperFunction,MechanicalDrill*%
%ADD90C,3.000000*%
%TA.AperFunction,OtherDrill,Unknown*%
%ADD91C,3.000000*%
%TA.AperFunction,ComponentDrill*%
%ADD92C,3.000000*%
%TA.AperFunction,ComponentDrill*%
%ADD93C,0.635000*%
%TD.AperFunction*%
D84*
X+3750000Y+200000D03*
X+4250000Y+200000D03*
X+4700000Y+200000D03*
X+2900000Y-5700000D03*
X+2900000Y-6300000D03*
X+3200000Y-5800000D03*
X+3200000Y-6900000D03*
X+5250000Y+750000D03*
X+4250000Y+1250000D03*
X+3750000Y+750000D03*
X+12200000Y+1000000D03*
X+10976882Y+987953D03*
X+7256314Y-7320626D03*
X+12466839Y-6853448D03*
X+11500000Y-8100000D03*
D85*
X+13053240Y-14861241D03*
X+12799240Y-14861241D03*
X+12545240Y-14861241D03*
X+12291240Y-14861241D03*
X+12037240Y-14861241D03*
X+11783240Y-14861241D03*
X+11529240Y-14861241D03*
X+11275240Y-14861241D03*
X+11021240Y-14861241D03*
X+10767240Y-14861241D03*
X+10513240Y-14861241D03*
X+10259240Y-14861241D03*
X+10005240Y-14861241D03*
X+9751240Y-14861241D03*
X+9497240Y-14861241D03*
X+9243240Y-14861241D03*
X+8989240Y-14861241D03*
X+8735240Y-14861241D03*
X+8481240Y-14861241D03*
X+8227240Y-14861241D03*
X+7973240Y-14861241D03*
X+7719240Y-14861241D03*
X+7465240Y-14861241D03*
X+7211240Y-14861241D03*
X+6957240Y-14861241D03*
X+6703240Y-14861241D03*
X+6449240Y-14861241D03*
X+6195240Y-14861241D03*
X+5941240Y-14861241D03*
X+5687240Y-14861241D03*
X+5433240Y-14861241D03*
X+5179240Y-14861241D03*
X+4925240Y-14861241D03*
X+4671240Y-14861241D03*
X+4417240Y-14861241D03*
X+4163240Y-14861241D03*
X+3909240Y-14861241D03*
X+3655240Y-14861241D03*
X+3401240Y-14861241D03*
X+3147240Y-14861241D03*
X+2893240Y-14861241D03*
X+2639240Y-14861241D03*
X+2385240Y-14861241D03*
X+2131240Y-14861241D03*
X+1877240Y-14861241D03*
X+1623240Y-14861241D03*
X+1369240Y-14861241D03*
X+1115240Y-14861241D03*
X+861240Y-14861241D03*
X+607240Y-14861241D03*
X+353240Y-14861241D03*
X-361240Y-14205316D03*
X-361240Y-13951316D03*
X-361240Y-13697316D03*
X-361240Y-13443316D03*
X-361240Y-13189316D03*
X-361240Y-12935316D03*
X-361240Y-12681316D03*
X-361240Y-12427316D03*
X-361240Y-12173316D03*
X-361240Y-11919316D03*
X-361240Y-11665316D03*
X-361240Y-11411316D03*
X-361240Y-11157316D03*
X-361240Y-10903316D03*
X-361240Y-10649316D03*
X-361240Y-10395316D03*
X-361240Y-10141316D03*
X-361240Y-9887316D03*
X-361240Y-9633316D03*
X-361240Y-9379316D03*
X-361240Y-9125316D03*
X-361240Y-8871316D03*
X-361240Y-8617316D03*
X-361240Y-8363316D03*
X-361240Y-8109316D03*
X-361240Y-7855316D03*
X-361240Y-7601316D03*
X-361240Y-7347316D03*
X-361240Y-7093316D03*
X-361240Y-6839316D03*
X-361240Y-6585316D03*
X-361240Y-6331316D03*
X-361240Y-6077316D03*
X-361240Y-5823316D03*
X-361240Y-5569316D03*
X-361240Y-5315316D03*
X-361240Y-5061316D03*
X-361240Y-4807316D03*
X-361240Y-4553316D03*
X-361240Y-4299316D03*
X-361240Y-4045316D03*
X-361240Y-3791316D03*
X-361240Y-3537316D03*
X-361240Y-3283316D03*
X-361240Y-3029316D03*
X-361240Y-2775316D03*
X-361240Y-2521316D03*
X-361240Y-2267316D03*
X-361240Y-2013316D03*
X-361240Y-1759316D03*
X-361240Y-1505316D03*
X-361240Y-1251316D03*
X-361240Y-997316D03*
X-361240Y-743316D03*
X-361240Y-489316D03*
X-361240Y-235316D03*
X-361240Y+18684D03*
X-361240Y+272684D03*
X-361240Y+526684D03*
X-361240Y+780684D03*
X-361240Y+1034684D03*
X-361240Y+1288684D03*
X+340246Y+1961241D03*
X+594246Y+1961241D03*
X+848246Y+1961241D03*
X+1102246Y+1961241D03*
X+1356246Y+1961241D03*
X+1610246Y+1961241D03*
X+1864246Y+1961241D03*
X+2118246Y+1961241D03*
X+2372246Y+1961241D03*
X+6690246Y+1961241D03*
X+6944246Y+1961241D03*
X+7198246Y+1961241D03*
X+7452246Y+1961241D03*
X+7706246Y+1961241D03*
X+7960246Y+1961241D03*
X+8214246Y+1961241D03*
X+8468246Y+1961241D03*
X+8722246Y+1961241D03*
X+8976246Y+1961241D03*
X+9230246Y+1961241D03*
X+9484246Y+1961241D03*
X+9738246Y+1961241D03*
X+9992246Y+1961241D03*
X+10246246Y+1961241D03*
X+10500246Y+1961241D03*
X+10754246Y+1961241D03*
X+11008246Y+1961241D03*
X+11262246Y+1961241D03*
X+11516246Y+1961241D03*
X+11770246Y+1961241D03*
X+12024246Y+1961241D03*
X+12278246Y+1961241D03*
X+12532246Y+1961241D03*
X+12786246Y+1961241D03*
X+13040246Y+1961241D03*
X+13561240Y+1453574D03*
X+13561240Y+1199574D03*
X+13561240Y-4642426D03*
X+13561240Y-4896426D03*
X+13561240Y-5150426D03*
X+13561240Y-5404426D03*
X+13561240Y-10738426D03*
X+13561240Y-10992426D03*
X+13561240Y-11246426D03*
X+13561240Y-11500426D03*
X+13561240Y-11754426D03*
X+13561240Y-12008426D03*
X+13561240Y-12262426D03*
X+13561240Y-12516426D03*
X+13561240Y-13786426D03*
X+13561240Y-14040426D03*
X+13561240Y-14294426D03*
D84*
X+12315337Y-6129865D03*
X+11876793Y-6762125D03*
X+8754619Y-3160992D03*
X+9079021Y-5763111D03*
X+12051645Y-8225127D03*
D86*
X+8750000Y-1500000D03*
X+9004000Y-1500000D03*
X+9258000Y-1500000D03*
X+9512000Y-1500000D03*
X+9766000Y-1500000D03*
X+10020000Y-1500000D03*
X+10274000Y-1500000D03*
X+10528000Y-1500000D03*
X+10782000Y-1500000D03*
X+11036000Y-1500000D03*
X+11290000Y-1500000D03*
X+11544000Y-1500000D03*
X+11798000Y-1500000D03*
X+12052000Y-1500000D03*
X+12306000Y-1500000D03*
X+12306000Y+24000D03*
X+12052000Y+24000D03*
X+11798000Y+24000D03*
X+11544000Y+24000D03*
X+11290000Y+24000D03*
X+11036000Y+24000D03*
X+10782000Y+24000D03*
X+10528000Y+24000D03*
X+10274000Y+24000D03*
X+10020000Y+24000D03*
X+9766000Y+24000D03*
X+9512000Y+24000D03*
X+9258000Y+24000D03*
X+9004000Y+24000D03*
X+8750000Y+24000D03*
D87*
X+9000000Y-3750000D03*
X+9254000Y-3750000D03*
X+10250000Y-3750000D03*
X+10504000Y-3750000D03*
X+11500000Y-3750000D03*
X+11754000Y-3750000D03*
X+5250000Y+1500000D03*
X+5504000Y+1500000D03*
X+6250000Y+1500000D03*
X+6504000Y+1500000D03*
X+4250000Y+1500000D03*
X+4504000Y+1500000D03*
X+2250000Y+1500000D03*
X+2504000Y+1500000D03*
X+3250000Y+1500000D03*
X+3504000Y+1500000D03*
D88*
X+6500000Y+500000D03*
X+7516000Y+500000D03*
X+3400000Y-100000D03*
X+3400000Y-1116000D03*
X+4600000Y-100000D03*
X+4600000Y-1116000D03*
X+4200000Y-100000D03*
X+4200000Y-1116000D03*
X+3800000Y-100000D03*
X+3800000Y-1116000D03*
D87*
X+12997209Y-3939340D03*
X+12997209Y-4218740D03*
X+12997209Y-4498140D03*
X+12997209Y-4777540D03*
X+12997209Y-5056940D03*
X+13276609Y-4079040D03*
X+13276609Y-4358440D03*
X+13276609Y-4637840D03*
X+13276609Y-4917240D03*
X+3600000Y-3600000D03*
X+3854000Y-3600000D03*
X+4108000Y-3600000D03*
X+4362000Y-3600000D03*
X+4616000Y-3600000D03*
X+4870000Y-3600000D03*
X+7700000Y-8000000D03*
X+7954000Y-8000000D03*
X+9200000Y-8000000D03*
X+9454000Y-8000000D03*
X+8500000Y-9500000D03*
X+8754000Y-9500000D03*
D88*
X+3700000Y-5800000D03*
X+3954000Y-5800000D03*
X+4208000Y-5800000D03*
X+4462000Y-5800000D03*
X+4462000Y-5038000D03*
X+4208000Y-5038000D03*
X+3954000Y-5038000D03*
X+3700000Y-5038000D03*
D89*
X+11875000Y-12425000D03*
X+11875000Y-13175000D03*
X+11875000Y-13925000D03*
X+11625000Y-12675000D03*
X+11625000Y-13675000D03*
X+13375000Y-13425000D03*
X+13375000Y-12925000D03*
D90*
X+12875000Y-13925000D03*
X+12875000Y-12425000D03*
D88*
X+5446000Y-6846000D03*
X+5954000Y-6846000D03*
X+5700000Y-7100000D03*
X+5200000Y-5500000D03*
X+5200000Y-6516000D03*
X+5446000Y-7646000D03*
X+5954000Y-7646000D03*
X+5700000Y-7900000D03*
X+4700000Y-8200000D03*
X+5716000Y-8200000D03*
X+4400000Y-8200000D03*
X+3384000Y-8200000D03*
X+2200000Y-7000000D03*
X+2200000Y-5984000D03*
D87*
X+5400000Y-9300000D03*
X+5654000Y-9300000D03*
X+5908000Y-9300000D03*
D88*
X+3400000Y-5400000D03*
X+3400000Y-5654000D03*
X+9900000Y-12900000D03*
X+9900000Y-11884000D03*
X+8000000Y-8500000D03*
X+7746000Y-8500000D03*
X+8800000Y-10000000D03*
X+8546000Y-10000000D03*
X+9500000Y-8500000D03*
X+9246000Y-8500000D03*
X+12500000Y-8430200D03*
X+12500000Y-8227000D03*
X+12500000Y-8023800D03*
D87*
X+750000Y+750000D03*
X+330000Y+750000D03*
X+750000Y+330000D03*
X+330000Y+330000D03*
X+750000Y-90000D03*
X+330000Y-90000D03*
X+750000Y-510000D03*
X+330000Y-510000D03*
X+750000Y-930000D03*
X+330000Y-930000D03*
X+750000Y-1350000D03*
X+330000Y-1350000D03*
X+750000Y-1770000D03*
X+330000Y-1770000D03*
X+750000Y-2190000D03*
X+330000Y-2190000D03*
X+750000Y-2610000D03*
X+330000Y-2610000D03*
X+750000Y-3030000D03*
X+330000Y-3030000D03*
X+750000Y-3450000D03*
X+330000Y-3450000D03*
X+750000Y-3870006D03*
X+330000Y-3870006D03*
X+1750000Y-2850000D03*
X+1750000Y-2596000D03*
D88*
X+1500000Y-600000D03*
X+1500000Y-346000D03*
X+800000Y-5100000D03*
X+1054000Y-5100000D03*
X+1700000Y-4550000D03*
X+1700000Y-4296000D03*
X+100000Y-5100000D03*
X+354000Y-5100000D03*
D87*
X+10500000Y+1250000D03*
X+10246000Y+1250000D03*
X+9992000Y+1250000D03*
D91*
X-200000Y+1800000D03*
X+13400000Y+1800000D03*
X+13400000Y-14700000D03*
X-200000Y-14700000D03*
D87*
X+6700000Y-400000D03*
X+6954000Y-400000D03*
X+7208000Y-400000D03*
X+7462000Y-400000D03*
X+2100000Y-400000D03*
X+2100000Y-654000D03*
X+2100000Y-908000D03*
D88*
X+12973000Y-7193420D03*
X+12973000Y-7470280D03*
X+12973000Y-7744600D03*
X+12973000Y-8021460D03*
X+12973000Y-8298320D03*
X+12973000Y-8572640D03*
X+12973000Y-8849500D03*
X+12973000Y-9126360D03*
X+12973000Y-9400680D03*
X+12973000Y-9677540D03*
X+12973000Y-9954400D03*
X+12973000Y-10228720D03*
X+12973000Y-10505580D03*
X+13227000Y-7330580D03*
X+13227000Y-7607440D03*
X+13227000Y-7881760D03*
X+13227000Y-8158620D03*
X+13227000Y-8435480D03*
X+13227000Y-8709800D03*
X+13227000Y-8986660D03*
X+13227000Y-9263520D03*
X+13227000Y-9537840D03*
X+13227000Y-9814700D03*
X+13227000Y-10091560D03*
X+13227000Y-10365880D03*
D92*
X+13100000Y-6500000D03*
X+13100000Y-11199000D03*
D87*
X+11600000Y-6000000D03*
X+11854000Y-6000000D03*
D88*
X+11900000Y-7500000D03*
X+11900000Y-8516000D03*
X+11396726Y-9796726D03*
X+11396726Y-10812726D03*
X+11165099Y-7800000D03*
X+11165099Y-8816000D03*
X+11900000Y-11300000D03*
X+11900000Y-10284000D03*
X+11700000Y-9700000D03*
X+11700000Y-8684000D03*
X+11234901Y-10100000D03*
X+11234901Y-9084000D03*
X+12500000Y-9303200D03*
X+12500000Y-9100000D03*
X+12500000Y-8896800D03*
X+12509501Y-10182107D03*
X+12509501Y-9978907D03*
X+12509501Y-9775707D03*
D93*
X+10773000Y-6800000D03*
X+10900000Y-6673000D03*
X+11027000Y-6800000D03*
D88*
X+9100000Y-6700000D03*
X+10116000Y-6700000D03*
X+9500000Y-7100000D03*
X+10516000Y-7100000D03*
M02*
