G04 PROTEUS GERBER X2 FILE*
%TF.GenerationSoftware,Labcenter,Proteus,8.13-SP0-Build31525*%
%TF.CreationDate,2025-11-15T10:39:54+00:00*%
%TF.FileFunction,Copper,L1,Top*%
%TF.FilePolarity,Positive*%
%TF.Part,Single*%
%TF.SameCoordinates,{dc143066-6f1e-46d0-8819-130f02736a5f}*%
%FSLAX45Y45*%
%MOMM*%
G01*
%TA.AperFunction,Conductor*%
%ADD10C,1.016000*%
%ADD11C,1.270000*%
%ADD12C,0.762000*%
%ADD13C,0.508000*%
%ADD14C,0.254000*%
%TA.AperFunction,ViaPad*%
%ADD15C,0.762000*%
%TA.AperFunction,WasherPad*%
%ADD16C,1.016000*%
%AMDIL007*
4,1,8,
-0.860000,1.195200,-0.555200,1.500000,0.555200,1.500000,0.860000,1.195200,0.860000,-1.195200,
0.555200,-1.500000,-0.555200,-1.500000,-0.860000,-1.195200,-0.860000,1.195200,
0*%
%TA.AperFunction,ComponentPad*%
%ADD17DIL007*%
%TA.AperFunction,ComponentPad*%
%ADD18C,2.032000*%
%ADD19C,1.778000*%
%TA.AperFunction,ComponentPad*%
%ADD70C,1.574800*%
%ADD71C,1.524000*%
%TA.AperFunction,ComponentPad*%
%ADD20R,1.270000X1.270000*%
%ADD21C,1.270000*%
%TA.AperFunction,ComponentPad*%
%ADD22C,2.540000*%
%TA.AperFunction,ComponentPad*%
%ADD23C,2.286000*%
%TA.AperFunction,OtherPad,Unknown*%
%ADD24C,4.572000*%
%TA.AperFunction,ComponentPad*%
%ADD25R,1.778000X1.778000*%
%ADD26C,6.350000*%
%TA.AperFunction,SMDPad,CuDef*%
%ADD27C,0.750000*%
%TA.AperFunction,Profile*%
%ADD28C,0.203200*%
%TD.AperFunction*%
G36*
X+13116649Y+2001581D02*
X+13074439Y+2043791D01*
X+13006053Y+2043791D01*
X+12957696Y+1995434D01*
X+12957696Y+1927048D01*
X+13006053Y+1878691D01*
X+13057101Y+1878691D01*
X+13057101Y+1657967D01*
X+13257967Y+1457101D01*
X+13478690Y+1457101D01*
X+13478690Y+1419381D01*
X+13527047Y+1371024D01*
X+13595433Y+1371024D01*
X+13643790Y+1419381D01*
X+13643790Y+1487767D01*
X+13608244Y+1523312D01*
X+13688240Y+1603308D01*
X+13688240Y-1294451D01*
X+13554090Y-1160301D01*
X+13474977Y-1160301D01*
X+13462877Y-1148201D01*
X+13445765Y-1148201D01*
X+13057865Y-760301D01*
X+12170881Y-760301D01*
X+11683699Y-273119D01*
X+11683699Y-240299D01*
X+12506299Y-240299D01*
X+12506299Y+288299D01*
X+10439099Y+288299D01*
X+10439099Y+337764D01*
X+9899133Y+936600D01*
X+9835060Y+965099D01*
X+7331615Y+965099D01*
X+6534901Y+168385D01*
X+6534901Y-259772D01*
X+6484101Y-310572D01*
X+6484101Y-382415D01*
X+3942901Y-2923615D01*
X+3942901Y-3384101D01*
X+3764572Y-3384101D01*
X+3727000Y-3421673D01*
X+3689428Y-3384101D01*
X+3510572Y-3384101D01*
X+3434372Y-3460301D01*
X+3274977Y-3460301D01*
X+3262877Y-3448201D01*
X+3137123Y-3448201D01*
X+3048201Y-3537123D01*
X+3048201Y-3662877D01*
X+3137123Y-3751799D01*
X+3262877Y-3751799D01*
X+3274977Y-3739699D01*
X+3434372Y-3739699D01*
X+3510572Y-3815899D01*
X+3689428Y-3815899D01*
X+3727000Y-3778327D01*
X+3764572Y-3815899D01*
X+3943428Y-3815899D01*
X+3981000Y-3778327D01*
X+4018572Y-3815899D01*
X+4197428Y-3815899D01*
X+4235000Y-3778327D01*
X+4272572Y-3815899D01*
X+4450934Y-3815899D01*
X+4450934Y-3844503D01*
X+4406033Y-3889404D01*
X+3232558Y-3889404D01*
X+2891921Y-3548767D01*
X+2891921Y-995316D01*
X+2690303Y-793699D01*
X+2779023Y-793699D01*
X+2837123Y-851799D01*
X+2962877Y-851799D01*
X+3051799Y-762877D01*
X+3051799Y-637123D01*
X+2962877Y-548201D01*
X+2945765Y-548201D01*
X+2911865Y-514301D01*
X+2669099Y-514301D01*
X+2669099Y+948201D01*
X+2762877Y+948201D01*
X+2851799Y+1037123D01*
X+2851799Y+1162877D01*
X+2830062Y+1184614D01*
X+2830062Y+1371502D01*
X+2719899Y+1481665D01*
X+2719899Y+1589428D01*
X+2593428Y+1715899D01*
X+2414572Y+1715899D01*
X+2377000Y+1678327D01*
X+2339428Y+1715899D01*
X+2160572Y+1715899D01*
X+2034101Y+1589428D01*
X+2034101Y+1410572D01*
X+2160572Y+1284101D01*
X+2338901Y+1284101D01*
X+2338901Y-398735D01*
X+2315899Y-421737D01*
X+2315899Y-310572D01*
X+2189428Y-184101D01*
X+2117585Y-184101D01*
X+2114385Y-180901D01*
X+1834623Y-180901D01*
X+1852398Y-163126D01*
X+1852398Y-36874D01*
X+1763126Y+52398D01*
X+1665099Y+52398D01*
X+1665099Y+650656D01*
X+1107431Y+1208324D01*
X+554840Y+1208324D01*
X+325115Y+978599D01*
X+235311Y+978599D01*
X+101401Y+844689D01*
X+101401Y+655311D01*
X+216712Y+540000D01*
X+101401Y+424689D01*
X+101401Y+235311D01*
X+216712Y+120000D01*
X+101401Y+4689D01*
X+101401Y-184689D01*
X+216712Y-300000D01*
X+101401Y-415311D01*
X+101401Y-604689D01*
X+216712Y-720000D01*
X+101401Y-835311D01*
X+101401Y-1024689D01*
X+216712Y-1140000D01*
X+101401Y-1255311D01*
X+101401Y-1444689D01*
X+216712Y-1560000D01*
X+101401Y-1675311D01*
X+101401Y-1864689D01*
X+216712Y-1980000D01*
X+101401Y-2095311D01*
X+101401Y-2284689D01*
X+216712Y-2400000D01*
X+101401Y-2515311D01*
X+101401Y-2704689D01*
X+216712Y-2820000D01*
X+101401Y-2935311D01*
X+101401Y-3124689D01*
X+216712Y-3240000D01*
X+101401Y-3355311D01*
X+101401Y-3544689D01*
X+216715Y-3660003D01*
X+101401Y-3775317D01*
X+101401Y-3964695D01*
X+235311Y-4098605D01*
X+424689Y-4098605D01*
X+540000Y-3983294D01*
X+655311Y-4098605D01*
X+844689Y-4098605D01*
X+934901Y-4008393D01*
X+934901Y-4931732D01*
X+927000Y-4939633D01*
X+884168Y-4896801D01*
X+715832Y-4896801D01*
X+596801Y-5015832D01*
X+596801Y-5184168D01*
X+715832Y-5303199D01*
X+884168Y-5303199D01*
X+901601Y-5285766D01*
X+901601Y-5317125D01*
X+1036874Y-5452398D01*
X+1163126Y-5452398D01*
X+1252398Y-5363126D01*
X+1252398Y-5236874D01*
X+1228446Y-5212922D01*
X+1257199Y-5184168D01*
X+1257199Y-5058860D01*
X+1265099Y-5036150D01*
X+1265099Y-4952399D01*
X+2414116Y-4952399D01*
X+2384901Y-4981615D01*
X+2034901Y-5331615D01*
X+2034901Y-5861732D01*
X+1996801Y-5899832D01*
X+1996801Y-6068168D01*
X+2115832Y-6187199D01*
X+2284168Y-6187199D01*
X+2403199Y-6068168D01*
X+2403199Y-5899832D01*
X+2365099Y-5861732D01*
X+2365099Y-5468385D01*
X+2618385Y-5215099D01*
X+3297534Y-5215099D01*
X+3277732Y-5234901D01*
X+2731615Y-5234901D01*
X+2534901Y-5431615D01*
X+2534901Y-6031615D01*
X+2231615Y-6334901D01*
X+1424022Y-6334901D01*
X+392320Y-5303199D01*
X+438168Y-5303199D01*
X+557199Y-5184168D01*
X+557199Y-5015832D01*
X+438168Y-4896801D01*
X+269832Y-4896801D01*
X+227000Y-4939633D01*
X+184168Y-4896801D01*
X+15832Y-4896801D01*
X-34968Y-4947601D01*
X-263126Y-4947601D01*
X-310669Y-4995144D01*
X-327047Y-4978766D01*
X-395433Y-4978766D01*
X-443790Y-5027123D01*
X-443790Y-5095509D01*
X-395433Y-5143866D01*
X-352399Y-5143866D01*
X-352399Y-5163126D01*
X-263126Y-5252399D01*
X-65099Y-5252399D01*
X-65099Y-5312748D01*
X+1287252Y-6665099D01*
X+2368385Y-6665099D01*
X+2734901Y-6298583D01*
X+2734901Y-6368386D01*
X+2831614Y-6465099D01*
X+2968386Y-6465099D01*
X+3034901Y-6398584D01*
X+3034901Y-6968386D01*
X+3131614Y-7065099D01*
X+3268386Y-7065099D01*
X+3365099Y-6968386D01*
X+3365099Y-5857199D01*
X+3484168Y-5857199D01*
X+3522201Y-5819166D01*
X+3522201Y-5977799D01*
X+3534901Y-5977799D01*
X+3534901Y-6768385D01*
X+4231615Y-7465099D01*
X+4601417Y-7465099D01*
X+4234901Y-7831615D01*
X+4234901Y-8077732D01*
X+4196801Y-8115832D01*
X+4196801Y-8284168D01*
X+4315832Y-8403199D01*
X+4484168Y-8403199D01*
X+4550000Y-8337367D01*
X+4615832Y-8403199D01*
X+4784168Y-8403199D01*
X+4903199Y-8284168D01*
X+4903199Y-8115832D01*
X+4784168Y-7996801D01*
X+4615832Y-7996801D01*
X+4565099Y-8047534D01*
X+4565099Y-7968385D01*
X+5050000Y-7483484D01*
X+5230101Y-7663585D01*
X+5230101Y-7735428D01*
X+5356572Y-7861899D01*
X+5484101Y-7861899D01*
X+5484101Y-7989428D01*
X+5561653Y-8066980D01*
X+5512801Y-8115832D01*
X+5512801Y-8284168D01*
X+5631832Y-8403199D01*
X+5800168Y-8403199D01*
X+5919199Y-8284168D01*
X+5919199Y-8115832D01*
X+5854347Y-8050980D01*
X+5915899Y-7989428D01*
X+5915899Y-7861899D01*
X+6043428Y-7861899D01*
X+6169899Y-7735428D01*
X+6169899Y-7556572D01*
X+6043428Y-7430101D01*
X+5864572Y-7430101D01*
X+5738101Y-7556572D01*
X+5738101Y-7684101D01*
X+5661899Y-7684101D01*
X+5661899Y-7556572D01*
X+5535428Y-7430101D01*
X+5463585Y-7430101D01*
X+5298583Y-7265099D01*
X+5559772Y-7265099D01*
X+5610572Y-7315899D01*
X+5789428Y-7315899D01*
X+5915899Y-7189428D01*
X+5915899Y-7061899D01*
X+6043428Y-7061899D01*
X+6169899Y-6935428D01*
X+6169899Y-6756572D01*
X+6043428Y-6630101D01*
X+5864572Y-6630101D01*
X+5738101Y-6756572D01*
X+5738101Y-6884101D01*
X+5661899Y-6884101D01*
X+5661899Y-6756572D01*
X+5586335Y-6681008D01*
X+5582145Y-6664661D01*
X+5403199Y-6485715D01*
X+5403199Y-6431832D01*
X+5284168Y-6312801D01*
X+5115832Y-6312801D01*
X+4996801Y-6431832D01*
X+4996801Y-6600168D01*
X+5115832Y-6719199D01*
X+5169715Y-6719199D01*
X+5230101Y-6779585D01*
X+5230101Y-6934901D01*
X+4476385Y-6934901D01*
X+4373099Y-6831615D01*
X+4373099Y-5962545D01*
X+4388353Y-5977799D01*
X+4535647Y-5977799D01*
X+4639799Y-5873647D01*
X+4639799Y-5726353D01*
X+4535647Y-5622201D01*
X+4517685Y-5622201D01*
X+4330385Y-5434901D01*
X+3952583Y-5434901D01*
X+4119099Y-5268385D01*
X+4119099Y-5200545D01*
X+4134353Y-5215799D01*
X+4281647Y-5215799D01*
X+4335000Y-5162446D01*
X+4388353Y-5215799D01*
X+4535647Y-5215799D01*
X+4608981Y-5142465D01*
X+4996801Y-5530285D01*
X+4996801Y-5584168D01*
X+5115832Y-5703199D01*
X+5284168Y-5703199D01*
X+5403199Y-5584168D01*
X+5403199Y-5577799D01*
X+6080355Y-5577799D01*
X+7776201Y-7273645D01*
X+7776201Y-7784101D01*
X+7610572Y-7784101D01*
X+7484101Y-7910572D01*
X+7484101Y-8089428D01*
X+7610572Y-8215899D01*
X+7788901Y-8215899D01*
X+7788901Y-8296801D01*
X+7661832Y-8296801D01*
X+7542801Y-8415832D01*
X+7542801Y-8584168D01*
X+7661832Y-8703199D01*
X+7830168Y-8703199D01*
X+7873000Y-8660367D01*
X+7915832Y-8703199D01*
X+7951755Y-8703199D01*
X+8532657Y-9284101D01*
X+8410572Y-9284101D01*
X+8284101Y-9410572D01*
X+8284101Y-9589428D01*
X+8410572Y-9715899D01*
X+8576201Y-9715899D01*
X+8576201Y-9796801D01*
X+8461832Y-9796801D01*
X+8342801Y-9915832D01*
X+8342801Y-10084168D01*
X+8461832Y-10203199D01*
X+8630168Y-10203199D01*
X+8673000Y-10160367D01*
X+8715832Y-10203199D01*
X+8884168Y-10203199D01*
X+9003199Y-10084168D01*
X+9003199Y-9915832D01*
X+8931799Y-9844432D01*
X+8931799Y-9627528D01*
X+8969899Y-9589428D01*
X+8969899Y-9431799D01*
X+9319645Y-9431799D01*
X+9660301Y-9091143D01*
X+9660301Y-9142135D01*
X+9429603Y-9372833D01*
X+9429603Y-13592211D01*
X+9872342Y-14034950D01*
X+10562614Y-14034950D01*
X+10570915Y-14026649D01*
X+11470915Y-14026649D01*
X+11581265Y-13916299D01*
X+11633701Y-13916299D01*
X+11633701Y-14024949D01*
X+11775051Y-14166299D01*
X+11974949Y-14166299D01*
X+12116299Y-14024949D01*
X+12116299Y-13825051D01*
X+11974949Y-13683701D01*
X+11866299Y-13683701D01*
X+11866299Y-13575051D01*
X+11724949Y-13433701D01*
X+11525051Y-13433701D01*
X+11398451Y-13560301D01*
X+10774977Y-13560301D01*
X+10762877Y-13548201D01*
X+10637123Y-13548201D01*
X+10548201Y-13637123D01*
X+10548201Y-13747251D01*
X+10455185Y-13747251D01*
X+10446884Y-13755552D01*
X+9988072Y-13755552D01*
X+9709001Y-13476481D01*
X+9709001Y-12996368D01*
X+9760301Y-13047668D01*
X+9760301Y-13125023D01*
X+9748201Y-13137123D01*
X+9748201Y-13262877D01*
X+9837123Y-13351799D01*
X+9962877Y-13351799D01*
X+10051799Y-13262877D01*
X+10051799Y-13137123D01*
X+10039699Y-13125023D01*
X+10039699Y-13047668D01*
X+10103199Y-12984168D01*
X+10103199Y-12815832D01*
X+9984168Y-12696801D01*
X+9815832Y-12696801D01*
X+9709001Y-12803632D01*
X+9709001Y-11980368D01*
X+9815832Y-12087199D01*
X+9984168Y-12087199D01*
X+10103199Y-11968168D01*
X+10103199Y-11799832D01*
X+9984168Y-11680801D01*
X+9815832Y-11680801D01*
X+9709001Y-11787632D01*
X+9709001Y-9488563D01*
X+9939699Y-9257865D01*
X+9939699Y-8782327D01*
X+10152567Y-8569459D01*
X+10152567Y-7555003D01*
X+10123446Y-7525882D01*
X+10499176Y-7525882D01*
X+10282923Y-7742135D01*
X+10282923Y-8600383D01*
X+10076171Y-8807135D01*
X+10076171Y-11362174D01*
X+10076133Y-11362212D01*
X+10076133Y-11477942D01*
X+10692447Y-12094256D01*
X+11803308Y-12094256D01*
X+12039699Y-11857865D01*
X+12039699Y-11447668D01*
X+12103199Y-11384168D01*
X+12103199Y-11215832D01*
X+11984168Y-11096801D01*
X+11815832Y-11096801D01*
X+11696801Y-11215832D01*
X+11696801Y-11384168D01*
X+11760301Y-11447668D01*
X+11760301Y-11742135D01*
X+11687578Y-11814858D01*
X+10808177Y-11814858D01*
X+10355569Y-11362250D01*
X+10355569Y-11335199D01*
X+10514366Y-11335199D01*
X+10633397Y-11216168D01*
X+10633397Y-11047832D01*
X+10514366Y-10928801D01*
X+10355569Y-10928801D01*
X+10355569Y-10319199D01*
X+10514366Y-10319199D01*
X+10574960Y-10258605D01*
X+10673050Y-10258605D01*
X+11028456Y-9903199D01*
X+11184168Y-9903199D01*
X+11200000Y-9887367D01*
X+11312558Y-9999925D01*
X+11480894Y-9999925D01*
X+11596726Y-9884093D01*
X+11615832Y-9903199D01*
X+11784168Y-9903199D01*
X+11903199Y-9784168D01*
X+11903199Y-9615832D01*
X+11784168Y-9496801D01*
X+11755988Y-9496801D01*
X+11756997Y-9495792D01*
X+12195201Y-9495792D01*
X+12195201Y-9573647D01*
X+12299353Y-9677799D01*
X+12322201Y-9677799D01*
X+12322201Y-9700647D01*
X+12426353Y-9804799D01*
X+12524058Y-9804799D01*
X+12524058Y-10335070D01*
X+12769801Y-10580813D01*
X+12769801Y-10708779D01*
X+13176199Y-10708779D01*
X+13176199Y-10569079D01*
X+13430199Y-10569079D01*
X+13430199Y-7127381D01*
X+13176199Y-7127381D01*
X+13176199Y-6990221D01*
X+12787643Y-6990221D01*
X+12787643Y-6798299D01*
X+12921143Y-6931799D01*
X+13278857Y-6931799D01*
X+13531799Y-6678857D01*
X+13531799Y-6321143D01*
X+13278857Y-6068201D01*
X+12921143Y-6068201D01*
X+12668201Y-6321143D01*
X+12668201Y-6616637D01*
X+12333828Y-6282264D01*
X+12378463Y-6282264D01*
X+12467736Y-6192991D01*
X+12467736Y-6066739D01*
X+12378463Y-5977466D01*
X+12375030Y-5977466D01*
X+11893699Y-5496135D01*
X+11893699Y-3915628D01*
X+11969899Y-3839428D01*
X+11969899Y-3660572D01*
X+11843428Y-3534101D01*
X+11664572Y-3534101D01*
X+11627000Y-3571673D01*
X+11589428Y-3534101D01*
X+11410572Y-3534101D01*
X+11284101Y-3660572D01*
X+11284101Y-3839428D01*
X+11410572Y-3965899D01*
X+11589428Y-3965899D01*
X+11614301Y-3941026D01*
X+11614301Y-3988135D01*
X+11554235Y-4048201D01*
X+11537123Y-4048201D01*
X+11448201Y-4137123D01*
X+11448201Y-4262877D01*
X+11537123Y-4351799D01*
X+11614301Y-4351799D01*
X+11614301Y-5611865D01*
X+11786537Y-5784101D01*
X+11764572Y-5784101D01*
X+11727000Y-5821673D01*
X+11689428Y-5784101D01*
X+11510572Y-5784101D01*
X+11384101Y-5910572D01*
X+11384101Y-6089428D01*
X+11510572Y-6215899D01*
X+11567537Y-6215899D01*
X+11573128Y-6221490D01*
X+11430876Y-6221490D01*
X+11226775Y-6017389D01*
X+11226775Y-4275211D01*
X+10903363Y-3951799D01*
X+10962877Y-3951799D01*
X+11051799Y-3862877D01*
X+11051799Y-3737123D01*
X+10962877Y-3648201D01*
X+10945765Y-3648201D01*
X+10907865Y-3610301D01*
X+10669628Y-3610301D01*
X+10593428Y-3534101D01*
X+10414572Y-3534101D01*
X+10377000Y-3571673D01*
X+10339428Y-3534101D01*
X+10160572Y-3534101D01*
X+10034101Y-3660572D01*
X+10034101Y-3839428D01*
X+10160572Y-3965899D01*
X+10339428Y-3965899D01*
X+10377000Y-3928327D01*
X+10414572Y-3965899D01*
X+10522335Y-3965899D01*
X+10947377Y-4390941D01*
X+10947377Y-6091507D01*
X+9393699Y-4537829D01*
X+9393699Y-3915628D01*
X+9419628Y-3889699D01*
X+9475023Y-3889699D01*
X+9537123Y-3951799D01*
X+9662877Y-3951799D01*
X+9751799Y-3862877D01*
X+9751799Y-3737123D01*
X+9662877Y-3648201D01*
X+9645765Y-3648201D01*
X+9607865Y-3610301D01*
X+9419628Y-3610301D01*
X+9343428Y-3534101D01*
X+9164572Y-3534101D01*
X+9127000Y-3571673D01*
X+9089428Y-3534101D01*
X+8910572Y-3534101D01*
X+8894318Y-3550355D01*
X+8894318Y-3236818D01*
X+8907018Y-3224118D01*
X+8907018Y-3097866D01*
X+8817745Y-3008593D01*
X+8691493Y-3008593D01*
X+8602220Y-3097866D01*
X+8602220Y-3224118D01*
X+8614920Y-3236818D01*
X+8614920Y-5496574D01*
X+8926622Y-5808276D01*
X+8926622Y-5826237D01*
X+9015895Y-5915510D01*
X+9142147Y-5915510D01*
X+9231420Y-5826237D01*
X+9231420Y-5699985D01*
X+9142147Y-5610712D01*
X+9124186Y-5610712D01*
X+8894318Y-5380844D01*
X+8894318Y-3949645D01*
X+8910572Y-3965899D01*
X+9089428Y-3965899D01*
X+9114301Y-3941026D01*
X+9114301Y-4653559D01*
X+10955943Y-6495201D01*
X+10826353Y-6495201D01*
X+10803642Y-6517912D01*
X+10656175Y-6517912D01*
X+10613786Y-6560301D01*
X+10263668Y-6560301D01*
X+10200168Y-6496801D01*
X+10031832Y-6496801D01*
X+9912801Y-6615832D01*
X+9912801Y-6727671D01*
X+9303199Y-6727671D01*
X+9303199Y-6615832D01*
X+9184168Y-6496801D01*
X+9015832Y-6496801D01*
X+8896801Y-6615832D01*
X+8896801Y-6727671D01*
X+8582744Y-6727671D01*
X+6028634Y-4173561D01*
X+4588844Y-4173561D01*
X+4781132Y-3981273D01*
X+4781132Y-3815899D01*
X+4959428Y-3815899D01*
X+5085899Y-3689428D01*
X+5085899Y-3510572D01*
X+4959428Y-3384101D01*
X+4780572Y-3384101D01*
X+4743000Y-3421673D01*
X+4705428Y-3384101D01*
X+4527099Y-3384101D01*
X+4527099Y-3180773D01*
X+6972788Y-735084D01*
X+7130358Y-892654D01*
X+7787619Y-892654D01*
X+8002755Y-677518D01*
X+10403958Y-677518D01*
X+10693099Y-388377D01*
X+10693099Y-240299D01*
X+11404301Y-240299D01*
X+11404301Y-388849D01*
X+12055151Y-1039699D01*
X+12942135Y-1039699D01*
X+13248201Y-1345765D01*
X+13248201Y-1362877D01*
X+13337123Y-1451799D01*
X+13450460Y-1451799D01*
X+13499595Y-1500934D01*
X+13499595Y-4417972D01*
X+13419426Y-4498141D01*
X+13409908Y-4498141D01*
X+13409907Y-4498140D01*
X+13469648Y-4438399D01*
X+13469648Y-4278481D01*
X+13409907Y-4218740D01*
X+13469648Y-4158999D01*
X+13469648Y-3999081D01*
X+13356568Y-3886001D01*
X+13196650Y-3886001D01*
X+13190248Y-3892403D01*
X+13190248Y-3859381D01*
X+13077168Y-3746301D01*
X+12917250Y-3746301D01*
X+12804170Y-3859381D01*
X+12804170Y-4019299D01*
X+12863911Y-4079040D01*
X+12804170Y-4138781D01*
X+12804170Y-4298699D01*
X+12863911Y-4358440D01*
X+12804170Y-4418181D01*
X+12804170Y-4578099D01*
X+12863911Y-4637840D01*
X+12804170Y-4697581D01*
X+12804170Y-4857499D01*
X+12863911Y-4917240D01*
X+12804170Y-4976981D01*
X+12804170Y-5136899D01*
X+12827572Y-5160301D01*
X+12784145Y-5160301D01*
X+12533175Y-5411271D01*
X+12469717Y-5411271D01*
X+12376842Y-5318396D01*
X+12376842Y-2720722D01*
X+13045765Y-2051799D01*
X+13062877Y-2051799D01*
X+13151799Y-1962877D01*
X+13151799Y-1837123D01*
X+13062877Y-1748201D01*
X+12937123Y-1748201D01*
X+12848201Y-1837123D01*
X+12848201Y-1854235D01*
X+12097444Y-2604992D01*
X+12097444Y-2619950D01*
X+11937699Y-2460205D01*
X+11937699Y-1764299D01*
X+12506299Y-1764299D01*
X+12506299Y-1235701D01*
X+8549701Y-1235701D01*
X+8549701Y-1764299D01*
X+11658301Y-1764299D01*
X+11658301Y-2575935D01*
X+12097444Y-3015078D01*
X+12097444Y-5434126D01*
X+12353987Y-5690669D01*
X+12648905Y-5690669D01*
X+12899875Y-5439699D01*
X+13157865Y-5439699D01*
X+13416308Y-5181256D01*
X+13416308Y-5050539D01*
X+13469648Y-4997199D01*
X+13469648Y-4837281D01*
X+13409907Y-4777540D01*
X+13409908Y-4777539D01*
X+13535156Y-4777539D01*
X+13688240Y-4624455D01*
X+13688240Y-14503308D01*
X+13561908Y-14376976D01*
X+13595433Y-14376976D01*
X+13643790Y-14328619D01*
X+13643790Y-14260233D01*
X+13595433Y-14211876D01*
X+13527047Y-14211876D01*
X+13478690Y-14260233D01*
X+13478690Y-14328619D01*
X+13507172Y-14357101D01*
X+13257967Y-14357101D01*
X+13057101Y-14557967D01*
X+13057101Y-14778691D01*
X+13019047Y-14778691D01*
X+12970690Y-14827048D01*
X+12970690Y-14895434D01*
X+13019047Y-14943791D01*
X+13087433Y-14943791D01*
X+13123146Y-14908078D01*
X+13203308Y-14988240D01*
X-3308Y-14988240D01*
X+142899Y-14842033D01*
X+142899Y-14557967D01*
X-57967Y-14357101D01*
X-342033Y-14357101D01*
X-488240Y-14503308D01*
X-488240Y+1603308D01*
X-342033Y+1457101D01*
X-57967Y+1457101D01*
X+142899Y+1657967D01*
X+142899Y+1942033D01*
X-3308Y+2088240D01*
X+13203308Y+2088240D01*
X+13116649Y+2001581D01*
G37*
%LPC*%
G36*
X+5719899Y+1589428D02*
X+5719899Y+1410572D01*
X+5643699Y+1334372D01*
X+5643699Y+1253865D01*
X+5645765Y+1251799D01*
X+5662877Y+1251799D01*
X+5751799Y+1162877D01*
X+5751799Y+1037123D01*
X+5662877Y+948201D01*
X+5537123Y+948201D01*
X+5448201Y+1037123D01*
X+5448201Y+1054235D01*
X+5364301Y+1138135D01*
X+5364301Y+1308974D01*
X+5339428Y+1284101D01*
X+5160572Y+1284101D01*
X+5034101Y+1410572D01*
X+5034101Y+1589428D01*
X+5160572Y+1715899D01*
X+5339428Y+1715899D01*
X+5377000Y+1678327D01*
X+5414572Y+1715899D01*
X+5593428Y+1715899D01*
X+5719899Y+1589428D01*
G37*
G36*
X+6719899Y+1589428D02*
X+6719899Y+1410572D01*
X+6643699Y+1334372D01*
X+6643699Y+1253865D01*
X+6645765Y+1251799D01*
X+6662877Y+1251799D01*
X+6751799Y+1162877D01*
X+6751799Y+1037123D01*
X+6662877Y+948201D01*
X+6537123Y+948201D01*
X+6448201Y+1037123D01*
X+6448201Y+1054235D01*
X+6364301Y+1138135D01*
X+6364301Y+1308974D01*
X+6339428Y+1284101D01*
X+6160572Y+1284101D01*
X+6034101Y+1410572D01*
X+6034101Y+1589428D01*
X+6160572Y+1715899D01*
X+6339428Y+1715899D01*
X+6377000Y+1678327D01*
X+6414572Y+1715899D01*
X+6593428Y+1715899D01*
X+6719899Y+1589428D01*
G37*
G36*
X+4719899Y+1589428D02*
X+4719899Y+1410572D01*
X+4643699Y+1334372D01*
X+4643699Y+1253865D01*
X+4645765Y+1251799D01*
X+4662877Y+1251799D01*
X+4751799Y+1162877D01*
X+4751799Y+1037123D01*
X+4662877Y+948201D01*
X+4537123Y+948201D01*
X+4448201Y+1037123D01*
X+4448201Y+1054235D01*
X+4415099Y+1087337D01*
X+4415099Y+131614D01*
X+4335426Y+51941D01*
X+4400000Y-12633D01*
X+4515832Y+103199D01*
X+4563317Y+103199D01*
X+4534902Y+131614D01*
X+4534902Y+268386D01*
X+5181614Y+915098D01*
X+5318386Y+915098D01*
X+5415098Y+818386D01*
X+5415098Y+681614D01*
X+4768386Y+34902D01*
X+4752465Y+34902D01*
X+4803199Y-15832D01*
X+4803199Y-184168D01*
X+4684168Y-303199D01*
X+4515832Y-303199D01*
X+4400000Y-187367D01*
X+4284168Y-303199D01*
X+4115832Y-303199D01*
X+4000000Y-187367D01*
X+3884168Y-303199D01*
X+3715832Y-303199D01*
X+3600000Y-187367D01*
X+3484168Y-303199D01*
X+3315832Y-303199D01*
X+3196801Y-184168D01*
X+3196801Y-15832D01*
X+3315832Y+103199D01*
X+3484168Y+103199D01*
X+3600000Y-12633D01*
X+3664574Y+51941D01*
X+3584901Y+131614D01*
X+3584901Y+818386D01*
X+3681614Y+915099D01*
X+3818386Y+915099D01*
X+3915099Y+818386D01*
X+3915099Y+131614D01*
X+3885426Y+101941D01*
X+4000000Y-12633D01*
X+4114574Y+101941D01*
X+4084901Y+131614D01*
X+4084901Y+1318386D01*
X+4105594Y+1339079D01*
X+4034101Y+1410572D01*
X+4034101Y+1589428D01*
X+4160572Y+1715899D01*
X+4339428Y+1715899D01*
X+4377000Y+1678327D01*
X+4414572Y+1715899D01*
X+4593428Y+1715899D01*
X+4719899Y+1589428D01*
G37*
G36*
X+3719899Y+1589428D02*
X+3719899Y+1410572D01*
X+3643699Y+1334372D01*
X+3643699Y+1253865D01*
X+3645765Y+1251799D01*
X+3662877Y+1251799D01*
X+3751799Y+1162877D01*
X+3751799Y+1037123D01*
X+3662877Y+948201D01*
X+3537123Y+948201D01*
X+3448201Y+1037123D01*
X+3448201Y+1054235D01*
X+3364301Y+1138135D01*
X+3364301Y+1308974D01*
X+3339428Y+1284101D01*
X+3160572Y+1284101D01*
X+3034101Y+1410572D01*
X+3034101Y+1589428D01*
X+3160572Y+1715899D01*
X+3339428Y+1715899D01*
X+3377000Y+1678327D01*
X+3414572Y+1715899D01*
X+3593428Y+1715899D01*
X+3719899Y+1589428D01*
G37*
G36*
X+6296801Y+415832D02*
X+6296801Y+584168D01*
X+6415832Y+703199D01*
X+6584168Y+703199D01*
X+6703199Y+584168D01*
X+6703199Y+415832D01*
X+6584168Y+296801D01*
X+6415832Y+296801D01*
X+6296801Y+415832D01*
G37*
G36*
X+4803199Y-1031832D02*
X+4803199Y-1200168D01*
X+4684168Y-1319199D01*
X+4515832Y-1319199D01*
X+4400000Y-1203367D01*
X+4284168Y-1319199D01*
X+4115832Y-1319199D01*
X+4000000Y-1203367D01*
X+3884168Y-1319199D01*
X+3715832Y-1319199D01*
X+3600000Y-1203367D01*
X+3484168Y-1319199D01*
X+3315832Y-1319199D01*
X+3196801Y-1200168D01*
X+3196801Y-1031832D01*
X+3315832Y-912801D01*
X+3484168Y-912801D01*
X+3600000Y-1028633D01*
X+3715832Y-912801D01*
X+3884168Y-912801D01*
X+4000000Y-1028633D01*
X+4115832Y-912801D01*
X+4284168Y-912801D01*
X+4400000Y-1028633D01*
X+4515832Y-912801D01*
X+4684168Y-912801D01*
X+4803199Y-1031832D01*
G37*
G36*
X+13215816Y-3469439D02*
X+13058002Y-3469439D01*
X+12946410Y-3357847D01*
X+12946410Y-3200033D01*
X+13058002Y-3088441D01*
X+13215816Y-3088441D01*
X+13327408Y-3200033D01*
X+13327408Y-3357847D01*
X+13215816Y-3469439D01*
G37*
G36*
X+13215816Y-5907839D02*
X+13058002Y-5907839D01*
X+12946410Y-5796247D01*
X+12946410Y-5638433D01*
X+13058002Y-5526841D01*
X+13215816Y-5526841D01*
X+13327408Y-5638433D01*
X+13327408Y-5796247D01*
X+13215816Y-5907839D01*
G37*
G36*
X+12116299Y-12325051D02*
X+12116299Y-12524949D01*
X+11974949Y-12666299D01*
X+11866299Y-12666299D01*
X+11866299Y-12774949D01*
X+11724949Y-12916299D01*
X+11525051Y-12916299D01*
X+11383701Y-12774949D01*
X+11383701Y-12575051D01*
X+11525051Y-12433701D01*
X+11633701Y-12433701D01*
X+11633701Y-12325051D01*
X+11775051Y-12183701D01*
X+11974949Y-12183701D01*
X+12116299Y-12325051D01*
G37*
G36*
X+11974949Y-13416299D02*
X+11775051Y-13416299D01*
X+11633701Y-13274949D01*
X+11633701Y-13075051D01*
X+11775051Y-12933701D01*
X+11974949Y-12933701D01*
X+12116299Y-13075051D01*
X+12116299Y-13274949D01*
X+11974949Y-13416299D01*
G37*
G36*
X+13474949Y-13666299D02*
X+13275051Y-13666299D01*
X+13133701Y-13524949D01*
X+13133701Y-13325051D01*
X+13275051Y-13183701D01*
X+13474949Y-13183701D01*
X+13616299Y-13325051D01*
X+13616299Y-13524949D01*
X+13474949Y-13666299D01*
G37*
G36*
X+13474949Y-13166299D02*
X+13275051Y-13166299D01*
X+13133701Y-13024949D01*
X+13133701Y-12825051D01*
X+13275051Y-12683701D01*
X+13474949Y-12683701D01*
X+13616299Y-12825051D01*
X+13616299Y-13024949D01*
X+13474949Y-13166299D01*
G37*
G36*
X+12979216Y-14176599D02*
X+12770784Y-14176599D01*
X+12623401Y-14029216D01*
X+12623401Y-13820784D01*
X+12770784Y-13673401D01*
X+12979216Y-13673401D01*
X+13126599Y-13820784D01*
X+13126599Y-14029216D01*
X+12979216Y-14176599D01*
G37*
G36*
X+12979216Y-12676599D02*
X+12770784Y-12676599D01*
X+12623401Y-12529216D01*
X+12623401Y-12320784D01*
X+12770784Y-12173401D01*
X+12979216Y-12173401D01*
X+13126599Y-12320784D01*
X+13126599Y-12529216D01*
X+12979216Y-12676599D01*
G37*
G36*
X+3587199Y-8115832D02*
X+3587199Y-8284168D01*
X+3468168Y-8403199D01*
X+3299832Y-8403199D01*
X+3180801Y-8284168D01*
X+3180801Y-8115832D01*
X+3299832Y-7996801D01*
X+3468168Y-7996801D01*
X+3587199Y-8115832D01*
G37*
G36*
X+2284168Y-7203199D02*
X+2115832Y-7203199D01*
X+1996801Y-7084168D01*
X+1996801Y-6915832D01*
X+2115832Y-6796801D01*
X+2284168Y-6796801D01*
X+2403199Y-6915832D01*
X+2403199Y-7084168D01*
X+2284168Y-7203199D01*
G37*
G36*
X+7408713Y-7257500D02*
X+7408713Y-7383752D01*
X+7319440Y-7473025D01*
X+7193188Y-7473025D01*
X+7180488Y-7460325D01*
X+6737239Y-7460325D01*
X+6539699Y-7657865D01*
X+6539699Y-8357865D01*
X+5778446Y-9119118D01*
X+5781000Y-9121673D01*
X+5818572Y-9084101D01*
X+5997428Y-9084101D01*
X+6123899Y-9210572D01*
X+6123899Y-9389428D01*
X+6047699Y-9465628D01*
X+6047699Y-9689351D01*
X+6139699Y-9781351D01*
X+6139699Y-9925023D01*
X+6151799Y-9937123D01*
X+6151799Y-10062877D01*
X+6062877Y-10151799D01*
X+5937123Y-10151799D01*
X+5850000Y-10064676D01*
X+5762877Y-10151799D01*
X+5637123Y-10151799D01*
X+5550000Y-10064676D01*
X+5462877Y-10151799D01*
X+5337123Y-10151799D01*
X+5248201Y-10062877D01*
X+5248201Y-9937123D01*
X+5260301Y-9925023D01*
X+5260301Y-9465628D01*
X+5184101Y-9389428D01*
X+5184101Y-9210572D01*
X+5310572Y-9084101D01*
X+5418335Y-9084101D01*
X+6260301Y-8242135D01*
X+6260301Y-7542135D01*
X+6621509Y-7180927D01*
X+7180488Y-7180927D01*
X+7193188Y-7168227D01*
X+7319440Y-7168227D01*
X+7408713Y-7257500D01*
G37*
G36*
X+167093Y+1410499D02*
X+324907Y+1410499D01*
X+436499Y+1298907D01*
X+436499Y+1141093D01*
X+324907Y+1029501D01*
X+167093Y+1029501D01*
X+55501Y+1141093D01*
X+55501Y+1298907D01*
X+167093Y+1410499D01*
G37*
G36*
X+10715899Y+1339428D02*
X+10715899Y+1160572D01*
X+10589428Y+1034101D01*
X+10410572Y+1034101D01*
X+10373000Y+1071673D01*
X+10335428Y+1034101D01*
X+10156572Y+1034101D01*
X+10119000Y+1071673D01*
X+10081428Y+1034101D01*
X+9902572Y+1034101D01*
X+9776101Y+1160572D01*
X+9776101Y+1339428D01*
X+9902572Y+1465899D01*
X+10081428Y+1465899D01*
X+10119000Y+1428327D01*
X+10156572Y+1465899D01*
X+10335428Y+1465899D01*
X+10373000Y+1428327D01*
X+10410572Y+1465899D01*
X+10589428Y+1465899D01*
X+10715899Y+1339428D01*
G37*
G36*
X+13478690Y-10967034D02*
X+13478690Y-10958233D01*
X+13527047Y-10909876D01*
X+13595433Y-10909876D01*
X+13643790Y-10958233D01*
X+13643790Y-11026619D01*
X+13595433Y-11074976D01*
X+13531799Y-11074976D01*
X+13531799Y-11163876D01*
X+13595433Y-11163876D01*
X+13643790Y-11212233D01*
X+13643790Y-11280619D01*
X+13595433Y-11328976D01*
X+13531799Y-11328976D01*
X+13531799Y-11377857D01*
X+13278857Y-11630799D01*
X+12921143Y-11630799D01*
X+12668201Y-11377857D01*
X+12668201Y-11020143D01*
X+12921143Y-10767201D01*
X+13278857Y-10767201D01*
X+13478690Y-10967034D01*
G37*
G36*
X+11003199Y-10415832D02*
X+11003199Y-10525434D01*
X+11015832Y-10512801D01*
X+11184168Y-10512801D01*
X+11296726Y-10625359D01*
X+11312558Y-10609527D01*
X+11480894Y-10609527D01*
X+11599925Y-10728558D01*
X+11599925Y-10896894D01*
X+11480894Y-11015925D01*
X+11312558Y-11015925D01*
X+11200000Y-10903367D01*
X+11184168Y-10919199D01*
X+11015832Y-10919199D01*
X+10896801Y-10800168D01*
X+10896801Y-10690566D01*
X+10884168Y-10703199D01*
X+10715832Y-10703199D01*
X+10596801Y-10584168D01*
X+10596801Y-10415832D01*
X+10715832Y-10296801D01*
X+10884168Y-10296801D01*
X+11003199Y-10415832D01*
G37*
G36*
X+11984168Y-10487199D02*
X+11815832Y-10487199D01*
X+11696801Y-10368168D01*
X+11696801Y-10199832D01*
X+11815832Y-10080801D01*
X+11984168Y-10080801D01*
X+12103199Y-10199832D01*
X+12103199Y-10368168D01*
X+11984168Y-10487199D01*
G37*
G36*
X+12716690Y-14895434D02*
X+12716690Y-14827048D01*
X+12765047Y-14778691D01*
X+12833433Y-14778691D01*
X+12881790Y-14827048D01*
X+12881790Y-14895434D01*
X+12833433Y-14943791D01*
X+12765047Y-14943791D01*
X+12716690Y-14895434D01*
G37*
G36*
X+12462690Y-14895434D02*
X+12462690Y-14827048D01*
X+12511047Y-14778691D01*
X+12579433Y-14778691D01*
X+12627790Y-14827048D01*
X+12627790Y-14895434D01*
X+12579433Y-14943791D01*
X+12511047Y-14943791D01*
X+12462690Y-14895434D01*
G37*
G36*
X+12208690Y-14895434D02*
X+12208690Y-14827048D01*
X+12257047Y-14778691D01*
X+12325433Y-14778691D01*
X+12373790Y-14827048D01*
X+12373790Y-14895434D01*
X+12325433Y-14943791D01*
X+12257047Y-14943791D01*
X+12208690Y-14895434D01*
G37*
G36*
X+11954690Y-14895434D02*
X+11954690Y-14827048D01*
X+12003047Y-14778691D01*
X+12071433Y-14778691D01*
X+12119790Y-14827048D01*
X+12119790Y-14895434D01*
X+12071433Y-14943791D01*
X+12003047Y-14943791D01*
X+11954690Y-14895434D01*
G37*
G36*
X+11700690Y-14895434D02*
X+11700690Y-14827048D01*
X+11749047Y-14778691D01*
X+11817433Y-14778691D01*
X+11865790Y-14827048D01*
X+11865790Y-14895434D01*
X+11817433Y-14943791D01*
X+11749047Y-14943791D01*
X+11700690Y-14895434D01*
G37*
G36*
X+11446690Y-14895434D02*
X+11446690Y-14827048D01*
X+11495047Y-14778691D01*
X+11563433Y-14778691D01*
X+11611790Y-14827048D01*
X+11611790Y-14895434D01*
X+11563433Y-14943791D01*
X+11495047Y-14943791D01*
X+11446690Y-14895434D01*
G37*
G36*
X+11192690Y-14895434D02*
X+11192690Y-14827048D01*
X+11241047Y-14778691D01*
X+11309433Y-14778691D01*
X+11357790Y-14827048D01*
X+11357790Y-14895434D01*
X+11309433Y-14943791D01*
X+11241047Y-14943791D01*
X+11192690Y-14895434D01*
G37*
G36*
X+10938690Y-14895434D02*
X+10938690Y-14827048D01*
X+10987047Y-14778691D01*
X+11055433Y-14778691D01*
X+11103790Y-14827048D01*
X+11103790Y-14895434D01*
X+11055433Y-14943791D01*
X+10987047Y-14943791D01*
X+10938690Y-14895434D01*
G37*
G36*
X+10684690Y-14895434D02*
X+10684690Y-14827048D01*
X+10733047Y-14778691D01*
X+10801433Y-14778691D01*
X+10849790Y-14827048D01*
X+10849790Y-14895434D01*
X+10801433Y-14943791D01*
X+10733047Y-14943791D01*
X+10684690Y-14895434D01*
G37*
G36*
X+10430690Y-14895434D02*
X+10430690Y-14827048D01*
X+10479047Y-14778691D01*
X+10547433Y-14778691D01*
X+10595790Y-14827048D01*
X+10595790Y-14895434D01*
X+10547433Y-14943791D01*
X+10479047Y-14943791D01*
X+10430690Y-14895434D01*
G37*
G36*
X+10176690Y-14895434D02*
X+10176690Y-14827048D01*
X+10225047Y-14778691D01*
X+10293433Y-14778691D01*
X+10341790Y-14827048D01*
X+10341790Y-14895434D01*
X+10293433Y-14943791D01*
X+10225047Y-14943791D01*
X+10176690Y-14895434D01*
G37*
G36*
X+9922690Y-14895434D02*
X+9922690Y-14827048D01*
X+9971047Y-14778691D01*
X+10039433Y-14778691D01*
X+10087790Y-14827048D01*
X+10087790Y-14895434D01*
X+10039433Y-14943791D01*
X+9971047Y-14943791D01*
X+9922690Y-14895434D01*
G37*
G36*
X+9668690Y-14895434D02*
X+9668690Y-14827048D01*
X+9717047Y-14778691D01*
X+9785433Y-14778691D01*
X+9833790Y-14827048D01*
X+9833790Y-14895434D01*
X+9785433Y-14943791D01*
X+9717047Y-14943791D01*
X+9668690Y-14895434D01*
G37*
G36*
X+9414690Y-14895434D02*
X+9414690Y-14827048D01*
X+9463047Y-14778691D01*
X+9531433Y-14778691D01*
X+9579790Y-14827048D01*
X+9579790Y-14895434D01*
X+9531433Y-14943791D01*
X+9463047Y-14943791D01*
X+9414690Y-14895434D01*
G37*
G36*
X+9160690Y-14895434D02*
X+9160690Y-14827048D01*
X+9209047Y-14778691D01*
X+9277433Y-14778691D01*
X+9325790Y-14827048D01*
X+9325790Y-14895434D01*
X+9277433Y-14943791D01*
X+9209047Y-14943791D01*
X+9160690Y-14895434D01*
G37*
G36*
X+8906690Y-14895434D02*
X+8906690Y-14827048D01*
X+8955047Y-14778691D01*
X+9023433Y-14778691D01*
X+9071790Y-14827048D01*
X+9071790Y-14895434D01*
X+9023433Y-14943791D01*
X+8955047Y-14943791D01*
X+8906690Y-14895434D01*
G37*
G36*
X+8652690Y-14895434D02*
X+8652690Y-14827048D01*
X+8701047Y-14778691D01*
X+8769433Y-14778691D01*
X+8817790Y-14827048D01*
X+8817790Y-14895434D01*
X+8769433Y-14943791D01*
X+8701047Y-14943791D01*
X+8652690Y-14895434D01*
G37*
G36*
X+8398690Y-14895434D02*
X+8398690Y-14827048D01*
X+8447047Y-14778691D01*
X+8515433Y-14778691D01*
X+8563790Y-14827048D01*
X+8563790Y-14895434D01*
X+8515433Y-14943791D01*
X+8447047Y-14943791D01*
X+8398690Y-14895434D01*
G37*
G36*
X+8144690Y-14895434D02*
X+8144690Y-14827048D01*
X+8193047Y-14778691D01*
X+8261433Y-14778691D01*
X+8309790Y-14827048D01*
X+8309790Y-14895434D01*
X+8261433Y-14943791D01*
X+8193047Y-14943791D01*
X+8144690Y-14895434D01*
G37*
G36*
X+7890690Y-14895434D02*
X+7890690Y-14827048D01*
X+7939047Y-14778691D01*
X+8007433Y-14778691D01*
X+8055790Y-14827048D01*
X+8055790Y-14895434D01*
X+8007433Y-14943791D01*
X+7939047Y-14943791D01*
X+7890690Y-14895434D01*
G37*
G36*
X+7636690Y-14895434D02*
X+7636690Y-14827048D01*
X+7685047Y-14778691D01*
X+7753433Y-14778691D01*
X+7801790Y-14827048D01*
X+7801790Y-14895434D01*
X+7753433Y-14943791D01*
X+7685047Y-14943791D01*
X+7636690Y-14895434D01*
G37*
G36*
X+7382690Y-14895434D02*
X+7382690Y-14827048D01*
X+7431047Y-14778691D01*
X+7499433Y-14778691D01*
X+7547790Y-14827048D01*
X+7547790Y-14895434D01*
X+7499433Y-14943791D01*
X+7431047Y-14943791D01*
X+7382690Y-14895434D01*
G37*
G36*
X+7128690Y-14895434D02*
X+7128690Y-14827048D01*
X+7177047Y-14778691D01*
X+7245433Y-14778691D01*
X+7293790Y-14827048D01*
X+7293790Y-14895434D01*
X+7245433Y-14943791D01*
X+7177047Y-14943791D01*
X+7128690Y-14895434D01*
G37*
G36*
X+6874690Y-14895434D02*
X+6874690Y-14827048D01*
X+6923047Y-14778691D01*
X+6991433Y-14778691D01*
X+7039790Y-14827048D01*
X+7039790Y-14895434D01*
X+6991433Y-14943791D01*
X+6923047Y-14943791D01*
X+6874690Y-14895434D01*
G37*
G36*
X+6620690Y-14895434D02*
X+6620690Y-14827048D01*
X+6669047Y-14778691D01*
X+6737433Y-14778691D01*
X+6785790Y-14827048D01*
X+6785790Y-14895434D01*
X+6737433Y-14943791D01*
X+6669047Y-14943791D01*
X+6620690Y-14895434D01*
G37*
G36*
X+6366690Y-14895434D02*
X+6366690Y-14827048D01*
X+6415047Y-14778691D01*
X+6483433Y-14778691D01*
X+6531790Y-14827048D01*
X+6531790Y-14895434D01*
X+6483433Y-14943791D01*
X+6415047Y-14943791D01*
X+6366690Y-14895434D01*
G37*
G36*
X+6112690Y-14895434D02*
X+6112690Y-14827048D01*
X+6161047Y-14778691D01*
X+6229433Y-14778691D01*
X+6277790Y-14827048D01*
X+6277790Y-14895434D01*
X+6229433Y-14943791D01*
X+6161047Y-14943791D01*
X+6112690Y-14895434D01*
G37*
G36*
X+5858690Y-14895434D02*
X+5858690Y-14827048D01*
X+5907047Y-14778691D01*
X+5975433Y-14778691D01*
X+6023790Y-14827048D01*
X+6023790Y-14895434D01*
X+5975433Y-14943791D01*
X+5907047Y-14943791D01*
X+5858690Y-14895434D01*
G37*
G36*
X+5604690Y-14895434D02*
X+5604690Y-14827048D01*
X+5653047Y-14778691D01*
X+5721433Y-14778691D01*
X+5769790Y-14827048D01*
X+5769790Y-14895434D01*
X+5721433Y-14943791D01*
X+5653047Y-14943791D01*
X+5604690Y-14895434D01*
G37*
G36*
X+5350690Y-14895434D02*
X+5350690Y-14827048D01*
X+5399047Y-14778691D01*
X+5467433Y-14778691D01*
X+5515790Y-14827048D01*
X+5515790Y-14895434D01*
X+5467433Y-14943791D01*
X+5399047Y-14943791D01*
X+5350690Y-14895434D01*
G37*
G36*
X+5096690Y-14895434D02*
X+5096690Y-14827048D01*
X+5145047Y-14778691D01*
X+5213433Y-14778691D01*
X+5261790Y-14827048D01*
X+5261790Y-14895434D01*
X+5213433Y-14943791D01*
X+5145047Y-14943791D01*
X+5096690Y-14895434D01*
G37*
G36*
X+4842690Y-14895434D02*
X+4842690Y-14827048D01*
X+4891047Y-14778691D01*
X+4959433Y-14778691D01*
X+5007790Y-14827048D01*
X+5007790Y-14895434D01*
X+4959433Y-14943791D01*
X+4891047Y-14943791D01*
X+4842690Y-14895434D01*
G37*
G36*
X+4588690Y-14895434D02*
X+4588690Y-14827048D01*
X+4637047Y-14778691D01*
X+4705433Y-14778691D01*
X+4753790Y-14827048D01*
X+4753790Y-14895434D01*
X+4705433Y-14943791D01*
X+4637047Y-14943791D01*
X+4588690Y-14895434D01*
G37*
G36*
X+4334690Y-14895434D02*
X+4334690Y-14827048D01*
X+4383047Y-14778691D01*
X+4451433Y-14778691D01*
X+4499790Y-14827048D01*
X+4499790Y-14895434D01*
X+4451433Y-14943791D01*
X+4383047Y-14943791D01*
X+4334690Y-14895434D01*
G37*
G36*
X+4080690Y-14895434D02*
X+4080690Y-14827048D01*
X+4129047Y-14778691D01*
X+4197433Y-14778691D01*
X+4245790Y-14827048D01*
X+4245790Y-14895434D01*
X+4197433Y-14943791D01*
X+4129047Y-14943791D01*
X+4080690Y-14895434D01*
G37*
G36*
X+3826690Y-14895434D02*
X+3826690Y-14827048D01*
X+3875047Y-14778691D01*
X+3943433Y-14778691D01*
X+3991790Y-14827048D01*
X+3991790Y-14895434D01*
X+3943433Y-14943791D01*
X+3875047Y-14943791D01*
X+3826690Y-14895434D01*
G37*
G36*
X+3572690Y-14895434D02*
X+3572690Y-14827048D01*
X+3621047Y-14778691D01*
X+3689433Y-14778691D01*
X+3737790Y-14827048D01*
X+3737790Y-14895434D01*
X+3689433Y-14943791D01*
X+3621047Y-14943791D01*
X+3572690Y-14895434D01*
G37*
G36*
X+3318690Y-14895434D02*
X+3318690Y-14827048D01*
X+3367047Y-14778691D01*
X+3435433Y-14778691D01*
X+3483790Y-14827048D01*
X+3483790Y-14895434D01*
X+3435433Y-14943791D01*
X+3367047Y-14943791D01*
X+3318690Y-14895434D01*
G37*
G36*
X+3064690Y-14895434D02*
X+3064690Y-14827048D01*
X+3113047Y-14778691D01*
X+3181433Y-14778691D01*
X+3229790Y-14827048D01*
X+3229790Y-14895434D01*
X+3181433Y-14943791D01*
X+3113047Y-14943791D01*
X+3064690Y-14895434D01*
G37*
G36*
X+2810690Y-14895434D02*
X+2810690Y-14827048D01*
X+2859047Y-14778691D01*
X+2927433Y-14778691D01*
X+2975790Y-14827048D01*
X+2975790Y-14895434D01*
X+2927433Y-14943791D01*
X+2859047Y-14943791D01*
X+2810690Y-14895434D01*
G37*
G36*
X+2556690Y-14895434D02*
X+2556690Y-14827048D01*
X+2605047Y-14778691D01*
X+2673433Y-14778691D01*
X+2721790Y-14827048D01*
X+2721790Y-14895434D01*
X+2673433Y-14943791D01*
X+2605047Y-14943791D01*
X+2556690Y-14895434D01*
G37*
G36*
X+2302690Y-14895434D02*
X+2302690Y-14827048D01*
X+2351047Y-14778691D01*
X+2419433Y-14778691D01*
X+2467790Y-14827048D01*
X+2467790Y-14895434D01*
X+2419433Y-14943791D01*
X+2351047Y-14943791D01*
X+2302690Y-14895434D01*
G37*
G36*
X+2048690Y-14895434D02*
X+2048690Y-14827048D01*
X+2097047Y-14778691D01*
X+2165433Y-14778691D01*
X+2213790Y-14827048D01*
X+2213790Y-14895434D01*
X+2165433Y-14943791D01*
X+2097047Y-14943791D01*
X+2048690Y-14895434D01*
G37*
G36*
X+1794690Y-14895434D02*
X+1794690Y-14827048D01*
X+1843047Y-14778691D01*
X+1911433Y-14778691D01*
X+1959790Y-14827048D01*
X+1959790Y-14895434D01*
X+1911433Y-14943791D01*
X+1843047Y-14943791D01*
X+1794690Y-14895434D01*
G37*
G36*
X+1540690Y-14895434D02*
X+1540690Y-14827048D01*
X+1589047Y-14778691D01*
X+1657433Y-14778691D01*
X+1705790Y-14827048D01*
X+1705790Y-14895434D01*
X+1657433Y-14943791D01*
X+1589047Y-14943791D01*
X+1540690Y-14895434D01*
G37*
G36*
X+1286690Y-14895434D02*
X+1286690Y-14827048D01*
X+1335047Y-14778691D01*
X+1403433Y-14778691D01*
X+1451790Y-14827048D01*
X+1451790Y-14895434D01*
X+1403433Y-14943791D01*
X+1335047Y-14943791D01*
X+1286690Y-14895434D01*
G37*
G36*
X+1032690Y-14895434D02*
X+1032690Y-14827048D01*
X+1081047Y-14778691D01*
X+1149433Y-14778691D01*
X+1197790Y-14827048D01*
X+1197790Y-14895434D01*
X+1149433Y-14943791D01*
X+1081047Y-14943791D01*
X+1032690Y-14895434D01*
G37*
G36*
X+778690Y-14895434D02*
X+778690Y-14827048D01*
X+827047Y-14778691D01*
X+895433Y-14778691D01*
X+943790Y-14827048D01*
X+943790Y-14895434D01*
X+895433Y-14943791D01*
X+827047Y-14943791D01*
X+778690Y-14895434D01*
G37*
G36*
X+524690Y-14895434D02*
X+524690Y-14827048D01*
X+573047Y-14778691D01*
X+641433Y-14778691D01*
X+689790Y-14827048D01*
X+689790Y-14895434D01*
X+641433Y-14943791D01*
X+573047Y-14943791D01*
X+524690Y-14895434D01*
G37*
G36*
X+270690Y-14895434D02*
X+270690Y-14827048D01*
X+319047Y-14778691D01*
X+387433Y-14778691D01*
X+435790Y-14827048D01*
X+435790Y-14895434D01*
X+387433Y-14943791D01*
X+319047Y-14943791D01*
X+270690Y-14895434D01*
G37*
G36*
X-443790Y-14239509D02*
X-443790Y-14171123D01*
X-395433Y-14122766D01*
X-327047Y-14122766D01*
X-278690Y-14171123D01*
X-278690Y-14239509D01*
X-327047Y-14287866D01*
X-395433Y-14287866D01*
X-443790Y-14239509D01*
G37*
G36*
X-443790Y-13985509D02*
X-443790Y-13917123D01*
X-395433Y-13868766D01*
X-327047Y-13868766D01*
X-278690Y-13917123D01*
X-278690Y-13985509D01*
X-327047Y-14033866D01*
X-395433Y-14033866D01*
X-443790Y-13985509D01*
G37*
G36*
X-443790Y-13731509D02*
X-443790Y-13663123D01*
X-395433Y-13614766D01*
X-327047Y-13614766D01*
X-278690Y-13663123D01*
X-278690Y-13731509D01*
X-327047Y-13779866D01*
X-395433Y-13779866D01*
X-443790Y-13731509D01*
G37*
G36*
X-443790Y-13477509D02*
X-443790Y-13409123D01*
X-395433Y-13360766D01*
X-327047Y-13360766D01*
X-278690Y-13409123D01*
X-278690Y-13477509D01*
X-327047Y-13525866D01*
X-395433Y-13525866D01*
X-443790Y-13477509D01*
G37*
G36*
X-443790Y-13223509D02*
X-443790Y-13155123D01*
X-395433Y-13106766D01*
X-327047Y-13106766D01*
X-278690Y-13155123D01*
X-278690Y-13223509D01*
X-327047Y-13271866D01*
X-395433Y-13271866D01*
X-443790Y-13223509D01*
G37*
G36*
X-443790Y-12969509D02*
X-443790Y-12901123D01*
X-395433Y-12852766D01*
X-327047Y-12852766D01*
X-278690Y-12901123D01*
X-278690Y-12969509D01*
X-327047Y-13017866D01*
X-395433Y-13017866D01*
X-443790Y-12969509D01*
G37*
G36*
X-443790Y-12715509D02*
X-443790Y-12647123D01*
X-395433Y-12598766D01*
X-327047Y-12598766D01*
X-278690Y-12647123D01*
X-278690Y-12715509D01*
X-327047Y-12763866D01*
X-395433Y-12763866D01*
X-443790Y-12715509D01*
G37*
G36*
X-443790Y-12461509D02*
X-443790Y-12393123D01*
X-395433Y-12344766D01*
X-327047Y-12344766D01*
X-278690Y-12393123D01*
X-278690Y-12461509D01*
X-327047Y-12509866D01*
X-395433Y-12509866D01*
X-443790Y-12461509D01*
G37*
G36*
X-443790Y-12207509D02*
X-443790Y-12139123D01*
X-395433Y-12090766D01*
X-327047Y-12090766D01*
X-278690Y-12139123D01*
X-278690Y-12207509D01*
X-327047Y-12255866D01*
X-395433Y-12255866D01*
X-443790Y-12207509D01*
G37*
G36*
X-443790Y-11953509D02*
X-443790Y-11885123D01*
X-395433Y-11836766D01*
X-327047Y-11836766D01*
X-278690Y-11885123D01*
X-278690Y-11953509D01*
X-327047Y-12001866D01*
X-395433Y-12001866D01*
X-443790Y-11953509D01*
G37*
G36*
X-443790Y-11699509D02*
X-443790Y-11631123D01*
X-395433Y-11582766D01*
X-327047Y-11582766D01*
X-278690Y-11631123D01*
X-278690Y-11699509D01*
X-327047Y-11747866D01*
X-395433Y-11747866D01*
X-443790Y-11699509D01*
G37*
G36*
X-443790Y-11445509D02*
X-443790Y-11377123D01*
X-395433Y-11328766D01*
X-327047Y-11328766D01*
X-278690Y-11377123D01*
X-278690Y-11445509D01*
X-327047Y-11493866D01*
X-395433Y-11493866D01*
X-443790Y-11445509D01*
G37*
G36*
X-443790Y-11191509D02*
X-443790Y-11123123D01*
X-395433Y-11074766D01*
X-327047Y-11074766D01*
X-278690Y-11123123D01*
X-278690Y-11191509D01*
X-327047Y-11239866D01*
X-395433Y-11239866D01*
X-443790Y-11191509D01*
G37*
G36*
X-443790Y-10937509D02*
X-443790Y-10869123D01*
X-395433Y-10820766D01*
X-327047Y-10820766D01*
X-278690Y-10869123D01*
X-278690Y-10937509D01*
X-327047Y-10985866D01*
X-395433Y-10985866D01*
X-443790Y-10937509D01*
G37*
G36*
X-443790Y-10683509D02*
X-443790Y-10615123D01*
X-395433Y-10566766D01*
X-327047Y-10566766D01*
X-278690Y-10615123D01*
X-278690Y-10683509D01*
X-327047Y-10731866D01*
X-395433Y-10731866D01*
X-443790Y-10683509D01*
G37*
G36*
X-443790Y-10429509D02*
X-443790Y-10361123D01*
X-395433Y-10312766D01*
X-327047Y-10312766D01*
X-278690Y-10361123D01*
X-278690Y-10429509D01*
X-327047Y-10477866D01*
X-395433Y-10477866D01*
X-443790Y-10429509D01*
G37*
G36*
X-443790Y-10175509D02*
X-443790Y-10107123D01*
X-395433Y-10058766D01*
X-327047Y-10058766D01*
X-278690Y-10107123D01*
X-278690Y-10175509D01*
X-327047Y-10223866D01*
X-395433Y-10223866D01*
X-443790Y-10175509D01*
G37*
G36*
X-443790Y-9921509D02*
X-443790Y-9853123D01*
X-395433Y-9804766D01*
X-327047Y-9804766D01*
X-278690Y-9853123D01*
X-278690Y-9921509D01*
X-327047Y-9969866D01*
X-395433Y-9969866D01*
X-443790Y-9921509D01*
G37*
G36*
X-443790Y-9667509D02*
X-443790Y-9599123D01*
X-395433Y-9550766D01*
X-327047Y-9550766D01*
X-278690Y-9599123D01*
X-278690Y-9667509D01*
X-327047Y-9715866D01*
X-395433Y-9715866D01*
X-443790Y-9667509D01*
G37*
G36*
X-443790Y-9413509D02*
X-443790Y-9345123D01*
X-395433Y-9296766D01*
X-327047Y-9296766D01*
X-278690Y-9345123D01*
X-278690Y-9413509D01*
X-327047Y-9461866D01*
X-395433Y-9461866D01*
X-443790Y-9413509D01*
G37*
G36*
X-443790Y-9159509D02*
X-443790Y-9091123D01*
X-395433Y-9042766D01*
X-327047Y-9042766D01*
X-278690Y-9091123D01*
X-278690Y-9159509D01*
X-327047Y-9207866D01*
X-395433Y-9207866D01*
X-443790Y-9159509D01*
G37*
G36*
X-443790Y-8905509D02*
X-443790Y-8837123D01*
X-395433Y-8788766D01*
X-327047Y-8788766D01*
X-278690Y-8837123D01*
X-278690Y-8905509D01*
X-327047Y-8953866D01*
X-395433Y-8953866D01*
X-443790Y-8905509D01*
G37*
G36*
X-443790Y-8651509D02*
X-443790Y-8583123D01*
X-395433Y-8534766D01*
X-327047Y-8534766D01*
X-278690Y-8583123D01*
X-278690Y-8651509D01*
X-327047Y-8699866D01*
X-395433Y-8699866D01*
X-443790Y-8651509D01*
G37*
G36*
X-443790Y-8397509D02*
X-443790Y-8329123D01*
X-395433Y-8280766D01*
X-327047Y-8280766D01*
X-278690Y-8329123D01*
X-278690Y-8397509D01*
X-327047Y-8445866D01*
X-395433Y-8445866D01*
X-443790Y-8397509D01*
G37*
G36*
X-443790Y-8143509D02*
X-443790Y-8075123D01*
X-395433Y-8026766D01*
X-327047Y-8026766D01*
X-278690Y-8075123D01*
X-278690Y-8143509D01*
X-327047Y-8191866D01*
X-395433Y-8191866D01*
X-443790Y-8143509D01*
G37*
G36*
X-443790Y-7889509D02*
X-443790Y-7821123D01*
X-395433Y-7772766D01*
X-327047Y-7772766D01*
X-278690Y-7821123D01*
X-278690Y-7889509D01*
X-327047Y-7937866D01*
X-395433Y-7937866D01*
X-443790Y-7889509D01*
G37*
G36*
X-443790Y-7635509D02*
X-443790Y-7567123D01*
X-395433Y-7518766D01*
X-327047Y-7518766D01*
X-278690Y-7567123D01*
X-278690Y-7635509D01*
X-327047Y-7683866D01*
X-395433Y-7683866D01*
X-443790Y-7635509D01*
G37*
G36*
X-443790Y-7381509D02*
X-443790Y-7313123D01*
X-395433Y-7264766D01*
X-327047Y-7264766D01*
X-278690Y-7313123D01*
X-278690Y-7381509D01*
X-327047Y-7429866D01*
X-395433Y-7429866D01*
X-443790Y-7381509D01*
G37*
G36*
X-443790Y-7127509D02*
X-443790Y-7059123D01*
X-395433Y-7010766D01*
X-327047Y-7010766D01*
X-278690Y-7059123D01*
X-278690Y-7127509D01*
X-327047Y-7175866D01*
X-395433Y-7175866D01*
X-443790Y-7127509D01*
G37*
G36*
X-443790Y-6873509D02*
X-443790Y-6805123D01*
X-395433Y-6756766D01*
X-327047Y-6756766D01*
X-278690Y-6805123D01*
X-278690Y-6873509D01*
X-327047Y-6921866D01*
X-395433Y-6921866D01*
X-443790Y-6873509D01*
G37*
G36*
X-443790Y-6619509D02*
X-443790Y-6551123D01*
X-395433Y-6502766D01*
X-327047Y-6502766D01*
X-278690Y-6551123D01*
X-278690Y-6619509D01*
X-327047Y-6667866D01*
X-395433Y-6667866D01*
X-443790Y-6619509D01*
G37*
G36*
X-443790Y-6365509D02*
X-443790Y-6297123D01*
X-395433Y-6248766D01*
X-327047Y-6248766D01*
X-278690Y-6297123D01*
X-278690Y-6365509D01*
X-327047Y-6413866D01*
X-395433Y-6413866D01*
X-443790Y-6365509D01*
G37*
G36*
X-443790Y-6111509D02*
X-443790Y-6043123D01*
X-395433Y-5994766D01*
X-327047Y-5994766D01*
X-278690Y-6043123D01*
X-278690Y-6111509D01*
X-327047Y-6159866D01*
X-395433Y-6159866D01*
X-443790Y-6111509D01*
G37*
G36*
X-443790Y-5857509D02*
X-443790Y-5789123D01*
X-395433Y-5740766D01*
X-327047Y-5740766D01*
X-278690Y-5789123D01*
X-278690Y-5857509D01*
X-327047Y-5905866D01*
X-395433Y-5905866D01*
X-443790Y-5857509D01*
G37*
G36*
X-443790Y-5603509D02*
X-443790Y-5535123D01*
X-395433Y-5486766D01*
X-327047Y-5486766D01*
X-278690Y-5535123D01*
X-278690Y-5603509D01*
X-327047Y-5651866D01*
X-395433Y-5651866D01*
X-443790Y-5603509D01*
G37*
G36*
X-443790Y-5349509D02*
X-443790Y-5281123D01*
X-395433Y-5232766D01*
X-327047Y-5232766D01*
X-278690Y-5281123D01*
X-278690Y-5349509D01*
X-327047Y-5397866D01*
X-395433Y-5397866D01*
X-443790Y-5349509D01*
G37*
G36*
X-443790Y-4841509D02*
X-443790Y-4773123D01*
X-395433Y-4724766D01*
X-327047Y-4724766D01*
X-278690Y-4773123D01*
X-278690Y-4841509D01*
X-327047Y-4889866D01*
X-395433Y-4889866D01*
X-443790Y-4841509D01*
G37*
G36*
X-443790Y-4587509D02*
X-443790Y-4519123D01*
X-395433Y-4470766D01*
X-327047Y-4470766D01*
X-278690Y-4519123D01*
X-278690Y-4587509D01*
X-327047Y-4635866D01*
X-395433Y-4635866D01*
X-443790Y-4587509D01*
G37*
G36*
X-443790Y-4333509D02*
X-443790Y-4265123D01*
X-395433Y-4216766D01*
X-327047Y-4216766D01*
X-278690Y-4265123D01*
X-278690Y-4333509D01*
X-327047Y-4381866D01*
X-395433Y-4381866D01*
X-443790Y-4333509D01*
G37*
G36*
X-443790Y-4079509D02*
X-443790Y-4011123D01*
X-395433Y-3962766D01*
X-327047Y-3962766D01*
X-278690Y-4011123D01*
X-278690Y-4079509D01*
X-327047Y-4127866D01*
X-395433Y-4127866D01*
X-443790Y-4079509D01*
G37*
G36*
X-443790Y-3825509D02*
X-443790Y-3757123D01*
X-395433Y-3708766D01*
X-327047Y-3708766D01*
X-278690Y-3757123D01*
X-278690Y-3825509D01*
X-327047Y-3873866D01*
X-395433Y-3873866D01*
X-443790Y-3825509D01*
G37*
G36*
X-443790Y-3571509D02*
X-443790Y-3503123D01*
X-395433Y-3454766D01*
X-327047Y-3454766D01*
X-278690Y-3503123D01*
X-278690Y-3571509D01*
X-327047Y-3619866D01*
X-395433Y-3619866D01*
X-443790Y-3571509D01*
G37*
G36*
X-443790Y-3317509D02*
X-443790Y-3249123D01*
X-395433Y-3200766D01*
X-327047Y-3200766D01*
X-278690Y-3249123D01*
X-278690Y-3317509D01*
X-327047Y-3365866D01*
X-395433Y-3365866D01*
X-443790Y-3317509D01*
G37*
G36*
X-443790Y-3063509D02*
X-443790Y-2995123D01*
X-395433Y-2946766D01*
X-327047Y-2946766D01*
X-278690Y-2995123D01*
X-278690Y-3063509D01*
X-327047Y-3111866D01*
X-395433Y-3111866D01*
X-443790Y-3063509D01*
G37*
G36*
X-443790Y-2809509D02*
X-443790Y-2741123D01*
X-395433Y-2692766D01*
X-327047Y-2692766D01*
X-278690Y-2741123D01*
X-278690Y-2809509D01*
X-327047Y-2857866D01*
X-395433Y-2857866D01*
X-443790Y-2809509D01*
G37*
G36*
X-443790Y-2555509D02*
X-443790Y-2487123D01*
X-395433Y-2438766D01*
X-327047Y-2438766D01*
X-278690Y-2487123D01*
X-278690Y-2555509D01*
X-327047Y-2603866D01*
X-395433Y-2603866D01*
X-443790Y-2555509D01*
G37*
G36*
X-443790Y-2301509D02*
X-443790Y-2233123D01*
X-395433Y-2184766D01*
X-327047Y-2184766D01*
X-278690Y-2233123D01*
X-278690Y-2301509D01*
X-327047Y-2349866D01*
X-395433Y-2349866D01*
X-443790Y-2301509D01*
G37*
G36*
X-443790Y-2047509D02*
X-443790Y-1979123D01*
X-395433Y-1930766D01*
X-327047Y-1930766D01*
X-278690Y-1979123D01*
X-278690Y-2047509D01*
X-327047Y-2095866D01*
X-395433Y-2095866D01*
X-443790Y-2047509D01*
G37*
G36*
X-443790Y-1793509D02*
X-443790Y-1725123D01*
X-395433Y-1676766D01*
X-327047Y-1676766D01*
X-278690Y-1725123D01*
X-278690Y-1793509D01*
X-327047Y-1841866D01*
X-395433Y-1841866D01*
X-443790Y-1793509D01*
G37*
G36*
X-443790Y-1539509D02*
X-443790Y-1471123D01*
X-395433Y-1422766D01*
X-327047Y-1422766D01*
X-278690Y-1471123D01*
X-278690Y-1539509D01*
X-327047Y-1587866D01*
X-395433Y-1587866D01*
X-443790Y-1539509D01*
G37*
G36*
X-443790Y-1285509D02*
X-443790Y-1217123D01*
X-395433Y-1168766D01*
X-327047Y-1168766D01*
X-278690Y-1217123D01*
X-278690Y-1285509D01*
X-327047Y-1333866D01*
X-395433Y-1333866D01*
X-443790Y-1285509D01*
G37*
G36*
X-443790Y-1031509D02*
X-443790Y-963123D01*
X-395433Y-914766D01*
X-327047Y-914766D01*
X-278690Y-963123D01*
X-278690Y-1031509D01*
X-327047Y-1079866D01*
X-395433Y-1079866D01*
X-443790Y-1031509D01*
G37*
G36*
X-443790Y-777509D02*
X-443790Y-709123D01*
X-395433Y-660766D01*
X-327047Y-660766D01*
X-278690Y-709123D01*
X-278690Y-777509D01*
X-327047Y-825866D01*
X-395433Y-825866D01*
X-443790Y-777509D01*
G37*
G36*
X-443790Y-523509D02*
X-443790Y-455123D01*
X-395433Y-406766D01*
X-327047Y-406766D01*
X-278690Y-455123D01*
X-278690Y-523509D01*
X-327047Y-571866D01*
X-395433Y-571866D01*
X-443790Y-523509D01*
G37*
G36*
X-443790Y-269509D02*
X-443790Y-201123D01*
X-395433Y-152766D01*
X-327047Y-152766D01*
X-278690Y-201123D01*
X-278690Y-269509D01*
X-327047Y-317866D01*
X-395433Y-317866D01*
X-443790Y-269509D01*
G37*
G36*
X-443790Y-15509D02*
X-443790Y+52877D01*
X-395433Y+101234D01*
X-327047Y+101234D01*
X-278690Y+52877D01*
X-278690Y-15509D01*
X-327047Y-63866D01*
X-395433Y-63866D01*
X-443790Y-15509D01*
G37*
G36*
X-443790Y+238491D02*
X-443790Y+306877D01*
X-395433Y+355234D01*
X-327047Y+355234D01*
X-278690Y+306877D01*
X-278690Y+238491D01*
X-327047Y+190134D01*
X-395433Y+190134D01*
X-443790Y+238491D01*
G37*
G36*
X-443790Y+492491D02*
X-443790Y+560877D01*
X-395433Y+609234D01*
X-327047Y+609234D01*
X-278690Y+560877D01*
X-278690Y+492491D01*
X-327047Y+444134D01*
X-395433Y+444134D01*
X-443790Y+492491D01*
G37*
G36*
X-443790Y+746491D02*
X-443790Y+814877D01*
X-395433Y+863234D01*
X-327047Y+863234D01*
X-278690Y+814877D01*
X-278690Y+746491D01*
X-327047Y+698134D01*
X-395433Y+698134D01*
X-443790Y+746491D01*
G37*
G36*
X-443790Y+1000491D02*
X-443790Y+1068877D01*
X-395433Y+1117234D01*
X-327047Y+1117234D01*
X-278690Y+1068877D01*
X-278690Y+1000491D01*
X-327047Y+952134D01*
X-395433Y+952134D01*
X-443790Y+1000491D01*
G37*
G36*
X-443790Y+1254491D02*
X-443790Y+1322877D01*
X-395433Y+1371234D01*
X-327047Y+1371234D01*
X-278690Y+1322877D01*
X-278690Y+1254491D01*
X-327047Y+1206134D01*
X-395433Y+1206134D01*
X-443790Y+1254491D01*
G37*
G36*
X+257696Y+1927048D02*
X+257696Y+1995434D01*
X+306053Y+2043791D01*
X+374439Y+2043791D01*
X+422796Y+1995434D01*
X+422796Y+1927048D01*
X+374439Y+1878691D01*
X+306053Y+1878691D01*
X+257696Y+1927048D01*
G37*
G36*
X+511696Y+1927048D02*
X+511696Y+1995434D01*
X+560053Y+2043791D01*
X+628439Y+2043791D01*
X+676796Y+1995434D01*
X+676796Y+1927048D01*
X+628439Y+1878691D01*
X+560053Y+1878691D01*
X+511696Y+1927048D01*
G37*
G36*
X+765696Y+1927048D02*
X+765696Y+1995434D01*
X+814053Y+2043791D01*
X+882439Y+2043791D01*
X+930796Y+1995434D01*
X+930796Y+1927048D01*
X+882439Y+1878691D01*
X+814053Y+1878691D01*
X+765696Y+1927048D01*
G37*
G36*
X+1019696Y+1927048D02*
X+1019696Y+1995434D01*
X+1068053Y+2043791D01*
X+1136439Y+2043791D01*
X+1184796Y+1995434D01*
X+1184796Y+1927048D01*
X+1136439Y+1878691D01*
X+1068053Y+1878691D01*
X+1019696Y+1927048D01*
G37*
G36*
X+1273696Y+1927048D02*
X+1273696Y+1995434D01*
X+1322053Y+2043791D01*
X+1390439Y+2043791D01*
X+1438796Y+1995434D01*
X+1438796Y+1927048D01*
X+1390439Y+1878691D01*
X+1322053Y+1878691D01*
X+1273696Y+1927048D01*
G37*
G36*
X+1527696Y+1927048D02*
X+1527696Y+1995434D01*
X+1576053Y+2043791D01*
X+1644439Y+2043791D01*
X+1692796Y+1995434D01*
X+1692796Y+1927048D01*
X+1644439Y+1878691D01*
X+1576053Y+1878691D01*
X+1527696Y+1927048D01*
G37*
G36*
X+1781696Y+1927048D02*
X+1781696Y+1995434D01*
X+1830053Y+2043791D01*
X+1898439Y+2043791D01*
X+1946796Y+1995434D01*
X+1946796Y+1927048D01*
X+1898439Y+1878691D01*
X+1830053Y+1878691D01*
X+1781696Y+1927048D01*
G37*
G36*
X+2035696Y+1927048D02*
X+2035696Y+1995434D01*
X+2084053Y+2043791D01*
X+2152439Y+2043791D01*
X+2200796Y+1995434D01*
X+2200796Y+1927048D01*
X+2152439Y+1878691D01*
X+2084053Y+1878691D01*
X+2035696Y+1927048D01*
G37*
G36*
X+2289696Y+1927048D02*
X+2289696Y+1995434D01*
X+2338053Y+2043791D01*
X+2406439Y+2043791D01*
X+2454796Y+1995434D01*
X+2454796Y+1927048D01*
X+2406439Y+1878691D01*
X+2338053Y+1878691D01*
X+2289696Y+1927048D01*
G37*
G36*
X+6607696Y+1927048D02*
X+6607696Y+1995434D01*
X+6656053Y+2043791D01*
X+6724439Y+2043791D01*
X+6772796Y+1995434D01*
X+6772796Y+1927048D01*
X+6724439Y+1878691D01*
X+6656053Y+1878691D01*
X+6607696Y+1927048D01*
G37*
G36*
X+6861696Y+1927048D02*
X+6861696Y+1995434D01*
X+6910053Y+2043791D01*
X+6978439Y+2043791D01*
X+7026796Y+1995434D01*
X+7026796Y+1927048D01*
X+6978439Y+1878691D01*
X+6910053Y+1878691D01*
X+6861696Y+1927048D01*
G37*
G36*
X+7115696Y+1927048D02*
X+7115696Y+1995434D01*
X+7164053Y+2043791D01*
X+7232439Y+2043791D01*
X+7280796Y+1995434D01*
X+7280796Y+1927048D01*
X+7232439Y+1878691D01*
X+7164053Y+1878691D01*
X+7115696Y+1927048D01*
G37*
G36*
X+7369696Y+1927048D02*
X+7369696Y+1995434D01*
X+7418053Y+2043791D01*
X+7486439Y+2043791D01*
X+7534796Y+1995434D01*
X+7534796Y+1927048D01*
X+7486439Y+1878691D01*
X+7418053Y+1878691D01*
X+7369696Y+1927048D01*
G37*
G36*
X+7623696Y+1927048D02*
X+7623696Y+1995434D01*
X+7672053Y+2043791D01*
X+7740439Y+2043791D01*
X+7788796Y+1995434D01*
X+7788796Y+1927048D01*
X+7740439Y+1878691D01*
X+7672053Y+1878691D01*
X+7623696Y+1927048D01*
G37*
G36*
X+7877696Y+1927048D02*
X+7877696Y+1995434D01*
X+7926053Y+2043791D01*
X+7994439Y+2043791D01*
X+8042796Y+1995434D01*
X+8042796Y+1927048D01*
X+7994439Y+1878691D01*
X+7926053Y+1878691D01*
X+7877696Y+1927048D01*
G37*
G36*
X+8131696Y+1927048D02*
X+8131696Y+1995434D01*
X+8180053Y+2043791D01*
X+8248439Y+2043791D01*
X+8296796Y+1995434D01*
X+8296796Y+1927048D01*
X+8248439Y+1878691D01*
X+8180053Y+1878691D01*
X+8131696Y+1927048D01*
G37*
G36*
X+8385696Y+1927048D02*
X+8385696Y+1995434D01*
X+8434053Y+2043791D01*
X+8502439Y+2043791D01*
X+8550796Y+1995434D01*
X+8550796Y+1927048D01*
X+8502439Y+1878691D01*
X+8434053Y+1878691D01*
X+8385696Y+1927048D01*
G37*
G36*
X+8639696Y+1927048D02*
X+8639696Y+1995434D01*
X+8688053Y+2043791D01*
X+8756439Y+2043791D01*
X+8804796Y+1995434D01*
X+8804796Y+1927048D01*
X+8756439Y+1878691D01*
X+8688053Y+1878691D01*
X+8639696Y+1927048D01*
G37*
G36*
X+8893696Y+1927048D02*
X+8893696Y+1995434D01*
X+8942053Y+2043791D01*
X+9010439Y+2043791D01*
X+9058796Y+1995434D01*
X+9058796Y+1927048D01*
X+9010439Y+1878691D01*
X+8942053Y+1878691D01*
X+8893696Y+1927048D01*
G37*
G36*
X+9147696Y+1927048D02*
X+9147696Y+1995434D01*
X+9196053Y+2043791D01*
X+9264439Y+2043791D01*
X+9312796Y+1995434D01*
X+9312796Y+1927048D01*
X+9264439Y+1878691D01*
X+9196053Y+1878691D01*
X+9147696Y+1927048D01*
G37*
G36*
X+9401696Y+1927048D02*
X+9401696Y+1995434D01*
X+9450053Y+2043791D01*
X+9518439Y+2043791D01*
X+9566796Y+1995434D01*
X+9566796Y+1927048D01*
X+9518439Y+1878691D01*
X+9450053Y+1878691D01*
X+9401696Y+1927048D01*
G37*
G36*
X+9655696Y+1927048D02*
X+9655696Y+1995434D01*
X+9704053Y+2043791D01*
X+9772439Y+2043791D01*
X+9820796Y+1995434D01*
X+9820796Y+1927048D01*
X+9772439Y+1878691D01*
X+9704053Y+1878691D01*
X+9655696Y+1927048D01*
G37*
G36*
X+9909696Y+1927048D02*
X+9909696Y+1995434D01*
X+9958053Y+2043791D01*
X+10026439Y+2043791D01*
X+10074796Y+1995434D01*
X+10074796Y+1927048D01*
X+10026439Y+1878691D01*
X+9958053Y+1878691D01*
X+9909696Y+1927048D01*
G37*
G36*
X+10163696Y+1927048D02*
X+10163696Y+1995434D01*
X+10212053Y+2043791D01*
X+10280439Y+2043791D01*
X+10328796Y+1995434D01*
X+10328796Y+1927048D01*
X+10280439Y+1878691D01*
X+10212053Y+1878691D01*
X+10163696Y+1927048D01*
G37*
G36*
X+10417696Y+1927048D02*
X+10417696Y+1995434D01*
X+10466053Y+2043791D01*
X+10534439Y+2043791D01*
X+10582796Y+1995434D01*
X+10582796Y+1927048D01*
X+10534439Y+1878691D01*
X+10466053Y+1878691D01*
X+10417696Y+1927048D01*
G37*
G36*
X+10671696Y+1927048D02*
X+10671696Y+1995434D01*
X+10720053Y+2043791D01*
X+10788439Y+2043791D01*
X+10836796Y+1995434D01*
X+10836796Y+1927048D01*
X+10788439Y+1878691D01*
X+10720053Y+1878691D01*
X+10671696Y+1927048D01*
G37*
G36*
X+10925696Y+1927048D02*
X+10925696Y+1995434D01*
X+10974053Y+2043791D01*
X+11042439Y+2043791D01*
X+11090796Y+1995434D01*
X+11090796Y+1927048D01*
X+11042439Y+1878691D01*
X+10974053Y+1878691D01*
X+10925696Y+1927048D01*
G37*
G36*
X+11179696Y+1927048D02*
X+11179696Y+1995434D01*
X+11228053Y+2043791D01*
X+11296439Y+2043791D01*
X+11344796Y+1995434D01*
X+11344796Y+1927048D01*
X+11296439Y+1878691D01*
X+11228053Y+1878691D01*
X+11179696Y+1927048D01*
G37*
G36*
X+11433696Y+1927048D02*
X+11433696Y+1995434D01*
X+11482053Y+2043791D01*
X+11550439Y+2043791D01*
X+11598796Y+1995434D01*
X+11598796Y+1927048D01*
X+11550439Y+1878691D01*
X+11482053Y+1878691D01*
X+11433696Y+1927048D01*
G37*
G36*
X+11687696Y+1927048D02*
X+11687696Y+1995434D01*
X+11736053Y+2043791D01*
X+11804439Y+2043791D01*
X+11852796Y+1995434D01*
X+11852796Y+1927048D01*
X+11804439Y+1878691D01*
X+11736053Y+1878691D01*
X+11687696Y+1927048D01*
G37*
G36*
X+11941696Y+1927048D02*
X+11941696Y+1995434D01*
X+11990053Y+2043791D01*
X+12058439Y+2043791D01*
X+12106796Y+1995434D01*
X+12106796Y+1927048D01*
X+12058439Y+1878691D01*
X+11990053Y+1878691D01*
X+11941696Y+1927048D01*
G37*
G36*
X+12195696Y+1927048D02*
X+12195696Y+1995434D01*
X+12244053Y+2043791D01*
X+12312439Y+2043791D01*
X+12360796Y+1995434D01*
X+12360796Y+1927048D01*
X+12312439Y+1878691D01*
X+12244053Y+1878691D01*
X+12195696Y+1927048D01*
G37*
G36*
X+12449696Y+1927048D02*
X+12449696Y+1995434D01*
X+12498053Y+2043791D01*
X+12566439Y+2043791D01*
X+12614796Y+1995434D01*
X+12614796Y+1927048D01*
X+12566439Y+1878691D01*
X+12498053Y+1878691D01*
X+12449696Y+1927048D01*
G37*
G36*
X+12703696Y+1927048D02*
X+12703696Y+1995434D01*
X+12752053Y+2043791D01*
X+12820439Y+2043791D01*
X+12868796Y+1995434D01*
X+12868796Y+1927048D01*
X+12820439Y+1878691D01*
X+12752053Y+1878691D01*
X+12703696Y+1927048D01*
G37*
G36*
X+13478690Y+1165381D02*
X+13478690Y+1233767D01*
X+13527047Y+1282124D01*
X+13595433Y+1282124D01*
X+13643790Y+1233767D01*
X+13643790Y+1165381D01*
X+13595433Y+1117024D01*
X+13527047Y+1117024D01*
X+13478690Y+1165381D01*
G37*
G36*
X+13478690Y-4930619D02*
X+13478690Y-4862233D01*
X+13527047Y-4813876D01*
X+13595433Y-4813876D01*
X+13643790Y-4862233D01*
X+13643790Y-4930619D01*
X+13595433Y-4978976D01*
X+13527047Y-4978976D01*
X+13478690Y-4930619D01*
G37*
G36*
X+13478690Y-5184619D02*
X+13478690Y-5116233D01*
X+13527047Y-5067876D01*
X+13595433Y-5067876D01*
X+13643790Y-5116233D01*
X+13643790Y-5184619D01*
X+13595433Y-5232976D01*
X+13527047Y-5232976D01*
X+13478690Y-5184619D01*
G37*
G36*
X+13478690Y-5438619D02*
X+13478690Y-5370233D01*
X+13527047Y-5321876D01*
X+13595433Y-5321876D01*
X+13643790Y-5370233D01*
X+13643790Y-5438619D01*
X+13595433Y-5486976D01*
X+13527047Y-5486976D01*
X+13478690Y-5438619D01*
G37*
G36*
X+13478690Y-10772619D02*
X+13478690Y-10704233D01*
X+13527047Y-10655876D01*
X+13595433Y-10655876D01*
X+13643790Y-10704233D01*
X+13643790Y-10772619D01*
X+13595433Y-10820976D01*
X+13527047Y-10820976D01*
X+13478690Y-10772619D01*
G37*
G36*
X+13478690Y-11534619D02*
X+13478690Y-11466233D01*
X+13527047Y-11417876D01*
X+13595433Y-11417876D01*
X+13643790Y-11466233D01*
X+13643790Y-11534619D01*
X+13595433Y-11582976D01*
X+13527047Y-11582976D01*
X+13478690Y-11534619D01*
G37*
G36*
X+13478690Y-11788619D02*
X+13478690Y-11720233D01*
X+13527047Y-11671876D01*
X+13595433Y-11671876D01*
X+13643790Y-11720233D01*
X+13643790Y-11788619D01*
X+13595433Y-11836976D01*
X+13527047Y-11836976D01*
X+13478690Y-11788619D01*
G37*
G36*
X+13478690Y-12042619D02*
X+13478690Y-11974233D01*
X+13527047Y-11925876D01*
X+13595433Y-11925876D01*
X+13643790Y-11974233D01*
X+13643790Y-12042619D01*
X+13595433Y-12090976D01*
X+13527047Y-12090976D01*
X+13478690Y-12042619D01*
G37*
G36*
X+13478690Y-12296619D02*
X+13478690Y-12228233D01*
X+13527047Y-12179876D01*
X+13595433Y-12179876D01*
X+13643790Y-12228233D01*
X+13643790Y-12296619D01*
X+13595433Y-12344976D01*
X+13527047Y-12344976D01*
X+13478690Y-12296619D01*
G37*
G36*
X+13478690Y-12550619D02*
X+13478690Y-12482233D01*
X+13527047Y-12433876D01*
X+13595433Y-12433876D01*
X+13643790Y-12482233D01*
X+13643790Y-12550619D01*
X+13595433Y-12598976D01*
X+13527047Y-12598976D01*
X+13478690Y-12550619D01*
G37*
G36*
X+13478690Y-13820619D02*
X+13478690Y-13752233D01*
X+13527047Y-13703876D01*
X+13595433Y-13703876D01*
X+13643790Y-13752233D01*
X+13643790Y-13820619D01*
X+13595433Y-13868976D01*
X+13527047Y-13868976D01*
X+13478690Y-13820619D01*
G37*
G36*
X+13478690Y-14074619D02*
X+13478690Y-14006233D01*
X+13527047Y-13957876D01*
X+13595433Y-13957876D01*
X+13643790Y-14006233D01*
X+13643790Y-14074619D01*
X+13595433Y-14122976D01*
X+13527047Y-14122976D01*
X+13478690Y-14074619D01*
G37*
G36*
X+11822255Y+823323D02*
X+12479611Y+823323D01*
X+13619778Y-316844D01*
X+13619778Y-853248D01*
X+13632478Y-865948D01*
X+13632478Y-992200D01*
X+13543205Y-1081473D01*
X+13416953Y-1081473D01*
X+13327680Y-992200D01*
X+13327680Y-865948D01*
X+13340380Y-853248D01*
X+13340380Y-432574D01*
X+12363881Y+543925D01*
X+11822255Y+543925D01*
X+11809555Y+531225D01*
X+11683303Y+531225D01*
X+11594030Y+620498D01*
X+11594030Y+746750D01*
X+11683303Y+836023D01*
X+11809555Y+836023D01*
X+11822255Y+823323D01*
G37*
%LPD*%
G36*
X+5768301Y-9747216D02*
X+5768301Y-9805081D01*
X+5860301Y-9897081D01*
X+5860301Y-9925023D01*
X+5850000Y-9935324D01*
X+5762877Y-9848201D01*
X+5637123Y-9848201D01*
X+5550000Y-9935324D01*
X+5539699Y-9925023D01*
X+5539699Y-9491026D01*
X+5564572Y-9515899D01*
X+5743428Y-9515899D01*
X+5768301Y-9491026D01*
X+5768301Y-9747216D01*
G37*
G36*
X+10039093Y+288299D02*
X+8549701Y+288299D01*
X+8549701Y-240299D01*
X+10362901Y-240299D01*
X+10362901Y-251607D01*
X+10267188Y-347320D01*
X+7865985Y-347320D01*
X+7650849Y-562456D01*
X+7604871Y-562456D01*
X+7677899Y-489428D01*
X+7677899Y-310572D01*
X+7551428Y-184101D01*
X+7372572Y-184101D01*
X+7335000Y-221673D01*
X+7297428Y-184101D01*
X+7118572Y-184101D01*
X+7081000Y-221673D01*
X+7043428Y-184101D01*
X+6865099Y-184101D01*
X+6865099Y+31615D01*
X+7312801Y+479317D01*
X+7312801Y+415832D01*
X+7431832Y+296801D01*
X+7600168Y+296801D01*
X+7719199Y+415832D01*
X+7719199Y+584168D01*
X+7668466Y+634901D01*
X+9726564Y+634901D01*
X+10039093Y+288299D01*
G37*
G36*
X+1921673Y-527000D02*
X+1884101Y-564572D01*
X+1884101Y-742901D01*
X+1644466Y-742901D01*
X+1703199Y-684168D01*
X+1703199Y-515832D01*
X+1698466Y-511099D01*
X+1905772Y-511099D01*
X+1921673Y-527000D01*
G37*
G36*
X+2561723Y-1132087D02*
X+2561723Y-3685537D01*
X+3075538Y-4199352D01*
X+2627288Y-4647601D01*
X+1889766Y-4647601D01*
X+1903199Y-4634168D01*
X+1903199Y-4465832D01*
X+1860367Y-4423000D01*
X+1903199Y-4380168D01*
X+1903199Y-4212325D01*
X+1952398Y-4163126D01*
X+1952398Y-4036874D01*
X+1863126Y-3947602D01*
X+1736874Y-3947602D01*
X+1547601Y-4136875D01*
X+1547601Y-4161032D01*
X+1496801Y-4211832D01*
X+1496801Y-4380168D01*
X+1539633Y-4423000D01*
X+1496801Y-4465832D01*
X+1496801Y-4634168D01*
X+1510234Y-4647601D01*
X+1265099Y-4647601D01*
X+1265099Y-998583D01*
X+1339615Y-1073099D01*
X+1959772Y-1073099D01*
X+2010572Y-1123899D01*
X+2189428Y-1123899D01*
X+2315899Y-997428D01*
X+2315899Y-886263D01*
X+2561723Y-1132087D01*
G37*
%LPC*%
G36*
X+1965899Y-2506572D02*
X+1965899Y-2685428D01*
X+1928327Y-2723000D01*
X+1965899Y-2760572D01*
X+1965899Y-2939428D01*
X+1839428Y-3065899D01*
X+1660572Y-3065899D01*
X+1534101Y-2939428D01*
X+1534101Y-2760572D01*
X+1571673Y-2723000D01*
X+1534101Y-2685428D01*
X+1534101Y-2506572D01*
X+1660572Y-2380101D01*
X+1839428Y-2380101D01*
X+1965899Y-2506572D01*
G37*
%LPD*%
G36*
X+10719199Y-7100452D02*
X+10719199Y-7032469D01*
X+10756055Y-7032469D01*
X+10810725Y-6977799D01*
X+10841852Y-6977799D01*
X+10719199Y-7100452D01*
G37*
G36*
X+10312801Y-7184168D02*
X+10375117Y-7246484D01*
X+9844048Y-7246484D01*
X+9703199Y-7105635D01*
X+9703199Y-7032469D01*
X+10312801Y-7032469D01*
X+10312801Y-7184168D01*
G37*
G36*
X+9296801Y-7184168D02*
X+9415832Y-7303199D01*
X+9505635Y-7303199D01*
X+9873169Y-7670733D01*
X+9873169Y-8453729D01*
X+9677799Y-8649099D01*
X+9677799Y-8609568D01*
X+9703199Y-8584168D01*
X+9703199Y-8415832D01*
X+9631799Y-8344432D01*
X+9631799Y-8127528D01*
X+9669899Y-8089428D01*
X+9669899Y-7910572D01*
X+9543428Y-7784101D01*
X+9364572Y-7784101D01*
X+9327000Y-7821673D01*
X+9289428Y-7784101D01*
X+9110572Y-7784101D01*
X+8984101Y-7910572D01*
X+8984101Y-8089428D01*
X+9110572Y-8215899D01*
X+9276201Y-8215899D01*
X+9276201Y-8296801D01*
X+9161832Y-8296801D01*
X+9042801Y-8415832D01*
X+9042801Y-8584168D01*
X+9161832Y-8703199D01*
X+9322201Y-8703199D01*
X+9322201Y-8926355D01*
X+9172355Y-9076201D01*
X+9118762Y-9076201D01*
X+9199709Y-8995254D01*
X+9199709Y-8869002D01*
X+9110435Y-8779729D01*
X+8952399Y-8621693D01*
X+8952399Y-7032469D01*
X+9296801Y-7032469D01*
X+9296801Y-7184168D01*
G37*
G36*
X+12403713Y-7005847D02*
X+12508245Y-7005847D01*
X+12508245Y-7921951D01*
X+12508495Y-7922201D01*
X+12426353Y-7922201D01*
X+12322201Y-8026353D01*
X+12322201Y-8049201D01*
X+12299353Y-8049201D01*
X+12195201Y-8153353D01*
X+12195201Y-8300647D01*
X+12299353Y-8404799D01*
X+12322201Y-8404799D01*
X+12322201Y-8427647D01*
X+12426353Y-8531799D01*
X+12504701Y-8531799D01*
X+12516872Y-8543970D01*
X+12516872Y-8574108D01*
X+12435854Y-8574108D01*
X+12412766Y-8597196D01*
X+12200763Y-8597196D01*
X+11898044Y-8899916D01*
X+11655455Y-8899916D01*
X+11542135Y-9013236D01*
X+11318198Y-9013236D01*
X+10967400Y-9364034D01*
X+10884168Y-9280801D01*
X+10803199Y-9280801D01*
X+10803199Y-9231832D01*
X+10684168Y-9112801D01*
X+10515832Y-9112801D01*
X+10396801Y-9231832D01*
X+10396801Y-9400168D01*
X+10515832Y-9519199D01*
X+10596801Y-9519199D01*
X+10596801Y-9568168D01*
X+10715832Y-9687199D01*
X+10795300Y-9687199D01*
X+10795300Y-9741227D01*
X+10569046Y-9967481D01*
X+10514366Y-9912801D01*
X+10355569Y-9912801D01*
X+10355569Y-8922865D01*
X+10562321Y-8716113D01*
X+10562321Y-8503199D01*
X+10684168Y-8503199D01*
X+10747668Y-8439699D01*
X+11626135Y-8439699D01*
X+11667237Y-8480801D01*
X+11615832Y-8480801D01*
X+11496801Y-8599832D01*
X+11496801Y-8768168D01*
X+11615832Y-8887199D01*
X+11784168Y-8887199D01*
X+11903199Y-8768168D01*
X+11903199Y-8719199D01*
X+11984168Y-8719199D01*
X+12103199Y-8600168D01*
X+12103199Y-8431832D01*
X+11984168Y-8312801D01*
X+11894365Y-8312801D01*
X+11741865Y-8160301D01*
X+11652399Y-8160301D01*
X+11652399Y-8145165D01*
X+11701848Y-8095716D01*
X+11918629Y-8095716D01*
X+12323804Y-7690541D01*
X+12323804Y-6947299D01*
X+12345165Y-6947299D01*
X+12403713Y-7005847D01*
G37*
%LPC*%
G36*
X+11080931Y-8612801D02*
X+11249267Y-8612801D01*
X+11368298Y-8731832D01*
X+11368298Y-8900168D01*
X+11249267Y-9019199D01*
X+11080931Y-9019199D01*
X+10961900Y-8900168D01*
X+10961900Y-8731832D01*
X+11080931Y-8612801D01*
G37*
%LPD*%
D10*
X+3750000Y+750000D02*
X+3750000Y+200000D01*
X+4250000Y+1250000D02*
X+4250000Y+200000D01*
X+5250000Y+750000D02*
X+4700000Y+200000D01*
X+4208000Y-5800000D02*
X+4208000Y-6900000D01*
X+4408000Y-7100000D01*
X+5700000Y-7100000D01*
X+5200000Y-6516000D02*
X+5428400Y-6744400D01*
X+5446000Y-6846000D01*
X+4400000Y-7300000D02*
X+4300000Y-7300000D01*
X+3700000Y-6700000D01*
X+3700000Y-6600000D01*
X+3700000Y-5800000D01*
X+2900000Y-5700000D02*
X+2900000Y-6300000D01*
X+4400000Y-8200000D02*
X+4400000Y-7900000D01*
X+5000000Y-7300000D01*
X+5446000Y-7646000D02*
X+5100000Y-7300000D01*
X+5000000Y-7300000D01*
X+4400000Y-7300000D01*
X+3200000Y-5800000D02*
X+3200000Y-6900000D01*
X+5200000Y-5500000D02*
X+5000000Y-5300000D01*
X+2200000Y-5500000D02*
X+2200000Y-5600000D01*
X+2200000Y-5895100D01*
X+2200000Y-5984000D01*
X+3954000Y-5038000D02*
X+3954000Y-5200000D01*
X+3854000Y-5300000D01*
X+3700000Y-5300000D01*
X+3400000Y-5654000D02*
X+3454000Y-5600000D01*
X+4262000Y-5600000D01*
X+4462000Y-5800000D01*
X+3450000Y-5050000D02*
X+2550000Y-5050000D01*
X+3700000Y-5300000D02*
X+3450000Y-5050000D01*
X+2550000Y-5050000D02*
X+2200000Y-5400000D01*
X+2200000Y-5500000D01*
X+7700000Y-8000000D02*
X+7700000Y-8101600D01*
X+7700000Y-8411100D01*
X+7746000Y-8500000D01*
X+7954000Y-8000000D02*
X+7954000Y-8411100D01*
X+8000000Y-8500000D01*
D11*
X+9200000Y-8000000D02*
X+9200000Y-8411100D01*
X+9246000Y-8500000D01*
X+9454000Y-8000000D02*
X+9454000Y-8411100D01*
X+9500000Y-8500000D01*
X+8500000Y-9500000D02*
X+8500000Y-9911100D01*
X+8546000Y-10000000D01*
X+8754000Y-9500000D02*
X+8754000Y-9911100D01*
X+8800000Y-10000000D01*
X+7954000Y-8000000D02*
X+7954000Y-7200000D01*
X+6154000Y-5400000D01*
X+5300000Y-5400000D01*
X+5200000Y-5500000D01*
X+9500000Y-8500000D02*
X+9500000Y-9000000D01*
X+9246000Y-9254000D01*
X+8754000Y-9254000D01*
X+8000000Y-8500000D02*
X+8754000Y-9254000D01*
D10*
X+8754000Y-9500000D01*
X+750000Y+330000D02*
X+985950Y+330000D01*
X+991595Y+324355D01*
X+1100000Y+215950D01*
X+1100000Y-152716D01*
X+3700000Y-4800000D02*
X+3900000Y-4600000D01*
X+3938052Y-4600000D01*
X+5000000Y-5300000D02*
X+4300000Y-4600000D01*
X+3938052Y-4600000D01*
X+3700000Y-4800000D02*
X+3700000Y-5038000D01*
X+6700000Y-400000D02*
X+4108000Y-2992000D01*
X+4108000Y-3600000D01*
X+6972788Y-501600D02*
X+4362000Y-3112388D01*
X+4362000Y-3600000D01*
X+10528000Y+24000D02*
X+10528000Y-319992D01*
X+10522950Y-325042D01*
X+10335573Y-512419D01*
X+10141256Y-512419D01*
X+7934370Y-512419D01*
X+7719234Y-727555D01*
X+7198743Y-727555D01*
X+6972788Y-501600D01*
X+6954000Y-400000D01*
X+10274000Y+24000D02*
X+10274000Y+274322D01*
X+9800000Y+800000D01*
X+7400000Y+800000D01*
X+6700000Y+100000D01*
X+6700000Y-400000D01*
X+1500000Y-346000D02*
X+2046000Y-346000D01*
X+2100000Y-400000D01*
D12*
X+1100000Y-458258D02*
X+1100000Y-455643D01*
D10*
X+1100000Y-152716D02*
X+1100000Y-455643D01*
X+2340459Y-630661D02*
X+2504000Y-467120D01*
X+2504000Y+1500000D01*
X+2317120Y-654000D02*
X+2726822Y-1063702D01*
X+2726822Y-1100000D01*
X+2100000Y-654000D02*
X+2317120Y-654000D01*
X+2340459Y-630661D01*
X+4207086Y-4054503D02*
X+4474418Y-4054503D01*
X+4616033Y-3912888D01*
X+4616033Y-3600033D01*
X+4616000Y-3600000D01*
X+4207086Y-4054503D02*
X+3164173Y-4054503D01*
X+2726822Y-3617152D01*
X+2726822Y-1100000D01*
X+100000Y-5100000D02*
X+100000Y-5244363D01*
X+1355637Y-6500000D01*
X+2300000Y-6500000D01*
X+2700000Y-6100000D01*
X+2700000Y-5500000D01*
X+2800000Y-5400000D01*
X+3400000Y-5400000D01*
X+2100000Y-908000D02*
X+1408000Y-908000D01*
X+1100000Y-600000D01*
X+1100000Y-458258D01*
D13*
X+5400000Y-9300000D02*
X+6400000Y-8300000D01*
X+6400000Y-7600000D01*
X+6679374Y-7320626D01*
X+7256314Y-7320626D01*
X+11854000Y-6000000D02*
X+12647944Y-6793944D01*
X+12647944Y-7699908D01*
X+12647944Y-7864086D01*
X+12799909Y-8016051D01*
X+12805318Y-8021460D01*
X+12973000Y-8021460D01*
X+11600000Y-6000000D02*
X+11600000Y-6050798D01*
X+12356802Y-6807600D01*
X+12420991Y-6807600D01*
X+12466839Y-6853448D01*
X+11900000Y-7500000D02*
X+11718531Y-7318531D01*
X+11718531Y-7060225D01*
X+9254000Y-4595694D01*
X+9254000Y-3750000D01*
X+10504000Y-3750000D02*
X+11087076Y-4333076D01*
X+11087076Y-6075254D01*
X+11373011Y-6361189D01*
X+11439854Y-6361189D01*
X+11640380Y-6361189D01*
X+12184105Y-6904914D01*
X+12184105Y-6968239D01*
X+12184105Y-7632676D01*
X+11860764Y-7956017D01*
X+11643983Y-7956017D01*
X+11500000Y-8100000D01*
D12*
X+1700000Y-4296000D02*
X+1700000Y-4200000D01*
X+1800000Y-4100000D01*
X+100000Y-5100000D02*
X-200000Y-5100000D01*
X+1054000Y-5100000D02*
X+1054000Y-5254000D01*
X+1100000Y-5300000D01*
X+1500000Y-346000D02*
X+1500000Y-300000D01*
X+1700000Y-100000D01*
D10*
X+330000Y+750000D02*
X+623225Y+1043225D01*
X+706962Y+1043225D01*
X+1039046Y+1043225D01*
X+1442933Y+639338D01*
X+1500000Y+582271D01*
X+1500000Y-300000D01*
D13*
X+2504000Y+1500000D02*
X+2690363Y+1313637D01*
X+9254000Y-3750000D02*
X+9550000Y-3750000D01*
X+9600000Y-3800000D01*
X+10504000Y-3750000D02*
X+10850000Y-3750000D01*
X+10900000Y-3800000D01*
X+9900000Y-12900000D02*
X+9900000Y-13200000D01*
X+5400000Y-9300000D02*
X+5400000Y-10000000D01*
D12*
X+5654000Y-9300000D02*
X+5654000Y-9954000D01*
X+5700000Y-10000000D01*
D13*
X+5908000Y-9300000D02*
X+5908000Y-9747216D01*
X+6000000Y-9839216D01*
X+6000000Y-10000000D01*
X+3600000Y-3600000D02*
X+3360758Y-3600000D01*
X+3200000Y-3600000D01*
X+2690363Y+1313637D02*
X+2690363Y+1109637D01*
X+2700000Y+1100000D01*
X+3504000Y+1500000D02*
X+3504000Y+1196000D01*
X+3600000Y+1100000D01*
X+4504000Y+1500000D02*
X+4504000Y+1196000D01*
X+4600000Y+1100000D01*
X+5504000Y+1500000D02*
X+5504000Y+1196000D01*
X+5600000Y+1100000D01*
X+6504000Y+1500000D02*
X+6504000Y+1196000D01*
X+6600000Y+1100000D01*
D14*
X+2317120Y-654000D02*
X+2496583Y-654000D01*
D13*
X+2854000Y-654000D01*
X+2900000Y-700000D01*
X+11754000Y-3750000D02*
X+11754000Y-4046000D01*
X+11600000Y-4200000D01*
X+11754000Y-4046000D02*
X+11754000Y-5554000D01*
X+12315337Y-6115337D01*
X+12315337Y-6129865D01*
X+11876793Y-6762125D02*
X+12065010Y-6950342D01*
X+12065010Y-7574186D01*
X+11939196Y-7700000D01*
X+11500000Y-7700000D01*
X+10116000Y-6700000D02*
X+10671651Y-6700000D01*
X+10714040Y-6657611D01*
X+10884611Y-6657611D01*
X+10900000Y-6673000D01*
X+8754619Y-3160992D02*
X+8754619Y-5438709D01*
X+9079021Y-5763111D01*
D12*
X+12500000Y-8354000D02*
X+12542426Y-8354000D01*
X+12669271Y-8480845D01*
X+12669271Y-8961831D01*
X+12639873Y-8991229D01*
X+12625195Y-9005907D01*
X+12585302Y-9005907D01*
D13*
X+11200000Y-7565099D02*
X+11049238Y-7565099D01*
X+11500000Y-7700000D02*
X+11365099Y-7565099D01*
X+11337047Y-7565099D01*
X+11200000Y-7565099D01*
X+10600000Y-8300000D02*
X+11684000Y-8300000D01*
X+11900000Y-8516000D01*
X+10215870Y-10553319D02*
X+10215870Y-11420039D01*
X+10215832Y-11420077D01*
X+10750312Y-11954557D01*
X+11700000Y-11954557D01*
X+11745443Y-11954557D01*
X+11804721Y-11895279D01*
X+11900000Y-11800000D01*
X+11900000Y-11300000D01*
X+11600000Y-9152935D02*
X+11713320Y-9039615D01*
X+11778153Y-9039615D01*
X+11955908Y-9039615D01*
X+11955909Y-9039615D01*
X+11997762Y-8997762D01*
X+12509501Y-8751907D02*
X+12444482Y-8751907D01*
X+12429470Y-8736895D01*
X+12258628Y-8736895D01*
X+11997762Y-8997762D01*
X+11955909Y-9039615D01*
X+11955908Y-9039615D01*
X+11600000Y-9152935D02*
X+11376063Y-9152935D01*
X+11344054Y-9184944D01*
X+10934999Y-9593999D01*
X+10934999Y-9799092D01*
X+10615185Y-10118906D01*
X+10433104Y-10118906D01*
X+10430198Y-10116000D01*
X+11100000Y-9700000D02*
X+11107334Y-9692666D01*
X+11545481Y-9254519D02*
X+11645256Y-9254519D01*
X+11758615Y-9141160D01*
X+11997006Y-9141160D01*
X+12019083Y-9119083D01*
X+12020113Y-9119083D01*
X+12279162Y-8860034D01*
X+12363628Y-8860034D01*
X+12382501Y-8878907D01*
X+11100000Y-9700000D02*
X+11100000Y-9613536D01*
X+11107334Y-9606202D01*
X+11146383Y-9567153D01*
X+11107334Y-9692666D02*
X+11107334Y-9606202D01*
X+11146383Y-9567153D02*
X+11459026Y-9254510D01*
X+11545472Y-9254510D01*
X+11545481Y-9254519D01*
X+11396726Y-9796726D02*
X+11396726Y-9658499D01*
X+11396726Y-9460368D01*
X+11498227Y-9358867D01*
X+11696358Y-9358867D01*
X+11699132Y-9356093D01*
X+12483093Y-9356093D01*
X+12500000Y-9373000D01*
D12*
X+12585302Y-9005907D02*
X+12509501Y-9005907D01*
D13*
X+11049238Y-7565099D02*
X+10657523Y-7565099D01*
X+10422622Y-7800000D01*
X+10422622Y-8500000D01*
X+10422622Y-8594016D01*
X+10422622Y-8638390D01*
X+10422622Y-8658248D01*
X+10390435Y-8690435D01*
X+10215870Y-8865000D01*
X+10215870Y-10553319D01*
X+9500000Y-7100000D02*
X+9786183Y-7386183D01*
X+10013817Y-7386183D02*
X+10100000Y-7386183D01*
X+9786183Y-7386183D02*
X+10013817Y-7386183D01*
X+10100000Y-7386183D02*
X+10631032Y-7386183D01*
X+11027000Y-6990215D01*
X+11027000Y-6800000D01*
X+9786183Y-7386183D02*
X+9900000Y-7500000D01*
X+10012868Y-7612868D01*
X+10012868Y-8511594D01*
X+9800000Y-8724462D01*
D10*
X+1100000Y-600000D02*
X+1100000Y-4800000D01*
X+1100000Y-5000000D01*
X+1054000Y-5100000D01*
D12*
X+12585302Y-9005907D02*
X+12672537Y-9093142D01*
X+12672537Y-9572659D01*
X+12676457Y-9576579D01*
X+12626036Y-9627000D02*
X+12676457Y-9677421D01*
X+12676457Y-9800000D01*
X+12676457Y-10271945D01*
X+12910092Y-10505580D01*
X+12973000Y-10505580D01*
X+12676457Y-9576579D02*
X+12626036Y-9627000D01*
X+12500000Y-9627000D01*
X+8800000Y-6880070D02*
X+8800000Y-8684818D01*
X+9047310Y-8932128D01*
X+1100000Y-4800000D02*
X+2690413Y-4800000D01*
X+2973953Y-4516460D01*
X+3164453Y-4325960D01*
X+5965509Y-4325960D01*
X+8519619Y-6880070D01*
X+8800000Y-6880070D01*
X+10692930Y-6880070D01*
X+10773000Y-6800000D01*
D13*
X+10895850Y-13886950D02*
X+10886950Y-13886950D01*
X+10513050Y-13886950D01*
X+10504749Y-13895251D01*
X+9930207Y-13895251D01*
X+9569302Y-13534346D01*
X+9569302Y-9430698D01*
X+9800000Y-9200000D01*
X+9800000Y-8724462D01*
X+10700000Y-13700000D02*
X+11600000Y-13700000D01*
X+11625000Y-13675000D01*
X+11600000Y-13700000D02*
X+11413050Y-13886950D01*
X+10895850Y-13886950D01*
D12*
X+12973000Y-7470280D02*
X+13067715Y-7564995D01*
X+13184555Y-7564995D01*
X+13227000Y-7607440D01*
D13*
X+13276609Y-4637840D02*
X+13477291Y-4637840D01*
X+13576578Y-4538553D01*
X+13639294Y-4475837D01*
X+13639294Y-1443069D01*
X+13496225Y-1300000D01*
X+13400000Y-1300000D01*
X+11544000Y+24000D02*
X+11544000Y-330984D01*
X+12062805Y-849789D01*
X+12113016Y-900000D01*
X+12300000Y-900000D01*
X+13000000Y-900000D01*
X+13400000Y-1300000D01*
X+11746429Y+683624D02*
X+12421746Y+683624D01*
X+13480079Y-374709D01*
X+13480079Y-929074D01*
X+13000000Y-1900000D02*
X+12237143Y-2662857D01*
X+12237143Y-2957213D01*
X+12237143Y-3000000D01*
X+11798000Y-1500000D02*
X+11798000Y-2518070D01*
X+12237143Y-2957213D01*
X+12237143Y-3000000D02*
X+12237143Y-5376261D01*
X+12411852Y-5550970D01*
X+12591040Y-5550970D01*
X+12658236Y-5483774D01*
X+12842010Y-5300000D01*
X+13100000Y-5300000D01*
X+13276609Y-5123391D01*
X+13276609Y-4917240D01*
D15*
X+3750000Y+200000D03*
X+4250000Y+200000D03*
X+4700000Y+200000D03*
X+2900000Y-5700000D03*
X+2900000Y-6300000D03*
X+3200000Y-5800000D03*
X+3200000Y-6900000D03*
X+5250000Y+750000D03*
X+4250000Y+1250000D03*
X+3750000Y+750000D03*
X+7256314Y-7320626D03*
X+12466839Y-6853448D03*
X+11500000Y-8100000D03*
D16*
X+13053240Y-14861241D03*
X+12799240Y-14861241D03*
X+12545240Y-14861241D03*
X+12291240Y-14861241D03*
X+12037240Y-14861241D03*
X+11783240Y-14861241D03*
X+11529240Y-14861241D03*
X+11275240Y-14861241D03*
X+11021240Y-14861241D03*
X+10767240Y-14861241D03*
X+10513240Y-14861241D03*
X+10259240Y-14861241D03*
X+10005240Y-14861241D03*
X+9751240Y-14861241D03*
X+9497240Y-14861241D03*
X+9243240Y-14861241D03*
X+8989240Y-14861241D03*
X+8735240Y-14861241D03*
X+8481240Y-14861241D03*
X+8227240Y-14861241D03*
X+7973240Y-14861241D03*
X+7719240Y-14861241D03*
X+7465240Y-14861241D03*
X+7211240Y-14861241D03*
X+6957240Y-14861241D03*
X+6703240Y-14861241D03*
X+6449240Y-14861241D03*
X+6195240Y-14861241D03*
X+5941240Y-14861241D03*
X+5687240Y-14861241D03*
X+5433240Y-14861241D03*
X+5179240Y-14861241D03*
X+4925240Y-14861241D03*
X+4671240Y-14861241D03*
X+4417240Y-14861241D03*
X+4163240Y-14861241D03*
X+3909240Y-14861241D03*
X+3655240Y-14861241D03*
X+3401240Y-14861241D03*
X+3147240Y-14861241D03*
X+2893240Y-14861241D03*
X+2639240Y-14861241D03*
X+2385240Y-14861241D03*
X+2131240Y-14861241D03*
X+1877240Y-14861241D03*
X+1623240Y-14861241D03*
X+1369240Y-14861241D03*
X+1115240Y-14861241D03*
X+861240Y-14861241D03*
X+607240Y-14861241D03*
X+353240Y-14861241D03*
X-361240Y-14205316D03*
X-361240Y-13951316D03*
X-361240Y-13697316D03*
X-361240Y-13443316D03*
X-361240Y-13189316D03*
X-361240Y-12935316D03*
X-361240Y-12681316D03*
X-361240Y-12427316D03*
X-361240Y-12173316D03*
X-361240Y-11919316D03*
X-361240Y-11665316D03*
X-361240Y-11411316D03*
X-361240Y-11157316D03*
X-361240Y-10903316D03*
X-361240Y-10649316D03*
X-361240Y-10395316D03*
X-361240Y-10141316D03*
X-361240Y-9887316D03*
X-361240Y-9633316D03*
X-361240Y-9379316D03*
X-361240Y-9125316D03*
X-361240Y-8871316D03*
X-361240Y-8617316D03*
X-361240Y-8363316D03*
X-361240Y-8109316D03*
X-361240Y-7855316D03*
X-361240Y-7601316D03*
X-361240Y-7347316D03*
X-361240Y-7093316D03*
X-361240Y-6839316D03*
X-361240Y-6585316D03*
X-361240Y-6331316D03*
X-361240Y-6077316D03*
X-361240Y-5823316D03*
X-361240Y-5569316D03*
X-361240Y-5315316D03*
X-361240Y-5061316D03*
X-361240Y-4807316D03*
X-361240Y-4553316D03*
X-361240Y-4299316D03*
X-361240Y-4045316D03*
X-361240Y-3791316D03*
X-361240Y-3537316D03*
X-361240Y-3283316D03*
X-361240Y-3029316D03*
X-361240Y-2775316D03*
X-361240Y-2521316D03*
X-361240Y-2267316D03*
X-361240Y-2013316D03*
X-361240Y-1759316D03*
X-361240Y-1505316D03*
X-361240Y-1251316D03*
X-361240Y-997316D03*
X-361240Y-743316D03*
X-361240Y-489316D03*
X-361240Y-235316D03*
X-361240Y+18684D03*
X-361240Y+272684D03*
X-361240Y+526684D03*
X-361240Y+780684D03*
X-361240Y+1034684D03*
X-361240Y+1288684D03*
X+340246Y+1961241D03*
X+594246Y+1961241D03*
X+848246Y+1961241D03*
X+1102246Y+1961241D03*
X+1356246Y+1961241D03*
X+1610246Y+1961241D03*
X+1864246Y+1961241D03*
X+2118246Y+1961241D03*
X+2372246Y+1961241D03*
X+6690246Y+1961241D03*
X+6944246Y+1961241D03*
X+7198246Y+1961241D03*
X+7452246Y+1961241D03*
X+7706246Y+1961241D03*
X+7960246Y+1961241D03*
X+8214246Y+1961241D03*
X+8468246Y+1961241D03*
X+8722246Y+1961241D03*
X+8976246Y+1961241D03*
X+9230246Y+1961241D03*
X+9484246Y+1961241D03*
X+9738246Y+1961241D03*
X+9992246Y+1961241D03*
X+10246246Y+1961241D03*
X+10500246Y+1961241D03*
X+10754246Y+1961241D03*
X+11008246Y+1961241D03*
X+11262246Y+1961241D03*
X+11516246Y+1961241D03*
X+11770246Y+1961241D03*
X+12024246Y+1961241D03*
X+12278246Y+1961241D03*
X+12532246Y+1961241D03*
X+12786246Y+1961241D03*
X+13040246Y+1961241D03*
X+13561240Y+1453574D03*
X+13561240Y+1199574D03*
X+13561240Y-4896426D03*
X+13561240Y-5150426D03*
X+13561240Y-5404426D03*
X+13561240Y-10738426D03*
X+13561240Y-10992426D03*
X+13561240Y-11246426D03*
X+13561240Y-11500426D03*
X+13561240Y-11754426D03*
X+13561240Y-12008426D03*
X+13561240Y-12262426D03*
X+13561240Y-12516426D03*
X+13561240Y-13786426D03*
X+13561240Y-14040426D03*
X+13561240Y-14294426D03*
D15*
X+12315337Y-6129865D03*
X+11876793Y-6762125D03*
X+8754619Y-3160992D03*
X+9079021Y-5763111D03*
X+9047310Y-8932128D03*
X+11746429Y+683624D03*
X+13480079Y-929074D03*
D11*
X+13116649Y+2001581D02*
X+13074439Y+2043791D01*
X+13006053Y+2043791D01*
X+12957696Y+1995434D01*
X+12957696Y+1927048D01*
X+13006053Y+1878691D01*
X+13057101Y+1878691D01*
X+13057101Y+1657967D01*
X+13257967Y+1457101D01*
X+13478690Y+1457101D01*
X+13478690Y+1419381D01*
X+13527047Y+1371024D01*
X+13595433Y+1371024D01*
X+13643790Y+1419381D01*
X+13643790Y+1487767D01*
X+13608244Y+1523312D01*
X+13688240Y+1603308D01*
X+13688240Y-1294451D01*
X+13554090Y-1160301D01*
X+13474977Y-1160301D01*
X+13462877Y-1148201D01*
X+13445765Y-1148201D01*
X+13057865Y-760301D01*
X+12170881Y-760301D01*
X+11683699Y-273119D01*
X+11683699Y-240299D01*
X+12506299Y-240299D01*
X+12506299Y+288299D01*
X+10439099Y+288299D01*
X+10439099Y+337764D01*
X+9899133Y+936600D01*
X+9835060Y+965099D01*
X+7331615Y+965099D01*
X+6534901Y+168385D01*
X+6534901Y-259772D01*
X+6484101Y-310572D01*
X+6484101Y-382415D01*
X+3942901Y-2923615D01*
X+3942901Y-3384101D01*
X+3764572Y-3384101D01*
X+3727000Y-3421673D01*
X+3689428Y-3384101D01*
X+3510572Y-3384101D01*
X+3434372Y-3460301D01*
X+3274977Y-3460301D01*
X+3262877Y-3448201D01*
X+3137123Y-3448201D01*
X+3048201Y-3537123D01*
X+3048201Y-3662877D01*
X+3137123Y-3751799D01*
X+3262877Y-3751799D01*
X+3274977Y-3739699D01*
X+3434372Y-3739699D01*
X+3510572Y-3815899D01*
X+3689428Y-3815899D01*
X+3727000Y-3778327D01*
X+3764572Y-3815899D01*
X+3943428Y-3815899D01*
X+3981000Y-3778327D01*
X+4018572Y-3815899D01*
X+4197428Y-3815899D01*
X+4235000Y-3778327D01*
X+4272572Y-3815899D01*
X+4450934Y-3815899D01*
X+4450934Y-3844503D01*
X+4406033Y-3889404D01*
X+3232558Y-3889404D01*
X+2891921Y-3548767D01*
X+2891921Y-995316D01*
X+2690303Y-793699D01*
X+2779023Y-793699D01*
X+2837123Y-851799D01*
X+2962877Y-851799D01*
X+3051799Y-762877D01*
X+3051799Y-637123D01*
X+2962877Y-548201D01*
X+2945765Y-548201D01*
X+2911865Y-514301D01*
X+2669099Y-514301D01*
X+2669099Y+948201D01*
X+2762877Y+948201D01*
X+2851799Y+1037123D01*
X+2851799Y+1162877D01*
X+2830062Y+1184614D01*
X+2830062Y+1371502D01*
X+2719899Y+1481665D01*
X+2719899Y+1589428D01*
X+2593428Y+1715899D01*
X+2414572Y+1715899D01*
X+2377000Y+1678327D01*
X+2339428Y+1715899D01*
X+2160572Y+1715899D01*
X+2034101Y+1589428D01*
X+2034101Y+1410572D01*
X+2160572Y+1284101D01*
X+2338901Y+1284101D01*
X+2338901Y-398735D01*
X+2315899Y-421737D01*
X+2315899Y-310572D01*
X+2189428Y-184101D01*
X+2117585Y-184101D01*
X+2114385Y-180901D01*
X+1834623Y-180901D01*
X+1852398Y-163126D01*
X+1852398Y-36874D01*
X+1763126Y+52398D01*
X+1665099Y+52398D01*
X+1665099Y+650656D01*
X+1107431Y+1208324D01*
X+554840Y+1208324D01*
X+325115Y+978599D01*
X+235311Y+978599D01*
X+101401Y+844689D01*
X+101401Y+655311D01*
X+216712Y+540000D01*
X+101401Y+424689D01*
X+101401Y+235311D01*
X+216712Y+120000D01*
X+101401Y+4689D01*
X+101401Y-184689D01*
X+216712Y-300000D01*
X+101401Y-415311D01*
X+101401Y-604689D01*
X+216712Y-720000D01*
X+101401Y-835311D01*
X+101401Y-1024689D01*
X+216712Y-1140000D01*
X+101401Y-1255311D01*
X+101401Y-1444689D01*
X+216712Y-1560000D01*
X+101401Y-1675311D01*
X+101401Y-1864689D01*
X+216712Y-1980000D01*
X+101401Y-2095311D01*
X+101401Y-2284689D01*
X+216712Y-2400000D01*
X+101401Y-2515311D01*
X+101401Y-2704689D01*
X+216712Y-2820000D01*
X+101401Y-2935311D01*
X+101401Y-3124689D01*
X+216712Y-3240000D01*
X+101401Y-3355311D01*
X+101401Y-3544689D01*
X+216715Y-3660003D01*
X+101401Y-3775317D01*
X+101401Y-3964695D01*
X+235311Y-4098605D01*
X+424689Y-4098605D01*
X+540000Y-3983294D01*
X+655311Y-4098605D01*
X+844689Y-4098605D01*
X+934901Y-4008393D01*
X+934901Y-4931732D01*
X+927000Y-4939633D01*
X+884168Y-4896801D01*
X+715832Y-4896801D01*
X+596801Y-5015832D01*
X+596801Y-5184168D01*
X+715832Y-5303199D01*
X+884168Y-5303199D01*
X+901601Y-5285766D01*
X+901601Y-5317125D01*
X+1036874Y-5452398D01*
X+1163126Y-5452398D01*
X+1252398Y-5363126D01*
X+1252398Y-5236874D01*
X+1228446Y-5212922D01*
X+1257199Y-5184168D01*
X+1257199Y-5058860D01*
X+1265099Y-5036150D01*
X+1265099Y-4952399D01*
X+2414116Y-4952399D01*
X+2384901Y-4981615D01*
X+2034901Y-5331615D01*
X+2034901Y-5861732D01*
X+1996801Y-5899832D01*
X+1996801Y-6068168D01*
X+2115832Y-6187199D01*
X+2284168Y-6187199D01*
X+2403199Y-6068168D01*
X+2403199Y-5899832D01*
X+2365099Y-5861732D01*
X+2365099Y-5468385D01*
X+2618385Y-5215099D01*
X+3297534Y-5215099D01*
X+3277732Y-5234901D01*
X+2731615Y-5234901D01*
X+2534901Y-5431615D01*
X+2534901Y-6031615D01*
X+2231615Y-6334901D01*
X+1424022Y-6334901D01*
X+392320Y-5303199D01*
X+438168Y-5303199D01*
X+557199Y-5184168D01*
X+557199Y-5015832D01*
X+438168Y-4896801D01*
X+269832Y-4896801D01*
X+227000Y-4939633D01*
X+184168Y-4896801D01*
X+15832Y-4896801D01*
X-34968Y-4947601D01*
X-263126Y-4947601D01*
X-310669Y-4995144D01*
X-327047Y-4978766D01*
X-395433Y-4978766D01*
X-443790Y-5027123D01*
X-443790Y-5095509D01*
X-395433Y-5143866D01*
X-352399Y-5143866D01*
X-352399Y-5163126D01*
X-263126Y-5252399D01*
X-65099Y-5252399D01*
X-65099Y-5312748D01*
X+1287252Y-6665099D01*
X+2368385Y-6665099D01*
X+2734901Y-6298583D01*
X+2734901Y-6368386D01*
X+2831614Y-6465099D01*
X+2968386Y-6465099D01*
X+3034901Y-6398584D01*
X+3034901Y-6968386D01*
X+3131614Y-7065099D01*
X+3268386Y-7065099D01*
X+3365099Y-6968386D01*
X+3365099Y-5857199D01*
X+3484168Y-5857199D01*
X+3522201Y-5819166D01*
X+3522201Y-5977799D01*
X+3534901Y-5977799D01*
X+3534901Y-6768385D01*
X+4231615Y-7465099D01*
X+4601417Y-7465099D01*
X+4234901Y-7831615D01*
X+4234901Y-8077732D01*
X+4196801Y-8115832D01*
X+4196801Y-8284168D01*
X+4315832Y-8403199D01*
X+4484168Y-8403199D01*
X+4550000Y-8337367D01*
X+4615832Y-8403199D01*
X+4784168Y-8403199D01*
X+4903199Y-8284168D01*
X+4903199Y-8115832D01*
X+4784168Y-7996801D01*
X+4615832Y-7996801D01*
X+4565099Y-8047534D01*
X+4565099Y-7968385D01*
X+5050000Y-7483484D01*
X+5230101Y-7663585D01*
X+5230101Y-7735428D01*
X+5356572Y-7861899D01*
X+5484101Y-7861899D01*
X+5484101Y-7989428D01*
X+5561653Y-8066980D01*
X+5512801Y-8115832D01*
X+5512801Y-8284168D01*
X+5631832Y-8403199D01*
X+5800168Y-8403199D01*
X+5919199Y-8284168D01*
X+5919199Y-8115832D01*
X+5854347Y-8050980D01*
X+5915899Y-7989428D01*
X+5915899Y-7861899D01*
X+6043428Y-7861899D01*
X+6169899Y-7735428D01*
X+6169899Y-7556572D01*
X+6043428Y-7430101D01*
X+5864572Y-7430101D01*
X+5738101Y-7556572D01*
X+5738101Y-7684101D01*
X+5661899Y-7684101D01*
X+5661899Y-7556572D01*
X+5535428Y-7430101D01*
X+5463585Y-7430101D01*
X+5298583Y-7265099D01*
X+5559772Y-7265099D01*
X+5610572Y-7315899D01*
X+5789428Y-7315899D01*
X+5915899Y-7189428D01*
X+5915899Y-7061899D01*
X+6043428Y-7061899D01*
X+6169899Y-6935428D01*
X+6169899Y-6756572D01*
X+6043428Y-6630101D01*
X+5864572Y-6630101D01*
X+5738101Y-6756572D01*
X+5738101Y-6884101D01*
X+5661899Y-6884101D01*
X+5661899Y-6756572D01*
X+5586335Y-6681008D01*
X+5582145Y-6664661D01*
X+5403199Y-6485715D01*
X+5403199Y-6431832D01*
X+5284168Y-6312801D01*
X+5115832Y-6312801D01*
X+4996801Y-6431832D01*
X+4996801Y-6600168D01*
X+5115832Y-6719199D01*
X+5169715Y-6719199D01*
X+5230101Y-6779585D01*
X+5230101Y-6934901D01*
X+4476385Y-6934901D01*
X+4373099Y-6831615D01*
X+4373099Y-5962545D01*
X+4388353Y-5977799D01*
X+4535647Y-5977799D01*
X+4639799Y-5873647D01*
X+4639799Y-5726353D01*
X+4535647Y-5622201D01*
X+4517685Y-5622201D01*
X+4330385Y-5434901D01*
X+3952583Y-5434901D01*
X+4119099Y-5268385D01*
X+4119099Y-5200545D01*
X+4134353Y-5215799D01*
X+4281647Y-5215799D01*
X+4335000Y-5162446D01*
X+4388353Y-5215799D01*
X+4535647Y-5215799D01*
X+4608981Y-5142465D01*
X+4996801Y-5530285D01*
X+4996801Y-5584168D01*
X+5115832Y-5703199D01*
X+5284168Y-5703199D01*
X+5403199Y-5584168D01*
X+5403199Y-5577799D01*
X+6080355Y-5577799D01*
X+7776201Y-7273645D01*
X+7776201Y-7784101D01*
X+7610572Y-7784101D01*
X+7484101Y-7910572D01*
X+7484101Y-8089428D01*
X+7610572Y-8215899D01*
X+7788901Y-8215899D01*
X+7788901Y-8296801D01*
X+7661832Y-8296801D01*
X+7542801Y-8415832D01*
X+7542801Y-8584168D01*
X+7661832Y-8703199D01*
X+7830168Y-8703199D01*
X+7873000Y-8660367D01*
X+7915832Y-8703199D01*
X+7951755Y-8703199D01*
X+8532657Y-9284101D01*
X+8410572Y-9284101D01*
X+8284101Y-9410572D01*
X+8284101Y-9589428D01*
X+8410572Y-9715899D01*
X+8576201Y-9715899D01*
X+8576201Y-9796801D01*
X+8461832Y-9796801D01*
X+8342801Y-9915832D01*
X+8342801Y-10084168D01*
X+8461832Y-10203199D01*
X+8630168Y-10203199D01*
X+8673000Y-10160367D01*
X+8715832Y-10203199D01*
X+8884168Y-10203199D01*
X+9003199Y-10084168D01*
X+9003199Y-9915832D01*
X+8931799Y-9844432D01*
X+8931799Y-9627528D01*
X+8969899Y-9589428D01*
X+8969899Y-9431799D01*
X+9319645Y-9431799D01*
X+9660301Y-9091143D01*
X+9660301Y-9142135D01*
X+9429603Y-9372833D01*
X+9429603Y-13592211D01*
X+9872342Y-14034950D01*
X+10562614Y-14034950D01*
X+10570915Y-14026649D01*
X+11470915Y-14026649D01*
X+11581265Y-13916299D01*
X+11633701Y-13916299D01*
X+11633701Y-14024949D01*
X+11775051Y-14166299D01*
X+11974949Y-14166299D01*
X+12116299Y-14024949D01*
X+12116299Y-13825051D01*
X+11974949Y-13683701D01*
X+11866299Y-13683701D01*
X+11866299Y-13575051D01*
X+11724949Y-13433701D01*
X+11525051Y-13433701D01*
X+11398451Y-13560301D01*
X+10774977Y-13560301D01*
X+10762877Y-13548201D01*
X+10637123Y-13548201D01*
X+10548201Y-13637123D01*
X+10548201Y-13747251D01*
X+10455185Y-13747251D01*
X+10446884Y-13755552D01*
X+9988072Y-13755552D01*
X+9709001Y-13476481D01*
X+9709001Y-12996368D01*
X+9760301Y-13047668D01*
X+9760301Y-13125023D01*
X+9748201Y-13137123D01*
X+9748201Y-13262877D01*
X+9837123Y-13351799D01*
X+9962877Y-13351799D01*
X+10051799Y-13262877D01*
X+10051799Y-13137123D01*
X+10039699Y-13125023D01*
X+10039699Y-13047668D01*
X+10103199Y-12984168D01*
X+10103199Y-12815832D01*
X+9984168Y-12696801D01*
X+9815832Y-12696801D01*
X+9709001Y-12803632D01*
X+9709001Y-11980368D01*
X+9815832Y-12087199D01*
X+9984168Y-12087199D01*
X+10103199Y-11968168D01*
X+10103199Y-11799832D01*
X+9984168Y-11680801D01*
X+9815832Y-11680801D01*
X+9709001Y-11787632D01*
X+9709001Y-9488563D01*
X+9939699Y-9257865D01*
X+9939699Y-8782327D01*
X+10152567Y-8569459D01*
X+10152567Y-7555003D01*
X+10123446Y-7525882D01*
X+10499176Y-7525882D01*
X+10282923Y-7742135D01*
X+10282923Y-8600383D01*
X+10076171Y-8807135D01*
X+10076171Y-11362174D01*
X+10076133Y-11362212D01*
X+10076133Y-11477942D01*
X+10692447Y-12094256D01*
X+11803308Y-12094256D01*
X+12039699Y-11857865D01*
X+12039699Y-11447668D01*
X+12103199Y-11384168D01*
X+12103199Y-11215832D01*
X+11984168Y-11096801D01*
X+11815832Y-11096801D01*
X+11696801Y-11215832D01*
X+11696801Y-11384168D01*
X+11760301Y-11447668D01*
X+11760301Y-11742135D01*
X+11687578Y-11814858D01*
X+10808177Y-11814858D01*
X+10355569Y-11362250D01*
X+10355569Y-11335199D01*
X+10514366Y-11335199D01*
X+10633397Y-11216168D01*
X+10633397Y-11047832D01*
X+10514366Y-10928801D01*
X+10355569Y-10928801D01*
X+10355569Y-10319199D01*
X+10514366Y-10319199D01*
X+10574960Y-10258605D01*
X+10673050Y-10258605D01*
X+11028456Y-9903199D01*
X+11184168Y-9903199D01*
X+11200000Y-9887367D01*
X+11312558Y-9999925D01*
X+11480894Y-9999925D01*
X+11596726Y-9884093D01*
X+11615832Y-9903199D01*
X+11784168Y-9903199D01*
X+11903199Y-9784168D01*
X+11903199Y-9615832D01*
X+11784168Y-9496801D01*
X+11755988Y-9496801D01*
X+11756997Y-9495792D01*
X+12195201Y-9495792D01*
X+12195201Y-9573647D01*
X+12299353Y-9677799D01*
X+12322201Y-9677799D01*
X+12322201Y-9700647D01*
X+12426353Y-9804799D01*
X+12524058Y-9804799D01*
X+12524058Y-10335070D01*
X+12769801Y-10580813D01*
X+12769801Y-10708779D01*
X+13176199Y-10708779D01*
X+13176199Y-10569079D01*
X+13430199Y-10569079D01*
X+13430199Y-7127381D01*
X+13176199Y-7127381D01*
X+13176199Y-6990221D01*
X+12787643Y-6990221D01*
X+12787643Y-6798299D01*
X+12921143Y-6931799D01*
X+13278857Y-6931799D01*
X+13531799Y-6678857D01*
X+13531799Y-6321143D01*
X+13278857Y-6068201D01*
X+12921143Y-6068201D01*
X+12668201Y-6321143D01*
X+12668201Y-6616637D01*
X+12333828Y-6282264D01*
X+12378463Y-6282264D01*
X+12467736Y-6192991D01*
X+12467736Y-6066739D01*
X+12378463Y-5977466D01*
X+12375030Y-5977466D01*
X+11893699Y-5496135D01*
X+11893699Y-3915628D01*
X+11969899Y-3839428D01*
X+11969899Y-3660572D01*
X+11843428Y-3534101D01*
X+11664572Y-3534101D01*
X+11627000Y-3571673D01*
X+11589428Y-3534101D01*
X+11410572Y-3534101D01*
X+11284101Y-3660572D01*
X+11284101Y-3839428D01*
X+11410572Y-3965899D01*
X+11589428Y-3965899D01*
X+11614301Y-3941026D01*
X+11614301Y-3988135D01*
X+11554235Y-4048201D01*
X+11537123Y-4048201D01*
X+11448201Y-4137123D01*
X+11448201Y-4262877D01*
X+11537123Y-4351799D01*
X+11614301Y-4351799D01*
X+11614301Y-5611865D01*
X+11786537Y-5784101D01*
X+11764572Y-5784101D01*
X+11727000Y-5821673D01*
X+11689428Y-5784101D01*
X+11510572Y-5784101D01*
X+11384101Y-5910572D01*
X+11384101Y-6089428D01*
X+11510572Y-6215899D01*
X+11567537Y-6215899D01*
X+11573128Y-6221490D01*
X+11430876Y-6221490D01*
X+11226775Y-6017389D01*
X+11226775Y-4275211D01*
X+10903363Y-3951799D01*
X+10962877Y-3951799D01*
X+11051799Y-3862877D01*
X+11051799Y-3737123D01*
X+10962877Y-3648201D01*
X+10945765Y-3648201D01*
X+10907865Y-3610301D01*
X+10669628Y-3610301D01*
X+10593428Y-3534101D01*
X+10414572Y-3534101D01*
X+10377000Y-3571673D01*
X+10339428Y-3534101D01*
X+10160572Y-3534101D01*
X+10034101Y-3660572D01*
X+10034101Y-3839428D01*
X+10160572Y-3965899D01*
X+10339428Y-3965899D01*
X+10377000Y-3928327D01*
X+10414572Y-3965899D01*
X+10522335Y-3965899D01*
X+10947377Y-4390941D01*
X+10947377Y-6091507D01*
X+9393699Y-4537829D01*
X+9393699Y-3915628D01*
X+9419628Y-3889699D01*
X+9475023Y-3889699D01*
X+9537123Y-3951799D01*
X+9662877Y-3951799D01*
X+9751799Y-3862877D01*
X+9751799Y-3737123D01*
X+9662877Y-3648201D01*
X+9645765Y-3648201D01*
X+9607865Y-3610301D01*
X+9419628Y-3610301D01*
X+9343428Y-3534101D01*
X+9164572Y-3534101D01*
X+9127000Y-3571673D01*
X+9089428Y-3534101D01*
X+8910572Y-3534101D01*
X+8894318Y-3550355D01*
X+8894318Y-3236818D01*
X+8907018Y-3224118D01*
X+8907018Y-3097866D01*
X+8817745Y-3008593D01*
X+8691493Y-3008593D01*
X+8602220Y-3097866D01*
X+8602220Y-3224118D01*
X+8614920Y-3236818D01*
X+8614920Y-5496574D01*
X+8926622Y-5808276D01*
X+8926622Y-5826237D01*
X+9015895Y-5915510D01*
X+9142147Y-5915510D01*
X+9231420Y-5826237D01*
X+9231420Y-5699985D01*
X+9142147Y-5610712D01*
X+9124186Y-5610712D01*
X+8894318Y-5380844D01*
X+8894318Y-3949645D01*
X+8910572Y-3965899D01*
X+9089428Y-3965899D01*
X+9114301Y-3941026D01*
X+9114301Y-4653559D01*
X+10955943Y-6495201D01*
X+10826353Y-6495201D01*
X+10803642Y-6517912D01*
X+10656175Y-6517912D01*
X+10613786Y-6560301D01*
X+10263668Y-6560301D01*
X+10200168Y-6496801D01*
X+10031832Y-6496801D01*
X+9912801Y-6615832D01*
X+9912801Y-6727671D01*
X+9303199Y-6727671D01*
X+9303199Y-6615832D01*
X+9184168Y-6496801D01*
X+9015832Y-6496801D01*
X+8896801Y-6615832D01*
X+8896801Y-6727671D01*
X+8582744Y-6727671D01*
X+6028634Y-4173561D01*
X+4588844Y-4173561D01*
X+4781132Y-3981273D01*
X+4781132Y-3815899D01*
X+4959428Y-3815899D01*
X+5085899Y-3689428D01*
X+5085899Y-3510572D01*
X+4959428Y-3384101D01*
X+4780572Y-3384101D01*
X+4743000Y-3421673D01*
X+4705428Y-3384101D01*
X+4527099Y-3384101D01*
X+4527099Y-3180773D01*
X+6972788Y-735084D01*
X+7130358Y-892654D01*
X+7787619Y-892654D01*
X+8002755Y-677518D01*
X+10403958Y-677518D01*
X+10693099Y-388377D01*
X+10693099Y-240299D01*
X+11404301Y-240299D01*
X+11404301Y-388849D01*
X+12055151Y-1039699D01*
X+12942135Y-1039699D01*
X+13248201Y-1345765D01*
X+13248201Y-1362877D01*
X+13337123Y-1451799D01*
X+13450460Y-1451799D01*
X+13499595Y-1500934D01*
X+13499595Y-4417972D01*
X+13419426Y-4498141D01*
X+13409908Y-4498141D01*
X+13409907Y-4498140D01*
X+13469648Y-4438399D01*
X+13469648Y-4278481D01*
X+13409907Y-4218740D01*
X+13469648Y-4158999D01*
X+13469648Y-3999081D01*
X+13356568Y-3886001D01*
X+13196650Y-3886001D01*
X+13190248Y-3892403D01*
X+13190248Y-3859381D01*
X+13077168Y-3746301D01*
X+12917250Y-3746301D01*
X+12804170Y-3859381D01*
X+12804170Y-4019299D01*
X+12863911Y-4079040D01*
X+12804170Y-4138781D01*
X+12804170Y-4298699D01*
X+12863911Y-4358440D01*
X+12804170Y-4418181D01*
X+12804170Y-4578099D01*
X+12863911Y-4637840D01*
X+12804170Y-4697581D01*
X+12804170Y-4857499D01*
X+12863911Y-4917240D01*
X+12804170Y-4976981D01*
X+12804170Y-5136899D01*
X+12827572Y-5160301D01*
X+12784145Y-5160301D01*
X+12533175Y-5411271D01*
X+12469717Y-5411271D01*
X+12376842Y-5318396D01*
X+12376842Y-2720722D01*
X+13045765Y-2051799D01*
X+13062877Y-2051799D01*
X+13151799Y-1962877D01*
X+13151799Y-1837123D01*
X+13062877Y-1748201D01*
X+12937123Y-1748201D01*
X+12848201Y-1837123D01*
X+12848201Y-1854235D01*
X+12097444Y-2604992D01*
X+12097444Y-2619950D01*
X+11937699Y-2460205D01*
X+11937699Y-1764299D01*
X+12506299Y-1764299D01*
X+12506299Y-1235701D01*
X+8549701Y-1235701D01*
X+8549701Y-1764299D01*
X+11658301Y-1764299D01*
X+11658301Y-2575935D01*
X+12097444Y-3015078D01*
X+12097444Y-5434126D01*
X+12353987Y-5690669D01*
X+12648905Y-5690669D01*
X+12899875Y-5439699D01*
X+13157865Y-5439699D01*
X+13416308Y-5181256D01*
X+13416308Y-5050539D01*
X+13469648Y-4997199D01*
X+13469648Y-4837281D01*
X+13409907Y-4777540D01*
X+13409908Y-4777539D01*
X+13535156Y-4777539D01*
X+13688240Y-4624455D01*
X+13688240Y-14503308D01*
X+13561908Y-14376976D01*
X+13595433Y-14376976D01*
X+13643790Y-14328619D01*
X+13643790Y-14260233D01*
X+13595433Y-14211876D01*
X+13527047Y-14211876D01*
X+13478690Y-14260233D01*
X+13478690Y-14328619D01*
X+13507172Y-14357101D01*
X+13257967Y-14357101D01*
X+13057101Y-14557967D01*
X+13057101Y-14778691D01*
X+13019047Y-14778691D01*
X+12970690Y-14827048D01*
X+12970690Y-14895434D01*
X+13019047Y-14943791D01*
X+13087433Y-14943791D01*
X+13123146Y-14908078D01*
X+13203308Y-14988240D01*
X-3308Y-14988240D01*
X+142899Y-14842033D01*
X+142899Y-14557967D01*
X-57967Y-14357101D01*
X-342033Y-14357101D01*
X-488240Y-14503308D01*
X-488240Y+1603308D01*
X-342033Y+1457101D01*
X-57967Y+1457101D01*
X+142899Y+1657967D01*
X+142899Y+1942033D01*
X-3308Y+2088240D01*
X+13203308Y+2088240D01*
X+13116649Y+2001581D01*
X+5719899Y+1589428D02*
X+5719899Y+1410572D01*
X+5643699Y+1334372D01*
X+5643699Y+1253865D01*
X+5645765Y+1251799D01*
X+5662877Y+1251799D01*
X+5751799Y+1162877D01*
X+5751799Y+1037123D01*
X+5662877Y+948201D01*
X+5537123Y+948201D01*
X+5448201Y+1037123D01*
X+5448201Y+1054235D01*
X+5364301Y+1138135D01*
X+5364301Y+1308974D01*
X+5339428Y+1284101D01*
X+5160572Y+1284101D01*
X+5034101Y+1410572D01*
X+5034101Y+1589428D01*
X+5160572Y+1715899D01*
X+5339428Y+1715899D01*
X+5377000Y+1678327D01*
X+5414572Y+1715899D01*
X+5593428Y+1715899D01*
X+5719899Y+1589428D01*
X+6719899Y+1589428D02*
X+6719899Y+1410572D01*
X+6643699Y+1334372D01*
X+6643699Y+1253865D01*
X+6645765Y+1251799D01*
X+6662877Y+1251799D01*
X+6751799Y+1162877D01*
X+6751799Y+1037123D01*
X+6662877Y+948201D01*
X+6537123Y+948201D01*
X+6448201Y+1037123D01*
X+6448201Y+1054235D01*
X+6364301Y+1138135D01*
X+6364301Y+1308974D01*
X+6339428Y+1284101D01*
X+6160572Y+1284101D01*
X+6034101Y+1410572D01*
X+6034101Y+1589428D01*
X+6160572Y+1715899D01*
X+6339428Y+1715899D01*
X+6377000Y+1678327D01*
X+6414572Y+1715899D01*
X+6593428Y+1715899D01*
X+6719899Y+1589428D01*
X+4719899Y+1589428D02*
X+4719899Y+1410572D01*
X+4643699Y+1334372D01*
X+4643699Y+1253865D01*
X+4645765Y+1251799D01*
X+4662877Y+1251799D01*
X+4751799Y+1162877D01*
X+4751799Y+1037123D01*
X+4662877Y+948201D01*
X+4537123Y+948201D01*
X+4448201Y+1037123D01*
X+4448201Y+1054235D01*
X+4415099Y+1087337D01*
X+4415099Y+131614D01*
X+4335426Y+51941D01*
X+4400000Y-12633D01*
X+4515832Y+103199D01*
X+4563317Y+103199D01*
X+4534902Y+131614D01*
X+4534902Y+268386D01*
X+5181614Y+915098D01*
X+5318386Y+915098D01*
X+5415098Y+818386D01*
X+5415098Y+681614D01*
X+4768386Y+34902D01*
X+4752465Y+34902D01*
X+4803199Y-15832D01*
X+4803199Y-184168D01*
X+4684168Y-303199D01*
X+4515832Y-303199D01*
X+4400000Y-187367D01*
X+4284168Y-303199D01*
X+4115832Y-303199D01*
X+4000000Y-187367D01*
X+3884168Y-303199D01*
X+3715832Y-303199D01*
X+3600000Y-187367D01*
X+3484168Y-303199D01*
X+3315832Y-303199D01*
X+3196801Y-184168D01*
X+3196801Y-15832D01*
X+3315832Y+103199D01*
X+3484168Y+103199D01*
X+3600000Y-12633D01*
X+3664574Y+51941D01*
X+3584901Y+131614D01*
X+3584901Y+818386D01*
X+3681614Y+915099D01*
X+3818386Y+915099D01*
X+3915099Y+818386D01*
X+3915099Y+131614D01*
X+3885426Y+101941D01*
X+4000000Y-12633D01*
X+4114574Y+101941D01*
X+4084901Y+131614D01*
X+4084901Y+1318386D01*
X+4105594Y+1339079D01*
X+4034101Y+1410572D01*
X+4034101Y+1589428D01*
X+4160572Y+1715899D01*
X+4339428Y+1715899D01*
X+4377000Y+1678327D01*
X+4414572Y+1715899D01*
X+4593428Y+1715899D01*
X+4719899Y+1589428D01*
X+3719899Y+1589428D02*
X+3719899Y+1410572D01*
X+3643699Y+1334372D01*
X+3643699Y+1253865D01*
X+3645765Y+1251799D01*
X+3662877Y+1251799D01*
X+3751799Y+1162877D01*
X+3751799Y+1037123D01*
X+3662877Y+948201D01*
X+3537123Y+948201D01*
X+3448201Y+1037123D01*
X+3448201Y+1054235D01*
X+3364301Y+1138135D01*
X+3364301Y+1308974D01*
X+3339428Y+1284101D01*
X+3160572Y+1284101D01*
X+3034101Y+1410572D01*
X+3034101Y+1589428D01*
X+3160572Y+1715899D01*
X+3339428Y+1715899D01*
X+3377000Y+1678327D01*
X+3414572Y+1715899D01*
X+3593428Y+1715899D01*
X+3719899Y+1589428D01*
X+6296801Y+415832D02*
X+6296801Y+584168D01*
X+6415832Y+703199D01*
X+6584168Y+703199D01*
X+6703199Y+584168D01*
X+6703199Y+415832D01*
X+6584168Y+296801D01*
X+6415832Y+296801D01*
X+6296801Y+415832D01*
X+4803199Y-1031832D02*
X+4803199Y-1200168D01*
X+4684168Y-1319199D01*
X+4515832Y-1319199D01*
X+4400000Y-1203367D01*
X+4284168Y-1319199D01*
X+4115832Y-1319199D01*
X+4000000Y-1203367D01*
X+3884168Y-1319199D01*
X+3715832Y-1319199D01*
X+3600000Y-1203367D01*
X+3484168Y-1319199D01*
X+3315832Y-1319199D01*
X+3196801Y-1200168D01*
X+3196801Y-1031832D01*
X+3315832Y-912801D01*
X+3484168Y-912801D01*
X+3600000Y-1028633D01*
X+3715832Y-912801D01*
X+3884168Y-912801D01*
X+4000000Y-1028633D01*
X+4115832Y-912801D01*
X+4284168Y-912801D01*
X+4400000Y-1028633D01*
X+4515832Y-912801D01*
X+4684168Y-912801D01*
X+4803199Y-1031832D01*
X+13215816Y-3469439D02*
X+13058002Y-3469439D01*
X+12946410Y-3357847D01*
X+12946410Y-3200033D01*
X+13058002Y-3088441D01*
X+13215816Y-3088441D01*
X+13327408Y-3200033D01*
X+13327408Y-3357847D01*
X+13215816Y-3469439D01*
X+13215816Y-5907839D02*
X+13058002Y-5907839D01*
X+12946410Y-5796247D01*
X+12946410Y-5638433D01*
X+13058002Y-5526841D01*
X+13215816Y-5526841D01*
X+13327408Y-5638433D01*
X+13327408Y-5796247D01*
X+13215816Y-5907839D01*
X+12116299Y-12325051D02*
X+12116299Y-12524949D01*
X+11974949Y-12666299D01*
X+11866299Y-12666299D01*
X+11866299Y-12774949D01*
X+11724949Y-12916299D01*
X+11525051Y-12916299D01*
X+11383701Y-12774949D01*
X+11383701Y-12575051D01*
X+11525051Y-12433701D01*
X+11633701Y-12433701D01*
X+11633701Y-12325051D01*
X+11775051Y-12183701D01*
X+11974949Y-12183701D01*
X+12116299Y-12325051D01*
X+11974949Y-13416299D02*
X+11775051Y-13416299D01*
X+11633701Y-13274949D01*
X+11633701Y-13075051D01*
X+11775051Y-12933701D01*
X+11974949Y-12933701D01*
X+12116299Y-13075051D01*
X+12116299Y-13274949D01*
X+11974949Y-13416299D01*
X+13474949Y-13666299D02*
X+13275051Y-13666299D01*
X+13133701Y-13524949D01*
X+13133701Y-13325051D01*
X+13275051Y-13183701D01*
X+13474949Y-13183701D01*
X+13616299Y-13325051D01*
X+13616299Y-13524949D01*
X+13474949Y-13666299D01*
X+13474949Y-13166299D02*
X+13275051Y-13166299D01*
X+13133701Y-13024949D01*
X+13133701Y-12825051D01*
X+13275051Y-12683701D01*
X+13474949Y-12683701D01*
X+13616299Y-12825051D01*
X+13616299Y-13024949D01*
X+13474949Y-13166299D01*
X+12979216Y-14176599D02*
X+12770784Y-14176599D01*
X+12623401Y-14029216D01*
X+12623401Y-13820784D01*
X+12770784Y-13673401D01*
X+12979216Y-13673401D01*
X+13126599Y-13820784D01*
X+13126599Y-14029216D01*
X+12979216Y-14176599D01*
X+12979216Y-12676599D02*
X+12770784Y-12676599D01*
X+12623401Y-12529216D01*
X+12623401Y-12320784D01*
X+12770784Y-12173401D01*
X+12979216Y-12173401D01*
X+13126599Y-12320784D01*
X+13126599Y-12529216D01*
X+12979216Y-12676599D01*
X+3587199Y-8115832D02*
X+3587199Y-8284168D01*
X+3468168Y-8403199D01*
X+3299832Y-8403199D01*
X+3180801Y-8284168D01*
X+3180801Y-8115832D01*
X+3299832Y-7996801D01*
X+3468168Y-7996801D01*
X+3587199Y-8115832D01*
X+2284168Y-7203199D02*
X+2115832Y-7203199D01*
X+1996801Y-7084168D01*
X+1996801Y-6915832D01*
X+2115832Y-6796801D01*
X+2284168Y-6796801D01*
X+2403199Y-6915832D01*
X+2403199Y-7084168D01*
X+2284168Y-7203199D01*
X+7408713Y-7257500D02*
X+7408713Y-7383752D01*
X+7319440Y-7473025D01*
X+7193188Y-7473025D01*
X+7180488Y-7460325D01*
X+6737239Y-7460325D01*
X+6539699Y-7657865D01*
X+6539699Y-8357865D01*
X+5778446Y-9119118D01*
X+5781000Y-9121673D01*
X+5818572Y-9084101D01*
X+5997428Y-9084101D01*
X+6123899Y-9210572D01*
X+6123899Y-9389428D01*
X+6047699Y-9465628D01*
X+6047699Y-9689351D01*
X+6139699Y-9781351D01*
X+6139699Y-9925023D01*
X+6151799Y-9937123D01*
X+6151799Y-10062877D01*
X+6062877Y-10151799D01*
X+5937123Y-10151799D01*
X+5850000Y-10064676D01*
X+5762877Y-10151799D01*
X+5637123Y-10151799D01*
X+5550000Y-10064676D01*
X+5462877Y-10151799D01*
X+5337123Y-10151799D01*
X+5248201Y-10062877D01*
X+5248201Y-9937123D01*
X+5260301Y-9925023D01*
X+5260301Y-9465628D01*
X+5184101Y-9389428D01*
X+5184101Y-9210572D01*
X+5310572Y-9084101D01*
X+5418335Y-9084101D01*
X+6260301Y-8242135D01*
X+6260301Y-7542135D01*
X+6621509Y-7180927D01*
X+7180488Y-7180927D01*
X+7193188Y-7168227D01*
X+7319440Y-7168227D01*
X+7408713Y-7257500D01*
X+167093Y+1410499D02*
X+324907Y+1410499D01*
X+436499Y+1298907D01*
X+436499Y+1141093D01*
X+324907Y+1029501D01*
X+167093Y+1029501D01*
X+55501Y+1141093D01*
X+55501Y+1298907D01*
X+167093Y+1410499D01*
X+10715899Y+1339428D02*
X+10715899Y+1160572D01*
X+10589428Y+1034101D01*
X+10410572Y+1034101D01*
X+10373000Y+1071673D01*
X+10335428Y+1034101D01*
X+10156572Y+1034101D01*
X+10119000Y+1071673D01*
X+10081428Y+1034101D01*
X+9902572Y+1034101D01*
X+9776101Y+1160572D01*
X+9776101Y+1339428D01*
X+9902572Y+1465899D01*
X+10081428Y+1465899D01*
X+10119000Y+1428327D01*
X+10156572Y+1465899D01*
X+10335428Y+1465899D01*
X+10373000Y+1428327D01*
X+10410572Y+1465899D01*
X+10589428Y+1465899D01*
X+10715899Y+1339428D01*
X+13478690Y-10967034D02*
X+13478690Y-10958233D01*
X+13527047Y-10909876D01*
X+13595433Y-10909876D01*
X+13643790Y-10958233D01*
X+13643790Y-11026619D01*
X+13595433Y-11074976D01*
X+13531799Y-11074976D01*
X+13531799Y-11163876D01*
X+13595433Y-11163876D01*
X+13643790Y-11212233D01*
X+13643790Y-11280619D01*
X+13595433Y-11328976D01*
X+13531799Y-11328976D01*
X+13531799Y-11377857D01*
X+13278857Y-11630799D01*
X+12921143Y-11630799D01*
X+12668201Y-11377857D01*
X+12668201Y-11020143D01*
X+12921143Y-10767201D01*
X+13278857Y-10767201D01*
X+13478690Y-10967034D01*
X+11003199Y-10415832D02*
X+11003199Y-10525434D01*
X+11015832Y-10512801D01*
X+11184168Y-10512801D01*
X+11296726Y-10625359D01*
X+11312558Y-10609527D01*
X+11480894Y-10609527D01*
X+11599925Y-10728558D01*
X+11599925Y-10896894D01*
X+11480894Y-11015925D01*
X+11312558Y-11015925D01*
X+11200000Y-10903367D01*
X+11184168Y-10919199D01*
X+11015832Y-10919199D01*
X+10896801Y-10800168D01*
X+10896801Y-10690566D01*
X+10884168Y-10703199D01*
X+10715832Y-10703199D01*
X+10596801Y-10584168D01*
X+10596801Y-10415832D01*
X+10715832Y-10296801D01*
X+10884168Y-10296801D01*
X+11003199Y-10415832D01*
X+11984168Y-10487199D02*
X+11815832Y-10487199D01*
X+11696801Y-10368168D01*
X+11696801Y-10199832D01*
X+11815832Y-10080801D01*
X+11984168Y-10080801D01*
X+12103199Y-10199832D01*
X+12103199Y-10368168D01*
X+11984168Y-10487199D01*
X+12716690Y-14895434D02*
X+12716690Y-14827048D01*
X+12765047Y-14778691D01*
X+12833433Y-14778691D01*
X+12881790Y-14827048D01*
X+12881790Y-14895434D01*
X+12833433Y-14943791D01*
X+12765047Y-14943791D01*
X+12716690Y-14895434D01*
X+12462690Y-14895434D02*
X+12462690Y-14827048D01*
X+12511047Y-14778691D01*
X+12579433Y-14778691D01*
X+12627790Y-14827048D01*
X+12627790Y-14895434D01*
X+12579433Y-14943791D01*
X+12511047Y-14943791D01*
X+12462690Y-14895434D01*
X+12208690Y-14895434D02*
X+12208690Y-14827048D01*
X+12257047Y-14778691D01*
X+12325433Y-14778691D01*
X+12373790Y-14827048D01*
X+12373790Y-14895434D01*
X+12325433Y-14943791D01*
X+12257047Y-14943791D01*
X+12208690Y-14895434D01*
X+11954690Y-14895434D02*
X+11954690Y-14827048D01*
X+12003047Y-14778691D01*
X+12071433Y-14778691D01*
X+12119790Y-14827048D01*
X+12119790Y-14895434D01*
X+12071433Y-14943791D01*
X+12003047Y-14943791D01*
X+11954690Y-14895434D01*
X+11700690Y-14895434D02*
X+11700690Y-14827048D01*
X+11749047Y-14778691D01*
X+11817433Y-14778691D01*
X+11865790Y-14827048D01*
X+11865790Y-14895434D01*
X+11817433Y-14943791D01*
X+11749047Y-14943791D01*
X+11700690Y-14895434D01*
X+11446690Y-14895434D02*
X+11446690Y-14827048D01*
X+11495047Y-14778691D01*
X+11563433Y-14778691D01*
X+11611790Y-14827048D01*
X+11611790Y-14895434D01*
X+11563433Y-14943791D01*
X+11495047Y-14943791D01*
X+11446690Y-14895434D01*
X+11192690Y-14895434D02*
X+11192690Y-14827048D01*
X+11241047Y-14778691D01*
X+11309433Y-14778691D01*
X+11357790Y-14827048D01*
X+11357790Y-14895434D01*
X+11309433Y-14943791D01*
X+11241047Y-14943791D01*
X+11192690Y-14895434D01*
X+10938690Y-14895434D02*
X+10938690Y-14827048D01*
X+10987047Y-14778691D01*
X+11055433Y-14778691D01*
X+11103790Y-14827048D01*
X+11103790Y-14895434D01*
X+11055433Y-14943791D01*
X+10987047Y-14943791D01*
X+10938690Y-14895434D01*
X+10684690Y-14895434D02*
X+10684690Y-14827048D01*
X+10733047Y-14778691D01*
X+10801433Y-14778691D01*
X+10849790Y-14827048D01*
X+10849790Y-14895434D01*
X+10801433Y-14943791D01*
X+10733047Y-14943791D01*
X+10684690Y-14895434D01*
X+10430690Y-14895434D02*
X+10430690Y-14827048D01*
X+10479047Y-14778691D01*
X+10547433Y-14778691D01*
X+10595790Y-14827048D01*
X+10595790Y-14895434D01*
X+10547433Y-14943791D01*
X+10479047Y-14943791D01*
X+10430690Y-14895434D01*
X+10176690Y-14895434D02*
X+10176690Y-14827048D01*
X+10225047Y-14778691D01*
X+10293433Y-14778691D01*
X+10341790Y-14827048D01*
X+10341790Y-14895434D01*
X+10293433Y-14943791D01*
X+10225047Y-14943791D01*
X+10176690Y-14895434D01*
X+9922690Y-14895434D02*
X+9922690Y-14827048D01*
X+9971047Y-14778691D01*
X+10039433Y-14778691D01*
X+10087790Y-14827048D01*
X+10087790Y-14895434D01*
X+10039433Y-14943791D01*
X+9971047Y-14943791D01*
X+9922690Y-14895434D01*
X+9668690Y-14895434D02*
X+9668690Y-14827048D01*
X+9717047Y-14778691D01*
X+9785433Y-14778691D01*
X+9833790Y-14827048D01*
X+9833790Y-14895434D01*
X+9785433Y-14943791D01*
X+9717047Y-14943791D01*
X+9668690Y-14895434D01*
X+9414690Y-14895434D02*
X+9414690Y-14827048D01*
X+9463047Y-14778691D01*
X+9531433Y-14778691D01*
X+9579790Y-14827048D01*
X+9579790Y-14895434D01*
X+9531433Y-14943791D01*
X+9463047Y-14943791D01*
X+9414690Y-14895434D01*
X+9160690Y-14895434D02*
X+9160690Y-14827048D01*
X+9209047Y-14778691D01*
X+9277433Y-14778691D01*
X+9325790Y-14827048D01*
X+9325790Y-14895434D01*
X+9277433Y-14943791D01*
X+9209047Y-14943791D01*
X+9160690Y-14895434D01*
X+8906690Y-14895434D02*
X+8906690Y-14827048D01*
X+8955047Y-14778691D01*
X+9023433Y-14778691D01*
X+9071790Y-14827048D01*
X+9071790Y-14895434D01*
X+9023433Y-14943791D01*
X+8955047Y-14943791D01*
X+8906690Y-14895434D01*
X+8652690Y-14895434D02*
X+8652690Y-14827048D01*
X+8701047Y-14778691D01*
X+8769433Y-14778691D01*
X+8817790Y-14827048D01*
X+8817790Y-14895434D01*
X+8769433Y-14943791D01*
X+8701047Y-14943791D01*
X+8652690Y-14895434D01*
X+8398690Y-14895434D02*
X+8398690Y-14827048D01*
X+8447047Y-14778691D01*
X+8515433Y-14778691D01*
X+8563790Y-14827048D01*
X+8563790Y-14895434D01*
X+8515433Y-14943791D01*
X+8447047Y-14943791D01*
X+8398690Y-14895434D01*
X+8144690Y-14895434D02*
X+8144690Y-14827048D01*
X+8193047Y-14778691D01*
X+8261433Y-14778691D01*
X+8309790Y-14827048D01*
X+8309790Y-14895434D01*
X+8261433Y-14943791D01*
X+8193047Y-14943791D01*
X+8144690Y-14895434D01*
X+7890690Y-14895434D02*
X+7890690Y-14827048D01*
X+7939047Y-14778691D01*
X+8007433Y-14778691D01*
X+8055790Y-14827048D01*
X+8055790Y-14895434D01*
X+8007433Y-14943791D01*
X+7939047Y-14943791D01*
X+7890690Y-14895434D01*
X+7636690Y-14895434D02*
X+7636690Y-14827048D01*
X+7685047Y-14778691D01*
X+7753433Y-14778691D01*
X+7801790Y-14827048D01*
X+7801790Y-14895434D01*
X+7753433Y-14943791D01*
X+7685047Y-14943791D01*
X+7636690Y-14895434D01*
X+7382690Y-14895434D02*
X+7382690Y-14827048D01*
X+7431047Y-14778691D01*
X+7499433Y-14778691D01*
X+7547790Y-14827048D01*
X+7547790Y-14895434D01*
X+7499433Y-14943791D01*
X+7431047Y-14943791D01*
X+7382690Y-14895434D01*
X+7128690Y-14895434D02*
X+7128690Y-14827048D01*
X+7177047Y-14778691D01*
X+7245433Y-14778691D01*
X+7293790Y-14827048D01*
X+7293790Y-14895434D01*
X+7245433Y-14943791D01*
X+7177047Y-14943791D01*
X+7128690Y-14895434D01*
X+6874690Y-14895434D02*
X+6874690Y-14827048D01*
X+6923047Y-14778691D01*
X+6991433Y-14778691D01*
X+7039790Y-14827048D01*
X+7039790Y-14895434D01*
X+6991433Y-14943791D01*
X+6923047Y-14943791D01*
X+6874690Y-14895434D01*
X+6620690Y-14895434D02*
X+6620690Y-14827048D01*
X+6669047Y-14778691D01*
X+6737433Y-14778691D01*
X+6785790Y-14827048D01*
X+6785790Y-14895434D01*
X+6737433Y-14943791D01*
X+6669047Y-14943791D01*
X+6620690Y-14895434D01*
X+6366690Y-14895434D02*
X+6366690Y-14827048D01*
X+6415047Y-14778691D01*
X+6483433Y-14778691D01*
X+6531790Y-14827048D01*
X+6531790Y-14895434D01*
X+6483433Y-14943791D01*
X+6415047Y-14943791D01*
X+6366690Y-14895434D01*
X+6112690Y-14895434D02*
X+6112690Y-14827048D01*
X+6161047Y-14778691D01*
X+6229433Y-14778691D01*
X+6277790Y-14827048D01*
X+6277790Y-14895434D01*
X+6229433Y-14943791D01*
X+6161047Y-14943791D01*
X+6112690Y-14895434D01*
X+5858690Y-14895434D02*
X+5858690Y-14827048D01*
X+5907047Y-14778691D01*
X+5975433Y-14778691D01*
X+6023790Y-14827048D01*
X+6023790Y-14895434D01*
X+5975433Y-14943791D01*
X+5907047Y-14943791D01*
X+5858690Y-14895434D01*
X+5604690Y-14895434D02*
X+5604690Y-14827048D01*
X+5653047Y-14778691D01*
X+5721433Y-14778691D01*
X+5769790Y-14827048D01*
X+5769790Y-14895434D01*
X+5721433Y-14943791D01*
X+5653047Y-14943791D01*
X+5604690Y-14895434D01*
X+5350690Y-14895434D02*
X+5350690Y-14827048D01*
X+5399047Y-14778691D01*
X+5467433Y-14778691D01*
X+5515790Y-14827048D01*
X+5515790Y-14895434D01*
X+5467433Y-14943791D01*
X+5399047Y-14943791D01*
X+5350690Y-14895434D01*
X+5096690Y-14895434D02*
X+5096690Y-14827048D01*
X+5145047Y-14778691D01*
X+5213433Y-14778691D01*
X+5261790Y-14827048D01*
X+5261790Y-14895434D01*
X+5213433Y-14943791D01*
X+5145047Y-14943791D01*
X+5096690Y-14895434D01*
X+4842690Y-14895434D02*
X+4842690Y-14827048D01*
X+4891047Y-14778691D01*
X+4959433Y-14778691D01*
X+5007790Y-14827048D01*
X+5007790Y-14895434D01*
X+4959433Y-14943791D01*
X+4891047Y-14943791D01*
X+4842690Y-14895434D01*
X+4588690Y-14895434D02*
X+4588690Y-14827048D01*
X+4637047Y-14778691D01*
X+4705433Y-14778691D01*
X+4753790Y-14827048D01*
X+4753790Y-14895434D01*
X+4705433Y-14943791D01*
X+4637047Y-14943791D01*
X+4588690Y-14895434D01*
X+4334690Y-14895434D02*
X+4334690Y-14827048D01*
X+4383047Y-14778691D01*
X+4451433Y-14778691D01*
X+4499790Y-14827048D01*
X+4499790Y-14895434D01*
X+4451433Y-14943791D01*
X+4383047Y-14943791D01*
X+4334690Y-14895434D01*
X+4080690Y-14895434D02*
X+4080690Y-14827048D01*
X+4129047Y-14778691D01*
X+4197433Y-14778691D01*
X+4245790Y-14827048D01*
X+4245790Y-14895434D01*
X+4197433Y-14943791D01*
X+4129047Y-14943791D01*
X+4080690Y-14895434D01*
X+3826690Y-14895434D02*
X+3826690Y-14827048D01*
X+3875047Y-14778691D01*
X+3943433Y-14778691D01*
X+3991790Y-14827048D01*
X+3991790Y-14895434D01*
X+3943433Y-14943791D01*
X+3875047Y-14943791D01*
X+3826690Y-14895434D01*
X+3572690Y-14895434D02*
X+3572690Y-14827048D01*
X+3621047Y-14778691D01*
X+3689433Y-14778691D01*
X+3737790Y-14827048D01*
X+3737790Y-14895434D01*
X+3689433Y-14943791D01*
X+3621047Y-14943791D01*
X+3572690Y-14895434D01*
X+3318690Y-14895434D02*
X+3318690Y-14827048D01*
X+3367047Y-14778691D01*
X+3435433Y-14778691D01*
X+3483790Y-14827048D01*
X+3483790Y-14895434D01*
X+3435433Y-14943791D01*
X+3367047Y-14943791D01*
X+3318690Y-14895434D01*
X+3064690Y-14895434D02*
X+3064690Y-14827048D01*
X+3113047Y-14778691D01*
X+3181433Y-14778691D01*
X+3229790Y-14827048D01*
X+3229790Y-14895434D01*
X+3181433Y-14943791D01*
X+3113047Y-14943791D01*
X+3064690Y-14895434D01*
X+2810690Y-14895434D02*
X+2810690Y-14827048D01*
X+2859047Y-14778691D01*
X+2927433Y-14778691D01*
X+2975790Y-14827048D01*
X+2975790Y-14895434D01*
X+2927433Y-14943791D01*
X+2859047Y-14943791D01*
X+2810690Y-14895434D01*
X+2556690Y-14895434D02*
X+2556690Y-14827048D01*
X+2605047Y-14778691D01*
X+2673433Y-14778691D01*
X+2721790Y-14827048D01*
X+2721790Y-14895434D01*
X+2673433Y-14943791D01*
X+2605047Y-14943791D01*
X+2556690Y-14895434D01*
X+2302690Y-14895434D02*
X+2302690Y-14827048D01*
X+2351047Y-14778691D01*
X+2419433Y-14778691D01*
X+2467790Y-14827048D01*
X+2467790Y-14895434D01*
X+2419433Y-14943791D01*
X+2351047Y-14943791D01*
X+2302690Y-14895434D01*
X+2048690Y-14895434D02*
X+2048690Y-14827048D01*
X+2097047Y-14778691D01*
X+2165433Y-14778691D01*
X+2213790Y-14827048D01*
X+2213790Y-14895434D01*
X+2165433Y-14943791D01*
X+2097047Y-14943791D01*
X+2048690Y-14895434D01*
X+1794690Y-14895434D02*
X+1794690Y-14827048D01*
X+1843047Y-14778691D01*
X+1911433Y-14778691D01*
X+1959790Y-14827048D01*
X+1959790Y-14895434D01*
X+1911433Y-14943791D01*
X+1843047Y-14943791D01*
X+1794690Y-14895434D01*
X+1540690Y-14895434D02*
X+1540690Y-14827048D01*
X+1589047Y-14778691D01*
X+1657433Y-14778691D01*
X+1705790Y-14827048D01*
X+1705790Y-14895434D01*
X+1657433Y-14943791D01*
X+1589047Y-14943791D01*
X+1540690Y-14895434D01*
X+1286690Y-14895434D02*
X+1286690Y-14827048D01*
X+1335047Y-14778691D01*
X+1403433Y-14778691D01*
X+1451790Y-14827048D01*
X+1451790Y-14895434D01*
X+1403433Y-14943791D01*
X+1335047Y-14943791D01*
X+1286690Y-14895434D01*
X+1032690Y-14895434D02*
X+1032690Y-14827048D01*
X+1081047Y-14778691D01*
X+1149433Y-14778691D01*
X+1197790Y-14827048D01*
X+1197790Y-14895434D01*
X+1149433Y-14943791D01*
X+1081047Y-14943791D01*
X+1032690Y-14895434D01*
X+778690Y-14895434D02*
X+778690Y-14827048D01*
X+827047Y-14778691D01*
X+895433Y-14778691D01*
X+943790Y-14827048D01*
X+943790Y-14895434D01*
X+895433Y-14943791D01*
X+827047Y-14943791D01*
X+778690Y-14895434D01*
X+524690Y-14895434D02*
X+524690Y-14827048D01*
X+573047Y-14778691D01*
X+641433Y-14778691D01*
X+689790Y-14827048D01*
X+689790Y-14895434D01*
X+641433Y-14943791D01*
X+573047Y-14943791D01*
X+524690Y-14895434D01*
X+270690Y-14895434D02*
X+270690Y-14827048D01*
X+319047Y-14778691D01*
X+387433Y-14778691D01*
X+435790Y-14827048D01*
X+435790Y-14895434D01*
X+387433Y-14943791D01*
X+319047Y-14943791D01*
X+270690Y-14895434D01*
X-443790Y-14239509D02*
X-443790Y-14171123D01*
X-395433Y-14122766D01*
X-327047Y-14122766D01*
X-278690Y-14171123D01*
X-278690Y-14239509D01*
X-327047Y-14287866D01*
X-395433Y-14287866D01*
X-443790Y-14239509D01*
X-443790Y-13985509D02*
X-443790Y-13917123D01*
X-395433Y-13868766D01*
X-327047Y-13868766D01*
X-278690Y-13917123D01*
X-278690Y-13985509D01*
X-327047Y-14033866D01*
X-395433Y-14033866D01*
X-443790Y-13985509D01*
X-443790Y-13731509D02*
X-443790Y-13663123D01*
X-395433Y-13614766D01*
X-327047Y-13614766D01*
X-278690Y-13663123D01*
X-278690Y-13731509D01*
X-327047Y-13779866D01*
X-395433Y-13779866D01*
X-443790Y-13731509D01*
X-443790Y-13477509D02*
X-443790Y-13409123D01*
X-395433Y-13360766D01*
X-327047Y-13360766D01*
X-278690Y-13409123D01*
X-278690Y-13477509D01*
X-327047Y-13525866D01*
X-395433Y-13525866D01*
X-443790Y-13477509D01*
X-443790Y-13223509D02*
X-443790Y-13155123D01*
X-395433Y-13106766D01*
X-327047Y-13106766D01*
X-278690Y-13155123D01*
X-278690Y-13223509D01*
X-327047Y-13271866D01*
X-395433Y-13271866D01*
X-443790Y-13223509D01*
X-443790Y-12969509D02*
X-443790Y-12901123D01*
X-395433Y-12852766D01*
X-327047Y-12852766D01*
X-278690Y-12901123D01*
X-278690Y-12969509D01*
X-327047Y-13017866D01*
X-395433Y-13017866D01*
X-443790Y-12969509D01*
X-443790Y-12715509D02*
X-443790Y-12647123D01*
X-395433Y-12598766D01*
X-327047Y-12598766D01*
X-278690Y-12647123D01*
X-278690Y-12715509D01*
X-327047Y-12763866D01*
X-395433Y-12763866D01*
X-443790Y-12715509D01*
X-443790Y-12461509D02*
X-443790Y-12393123D01*
X-395433Y-12344766D01*
X-327047Y-12344766D01*
X-278690Y-12393123D01*
X-278690Y-12461509D01*
X-327047Y-12509866D01*
X-395433Y-12509866D01*
X-443790Y-12461509D01*
X-443790Y-12207509D02*
X-443790Y-12139123D01*
X-395433Y-12090766D01*
X-327047Y-12090766D01*
X-278690Y-12139123D01*
X-278690Y-12207509D01*
X-327047Y-12255866D01*
X-395433Y-12255866D01*
X-443790Y-12207509D01*
X-443790Y-11953509D02*
X-443790Y-11885123D01*
X-395433Y-11836766D01*
X-327047Y-11836766D01*
X-278690Y-11885123D01*
X-278690Y-11953509D01*
X-327047Y-12001866D01*
X-395433Y-12001866D01*
X-443790Y-11953509D01*
X-443790Y-11699509D02*
X-443790Y-11631123D01*
X-395433Y-11582766D01*
X-327047Y-11582766D01*
X-278690Y-11631123D01*
X-278690Y-11699509D01*
X-327047Y-11747866D01*
X-395433Y-11747866D01*
X-443790Y-11699509D01*
X-443790Y-11445509D02*
X-443790Y-11377123D01*
X-395433Y-11328766D01*
X-327047Y-11328766D01*
X-278690Y-11377123D01*
X-278690Y-11445509D01*
X-327047Y-11493866D01*
X-395433Y-11493866D01*
X-443790Y-11445509D01*
X-443790Y-11191509D02*
X-443790Y-11123123D01*
X-395433Y-11074766D01*
X-327047Y-11074766D01*
X-278690Y-11123123D01*
X-278690Y-11191509D01*
X-327047Y-11239866D01*
X-395433Y-11239866D01*
X-443790Y-11191509D01*
X-443790Y-10937509D02*
X-443790Y-10869123D01*
X-395433Y-10820766D01*
X-327047Y-10820766D01*
X-278690Y-10869123D01*
X-278690Y-10937509D01*
X-327047Y-10985866D01*
X-395433Y-10985866D01*
X-443790Y-10937509D01*
X-443790Y-10683509D02*
X-443790Y-10615123D01*
X-395433Y-10566766D01*
X-327047Y-10566766D01*
X-278690Y-10615123D01*
X-278690Y-10683509D01*
X-327047Y-10731866D01*
X-395433Y-10731866D01*
X-443790Y-10683509D01*
X-443790Y-10429509D02*
X-443790Y-10361123D01*
X-395433Y-10312766D01*
X-327047Y-10312766D01*
X-278690Y-10361123D01*
X-278690Y-10429509D01*
X-327047Y-10477866D01*
X-395433Y-10477866D01*
X-443790Y-10429509D01*
X-443790Y-10175509D02*
X-443790Y-10107123D01*
X-395433Y-10058766D01*
X-327047Y-10058766D01*
X-278690Y-10107123D01*
X-278690Y-10175509D01*
X-327047Y-10223866D01*
X-395433Y-10223866D01*
X-443790Y-10175509D01*
X-443790Y-9921509D02*
X-443790Y-9853123D01*
X-395433Y-9804766D01*
X-327047Y-9804766D01*
X-278690Y-9853123D01*
X-278690Y-9921509D01*
X-327047Y-9969866D01*
X-395433Y-9969866D01*
X-443790Y-9921509D01*
X-443790Y-9667509D02*
X-443790Y-9599123D01*
X-395433Y-9550766D01*
X-327047Y-9550766D01*
X-278690Y-9599123D01*
X-278690Y-9667509D01*
X-327047Y-9715866D01*
X-395433Y-9715866D01*
X-443790Y-9667509D01*
X-443790Y-9413509D02*
X-443790Y-9345123D01*
X-395433Y-9296766D01*
X-327047Y-9296766D01*
X-278690Y-9345123D01*
X-278690Y-9413509D01*
X-327047Y-9461866D01*
X-395433Y-9461866D01*
X-443790Y-9413509D01*
X-443790Y-9159509D02*
X-443790Y-9091123D01*
X-395433Y-9042766D01*
X-327047Y-9042766D01*
X-278690Y-9091123D01*
X-278690Y-9159509D01*
X-327047Y-9207866D01*
X-395433Y-9207866D01*
X-443790Y-9159509D01*
X-443790Y-8905509D02*
X-443790Y-8837123D01*
X-395433Y-8788766D01*
X-327047Y-8788766D01*
X-278690Y-8837123D01*
X-278690Y-8905509D01*
X-327047Y-8953866D01*
X-395433Y-8953866D01*
X-443790Y-8905509D01*
X-443790Y-8651509D02*
X-443790Y-8583123D01*
X-395433Y-8534766D01*
X-327047Y-8534766D01*
X-278690Y-8583123D01*
X-278690Y-8651509D01*
X-327047Y-8699866D01*
X-395433Y-8699866D01*
X-443790Y-8651509D01*
X-443790Y-8397509D02*
X-443790Y-8329123D01*
X-395433Y-8280766D01*
X-327047Y-8280766D01*
X-278690Y-8329123D01*
X-278690Y-8397509D01*
X-327047Y-8445866D01*
X-395433Y-8445866D01*
X-443790Y-8397509D01*
X-443790Y-8143509D02*
X-443790Y-8075123D01*
X-395433Y-8026766D01*
X-327047Y-8026766D01*
X-278690Y-8075123D01*
X-278690Y-8143509D01*
X-327047Y-8191866D01*
X-395433Y-8191866D01*
X-443790Y-8143509D01*
X-443790Y-7889509D02*
X-443790Y-7821123D01*
X-395433Y-7772766D01*
X-327047Y-7772766D01*
X-278690Y-7821123D01*
X-278690Y-7889509D01*
X-327047Y-7937866D01*
X-395433Y-7937866D01*
X-443790Y-7889509D01*
X-443790Y-7635509D02*
X-443790Y-7567123D01*
X-395433Y-7518766D01*
X-327047Y-7518766D01*
X-278690Y-7567123D01*
X-278690Y-7635509D01*
X-327047Y-7683866D01*
X-395433Y-7683866D01*
X-443790Y-7635509D01*
X-443790Y-7381509D02*
X-443790Y-7313123D01*
X-395433Y-7264766D01*
X-327047Y-7264766D01*
X-278690Y-7313123D01*
X-278690Y-7381509D01*
X-327047Y-7429866D01*
X-395433Y-7429866D01*
X-443790Y-7381509D01*
X-443790Y-7127509D02*
X-443790Y-7059123D01*
X-395433Y-7010766D01*
X-327047Y-7010766D01*
X-278690Y-7059123D01*
X-278690Y-7127509D01*
X-327047Y-7175866D01*
X-395433Y-7175866D01*
X-443790Y-7127509D01*
X-443790Y-6873509D02*
X-443790Y-6805123D01*
X-395433Y-6756766D01*
X-327047Y-6756766D01*
X-278690Y-6805123D01*
X-278690Y-6873509D01*
X-327047Y-6921866D01*
X-395433Y-6921866D01*
X-443790Y-6873509D01*
X-443790Y-6619509D02*
X-443790Y-6551123D01*
X-395433Y-6502766D01*
X-327047Y-6502766D01*
X-278690Y-6551123D01*
X-278690Y-6619509D01*
X-327047Y-6667866D01*
X-395433Y-6667866D01*
X-443790Y-6619509D01*
X-443790Y-6365509D02*
X-443790Y-6297123D01*
X-395433Y-6248766D01*
X-327047Y-6248766D01*
X-278690Y-6297123D01*
X-278690Y-6365509D01*
X-327047Y-6413866D01*
X-395433Y-6413866D01*
X-443790Y-6365509D01*
X-443790Y-6111509D02*
X-443790Y-6043123D01*
X-395433Y-5994766D01*
X-327047Y-5994766D01*
X-278690Y-6043123D01*
X-278690Y-6111509D01*
X-327047Y-6159866D01*
X-395433Y-6159866D01*
X-443790Y-6111509D01*
X-443790Y-5857509D02*
X-443790Y-5789123D01*
X-395433Y-5740766D01*
X-327047Y-5740766D01*
X-278690Y-5789123D01*
X-278690Y-5857509D01*
X-327047Y-5905866D01*
X-395433Y-5905866D01*
X-443790Y-5857509D01*
X-443790Y-5603509D02*
X-443790Y-5535123D01*
X-395433Y-5486766D01*
X-327047Y-5486766D01*
X-278690Y-5535123D01*
X-278690Y-5603509D01*
X-327047Y-5651866D01*
X-395433Y-5651866D01*
X-443790Y-5603509D01*
X-443790Y-5349509D02*
X-443790Y-5281123D01*
X-395433Y-5232766D01*
X-327047Y-5232766D01*
X-278690Y-5281123D01*
X-278690Y-5349509D01*
X-327047Y-5397866D01*
X-395433Y-5397866D01*
X-443790Y-5349509D01*
X-443790Y-4841509D02*
X-443790Y-4773123D01*
X-395433Y-4724766D01*
X-327047Y-4724766D01*
X-278690Y-4773123D01*
X-278690Y-4841509D01*
X-327047Y-4889866D01*
X-395433Y-4889866D01*
X-443790Y-4841509D01*
X-443790Y-4587509D02*
X-443790Y-4519123D01*
X-395433Y-4470766D01*
X-327047Y-4470766D01*
X-278690Y-4519123D01*
X-278690Y-4587509D01*
X-327047Y-4635866D01*
X-395433Y-4635866D01*
X-443790Y-4587509D01*
X-443790Y-4333509D02*
X-443790Y-4265123D01*
X-395433Y-4216766D01*
X-327047Y-4216766D01*
X-278690Y-4265123D01*
X-278690Y-4333509D01*
X-327047Y-4381866D01*
X-395433Y-4381866D01*
X-443790Y-4333509D01*
X-443790Y-4079509D02*
X-443790Y-4011123D01*
X-395433Y-3962766D01*
X-327047Y-3962766D01*
X-278690Y-4011123D01*
X-278690Y-4079509D01*
X-327047Y-4127866D01*
X-395433Y-4127866D01*
X-443790Y-4079509D01*
X-443790Y-3825509D02*
X-443790Y-3757123D01*
X-395433Y-3708766D01*
X-327047Y-3708766D01*
X-278690Y-3757123D01*
X-278690Y-3825509D01*
X-327047Y-3873866D01*
X-395433Y-3873866D01*
X-443790Y-3825509D01*
X-443790Y-3571509D02*
X-443790Y-3503123D01*
X-395433Y-3454766D01*
X-327047Y-3454766D01*
X-278690Y-3503123D01*
X-278690Y-3571509D01*
X-327047Y-3619866D01*
X-395433Y-3619866D01*
X-443790Y-3571509D01*
X-443790Y-3317509D02*
X-443790Y-3249123D01*
X-395433Y-3200766D01*
X-327047Y-3200766D01*
X-278690Y-3249123D01*
X-278690Y-3317509D01*
X-327047Y-3365866D01*
X-395433Y-3365866D01*
X-443790Y-3317509D01*
X-443790Y-3063509D02*
X-443790Y-2995123D01*
X-395433Y-2946766D01*
X-327047Y-2946766D01*
X-278690Y-2995123D01*
X-278690Y-3063509D01*
X-327047Y-3111866D01*
X-395433Y-3111866D01*
X-443790Y-3063509D01*
X-443790Y-2809509D02*
X-443790Y-2741123D01*
X-395433Y-2692766D01*
X-327047Y-2692766D01*
X-278690Y-2741123D01*
X-278690Y-2809509D01*
X-327047Y-2857866D01*
X-395433Y-2857866D01*
X-443790Y-2809509D01*
X-443790Y-2555509D02*
X-443790Y-2487123D01*
X-395433Y-2438766D01*
X-327047Y-2438766D01*
X-278690Y-2487123D01*
X-278690Y-2555509D01*
X-327047Y-2603866D01*
X-395433Y-2603866D01*
X-443790Y-2555509D01*
X-443790Y-2301509D02*
X-443790Y-2233123D01*
X-395433Y-2184766D01*
X-327047Y-2184766D01*
X-278690Y-2233123D01*
X-278690Y-2301509D01*
X-327047Y-2349866D01*
X-395433Y-2349866D01*
X-443790Y-2301509D01*
X-443790Y-2047509D02*
X-443790Y-1979123D01*
X-395433Y-1930766D01*
X-327047Y-1930766D01*
X-278690Y-1979123D01*
X-278690Y-2047509D01*
X-327047Y-2095866D01*
X-395433Y-2095866D01*
X-443790Y-2047509D01*
X-443790Y-1793509D02*
X-443790Y-1725123D01*
X-395433Y-1676766D01*
X-327047Y-1676766D01*
X-278690Y-1725123D01*
X-278690Y-1793509D01*
X-327047Y-1841866D01*
X-395433Y-1841866D01*
X-443790Y-1793509D01*
X-443790Y-1539509D02*
X-443790Y-1471123D01*
X-395433Y-1422766D01*
X-327047Y-1422766D01*
X-278690Y-1471123D01*
X-278690Y-1539509D01*
X-327047Y-1587866D01*
X-395433Y-1587866D01*
X-443790Y-1539509D01*
X-443790Y-1285509D02*
X-443790Y-1217123D01*
X-395433Y-1168766D01*
X-327047Y-1168766D01*
X-278690Y-1217123D01*
X-278690Y-1285509D01*
X-327047Y-1333866D01*
X-395433Y-1333866D01*
X-443790Y-1285509D01*
X-443790Y-1031509D02*
X-443790Y-963123D01*
X-395433Y-914766D01*
X-327047Y-914766D01*
X-278690Y-963123D01*
X-278690Y-1031509D01*
X-327047Y-1079866D01*
X-395433Y-1079866D01*
X-443790Y-1031509D01*
X-443790Y-777509D02*
X-443790Y-709123D01*
X-395433Y-660766D01*
X-327047Y-660766D01*
X-278690Y-709123D01*
X-278690Y-777509D01*
X-327047Y-825866D01*
X-395433Y-825866D01*
X-443790Y-777509D01*
X-443790Y-523509D02*
X-443790Y-455123D01*
X-395433Y-406766D01*
X-327047Y-406766D01*
X-278690Y-455123D01*
X-278690Y-523509D01*
X-327047Y-571866D01*
X-395433Y-571866D01*
X-443790Y-523509D01*
X-443790Y-269509D02*
X-443790Y-201123D01*
X-395433Y-152766D01*
X-327047Y-152766D01*
X-278690Y-201123D01*
X-278690Y-269509D01*
X-327047Y-317866D01*
X-395433Y-317866D01*
X-443790Y-269509D01*
X-443790Y-15509D02*
X-443790Y+52877D01*
X-395433Y+101234D01*
X-327047Y+101234D01*
X-278690Y+52877D01*
X-278690Y-15509D01*
X-327047Y-63866D01*
X-395433Y-63866D01*
X-443790Y-15509D01*
X-443790Y+238491D02*
X-443790Y+306877D01*
X-395433Y+355234D01*
X-327047Y+355234D01*
X-278690Y+306877D01*
X-278690Y+238491D01*
X-327047Y+190134D01*
X-395433Y+190134D01*
X-443790Y+238491D01*
X-443790Y+492491D02*
X-443790Y+560877D01*
X-395433Y+609234D01*
X-327047Y+609234D01*
X-278690Y+560877D01*
X-278690Y+492491D01*
X-327047Y+444134D01*
X-395433Y+444134D01*
X-443790Y+492491D01*
X-443790Y+746491D02*
X-443790Y+814877D01*
X-395433Y+863234D01*
X-327047Y+863234D01*
X-278690Y+814877D01*
X-278690Y+746491D01*
X-327047Y+698134D01*
X-395433Y+698134D01*
X-443790Y+746491D01*
X-443790Y+1000491D02*
X-443790Y+1068877D01*
X-395433Y+1117234D01*
X-327047Y+1117234D01*
X-278690Y+1068877D01*
X-278690Y+1000491D01*
X-327047Y+952134D01*
X-395433Y+952134D01*
X-443790Y+1000491D01*
X-443790Y+1254491D02*
X-443790Y+1322877D01*
X-395433Y+1371234D01*
X-327047Y+1371234D01*
X-278690Y+1322877D01*
X-278690Y+1254491D01*
X-327047Y+1206134D01*
X-395433Y+1206134D01*
X-443790Y+1254491D01*
X+257696Y+1927048D02*
X+257696Y+1995434D01*
X+306053Y+2043791D01*
X+374439Y+2043791D01*
X+422796Y+1995434D01*
X+422796Y+1927048D01*
X+374439Y+1878691D01*
X+306053Y+1878691D01*
X+257696Y+1927048D01*
X+511696Y+1927048D02*
X+511696Y+1995434D01*
X+560053Y+2043791D01*
X+628439Y+2043791D01*
X+676796Y+1995434D01*
X+676796Y+1927048D01*
X+628439Y+1878691D01*
X+560053Y+1878691D01*
X+511696Y+1927048D01*
X+765696Y+1927048D02*
X+765696Y+1995434D01*
X+814053Y+2043791D01*
X+882439Y+2043791D01*
X+930796Y+1995434D01*
X+930796Y+1927048D01*
X+882439Y+1878691D01*
X+814053Y+1878691D01*
X+765696Y+1927048D01*
X+1019696Y+1927048D02*
X+1019696Y+1995434D01*
X+1068053Y+2043791D01*
X+1136439Y+2043791D01*
X+1184796Y+1995434D01*
X+1184796Y+1927048D01*
X+1136439Y+1878691D01*
X+1068053Y+1878691D01*
X+1019696Y+1927048D01*
X+1273696Y+1927048D02*
X+1273696Y+1995434D01*
X+1322053Y+2043791D01*
X+1390439Y+2043791D01*
X+1438796Y+1995434D01*
X+1438796Y+1927048D01*
X+1390439Y+1878691D01*
X+1322053Y+1878691D01*
X+1273696Y+1927048D01*
X+1527696Y+1927048D02*
X+1527696Y+1995434D01*
X+1576053Y+2043791D01*
X+1644439Y+2043791D01*
X+1692796Y+1995434D01*
X+1692796Y+1927048D01*
X+1644439Y+1878691D01*
X+1576053Y+1878691D01*
X+1527696Y+1927048D01*
X+1781696Y+1927048D02*
X+1781696Y+1995434D01*
X+1830053Y+2043791D01*
X+1898439Y+2043791D01*
X+1946796Y+1995434D01*
X+1946796Y+1927048D01*
X+1898439Y+1878691D01*
X+1830053Y+1878691D01*
X+1781696Y+1927048D01*
X+2035696Y+1927048D02*
X+2035696Y+1995434D01*
X+2084053Y+2043791D01*
X+2152439Y+2043791D01*
X+2200796Y+1995434D01*
X+2200796Y+1927048D01*
X+2152439Y+1878691D01*
X+2084053Y+1878691D01*
X+2035696Y+1927048D01*
X+2289696Y+1927048D02*
X+2289696Y+1995434D01*
X+2338053Y+2043791D01*
X+2406439Y+2043791D01*
X+2454796Y+1995434D01*
X+2454796Y+1927048D01*
X+2406439Y+1878691D01*
X+2338053Y+1878691D01*
X+2289696Y+1927048D01*
X+6607696Y+1927048D02*
X+6607696Y+1995434D01*
X+6656053Y+2043791D01*
X+6724439Y+2043791D01*
X+6772796Y+1995434D01*
X+6772796Y+1927048D01*
X+6724439Y+1878691D01*
X+6656053Y+1878691D01*
X+6607696Y+1927048D01*
X+6861696Y+1927048D02*
X+6861696Y+1995434D01*
X+6910053Y+2043791D01*
X+6978439Y+2043791D01*
X+7026796Y+1995434D01*
X+7026796Y+1927048D01*
X+6978439Y+1878691D01*
X+6910053Y+1878691D01*
X+6861696Y+1927048D01*
X+7115696Y+1927048D02*
X+7115696Y+1995434D01*
X+7164053Y+2043791D01*
X+7232439Y+2043791D01*
X+7280796Y+1995434D01*
X+7280796Y+1927048D01*
X+7232439Y+1878691D01*
X+7164053Y+1878691D01*
X+7115696Y+1927048D01*
X+7369696Y+1927048D02*
X+7369696Y+1995434D01*
X+7418053Y+2043791D01*
X+7486439Y+2043791D01*
X+7534796Y+1995434D01*
X+7534796Y+1927048D01*
X+7486439Y+1878691D01*
X+7418053Y+1878691D01*
X+7369696Y+1927048D01*
X+7623696Y+1927048D02*
X+7623696Y+1995434D01*
X+7672053Y+2043791D01*
X+7740439Y+2043791D01*
X+7788796Y+1995434D01*
X+7788796Y+1927048D01*
X+7740439Y+1878691D01*
X+7672053Y+1878691D01*
X+7623696Y+1927048D01*
X+7877696Y+1927048D02*
X+7877696Y+1995434D01*
X+7926053Y+2043791D01*
X+7994439Y+2043791D01*
X+8042796Y+1995434D01*
X+8042796Y+1927048D01*
X+7994439Y+1878691D01*
X+7926053Y+1878691D01*
X+7877696Y+1927048D01*
X+8131696Y+1927048D02*
X+8131696Y+1995434D01*
X+8180053Y+2043791D01*
X+8248439Y+2043791D01*
X+8296796Y+1995434D01*
X+8296796Y+1927048D01*
X+8248439Y+1878691D01*
X+8180053Y+1878691D01*
X+8131696Y+1927048D01*
X+8385696Y+1927048D02*
X+8385696Y+1995434D01*
X+8434053Y+2043791D01*
X+8502439Y+2043791D01*
X+8550796Y+1995434D01*
X+8550796Y+1927048D01*
X+8502439Y+1878691D01*
X+8434053Y+1878691D01*
X+8385696Y+1927048D01*
X+8639696Y+1927048D02*
X+8639696Y+1995434D01*
X+8688053Y+2043791D01*
X+8756439Y+2043791D01*
X+8804796Y+1995434D01*
X+8804796Y+1927048D01*
X+8756439Y+1878691D01*
X+8688053Y+1878691D01*
X+8639696Y+1927048D01*
X+8893696Y+1927048D02*
X+8893696Y+1995434D01*
X+8942053Y+2043791D01*
X+9010439Y+2043791D01*
X+9058796Y+1995434D01*
X+9058796Y+1927048D01*
X+9010439Y+1878691D01*
X+8942053Y+1878691D01*
X+8893696Y+1927048D01*
X+9147696Y+1927048D02*
X+9147696Y+1995434D01*
X+9196053Y+2043791D01*
X+9264439Y+2043791D01*
X+9312796Y+1995434D01*
X+9312796Y+1927048D01*
X+9264439Y+1878691D01*
X+9196053Y+1878691D01*
X+9147696Y+1927048D01*
X+9401696Y+1927048D02*
X+9401696Y+1995434D01*
X+9450053Y+2043791D01*
X+9518439Y+2043791D01*
X+9566796Y+1995434D01*
X+9566796Y+1927048D01*
X+9518439Y+1878691D01*
X+9450053Y+1878691D01*
X+9401696Y+1927048D01*
X+9655696Y+1927048D02*
X+9655696Y+1995434D01*
X+9704053Y+2043791D01*
X+9772439Y+2043791D01*
X+9820796Y+1995434D01*
X+9820796Y+1927048D01*
X+9772439Y+1878691D01*
X+9704053Y+1878691D01*
X+9655696Y+1927048D01*
X+9909696Y+1927048D02*
X+9909696Y+1995434D01*
X+9958053Y+2043791D01*
X+10026439Y+2043791D01*
X+10074796Y+1995434D01*
X+10074796Y+1927048D01*
X+10026439Y+1878691D01*
X+9958053Y+1878691D01*
X+9909696Y+1927048D01*
X+10163696Y+1927048D02*
X+10163696Y+1995434D01*
X+10212053Y+2043791D01*
X+10280439Y+2043791D01*
X+10328796Y+1995434D01*
X+10328796Y+1927048D01*
X+10280439Y+1878691D01*
X+10212053Y+1878691D01*
X+10163696Y+1927048D01*
X+10417696Y+1927048D02*
X+10417696Y+1995434D01*
X+10466053Y+2043791D01*
X+10534439Y+2043791D01*
X+10582796Y+1995434D01*
X+10582796Y+1927048D01*
X+10534439Y+1878691D01*
X+10466053Y+1878691D01*
X+10417696Y+1927048D01*
X+10671696Y+1927048D02*
X+10671696Y+1995434D01*
X+10720053Y+2043791D01*
X+10788439Y+2043791D01*
X+10836796Y+1995434D01*
X+10836796Y+1927048D01*
X+10788439Y+1878691D01*
X+10720053Y+1878691D01*
X+10671696Y+1927048D01*
X+10925696Y+1927048D02*
X+10925696Y+1995434D01*
X+10974053Y+2043791D01*
X+11042439Y+2043791D01*
X+11090796Y+1995434D01*
X+11090796Y+1927048D01*
X+11042439Y+1878691D01*
X+10974053Y+1878691D01*
X+10925696Y+1927048D01*
X+11179696Y+1927048D02*
X+11179696Y+1995434D01*
X+11228053Y+2043791D01*
X+11296439Y+2043791D01*
X+11344796Y+1995434D01*
X+11344796Y+1927048D01*
X+11296439Y+1878691D01*
X+11228053Y+1878691D01*
X+11179696Y+1927048D01*
X+11433696Y+1927048D02*
X+11433696Y+1995434D01*
X+11482053Y+2043791D01*
X+11550439Y+2043791D01*
X+11598796Y+1995434D01*
X+11598796Y+1927048D01*
X+11550439Y+1878691D01*
X+11482053Y+1878691D01*
X+11433696Y+1927048D01*
X+11687696Y+1927048D02*
X+11687696Y+1995434D01*
X+11736053Y+2043791D01*
X+11804439Y+2043791D01*
X+11852796Y+1995434D01*
X+11852796Y+1927048D01*
X+11804439Y+1878691D01*
X+11736053Y+1878691D01*
X+11687696Y+1927048D01*
X+11941696Y+1927048D02*
X+11941696Y+1995434D01*
X+11990053Y+2043791D01*
X+12058439Y+2043791D01*
X+12106796Y+1995434D01*
X+12106796Y+1927048D01*
X+12058439Y+1878691D01*
X+11990053Y+1878691D01*
X+11941696Y+1927048D01*
X+12195696Y+1927048D02*
X+12195696Y+1995434D01*
X+12244053Y+2043791D01*
X+12312439Y+2043791D01*
X+12360796Y+1995434D01*
X+12360796Y+1927048D01*
X+12312439Y+1878691D01*
X+12244053Y+1878691D01*
X+12195696Y+1927048D01*
X+12449696Y+1927048D02*
X+12449696Y+1995434D01*
X+12498053Y+2043791D01*
X+12566439Y+2043791D01*
X+12614796Y+1995434D01*
X+12614796Y+1927048D01*
X+12566439Y+1878691D01*
X+12498053Y+1878691D01*
X+12449696Y+1927048D01*
X+12703696Y+1927048D02*
X+12703696Y+1995434D01*
X+12752053Y+2043791D01*
X+12820439Y+2043791D01*
X+12868796Y+1995434D01*
X+12868796Y+1927048D01*
X+12820439Y+1878691D01*
X+12752053Y+1878691D01*
X+12703696Y+1927048D01*
X+13478690Y+1165381D02*
X+13478690Y+1233767D01*
X+13527047Y+1282124D01*
X+13595433Y+1282124D01*
X+13643790Y+1233767D01*
X+13643790Y+1165381D01*
X+13595433Y+1117024D01*
X+13527047Y+1117024D01*
X+13478690Y+1165381D01*
X+13478690Y-4930619D02*
X+13478690Y-4862233D01*
X+13527047Y-4813876D01*
X+13595433Y-4813876D01*
X+13643790Y-4862233D01*
X+13643790Y-4930619D01*
X+13595433Y-4978976D01*
X+13527047Y-4978976D01*
X+13478690Y-4930619D01*
X+13478690Y-5184619D02*
X+13478690Y-5116233D01*
X+13527047Y-5067876D01*
X+13595433Y-5067876D01*
X+13643790Y-5116233D01*
X+13643790Y-5184619D01*
X+13595433Y-5232976D01*
X+13527047Y-5232976D01*
X+13478690Y-5184619D01*
X+13478690Y-5438619D02*
X+13478690Y-5370233D01*
X+13527047Y-5321876D01*
X+13595433Y-5321876D01*
X+13643790Y-5370233D01*
X+13643790Y-5438619D01*
X+13595433Y-5486976D01*
X+13527047Y-5486976D01*
X+13478690Y-5438619D01*
X+13478690Y-10772619D02*
X+13478690Y-10704233D01*
X+13527047Y-10655876D01*
X+13595433Y-10655876D01*
X+13643790Y-10704233D01*
X+13643790Y-10772619D01*
X+13595433Y-10820976D01*
X+13527047Y-10820976D01*
X+13478690Y-10772619D01*
X+13478690Y-11534619D02*
X+13478690Y-11466233D01*
X+13527047Y-11417876D01*
X+13595433Y-11417876D01*
X+13643790Y-11466233D01*
X+13643790Y-11534619D01*
X+13595433Y-11582976D01*
X+13527047Y-11582976D01*
X+13478690Y-11534619D01*
X+13478690Y-11788619D02*
X+13478690Y-11720233D01*
X+13527047Y-11671876D01*
X+13595433Y-11671876D01*
X+13643790Y-11720233D01*
X+13643790Y-11788619D01*
X+13595433Y-11836976D01*
X+13527047Y-11836976D01*
X+13478690Y-11788619D01*
X+13478690Y-12042619D02*
X+13478690Y-11974233D01*
X+13527047Y-11925876D01*
X+13595433Y-11925876D01*
X+13643790Y-11974233D01*
X+13643790Y-12042619D01*
X+13595433Y-12090976D01*
X+13527047Y-12090976D01*
X+13478690Y-12042619D01*
X+13478690Y-12296619D02*
X+13478690Y-12228233D01*
X+13527047Y-12179876D01*
X+13595433Y-12179876D01*
X+13643790Y-12228233D01*
X+13643790Y-12296619D01*
X+13595433Y-12344976D01*
X+13527047Y-12344976D01*
X+13478690Y-12296619D01*
X+13478690Y-12550619D02*
X+13478690Y-12482233D01*
X+13527047Y-12433876D01*
X+13595433Y-12433876D01*
X+13643790Y-12482233D01*
X+13643790Y-12550619D01*
X+13595433Y-12598976D01*
X+13527047Y-12598976D01*
X+13478690Y-12550619D01*
X+13478690Y-13820619D02*
X+13478690Y-13752233D01*
X+13527047Y-13703876D01*
X+13595433Y-13703876D01*
X+13643790Y-13752233D01*
X+13643790Y-13820619D01*
X+13595433Y-13868976D01*
X+13527047Y-13868976D01*
X+13478690Y-13820619D01*
X+13478690Y-14074619D02*
X+13478690Y-14006233D01*
X+13527047Y-13957876D01*
X+13595433Y-13957876D01*
X+13643790Y-14006233D01*
X+13643790Y-14074619D01*
X+13595433Y-14122976D01*
X+13527047Y-14122976D01*
X+13478690Y-14074619D01*
X+11822255Y+823323D02*
X+12479611Y+823323D01*
X+13619778Y-316844D01*
X+13619778Y-853248D01*
X+13632478Y-865948D01*
X+13632478Y-992200D01*
X+13543205Y-1081473D01*
X+13416953Y-1081473D01*
X+13327680Y-992200D01*
X+13327680Y-865948D01*
X+13340380Y-853248D01*
X+13340380Y-432574D01*
X+12363881Y+543925D01*
X+11822255Y+543925D01*
X+11809555Y+531225D01*
X+11683303Y+531225D01*
X+11594030Y+620498D01*
X+11594030Y+746750D01*
X+11683303Y+836023D01*
X+11809555Y+836023D01*
X+11822255Y+823323D01*
X+10039093Y+288299D02*
X+8549701Y+288299D01*
X+8549701Y-240299D01*
X+10362901Y-240299D01*
X+10362901Y-251607D01*
X+10267188Y-347320D01*
X+7865985Y-347320D01*
X+7650849Y-562456D01*
X+7604871Y-562456D01*
X+7677899Y-489428D01*
X+7677899Y-310572D01*
X+7551428Y-184101D01*
X+7372572Y-184101D01*
X+7335000Y-221673D01*
X+7297428Y-184101D01*
X+7118572Y-184101D01*
X+7081000Y-221673D01*
X+7043428Y-184101D01*
X+6865099Y-184101D01*
X+6865099Y+31615D01*
X+7312801Y+479317D01*
X+7312801Y+415832D01*
X+7431832Y+296801D01*
X+7600168Y+296801D01*
X+7719199Y+415832D01*
X+7719199Y+584168D01*
X+7668466Y+634901D01*
X+9726564Y+634901D01*
X+10039093Y+288299D01*
X+1921673Y-527000D02*
X+1884101Y-564572D01*
X+1884101Y-742901D01*
X+1644466Y-742901D01*
X+1703199Y-684168D01*
X+1703199Y-515832D01*
X+1698466Y-511099D01*
X+1905772Y-511099D01*
X+1921673Y-527000D01*
X+2561723Y-1132087D02*
X+2561723Y-3685537D01*
X+3075538Y-4199352D01*
X+2627288Y-4647601D01*
X+1889766Y-4647601D01*
X+1903199Y-4634168D01*
X+1903199Y-4465832D01*
X+1860367Y-4423000D01*
X+1903199Y-4380168D01*
X+1903199Y-4212325D01*
X+1952398Y-4163126D01*
X+1952398Y-4036874D01*
X+1863126Y-3947602D01*
X+1736874Y-3947602D01*
X+1547601Y-4136875D01*
X+1547601Y-4161032D01*
X+1496801Y-4211832D01*
X+1496801Y-4380168D01*
X+1539633Y-4423000D01*
X+1496801Y-4465832D01*
X+1496801Y-4634168D01*
X+1510234Y-4647601D01*
X+1265099Y-4647601D01*
X+1265099Y-998583D01*
X+1339615Y-1073099D01*
X+1959772Y-1073099D01*
X+2010572Y-1123899D01*
X+2189428Y-1123899D01*
X+2315899Y-997428D01*
X+2315899Y-886263D01*
X+2561723Y-1132087D01*
X+1965899Y-2506572D02*
X+1965899Y-2685428D01*
X+1928327Y-2723000D01*
X+1965899Y-2760572D01*
X+1965899Y-2939428D01*
X+1839428Y-3065899D01*
X+1660572Y-3065899D01*
X+1534101Y-2939428D01*
X+1534101Y-2760572D01*
X+1571673Y-2723000D01*
X+1534101Y-2685428D01*
X+1534101Y-2506572D01*
X+1660572Y-2380101D01*
X+1839428Y-2380101D01*
X+1965899Y-2506572D01*
X+10719199Y-7100452D02*
X+10719199Y-7032469D01*
X+10756055Y-7032469D01*
X+10810725Y-6977799D01*
X+10841852Y-6977799D01*
X+10719199Y-7100452D01*
X+10312801Y-7184168D02*
X+10375117Y-7246484D01*
X+9844048Y-7246484D01*
X+9703199Y-7105635D01*
X+9703199Y-7032469D01*
X+10312801Y-7032469D01*
X+10312801Y-7184168D01*
X+9296801Y-7184168D02*
X+9415832Y-7303199D01*
X+9505635Y-7303199D01*
X+9873169Y-7670733D01*
X+9873169Y-8453729D01*
X+9677799Y-8649099D01*
X+9677799Y-8609568D01*
X+9703199Y-8584168D01*
X+9703199Y-8415832D01*
X+9631799Y-8344432D01*
X+9631799Y-8127528D01*
X+9669899Y-8089428D01*
X+9669899Y-7910572D01*
X+9543428Y-7784101D01*
X+9364572Y-7784101D01*
X+9327000Y-7821673D01*
X+9289428Y-7784101D01*
X+9110572Y-7784101D01*
X+8984101Y-7910572D01*
X+8984101Y-8089428D01*
X+9110572Y-8215899D01*
X+9276201Y-8215899D01*
X+9276201Y-8296801D01*
X+9161832Y-8296801D01*
X+9042801Y-8415832D01*
X+9042801Y-8584168D01*
X+9161832Y-8703199D01*
X+9322201Y-8703199D01*
X+9322201Y-8926355D01*
X+9172355Y-9076201D01*
X+9118762Y-9076201D01*
X+9199709Y-8995254D01*
X+9199709Y-8869002D01*
X+9110435Y-8779729D01*
X+8952399Y-8621693D01*
X+8952399Y-7032469D01*
X+9296801Y-7032469D01*
X+9296801Y-7184168D01*
X+12403713Y-7005847D02*
X+12508245Y-7005847D01*
X+12508245Y-7921951D01*
X+12508495Y-7922201D01*
X+12426353Y-7922201D01*
X+12322201Y-8026353D01*
X+12322201Y-8049201D01*
X+12299353Y-8049201D01*
X+12195201Y-8153353D01*
X+12195201Y-8300647D01*
X+12299353Y-8404799D01*
X+12322201Y-8404799D01*
X+12322201Y-8427647D01*
X+12426353Y-8531799D01*
X+12504701Y-8531799D01*
X+12516872Y-8543970D01*
X+12516872Y-8574108D01*
X+12435854Y-8574108D01*
X+12412766Y-8597196D01*
X+12200763Y-8597196D01*
X+11898044Y-8899916D01*
X+11655455Y-8899916D01*
X+11542135Y-9013236D01*
X+11318198Y-9013236D01*
X+10967400Y-9364034D01*
X+10884168Y-9280801D01*
X+10803199Y-9280801D01*
X+10803199Y-9231832D01*
X+10684168Y-9112801D01*
X+10515832Y-9112801D01*
X+10396801Y-9231832D01*
X+10396801Y-9400168D01*
X+10515832Y-9519199D01*
X+10596801Y-9519199D01*
X+10596801Y-9568168D01*
X+10715832Y-9687199D01*
X+10795300Y-9687199D01*
X+10795300Y-9741227D01*
X+10569046Y-9967481D01*
X+10514366Y-9912801D01*
X+10355569Y-9912801D01*
X+10355569Y-8922865D01*
X+10562321Y-8716113D01*
X+10562321Y-8503199D01*
X+10684168Y-8503199D01*
X+10747668Y-8439699D01*
X+11626135Y-8439699D01*
X+11667237Y-8480801D01*
X+11615832Y-8480801D01*
X+11496801Y-8599832D01*
X+11496801Y-8768168D01*
X+11615832Y-8887199D01*
X+11784168Y-8887199D01*
X+11903199Y-8768168D01*
X+11903199Y-8719199D01*
X+11984168Y-8719199D01*
X+12103199Y-8600168D01*
X+12103199Y-8431832D01*
X+11984168Y-8312801D01*
X+11894365Y-8312801D01*
X+11741865Y-8160301D01*
X+11652399Y-8160301D01*
X+11652399Y-8145165D01*
X+11701848Y-8095716D01*
X+11918629Y-8095716D01*
X+12323804Y-7690541D01*
X+12323804Y-6947299D01*
X+12345165Y-6947299D01*
X+12403713Y-7005847D01*
X+11080931Y-8612801D02*
X+11249267Y-8612801D01*
X+11368298Y-8731832D01*
X+11368298Y-8900168D01*
X+11249267Y-9019199D01*
X+11080931Y-9019199D01*
X+10961900Y-8900168D01*
X+10961900Y-8731832D01*
X+11080931Y-8612801D01*
X+5768301Y-9747216D02*
X+5768301Y-9805081D01*
X+5860301Y-9897081D01*
X+5860301Y-9925023D01*
X+5850000Y-9935324D01*
X+5762877Y-9848201D01*
X+5637123Y-9848201D01*
X+5550000Y-9935324D01*
X+5539699Y-9925023D01*
X+5539699Y-9491026D01*
X+5564572Y-9515899D01*
X+5743428Y-9515899D01*
X+5768301Y-9491026D01*
X+5768301Y-9747216D01*
D14*
X+9004000Y-240299D02*
X+9004000Y+24000D01*
X+9004000Y+288299D02*
X+9004000Y+24000D01*
X+9000000Y-3965899D02*
X+9000000Y-3750000D01*
X+9000000Y-3534101D02*
X+9000000Y-3750000D01*
X+10034101Y-3750000D02*
X+10250000Y-3750000D01*
X+10250000Y-3965899D02*
X+10250000Y-3750000D01*
X+10250000Y-3534101D02*
X+10250000Y-3750000D01*
X+11284101Y-3750000D02*
X+11500000Y-3750000D01*
X+11500000Y-3965899D02*
X+11500000Y-3750000D01*
X+11500000Y-3534101D02*
X+11500000Y-3750000D01*
X+7719199Y+500000D02*
X+7516000Y+500000D01*
X+7516000Y+296801D02*
X+7516000Y+500000D01*
X+3400000Y-912801D02*
X+3400000Y-1116000D01*
X+3400000Y-1319199D02*
X+3400000Y-1116000D01*
X+3196801Y-1116000D02*
X+3400000Y-1116000D01*
X+4600000Y-912801D02*
X+4600000Y-1116000D01*
X+4600000Y-1319199D02*
X+4600000Y-1116000D01*
X+4803199Y-1116000D02*
X+4600000Y-1116000D01*
X+4200000Y-912801D02*
X+4200000Y-1116000D01*
X+4200000Y-1319199D02*
X+4200000Y-1116000D01*
X+3800000Y-912801D02*
X+3800000Y-1116000D01*
X+3800000Y-1319199D02*
X+3800000Y-1116000D01*
X+13276609Y-3886001D02*
X+13276609Y-4079040D01*
X+13469648Y-4079040D02*
X+13276609Y-4079040D01*
X+3854000Y-3815899D02*
X+3854000Y-3600000D01*
X+3854000Y-3384101D02*
X+3854000Y-3600000D01*
X+5085899Y-3600000D02*
X+4870000Y-3600000D01*
X+4870000Y-3815899D02*
X+4870000Y-3600000D01*
X+4870000Y-3384101D02*
X+4870000Y-3600000D01*
X+7484101Y-8000000D02*
X+7700000Y-8000000D01*
X+7700000Y-8215899D02*
X+7700000Y-8000000D01*
X+7700000Y-7784101D02*
X+7700000Y-8000000D01*
X+8984101Y-8000000D02*
X+9200000Y-8000000D01*
X+9200000Y-8215899D02*
X+9200000Y-8000000D01*
X+9200000Y-7784101D02*
X+9200000Y-8000000D01*
X+8284101Y-9500000D02*
X+8500000Y-9500000D01*
X+8500000Y-9715899D02*
X+8500000Y-9500000D01*
X+8500000Y-9284101D02*
X+8500000Y-9500000D01*
X+4462000Y-5215799D02*
X+4462000Y-5038000D01*
X+11875000Y-13416299D02*
X+11875000Y-13175000D01*
X+11875000Y-12933701D02*
X+11875000Y-13175000D01*
X+12116299Y-13175000D02*
X+11875000Y-13175000D01*
X+11633701Y-13175000D02*
X+11875000Y-13175000D01*
X+5738101Y-6846000D02*
X+5954000Y-6846000D01*
X+6169899Y-6846000D02*
X+5954000Y-6846000D01*
X+5954000Y-7061899D02*
X+5954000Y-6846000D01*
X+5954000Y-6630101D02*
X+5954000Y-6846000D01*
X+5654000Y-9515899D02*
X+5654000Y-9300000D01*
X+7542801Y-8500000D02*
X+7746000Y-8500000D01*
X+7746000Y-8296801D02*
X+7746000Y-8500000D01*
X+7746000Y-8703199D02*
X+7746000Y-8500000D01*
X+8342801Y-10000000D02*
X+8546000Y-10000000D01*
X+8546000Y-9796801D02*
X+8546000Y-10000000D01*
X+8546000Y-10203199D02*
X+8546000Y-10000000D01*
X+9042801Y-8500000D02*
X+9246000Y-8500000D01*
X+9246000Y-8296801D02*
X+9246000Y-8500000D01*
X+9246000Y-8703199D02*
X+9246000Y-8500000D01*
X+1750000Y-3065899D02*
X+1750000Y-2850000D01*
X+1965899Y-2850000D02*
X+1750000Y-2850000D01*
X+1534101Y-2850000D02*
X+1750000Y-2850000D01*
X+1703199Y-600000D02*
X+1500000Y-600000D01*
X+596801Y-5100000D02*
X+800000Y-5100000D01*
X+800000Y-5303199D02*
X+800000Y-5100000D01*
X+800000Y-4896801D02*
X+800000Y-5100000D01*
X+1903199Y-4550000D02*
X+1700000Y-4550000D01*
X+1496801Y-4550000D02*
X+1700000Y-4550000D01*
X+557199Y-5100000D02*
X+354000Y-5100000D01*
X+354000Y-4896801D02*
X+354000Y-5100000D01*
X+9776101Y+1250000D02*
X+9992000Y+1250000D01*
X+9992000Y+1465899D02*
X+9992000Y+1250000D01*
X+9992000Y+1034101D02*
X+9992000Y+1250000D01*
X+7677899Y-400000D02*
X+7462000Y-400000D01*
X+7462000Y-184101D02*
X+7462000Y-400000D01*
X+13430199Y-7607440D02*
X+13227000Y-7607440D01*
X+13430199Y-8435480D02*
X+13227000Y-8435480D01*
X+13430199Y-8709800D02*
X+13227000Y-8709800D01*
X+13430199Y-8986660D02*
X+13227000Y-8986660D01*
X+13227000Y-10569079D02*
X+13227000Y-10365880D01*
X+13430199Y-10365880D02*
X+13227000Y-10365880D01*
X+11396726Y-10609527D02*
X+11396726Y-10812726D01*
X+11396726Y-11015925D02*
X+11396726Y-10812726D01*
X+11599925Y-10812726D02*
X+11396726Y-10812726D01*
X+11165099Y-8612801D02*
X+11165099Y-8816000D01*
X+11165099Y-9019199D02*
X+11165099Y-8816000D01*
X+10961900Y-8816000D02*
X+11165099Y-8816000D01*
X+11368298Y-8816000D02*
X+11165099Y-8816000D01*
X+10430198Y-10928801D02*
X+10430198Y-11132000D01*
X+10430198Y-11335199D02*
X+10430198Y-11132000D01*
X+10633397Y-11132000D02*
X+10430198Y-11132000D01*
X+5700000Y-10151799D02*
X+5700000Y-10000000D01*
X+5700000Y-9848201D02*
X+5700000Y-10000000D01*
X+10312801Y-7100000D02*
X+10516000Y-7100000D01*
X+10719199Y-7100000D02*
X+10516000Y-7100000D01*
X+10600000Y-9112801D02*
X+10600000Y-9316000D01*
X+10396801Y-9316000D02*
X+10600000Y-9316000D01*
X+11100000Y-10512801D02*
X+11100000Y-10716000D01*
X+11100000Y-10919199D02*
X+11100000Y-10716000D01*
X+10896801Y-10716000D02*
X+11100000Y-10716000D01*
D17*
X+8750000Y-1500000D03*
X+9004000Y-1500000D03*
X+9258000Y-1500000D03*
X+9512000Y-1500000D03*
X+9766000Y-1500000D03*
X+10020000Y-1500000D03*
X+10274000Y-1500000D03*
X+10528000Y-1500000D03*
X+10782000Y-1500000D03*
X+11036000Y-1500000D03*
X+11290000Y-1500000D03*
X+11544000Y-1500000D03*
X+11798000Y-1500000D03*
X+12052000Y-1500000D03*
X+12306000Y-1500000D03*
X+12306000Y+24000D03*
X+12052000Y+24000D03*
X+11798000Y+24000D03*
X+11544000Y+24000D03*
X+11290000Y+24000D03*
X+11036000Y+24000D03*
X+10782000Y+24000D03*
X+10528000Y+24000D03*
X+10274000Y+24000D03*
X+10020000Y+24000D03*
X+9766000Y+24000D03*
X+9512000Y+24000D03*
X+9258000Y+24000D03*
X+9004000Y+24000D03*
X+8750000Y+24000D03*
D18*
X+9000000Y-3750000D03*
X+9254000Y-3750000D03*
X+10250000Y-3750000D03*
X+10504000Y-3750000D03*
X+11500000Y-3750000D03*
X+11754000Y-3750000D03*
X+5250000Y+1500000D03*
X+5504000Y+1500000D03*
X+6250000Y+1500000D03*
X+6504000Y+1500000D03*
X+4250000Y+1500000D03*
X+4504000Y+1500000D03*
X+2250000Y+1500000D03*
X+2504000Y+1500000D03*
X+3250000Y+1500000D03*
X+3504000Y+1500000D03*
D19*
X+6500000Y+500000D03*
X+7516000Y+500000D03*
X+3400000Y-100000D03*
X+3400000Y-1116000D03*
X+4600000Y-100000D03*
X+4600000Y-1116000D03*
X+4200000Y-100000D03*
X+4200000Y-1116000D03*
X+3800000Y-100000D03*
X+3800000Y-1116000D03*
D70*
X+12997209Y-3939340D03*
X+12997209Y-4218740D03*
X+12997209Y-4498140D03*
X+12997209Y-4777540D03*
X+12997209Y-5056940D03*
X+13276609Y-4079040D03*
X+13276609Y-4358440D03*
X+13276609Y-4637840D03*
X+13276609Y-4917240D03*
D71*
X+13136909Y-3278940D03*
X+13136909Y-5717340D03*
D18*
X+3600000Y-3600000D03*
X+3854000Y-3600000D03*
X+4108000Y-3600000D03*
X+4362000Y-3600000D03*
X+4616000Y-3600000D03*
X+4870000Y-3600000D03*
X+7700000Y-8000000D03*
X+7954000Y-8000000D03*
X+9200000Y-8000000D03*
X+9454000Y-8000000D03*
X+8500000Y-9500000D03*
X+8754000Y-9500000D03*
D20*
X+3700000Y-5800000D03*
D21*
X+3954000Y-5800000D03*
X+4208000Y-5800000D03*
X+4462000Y-5800000D03*
X+4462000Y-5038000D03*
X+4208000Y-5038000D03*
X+3954000Y-5038000D03*
X+3700000Y-5038000D03*
D22*
X+11875000Y-12425000D03*
X+11875000Y-13175000D03*
X+11875000Y-13925000D03*
X+11625000Y-12675000D03*
X+11625000Y-13675000D03*
X+13375000Y-13425000D03*
X+13375000Y-12925000D03*
D18*
X+5446000Y-6846000D03*
X+5954000Y-6846000D03*
X+5700000Y-7100000D03*
D19*
X+5200000Y-5500000D03*
X+5200000Y-6516000D03*
D18*
X+5446000Y-7646000D03*
X+5954000Y-7646000D03*
X+5700000Y-7900000D03*
D19*
X+4700000Y-8200000D03*
X+5716000Y-8200000D03*
X+4400000Y-8200000D03*
X+3384000Y-8200000D03*
X+2200000Y-7000000D03*
X+2200000Y-5984000D03*
D18*
X+5400000Y-9300000D03*
X+5654000Y-9300000D03*
X+5908000Y-9300000D03*
D19*
X+3400000Y-5400000D03*
X+3400000Y-5654000D03*
X+9900000Y-12900000D03*
X+9900000Y-11884000D03*
X+8000000Y-8500000D03*
X+7746000Y-8500000D03*
X+8800000Y-10000000D03*
X+8546000Y-10000000D03*
X+9500000Y-8500000D03*
X+9246000Y-8500000D03*
D21*
X+12500000Y-8354000D03*
X+12373000Y-8227000D03*
X+12500000Y-8100000D03*
D23*
X+750000Y+750000D03*
X+330000Y+750000D03*
X+750000Y+330000D03*
X+330000Y+330000D03*
X+750000Y-90000D03*
X+330000Y-90000D03*
X+750000Y-510000D03*
X+330000Y-510000D03*
X+750000Y-930000D03*
X+330000Y-930000D03*
X+750000Y-1350000D03*
X+330000Y-1350000D03*
X+750000Y-1770000D03*
X+330000Y-1770000D03*
X+750000Y-2190000D03*
X+330000Y-2190000D03*
X+750000Y-2610000D03*
X+330000Y-2610000D03*
X+750000Y-3030000D03*
X+330000Y-3030000D03*
X+750000Y-3450000D03*
X+330000Y-3450000D03*
X+750000Y-3870006D03*
X+330000Y-3870006D03*
D71*
X+246000Y+1220000D03*
D18*
X+1750000Y-2850000D03*
X+1750000Y-2596000D03*
D19*
X+1500000Y-600000D03*
X+1500000Y-346000D03*
X+800000Y-5100000D03*
X+1054000Y-5100000D03*
X+1700000Y-4550000D03*
X+1700000Y-4296000D03*
X+100000Y-5100000D03*
X+354000Y-5100000D03*
D18*
X+10500000Y+1250000D03*
X+10246000Y+1250000D03*
X+9992000Y+1250000D03*
D24*
X-200000Y+1800000D03*
X+13400000Y+1800000D03*
X+13400000Y-14700000D03*
X-200000Y-14700000D03*
D18*
X+6700000Y-400000D03*
X+6954000Y-400000D03*
X+7208000Y-400000D03*
X+7462000Y-400000D03*
X+2100000Y-400000D03*
X+2100000Y-654000D03*
X+2100000Y-908000D03*
D25*
X+12973000Y-7193420D03*
X+12973000Y-7470280D03*
X+12973000Y-7744600D03*
X+12973000Y-8021460D03*
X+12973000Y-8298320D03*
X+12973000Y-8572640D03*
X+12973000Y-8849500D03*
X+12973000Y-9126360D03*
X+12973000Y-9400680D03*
X+12973000Y-9677540D03*
X+12973000Y-9954400D03*
X+12973000Y-10228720D03*
X+12973000Y-10505580D03*
X+13227000Y-7330580D03*
X+13227000Y-7607440D03*
X+13227000Y-7881760D03*
X+13227000Y-8158620D03*
X+13227000Y-8435480D03*
X+13227000Y-8709800D03*
X+13227000Y-8986660D03*
X+13227000Y-9263520D03*
X+13227000Y-9537840D03*
X+13227000Y-9814700D03*
X+13227000Y-10091560D03*
X+13227000Y-10365880D03*
D26*
X+13100000Y-6500000D03*
X+13100000Y-11199000D03*
D18*
X+11600000Y-6000000D03*
X+11854000Y-6000000D03*
D19*
X+11900000Y-7500000D03*
X+11900000Y-8516000D03*
X+11396726Y-9796726D03*
X+11396726Y-10812726D03*
X+11165099Y-7800000D03*
X+11165099Y-8816000D03*
X+11900000Y-11300000D03*
X+11900000Y-10284000D03*
X+11700000Y-9700000D03*
X+11700000Y-8684000D03*
X+10430198Y-10116000D03*
X+10430198Y-11132000D03*
D27*
X+3200000Y-3600000D03*
X+1100000Y-5300000D03*
X-200000Y-5100000D03*
X+1800000Y-4100000D03*
X+1700000Y-100000D03*
X+6600000Y+1100000D03*
X+5600000Y+1100000D03*
X+4600000Y+1100000D03*
X+3600000Y+1100000D03*
X+2700000Y+1100000D03*
X+9600000Y-3800000D03*
X+10900000Y-3800000D03*
X+11600000Y-4200000D03*
X+13000000Y-1900000D03*
X+13400000Y-1300000D03*
X+10700000Y-13700000D03*
X+9900000Y-13200000D03*
X+5400000Y-10000000D03*
X+6000000Y-10000000D03*
X+5700000Y-10000000D03*
X+2900000Y-700000D03*
D21*
X+12500000Y-9627000D03*
X+12373000Y-9500000D03*
X+12500000Y-9373000D03*
X+12509501Y-9005907D03*
X+12382501Y-8878907D03*
X+12509501Y-8751907D03*
X+10773000Y-6800000D03*
X+10900000Y-6673000D03*
X+11027000Y-6800000D03*
D19*
X+9100000Y-6700000D03*
X+10116000Y-6700000D03*
X+9500000Y-7100000D03*
X+10516000Y-7100000D03*
X+10600000Y-8300000D03*
X+10600000Y-9316000D03*
X+10800000Y-10500000D03*
X+10800000Y-9484000D03*
X+11100000Y-9700000D03*
X+11100000Y-10716000D03*
D28*
X-600000Y-15100000D02*
X+13800000Y-15100000D01*
X+13800000Y+2200000D01*
X-600000Y+2200000D01*
X-600000Y-15100000D01*
M02*
