G04 PROTEUS GERBER X2 FILE*
%TF.GenerationSoftware,Labcenter,Proteus,8.13-SP0-Build31525*%
%TF.CreationDate,2026-02-28T19:45:36+00:00*%
%TF.FileFunction,Copper,L2,Bot*%
%TF.FilePolarity,Positive*%
%TF.Part,Single*%
%TF.SameCoordinates,{521142a4-86e2-419a-835e-f7041762de98}*%
%FSLAX45Y45*%
%MOMM*%
G01*
%TA.AperFunction,Conductor*%
%ADD11C,0.508000*%
%ADD10C,1.016000*%
%TA.AperFunction,ViaPad*%
%ADD12C,0.762000*%
%TA.AperFunction,Conductor*%
%ADD13C,1.270000*%
%ADD14C,0.254000*%
%AMDIL005*
4,1,8,
-0.860000,1.195200,-0.555200,1.500000,0.555200,1.500000,0.860000,1.195200,0.860000,-1.195200,
0.555200,-1.500000,-0.555200,-1.500000,-0.860000,-1.195200,-0.860000,1.195200,
0*%
%TA.AperFunction,ComponentPad*%
%ADD15DIL005*%
%TA.AperFunction,ComponentPad*%
%ADD16C,2.032000*%
%ADD17C,1.778000*%
%TA.AperFunction,ComponentPad*%
%ADD18C,1.574800*%
%ADD19C,1.524000*%
%TA.AperFunction,ComponentPad*%
%ADD70R,1.270000X1.270000*%
%ADD71C,1.270000*%
%TA.AperFunction,ComponentPad*%
%ADD20C,2.540000*%
%TA.AperFunction,ComponentPad*%
%ADD21C,3.048000*%
%TA.AperFunction,OtherPad,Unknown*%
%ADD22C,4.572000*%
%TA.AperFunction,ComponentPad*%
%ADD23R,1.778000X1.778000*%
%ADD24C,6.350000*%
%TA.AperFunction,Profile*%
%ADD25C,0.203200*%
%TD.AperFunction*%
G36*
X+13057101Y+1942033D02*
X+13057101Y+1657967D01*
X+13257967Y+1457101D01*
X+13542033Y+1457101D01*
X+13688240Y+1603308D01*
X+13688240Y-14503308D01*
X+13542033Y-14357101D01*
X+13257967Y-14357101D01*
X+13057101Y-14557967D01*
X+13057101Y-14842033D01*
X+13203308Y-14988240D01*
X-3308Y-14988240D01*
X+142899Y-14842033D01*
X+142899Y-14557967D01*
X-57967Y-14357101D01*
X-342033Y-14357101D01*
X-488240Y-14503308D01*
X-488240Y-5023378D01*
X-246519Y-5265099D01*
X-65099Y-5265099D01*
X-65099Y-5519615D01*
X-181099Y-5635615D01*
X-181099Y-7877732D01*
X-219199Y-7915832D01*
X-219199Y-8084168D01*
X-165099Y-8138268D01*
X-165099Y-8877732D01*
X-203199Y-8915832D01*
X-203199Y-9084168D01*
X-165099Y-9122268D01*
X-165099Y-9877732D01*
X-203199Y-9915832D01*
X-203199Y-10084168D01*
X-84168Y-10203199D01*
X+84168Y-10203199D01*
X+203199Y-10084168D01*
X+203199Y-9915832D01*
X+165099Y-9877732D01*
X+165099Y-9122268D01*
X+203199Y-9084168D01*
X+203199Y-8915832D01*
X+165099Y-8877732D01*
X+165099Y-8106268D01*
X+187199Y-8084168D01*
X+187199Y-7915832D01*
X+149099Y-7877732D01*
X+149099Y-5772385D01*
X+265099Y-5656385D01*
X+265099Y-5298466D01*
X+269832Y-5303199D01*
X+406401Y-5303199D01*
X+406401Y-5656385D01*
X+693615Y-5943599D01*
X+1996801Y-5943599D01*
X+1996801Y-6068168D01*
X+2115832Y-6187199D01*
X+2284168Y-6187199D01*
X+2403199Y-6068168D01*
X+2403199Y-5943599D01*
X+2463801Y-5943599D01*
X+2463801Y-6782174D01*
X+2451101Y-6794874D01*
X+2451101Y-6921126D01*
X+2540374Y-7010399D01*
X+2626301Y-7010399D01*
X+2626301Y-7062974D01*
X+2597428Y-7034101D01*
X+2418572Y-7034101D01*
X+2403199Y-7049474D01*
X+2403199Y-6915832D01*
X+2284168Y-6796801D01*
X+2115832Y-6796801D01*
X+1996801Y-6915832D01*
X+1996801Y-7034101D01*
X+1910572Y-7034101D01*
X+1784101Y-7160572D01*
X+1784101Y-7339428D01*
X+1910572Y-7465899D01*
X+2038101Y-7465899D01*
X+2038101Y-7593428D01*
X+2164572Y-7719899D01*
X+2343428Y-7719899D01*
X+2469899Y-7593428D01*
X+2469899Y-7465899D01*
X+2597428Y-7465899D01*
X+2626301Y-7437026D01*
X+2626301Y-7602332D01*
X+2562801Y-7665832D01*
X+2562801Y-7834168D01*
X+2681832Y-7953199D01*
X+2844801Y-7953199D01*
X+2844801Y-8457635D01*
X+2755635Y-8546801D01*
X+2665832Y-8546801D01*
X+2546801Y-8665832D01*
X+2546801Y-8834168D01*
X+2589934Y-8877301D01*
X+2216865Y-8877301D01*
X+2139699Y-8800135D01*
X+2139699Y-8695026D01*
X+2164572Y-8719899D01*
X+2343428Y-8719899D01*
X+2469899Y-8593428D01*
X+2469899Y-8465899D01*
X+2597428Y-8465899D01*
X+2723899Y-8339428D01*
X+2723899Y-8160572D01*
X+2597428Y-8034101D01*
X+2418572Y-8034101D01*
X+2292101Y-8160572D01*
X+2292101Y-8288101D01*
X+2215899Y-8288101D01*
X+2215899Y-8160572D01*
X+2089428Y-8034101D01*
X+1910572Y-8034101D01*
X+1784101Y-8160572D01*
X+1784101Y-8339428D01*
X+1860301Y-8415628D01*
X+1860301Y-8588934D01*
X+1818168Y-8546801D01*
X+1649832Y-8546801D01*
X+1530801Y-8665832D01*
X+1530801Y-8834168D01*
X+1649832Y-8953199D01*
X+1818168Y-8953199D01*
X+1860301Y-8911066D01*
X+1860301Y-8915865D01*
X+1978537Y-9034101D01*
X+1910572Y-9034101D01*
X+1784101Y-9160572D01*
X+1784101Y-9339428D01*
X+1865554Y-9420882D01*
X+1739635Y-9546801D01*
X+1649832Y-9546801D01*
X+1530801Y-9665832D01*
X+1530801Y-9834168D01*
X+1649832Y-9953199D01*
X+1818168Y-9953199D01*
X+1937199Y-9834168D01*
X+1937199Y-9744365D01*
X+2037865Y-9643699D01*
X+2088372Y-9643699D01*
X+2164572Y-9719899D01*
X+2272335Y-9719899D01*
X+2661635Y-10109199D01*
X+5836365Y-10109199D01*
X+6321098Y-9624466D01*
X+6399832Y-9703199D01*
X+6568168Y-9703199D01*
X+6631668Y-9639699D01*
X+7092635Y-9639699D01*
X+7162801Y-9709865D01*
X+7162801Y-11930865D01*
X+7371635Y-12139699D01*
X+7602332Y-12139699D01*
X+7610301Y-12147668D01*
X+7610301Y-12299865D01*
X+7692135Y-12381699D01*
X+7850855Y-12381699D01*
X+7810201Y-12422353D01*
X+7810201Y-12476235D01*
X+7610301Y-12676135D01*
X+7610301Y-12868332D01*
X+7546801Y-12931832D01*
X+7546801Y-13100168D01*
X+7665832Y-13219199D01*
X+7834168Y-13219199D01*
X+7953199Y-13100168D01*
X+7953199Y-12948683D01*
X+8026401Y-13021885D01*
X+8026401Y-13310201D01*
X+7914353Y-13310201D01*
X+7880960Y-13343594D01*
X+7834168Y-13296801D01*
X+7665832Y-13296801D01*
X+7546801Y-13415832D01*
X+7546801Y-13584168D01*
X+7665832Y-13703199D01*
X+7755635Y-13703199D01*
X+7810201Y-13757765D01*
X+7810201Y-13815647D01*
X+7863554Y-13869000D01*
X+7810201Y-13922353D01*
X+7810201Y-13976235D01*
X+7610301Y-14176135D01*
X+7610301Y-14368332D01*
X+7546801Y-14431832D01*
X+7546801Y-14600168D01*
X+7665832Y-14719199D01*
X+7834168Y-14719199D01*
X+7897668Y-14655699D01*
X+10027365Y-14655699D01*
X+10236199Y-14446865D01*
X+10236199Y-13758263D01*
X+10292635Y-13814699D01*
X+11423451Y-13814699D01*
X+11525051Y-13916299D01*
X+11633701Y-13916299D01*
X+11633701Y-14024949D01*
X+11775051Y-14166299D01*
X+11974949Y-14166299D01*
X+12116299Y-14024949D01*
X+12116299Y-13825051D01*
X+11974949Y-13683701D01*
X+11866299Y-13683701D01*
X+11866299Y-13575051D01*
X+11724949Y-13433701D01*
X+11525051Y-13433701D01*
X+11423451Y-13535301D01*
X+10408365Y-13535301D01*
X+10363199Y-13490135D01*
X+10363199Y-11449763D01*
X+10453135Y-11539699D01*
X+10834372Y-11539699D01*
X+10910572Y-11615899D01*
X+11089428Y-11615899D01*
X+11215899Y-11489428D01*
X+11215899Y-11310572D01*
X+11178327Y-11273000D01*
X+11215899Y-11235428D01*
X+11215899Y-11056572D01*
X+11178327Y-11019000D01*
X+11215899Y-10981428D01*
X+11215899Y-10802572D01*
X+11139699Y-10726372D01*
X+11139699Y-8503365D01*
X+11205045Y-8438019D01*
X+11827417Y-8438019D01*
X+11560301Y-8705135D01*
X+11560301Y-9831952D01*
X+11484101Y-9908152D01*
X+11484101Y-10087008D01*
X+11521673Y-10124580D01*
X+11484101Y-10162152D01*
X+11484101Y-10341008D01*
X+11521673Y-10378580D01*
X+11484101Y-10416152D01*
X+11484101Y-10595008D01*
X+11610572Y-10721479D01*
X+11718335Y-10721479D01*
X+11931555Y-10934699D01*
X+12753645Y-10934699D01*
X+12668201Y-11020143D01*
X+12668201Y-11377857D01*
X+12921143Y-11630799D01*
X+13278857Y-11630799D01*
X+13531799Y-11377857D01*
X+13531799Y-11020143D01*
X+13446355Y-10934699D01*
X+13456365Y-10934699D01*
X+13665199Y-10725865D01*
X+13665199Y-8775366D01*
X+13583365Y-8693532D01*
X+13581296Y-8693532D01*
X+13485663Y-8597899D01*
X+13588626Y-8597899D01*
X+13677899Y-8508626D01*
X+13677899Y-8382374D01*
X+13588626Y-8293101D01*
X+13462374Y-8293101D01*
X+13459694Y-8295781D01*
X+13430199Y-8295781D01*
X+13430199Y-7127381D01*
X+13176199Y-7127381D01*
X+13176199Y-6990221D01*
X+12769801Y-6990221D01*
X+12769801Y-7881761D01*
X+12059325Y-7881761D01*
X+11993699Y-7816135D01*
X+11993699Y-6165628D01*
X+12069899Y-6089428D01*
X+12069899Y-5910572D01*
X+11943428Y-5784101D01*
X+11764572Y-5784101D01*
X+11727000Y-5821673D01*
X+11689428Y-5784101D01*
X+11510572Y-5784101D01*
X+11384101Y-5910572D01*
X+11384101Y-6089428D01*
X+11510572Y-6215899D01*
X+11689428Y-6215899D01*
X+11714301Y-6191026D01*
X+11714301Y-7931865D01*
X+11941057Y-8158621D01*
X+11089315Y-8158621D01*
X+10860301Y-8387635D01*
X+10860301Y-10726372D01*
X+10834372Y-10752301D01*
X+10490199Y-10752301D01*
X+10490199Y-8965826D01*
X+10502899Y-8953126D01*
X+10502899Y-8826874D01*
X+10490199Y-8814174D01*
X+10490199Y-7303199D01*
X+10600168Y-7303199D01*
X+10663668Y-7239699D01*
X+10757865Y-7239699D01*
X+10912699Y-7084865D01*
X+10912699Y-6937145D01*
X+10953353Y-6977799D01*
X+11100647Y-6977799D01*
X+11204799Y-6873647D01*
X+11204799Y-6726353D01*
X+11100647Y-6622201D01*
X+11077799Y-6622201D01*
X+11077799Y-6599353D01*
X+10973647Y-6495201D01*
X+10826353Y-6495201D01*
X+10722201Y-6599353D01*
X+10722201Y-6622201D01*
X+10699353Y-6622201D01*
X+10595201Y-6726353D01*
X+10595201Y-6873647D01*
X+10633301Y-6911747D01*
X+10633301Y-6929934D01*
X+10600168Y-6896801D01*
X+10490199Y-6896801D01*
X+10490199Y-6362326D01*
X+10502899Y-6349626D01*
X+10502899Y-6223374D01*
X+10413626Y-6134101D01*
X+10287374Y-6134101D01*
X+10198101Y-6223374D01*
X+10198101Y-6349626D01*
X+10210801Y-6362326D01*
X+10210801Y-6507434D01*
X+10200168Y-6496801D01*
X+10031832Y-6496801D01*
X+9912801Y-6615832D01*
X+9912801Y-6784168D01*
X+10031832Y-6903199D01*
X+10200168Y-6903199D01*
X+10210801Y-6892566D01*
X+10210801Y-7028737D01*
X+10142365Y-6960301D01*
X+9647668Y-6960301D01*
X+9584168Y-6896801D01*
X+9465099Y-6896801D01*
X+9465099Y-4884615D01*
X+8610599Y-4030115D01*
X+8610599Y-2563515D01*
X+8513885Y-2466801D01*
X+8473444Y-2466801D01*
X+8359326Y-2352683D01*
X+7248167Y-2352683D01*
X+7069465Y-2173981D01*
X+7081000Y-2162446D01*
X+7134353Y-2215799D01*
X+7281647Y-2215799D01*
X+7335000Y-2162446D01*
X+7388353Y-2215799D01*
X+7535647Y-2215799D01*
X+7589000Y-2162446D01*
X+7642353Y-2215799D01*
X+7789647Y-2215799D01*
X+7843000Y-2162446D01*
X+7896353Y-2215799D01*
X+8043647Y-2215799D01*
X+8097000Y-2162446D01*
X+8150353Y-2215799D01*
X+8297647Y-2215799D01*
X+8401799Y-2111647D01*
X+8401799Y-1964353D01*
X+8297647Y-1860201D01*
X+8150353Y-1860201D01*
X+8097000Y-1913554D01*
X+8043647Y-1860201D01*
X+7896353Y-1860201D01*
X+7843000Y-1913554D01*
X+7789647Y-1860201D01*
X+7642353Y-1860201D01*
X+7589000Y-1913554D01*
X+7535647Y-1860201D01*
X+7388353Y-1860201D01*
X+7335000Y-1913554D01*
X+7327465Y-1906019D01*
X+7530285Y-1703199D01*
X+7584168Y-1703199D01*
X+7703199Y-1584168D01*
X+7703199Y-1530285D01*
X+7865099Y-1368385D01*
X+7865099Y-1222268D01*
X+7903199Y-1184168D01*
X+7903199Y-1015832D01*
X+7784168Y-896801D01*
X+7730285Y-896801D01*
X+7449383Y-615899D01*
X+7551428Y-615899D01*
X+7677899Y-489428D01*
X+7677899Y-310572D01*
X+7551428Y-184101D01*
X+7372572Y-184101D01*
X+7335000Y-221673D01*
X+7297428Y-184101D01*
X+7118572Y-184101D01*
X+7081000Y-221673D01*
X+7043428Y-184101D01*
X+6864572Y-184101D01*
X+6827000Y-221673D01*
X+6789428Y-184101D01*
X+6610572Y-184101D01*
X+6484101Y-310572D01*
X+6484101Y-418335D01*
X+6344301Y-558135D01*
X+6344301Y-1352332D01*
X+6336332Y-1360301D01*
X+6150135Y-1360301D01*
X+4126335Y-3384101D01*
X+4018572Y-3384101D01*
X+3981000Y-3421673D01*
X+3943428Y-3384101D01*
X+3764572Y-3384101D01*
X+3727000Y-3421673D01*
X+3689428Y-3384101D01*
X+3510572Y-3384101D01*
X+3434372Y-3460301D01*
X+2692135Y-3460301D01*
X+2463801Y-3688635D01*
X+2463801Y-5613401D01*
X+830385Y-5613401D01*
X+736599Y-5519615D01*
X+736599Y-5303199D01*
X+884168Y-5303199D01*
X+927000Y-5260367D01*
X+969832Y-5303199D01*
X+1138168Y-5303199D01*
X+1176268Y-5265099D01*
X+2016885Y-5265099D01*
X+2324099Y-4957885D01*
X+2324099Y-1133615D01*
X+2265099Y-1074615D01*
X+2265099Y-1048228D01*
X+2315899Y-997428D01*
X+2315899Y-818572D01*
X+2278327Y-781000D01*
X+2315899Y-743428D01*
X+2315899Y-564572D01*
X+2278327Y-527000D01*
X+2315899Y-489428D01*
X+2315899Y-310572D01*
X+2189428Y-184101D01*
X+2044699Y-184101D01*
X+2044699Y+1399974D01*
X+2110301Y+1334372D01*
X+2110301Y+992135D01*
X+3196801Y-94365D01*
X+3196801Y-184168D01*
X+3315832Y-303199D01*
X+3484168Y-303199D01*
X+3600000Y-187367D01*
X+3715832Y-303199D01*
X+3884168Y-303199D01*
X+4000000Y-187367D01*
X+4115832Y-303199D01*
X+4284168Y-303199D01*
X+4400000Y-187367D01*
X+4515832Y-303199D01*
X+4684168Y-303199D01*
X+4803199Y-184168D01*
X+4803199Y-94365D01*
X+5389699Y+492135D01*
X+5389699Y+1308974D01*
X+5414572Y+1284101D01*
X+5593428Y+1284101D01*
X+5719899Y+1410572D01*
X+5719899Y+1589428D01*
X+5593428Y+1715899D01*
X+5414572Y+1715899D01*
X+5377000Y+1678327D01*
X+5339428Y+1715899D01*
X+5160572Y+1715899D01*
X+5034101Y+1589428D01*
X+5034101Y+1410572D01*
X+5110301Y+1334372D01*
X+5110301Y+607865D01*
X+4605635Y+103199D01*
X+4515832Y+103199D01*
X+4400000Y-12633D01*
X+4339699Y+47668D01*
X+4339699Y+640635D01*
X+4389699Y+690635D01*
X+4389699Y+1308974D01*
X+4414572Y+1284101D01*
X+4593428Y+1284101D01*
X+4719899Y+1410572D01*
X+4719899Y+1589428D01*
X+4593428Y+1715899D01*
X+4414572Y+1715899D01*
X+4377000Y+1678327D01*
X+4339428Y+1715899D01*
X+4160572Y+1715899D01*
X+4034101Y+1589428D01*
X+4034101Y+1410572D01*
X+4110301Y+1334372D01*
X+4110301Y+806365D01*
X+4060301Y+756365D01*
X+4060301Y+47668D01*
X+4000000Y-12633D01*
X+3939699Y+47668D01*
X+3939699Y+438865D01*
X+3389699Y+988865D01*
X+3389699Y+1308974D01*
X+3414572Y+1284101D01*
X+3593428Y+1284101D01*
X+3719899Y+1410572D01*
X+3719899Y+1589428D01*
X+3593428Y+1715899D01*
X+3414572Y+1715899D01*
X+3377000Y+1678327D01*
X+3339428Y+1715899D01*
X+3160572Y+1715899D01*
X+3034101Y+1589428D01*
X+3034101Y+1410572D01*
X+3110301Y+1334372D01*
X+3110301Y+873135D01*
X+3660301Y+323135D01*
X+3660301Y+47668D01*
X+3600000Y-12633D01*
X+3484168Y+103199D01*
X+3394365Y+103199D01*
X+2389699Y+1107865D01*
X+2389699Y+1308974D01*
X+2414572Y+1284101D01*
X+2593428Y+1284101D01*
X+2719899Y+1410572D01*
X+2719899Y+1589428D01*
X+2593428Y+1715899D01*
X+2485665Y+1715899D01*
X+2220365Y+1981199D01*
X+1974135Y+1981199D01*
X+1765301Y+1772365D01*
X+1765301Y-516865D01*
X+1884101Y-635665D01*
X+1884101Y-743428D01*
X+1921673Y-781000D01*
X+1884101Y-818572D01*
X+1884101Y-997428D01*
X+1934901Y-1048228D01*
X+1934901Y-1211385D01*
X+1993901Y-1270385D01*
X+1993901Y-4821115D01*
X+1880115Y-4934901D01*
X+1176268Y-4934901D01*
X+1138168Y-4896801D01*
X+969832Y-4896801D01*
X+927000Y-4939633D01*
X+884168Y-4896801D01*
X+736599Y-4896801D01*
X+736599Y-4576885D01*
X+1181098Y-4132386D01*
X+1181098Y-3647614D01*
X+1016699Y-3483215D01*
X+1016699Y-3339530D01*
X+917169Y-3240000D01*
X+1016699Y-3140470D01*
X+1016699Y-2919530D01*
X+917169Y-2820000D01*
X+962070Y-2775099D01*
X+1534101Y-2775099D01*
X+1534101Y-2939428D01*
X+1660572Y-3065899D01*
X+1839428Y-3065899D01*
X+1965899Y-2939428D01*
X+1965899Y-2760572D01*
X+1928327Y-2723000D01*
X+1965899Y-2685428D01*
X+1965899Y-2667585D01*
X+1991421Y-2642063D01*
X+1965899Y-2572746D01*
X+1965899Y-2506572D01*
X+1927335Y-2468008D01*
X+1918440Y-2443849D01*
X+1900907Y-2441580D01*
X+1839428Y-2380101D01*
X+1660572Y-2380101D01*
X+1595772Y-2444901D01*
X+962070Y-2444901D01*
X+917169Y-2400000D01*
X+1016699Y-2300470D01*
X+1016699Y-2079530D01*
X+917169Y-1980000D01*
X+1016699Y-1880470D01*
X+1016699Y-1659530D01*
X+917169Y-1560000D01*
X+1016699Y-1460470D01*
X+1016699Y-1239530D01*
X+917169Y-1140000D01*
X+1016699Y-1040470D01*
X+1016699Y-819530D01*
X+917169Y-720000D01*
X+1016699Y-620470D01*
X+1016699Y-399530D01*
X+917169Y-300000D01*
X+1016699Y-200470D01*
X+1016699Y+20470D01*
X+917169Y+120000D01*
X+1016699Y+219530D01*
X+1016699Y+440470D01*
X+917169Y+540000D01*
X+1016699Y+639530D01*
X+1016699Y+850901D01*
X+1241115Y+850901D01*
X+1334901Y+757115D01*
X+1334901Y-223732D01*
X+1296801Y-261832D01*
X+1296801Y-430168D01*
X+1339633Y-473000D01*
X+1296801Y-515832D01*
X+1296801Y-684168D01*
X+1415832Y-803199D01*
X+1584168Y-803199D01*
X+1703199Y-684168D01*
X+1703199Y-515832D01*
X+1660367Y-473000D01*
X+1703199Y-430168D01*
X+1703199Y-261832D01*
X+1665099Y-223732D01*
X+1665099Y+893885D01*
X+1377885Y+1181099D01*
X+527615Y+1181099D01*
X+363215Y+1016699D01*
X+219530Y+1016699D01*
X+63301Y+860470D01*
X+63301Y+639530D01*
X+162831Y+540000D01*
X+63301Y+440470D01*
X+63301Y+296785D01*
X-488240Y-254756D01*
X-488240Y+1603308D01*
X-342033Y+1457101D01*
X-57967Y+1457101D01*
X+142899Y+1657967D01*
X+142899Y+1942033D01*
X-3308Y+2088240D01*
X+13203308Y+2088240D01*
X+13057101Y+1942033D01*
G37*
%LPC*%
G36*
X+6719899Y+1589428D02*
X+6719899Y+1410572D01*
X+6593428Y+1284101D01*
X+6414572Y+1284101D01*
X+6389699Y+1308974D01*
X+6389699Y+807865D01*
X+6494365Y+703199D01*
X+6505635Y+703199D01*
X+6767635Y+965199D01*
X+8503365Y+965199D01*
X+8712199Y+756365D01*
X+8712199Y+288299D01*
X+12369801Y+288299D01*
X+12369801Y+704135D01*
X+12324635Y+749301D01*
X+10549135Y+749301D01*
X+10264335Y+1034101D01*
X+10156572Y+1034101D01*
X+10119000Y+1071673D01*
X+10081428Y+1034101D01*
X+9902572Y+1034101D01*
X+9776101Y+1160572D01*
X+9776101Y+1339428D01*
X+9902572Y+1465899D01*
X+10081428Y+1465899D01*
X+10119000Y+1428327D01*
X+10156572Y+1465899D01*
X+10335428Y+1465899D01*
X+10373000Y+1428327D01*
X+10410572Y+1465899D01*
X+10589428Y+1465899D01*
X+10665628Y+1389699D01*
X+13392865Y+1389699D01*
X+13601699Y+1180865D01*
X+13601699Y-4230914D01*
X+13469648Y-4362965D01*
X+13469648Y-4438399D01*
X+13409907Y-4498140D01*
X+13469648Y-4557881D01*
X+13469648Y-4717799D01*
X+13409907Y-4777540D01*
X+13469648Y-4837281D01*
X+13469648Y-4997199D01*
X+13416308Y-5050539D01*
X+13416308Y-5196256D01*
X+13202365Y-5410199D01*
X+12578635Y-5410199D01*
X+12369801Y-5201365D01*
X+12369801Y-2703927D01*
X+11658301Y-1992427D01*
X+11658301Y-1764299D01*
X+10413699Y-1764299D01*
X+10413699Y-2212135D01*
X+11735665Y-3534101D01*
X+11843428Y-3534101D01*
X+11969899Y-3660572D01*
X+11969899Y-3768335D01*
X+12077699Y-3876135D01*
X+12077699Y-5131174D01*
X+12090399Y-5143874D01*
X+12090399Y-5270126D01*
X+12001126Y-5359399D01*
X+11874874Y-5359399D01*
X+11785601Y-5270126D01*
X+11785601Y-5143874D01*
X+11798301Y-5131174D01*
X+11798301Y-3991865D01*
X+11772335Y-3965899D01*
X+11664572Y-3965899D01*
X+11627000Y-3928327D01*
X+11589428Y-3965899D01*
X+11410572Y-3965899D01*
X+11284101Y-3839428D01*
X+11284101Y-3660572D01*
X+11375554Y-3569118D01*
X+10159699Y-2353263D01*
X+10159699Y-2506135D01*
X+10643699Y-2990135D01*
X+10643699Y-3584372D01*
X+10660901Y-3601574D01*
X+10668374Y-3594101D01*
X+10794626Y-3594101D01*
X+10883899Y-3683374D01*
X+10883899Y-3809626D01*
X+10794626Y-3898899D01*
X+10668374Y-3898899D01*
X+10664401Y-3894926D01*
X+10593428Y-3965899D01*
X+10414572Y-3965899D01*
X+10377000Y-3928327D01*
X+10339428Y-3965899D01*
X+10160572Y-3965899D01*
X+10034101Y-3839428D01*
X+10034101Y-3660572D01*
X+10160572Y-3534101D01*
X+10339428Y-3534101D01*
X+10364301Y-3558974D01*
X+10364301Y-3105865D01*
X+9905699Y-2647263D01*
X+9905699Y-3295865D01*
X+9469899Y-3731665D01*
X+9469899Y-3839428D01*
X+9393699Y-3915628D01*
X+9393699Y-4098174D01*
X+9423399Y-4127874D01*
X+9423399Y-4254126D01*
X+9334126Y-4343399D01*
X+9207874Y-4343399D01*
X+9118601Y-4254126D01*
X+9118601Y-4236165D01*
X+9114301Y-4231865D01*
X+9114301Y-3941026D01*
X+9089428Y-3965899D01*
X+8910572Y-3965899D01*
X+8784101Y-3839428D01*
X+8784101Y-3660572D01*
X+8910572Y-3534101D01*
X+9089428Y-3534101D01*
X+9127000Y-3571673D01*
X+9164572Y-3534101D01*
X+9272335Y-3534101D01*
X+9626301Y-3180135D01*
X+9626301Y-1764299D01*
X+8889699Y-1764299D01*
X+8889699Y-2197174D01*
X+8915399Y-2222874D01*
X+8915399Y-2349126D01*
X+8826126Y-2438399D01*
X+8699874Y-2438399D01*
X+8610601Y-2349126D01*
X+8610601Y-2331165D01*
X+8610301Y-2330865D01*
X+8610301Y-1764299D01*
X+8549701Y-1764299D01*
X+8549701Y-1235701D01*
X+10388301Y-1235701D01*
X+10388301Y-1117125D01*
X+10292635Y-1021459D01*
X+8697895Y-1021459D01*
X+8432801Y-756365D01*
X+8432801Y+640635D01*
X+8387635Y+685801D01*
X+7617566Y+685801D01*
X+7719199Y+584168D01*
X+7719199Y+415832D01*
X+7600168Y+296801D01*
X+7431832Y+296801D01*
X+7312801Y+415832D01*
X+7312801Y+584168D01*
X+7414434Y+685801D01*
X+6883365Y+685801D01*
X+6703199Y+505635D01*
X+6703199Y+415832D01*
X+6584168Y+296801D01*
X+6415832Y+296801D01*
X+6296801Y+415832D01*
X+6296801Y+505635D01*
X+6110301Y+692135D01*
X+6110301Y+1334372D01*
X+6034101Y+1410572D01*
X+6034101Y+1589428D01*
X+6160572Y+1715899D01*
X+6339428Y+1715899D01*
X+6377000Y+1678327D01*
X+6414572Y+1715899D01*
X+6593428Y+1715899D01*
X+6719899Y+1589428D01*
G37*
G36*
X+4803199Y-1031832D02*
X+4803199Y-1200168D01*
X+4684168Y-1319199D01*
X+4515832Y-1319199D01*
X+4400000Y-1203367D01*
X+4284168Y-1319199D01*
X+4115832Y-1319199D01*
X+4000000Y-1203367D01*
X+3884168Y-1319199D01*
X+3715832Y-1319199D01*
X+3600000Y-1203367D01*
X+3484168Y-1319199D01*
X+3315832Y-1319199D01*
X+3196801Y-1200168D01*
X+3196801Y-1031832D01*
X+3315832Y-912801D01*
X+3484168Y-912801D01*
X+3600000Y-1028633D01*
X+3715832Y-912801D01*
X+3884168Y-912801D01*
X+4000000Y-1028633D01*
X+4115832Y-912801D01*
X+4284168Y-912801D01*
X+4400000Y-1028633D01*
X+4515832Y-912801D01*
X+4684168Y-912801D01*
X+4803199Y-1031832D01*
G37*
G36*
X+13215816Y-5907839D02*
X+13058002Y-5907839D01*
X+12946410Y-5796247D01*
X+12946410Y-5638433D01*
X+13058002Y-5526841D01*
X+13215816Y-5526841D01*
X+13327408Y-5638433D01*
X+13327408Y-5796247D01*
X+13215816Y-5907839D01*
G37*
G36*
X+12116299Y-12325051D02*
X+12116299Y-12524949D01*
X+11974949Y-12666299D01*
X+11866299Y-12666299D01*
X+11866299Y-12774949D01*
X+11724949Y-12916299D01*
X+11525051Y-12916299D01*
X+11383701Y-12774949D01*
X+11383701Y-12575051D01*
X+11525051Y-12433701D01*
X+11633701Y-12433701D01*
X+11633701Y-12325051D01*
X+11775051Y-12183701D01*
X+11974949Y-12183701D01*
X+12116299Y-12325051D01*
G37*
G36*
X+11974949Y-13416299D02*
X+11775051Y-13416299D01*
X+11633701Y-13274949D01*
X+11633701Y-13075051D01*
X+11775051Y-12933701D01*
X+11974949Y-12933701D01*
X+12116299Y-13075051D01*
X+12116299Y-13274949D01*
X+11974949Y-13416299D01*
G37*
G36*
X+13474949Y-13666299D02*
X+13275051Y-13666299D01*
X+13133701Y-13524949D01*
X+13133701Y-13325051D01*
X+13275051Y-13183701D01*
X+13474949Y-13183701D01*
X+13616299Y-13325051D01*
X+13616299Y-13524949D01*
X+13474949Y-13666299D01*
G37*
G36*
X+13474949Y-13166299D02*
X+13275051Y-13166299D01*
X+13133701Y-13024949D01*
X+13133701Y-12825051D01*
X+13275051Y-12683701D01*
X+13474949Y-12683701D01*
X+13616299Y-12825051D01*
X+13616299Y-13024949D01*
X+13474949Y-13166299D01*
G37*
G36*
X+12979216Y-14176599D02*
X+12770784Y-14176599D01*
X+12623401Y-14029216D01*
X+12623401Y-13820784D01*
X+12770784Y-13673401D01*
X+12979216Y-13673401D01*
X+13126599Y-13820784D01*
X+13126599Y-14029216D01*
X+12979216Y-14176599D01*
G37*
G36*
X+12979216Y-12676599D02*
X+12770784Y-12676599D01*
X+12623401Y-12529216D01*
X+12623401Y-12320784D01*
X+12770784Y-12173401D01*
X+12979216Y-12173401D01*
X+13126599Y-12320784D01*
X+13126599Y-12529216D01*
X+12979216Y-12676599D01*
G37*
G36*
X+167093Y+1410499D02*
X+324907Y+1410499D01*
X+436499Y+1298907D01*
X+436499Y+1141093D01*
X+324907Y+1029501D01*
X+167093Y+1029501D01*
X+55501Y+1141093D01*
X+55501Y+1298907D01*
X+167093Y+1410499D01*
G37*
G36*
X+1903199Y-4211832D02*
X+1903199Y-4380168D01*
X+1860367Y-4423000D01*
X+1903199Y-4465832D01*
X+1903199Y-4634168D01*
X+1784168Y-4753199D01*
X+1615832Y-4753199D01*
X+1496801Y-4634168D01*
X+1496801Y-4465832D01*
X+1539633Y-4423000D01*
X+1496801Y-4380168D01*
X+1496801Y-4211832D01*
X+1615832Y-4092801D01*
X+1784168Y-4092801D01*
X+1903199Y-4211832D01*
G37*
G36*
X+12921143Y-6068201D02*
X+13278857Y-6068201D01*
X+13531799Y-6321143D01*
X+13531799Y-6678857D01*
X+13278857Y-6931799D01*
X+12921143Y-6931799D01*
X+12668201Y-6678857D01*
X+12668201Y-6321143D01*
X+12921143Y-6068201D01*
G37*
G36*
X+965899Y-7160572D02*
X+965899Y-7288101D01*
X+1093428Y-7288101D01*
X+1219899Y-7414572D01*
X+1219899Y-7593428D01*
X+1139699Y-7673628D01*
X+1139699Y-7852332D01*
X+1203199Y-7915832D01*
X+1203199Y-8084168D01*
X+1084168Y-8203199D01*
X+965899Y-8203199D01*
X+965899Y-8288101D01*
X+1093428Y-8288101D01*
X+1219899Y-8414572D01*
X+1219899Y-8593428D01*
X+1155699Y-8657628D01*
X+1155699Y-8852332D01*
X+1219199Y-8915832D01*
X+1219199Y-9084168D01*
X+1100168Y-9203199D01*
X+965899Y-9203199D01*
X+965899Y-9288101D01*
X+1093428Y-9288101D01*
X+1219899Y-9414572D01*
X+1219899Y-9593428D01*
X+1155699Y-9657628D01*
X+1155699Y-9852332D01*
X+1219199Y-9915832D01*
X+1219199Y-10084168D01*
X+1100168Y-10203199D01*
X+931832Y-10203199D01*
X+812801Y-10084168D01*
X+812801Y-9915832D01*
X+876301Y-9852332D01*
X+876301Y-9681628D01*
X+788101Y-9593428D01*
X+788101Y-9465899D01*
X+711899Y-9465899D01*
X+711899Y-9593428D01*
X+585428Y-9719899D01*
X+406572Y-9719899D01*
X+280101Y-9593428D01*
X+280101Y-9414572D01*
X+406572Y-9288101D01*
X+534101Y-9288101D01*
X+534101Y-9160572D01*
X+660572Y-9034101D01*
X+812801Y-9034101D01*
X+812801Y-8915832D01*
X+876301Y-8852332D01*
X+876301Y-8681628D01*
X+788101Y-8593428D01*
X+788101Y-8465899D01*
X+711899Y-8465899D01*
X+711899Y-8593428D01*
X+585428Y-8719899D01*
X+406572Y-8719899D01*
X+280101Y-8593428D01*
X+280101Y-8414572D01*
X+406572Y-8288101D01*
X+534101Y-8288101D01*
X+534101Y-8160572D01*
X+660572Y-8034101D01*
X+796801Y-8034101D01*
X+796801Y-7915832D01*
X+860301Y-7852332D01*
X+860301Y-7665628D01*
X+788101Y-7593428D01*
X+788101Y-7465899D01*
X+711899Y-7465899D01*
X+711899Y-7593428D01*
X+585428Y-7719899D01*
X+406572Y-7719899D01*
X+280101Y-7593428D01*
X+280101Y-7414572D01*
X+406572Y-7288101D01*
X+534101Y-7288101D01*
X+534101Y-7160572D01*
X+660572Y-7034101D01*
X+839428Y-7034101D01*
X+965899Y-7160572D01*
G37*
G36*
X+1953199Y-7665832D02*
X+1953199Y-7834168D01*
X+1834168Y-7953199D01*
X+1665832Y-7953199D01*
X+1546801Y-7834168D01*
X+1546801Y-7665832D01*
X+1665832Y-7546801D01*
X+1834168Y-7546801D01*
X+1953199Y-7665832D01*
G37*
G36*
X+6687199Y-9915832D02*
X+6687199Y-10084168D01*
X+6568168Y-10203199D01*
X+6399832Y-10203199D01*
X+6280801Y-10084168D01*
X+6280801Y-9915832D01*
X+6399832Y-9796801D01*
X+6568168Y-9796801D01*
X+6687199Y-9915832D01*
G37*
%LPD*%
G36*
X+12369801Y-691135D02*
X+11912302Y-1148634D01*
X+11912302Y-1235701D01*
X+10667699Y-1235701D01*
X+10667699Y-1001395D01*
X+10408365Y-742061D01*
X+8813625Y-742061D01*
X+8712199Y-640635D01*
X+8712199Y-240299D01*
X+11404301Y-240299D01*
X+11404301Y-806865D01*
X+11531601Y-934165D01*
X+11531601Y-952126D01*
X+11620874Y-1041399D01*
X+11747126Y-1041399D01*
X+11836399Y-952126D01*
X+11836399Y-825874D01*
X+11747126Y-736601D01*
X+11729165Y-736601D01*
X+11683699Y-691135D01*
X+11683699Y-240299D01*
X+12369801Y-240299D01*
X+12369801Y-691135D01*
G37*
G36*
X+13322301Y+1065135D02*
X+13322301Y-3194926D01*
X+13215816Y-3088441D01*
X+13058002Y-3088441D01*
X+12946410Y-3200033D01*
X+12946410Y-3357847D01*
X+13058002Y-3469439D01*
X+13215816Y-3469439D01*
X+13322301Y-3362954D01*
X+13322301Y-3886001D01*
X+13196650Y-3886001D01*
X+13190248Y-3892403D01*
X+13190248Y-3859381D01*
X+13077168Y-3746301D01*
X+12917250Y-3746301D01*
X+12804170Y-3859381D01*
X+12804170Y-4019299D01*
X+12863911Y-4079040D01*
X+12804170Y-4138781D01*
X+12804170Y-4298699D01*
X+12863911Y-4358440D01*
X+12804170Y-4418181D01*
X+12804170Y-4578099D01*
X+12863911Y-4637840D01*
X+12804170Y-4697581D01*
X+12804170Y-4857499D01*
X+12863911Y-4917240D01*
X+12804170Y-4976981D01*
X+12804170Y-5130801D01*
X+12694365Y-5130801D01*
X+12649199Y-5085635D01*
X+12649199Y-2588197D01*
X+11937699Y-1876697D01*
X+11937699Y-1764299D01*
X+12506299Y-1764299D01*
X+12506299Y-1235701D01*
X+12220363Y-1235701D01*
X+12649199Y-806865D01*
X+12649199Y+819865D01*
X+12440365Y+1028699D01*
X+10664865Y+1028699D01*
X+10624446Y+1069118D01*
X+10665628Y+1110301D01*
X+13277135Y+1110301D01*
X+13322301Y+1065135D01*
G37*
G36*
X+7496801Y-1130285D02*
X+7496801Y-1184168D01*
X+7534901Y-1222268D01*
X+7534901Y-1231615D01*
X+7469715Y-1296801D01*
X+7415832Y-1296801D01*
X+7296801Y-1415832D01*
X+7296801Y-1469715D01*
X+7071415Y-1695101D01*
X+6809415Y-1695101D01*
X+6644315Y-1860201D01*
X+6626353Y-1860201D01*
X+6522201Y-1964353D01*
X+6522201Y-2111647D01*
X+6626353Y-2215799D01*
X+6644315Y-2215799D01*
X+7092534Y-2664020D01*
X+7081000Y-2675554D01*
X+7027647Y-2622201D01*
X+6880353Y-2622201D01*
X+6877799Y-2624755D01*
X+6877799Y-2622201D01*
X+6522201Y-2622201D01*
X+6522201Y-2977799D01*
X+6814301Y-2977799D01*
X+6814301Y-3626865D01*
X+8960301Y-5772865D01*
X+8960301Y-6077776D01*
X+8889626Y-6007101D01*
X+8801099Y-6007101D01*
X+8801099Y-5773614D01*
X+8704386Y-5676901D01*
X+8567614Y-5676901D01*
X+8470901Y-5773614D01*
X+8470901Y-9148885D01*
X+8635344Y-9313328D01*
X+8627000Y-9321673D01*
X+8589428Y-9284101D01*
X+8410572Y-9284101D01*
X+8394699Y-9299974D01*
X+8394699Y-6362326D01*
X+8407399Y-6349626D01*
X+8407399Y-6223374D01*
X+8318126Y-6134101D01*
X+8191874Y-6134101D01*
X+8119098Y-6206877D01*
X+8119098Y-5265614D01*
X+7831885Y-4978401D01*
X+5488115Y-4978401D01*
X+5169715Y-5296801D01*
X+5115832Y-5296801D01*
X+4996801Y-5415832D01*
X+4996801Y-5584168D01*
X+5115832Y-5703199D01*
X+5284168Y-5703199D01*
X+5403199Y-5584168D01*
X+5403199Y-5530285D01*
X+5624885Y-5308599D01*
X+6134101Y-5308599D01*
X+6134101Y-5397126D01*
X+6146801Y-5409826D01*
X+6146801Y-6733474D01*
X+6043428Y-6630101D01*
X+5864572Y-6630101D01*
X+5738101Y-6756572D01*
X+5738101Y-6884101D01*
X+5661899Y-6884101D01*
X+5661899Y-6756572D01*
X+5535428Y-6630101D01*
X+5373266Y-6630101D01*
X+5403199Y-6600168D01*
X+5403199Y-6431832D01*
X+5284168Y-6312801D01*
X+5115832Y-6312801D01*
X+4996801Y-6431832D01*
X+4996801Y-6600168D01*
X+5115832Y-6719199D01*
X+5267474Y-6719199D01*
X+5230101Y-6756572D01*
X+5230101Y-6935428D01*
X+5254974Y-6960301D01*
X+4444365Y-6960301D01*
X+4347699Y-6863635D01*
X+4347699Y-5937145D01*
X+4388353Y-5977799D01*
X+4535647Y-5977799D01*
X+4639799Y-5873647D01*
X+4639799Y-5726353D01*
X+4535647Y-5622201D01*
X+4517685Y-5622201D01*
X+4365285Y-5469801D01*
X+3863683Y-5469801D01*
X+3865099Y-5468385D01*
X+3865099Y-5200545D01*
X+3880353Y-5215799D01*
X+4027647Y-5215799D01*
X+4081000Y-5162446D01*
X+4134353Y-5215799D01*
X+4281647Y-5215799D01*
X+4335000Y-5162446D01*
X+4388353Y-5215799D01*
X+4535647Y-5215799D01*
X+4639799Y-5111647D01*
X+4639799Y-4964353D01*
X+4535647Y-4860201D01*
X+4388353Y-4860201D01*
X+4335000Y-4913554D01*
X+4281647Y-4860201D01*
X+4227765Y-4860201D01*
X+4117365Y-4749801D01*
X+3180635Y-4749801D01*
X+3124199Y-4806237D01*
X+3124199Y-4139826D01*
X+3136899Y-4127126D01*
X+3136899Y-4000874D01*
X+3047626Y-3911601D01*
X+2921374Y-3911601D01*
X+2832101Y-4000874D01*
X+2832101Y-4102101D01*
X+2743199Y-4102101D01*
X+2743199Y-3804365D01*
X+2807865Y-3739699D01*
X+3434372Y-3739699D01*
X+3510572Y-3815899D01*
X+3689428Y-3815899D01*
X+3727000Y-3778327D01*
X+3764572Y-3815899D01*
X+3943428Y-3815899D01*
X+3981000Y-3778327D01*
X+4018572Y-3815899D01*
X+4197428Y-3815899D01*
X+4235000Y-3778327D01*
X+4272572Y-3815899D01*
X+4451428Y-3815899D01*
X+4489000Y-3778327D01*
X+4526572Y-3815899D01*
X+4705428Y-3815899D01*
X+4743000Y-3778327D01*
X+4780572Y-3815899D01*
X+4959428Y-3815899D01*
X+5085899Y-3689428D01*
X+5085899Y-3510572D01*
X+4959428Y-3384101D01*
X+4780572Y-3384101D01*
X+4743000Y-3421673D01*
X+4740446Y-3419118D01*
X+6305365Y-1854199D01*
X+6614865Y-1854199D01*
X+6823699Y-1645365D01*
X+6823699Y-1247668D01*
X+6887199Y-1184168D01*
X+6887199Y-1094365D01*
X+7093699Y-887865D01*
X+7093699Y-727183D01*
X+7496801Y-1130285D01*
G37*
G36*
X+8150353Y-2977799D02*
X+8280401Y-2977799D01*
X+8280401Y-4166885D01*
X+9134901Y-5021385D01*
X+9134901Y-5552337D01*
X+7093699Y-3511135D01*
X+7093699Y-2937145D01*
X+7134353Y-2977799D01*
X+7281647Y-2977799D01*
X+7335000Y-2924446D01*
X+7388353Y-2977799D01*
X+7535647Y-2977799D01*
X+7589000Y-2924446D01*
X+7642353Y-2977799D01*
X+7789647Y-2977799D01*
X+7843000Y-2924446D01*
X+7896353Y-2977799D01*
X+8043647Y-2977799D01*
X+8097000Y-2924446D01*
X+8150353Y-2977799D01*
G37*
G36*
X+63301Y-200470D02*
X+162831Y-300000D01*
X+63301Y-399530D01*
X+63301Y-620470D01*
X+162831Y-720000D01*
X+63301Y-819530D01*
X+63301Y-1040470D01*
X+162831Y-1140000D01*
X+63301Y-1239530D01*
X+63301Y-1460470D01*
X+162831Y-1560000D01*
X+63301Y-1659530D01*
X+63301Y-1880470D01*
X+162831Y-1980000D01*
X+63301Y-2079530D01*
X+63301Y-2300470D01*
X+162831Y-2400000D01*
X+63301Y-2499530D01*
X+63301Y-2720470D01*
X+162831Y-2820000D01*
X+63301Y-2919530D01*
X+63301Y-3140470D01*
X+162831Y-3240000D01*
X+63301Y-3339530D01*
X+63301Y-3560470D01*
X+162834Y-3660003D01*
X+63301Y-3759536D01*
X+63301Y-3980476D01*
X+219530Y-4136705D01*
X+440470Y-4136705D01*
X+540000Y-4037175D01*
X+639530Y-4136705D01*
X+709811Y-4136705D01*
X+406401Y-4440115D01*
X+406401Y-4896801D01*
X+269832Y-4896801D01*
X+227000Y-4939633D01*
X+184168Y-4896801D01*
X+15832Y-4896801D01*
X-22268Y-4934901D01*
X-109749Y-4934901D01*
X-203591Y-4841059D01*
X-203591Y-437075D01*
X+63301Y-170183D01*
X+63301Y-200470D01*
G37*
G36*
X+6146801Y-7117635D02*
X+6146801Y-7226674D01*
X+6134101Y-7239374D01*
X+6134101Y-7365626D01*
X+6146801Y-7378326D01*
X+6146801Y-7533474D01*
X+6043428Y-7430101D01*
X+5864572Y-7430101D01*
X+5738101Y-7556572D01*
X+5738101Y-7684101D01*
X+5661899Y-7684101D01*
X+5661899Y-7556572D01*
X+5585699Y-7480372D01*
X+5585699Y-7393326D01*
X+5613399Y-7365626D01*
X+5613399Y-7315899D01*
X+5789428Y-7315899D01*
X+5915899Y-7189428D01*
X+5915899Y-7061899D01*
X+6043428Y-7061899D01*
X+6146801Y-6958526D01*
X+6146801Y-7117635D01*
G37*
G36*
X+9015832Y-6903199D02*
X+9134901Y-6903199D01*
X+9134901Y-7336385D01*
X+9456615Y-7658099D01*
X+9563101Y-7658099D01*
X+9563101Y-7746626D01*
X+9575801Y-7759326D01*
X+9575801Y-7816474D01*
X+9543428Y-7784101D01*
X+9364572Y-7784101D01*
X+9327000Y-7821673D01*
X+9289428Y-7784101D01*
X+9110572Y-7784101D01*
X+8984101Y-7910572D01*
X+8984101Y-8089428D01*
X+9110572Y-8215899D01*
X+9288901Y-8215899D01*
X+9288901Y-8296801D01*
X+9161832Y-8296801D01*
X+9042801Y-8415832D01*
X+9042801Y-8584168D01*
X+9161832Y-8703199D01*
X+9330168Y-8703199D01*
X+9334901Y-8698466D01*
X+9334901Y-8821615D01*
X+9234901Y-8921615D01*
X+9234901Y-9037337D01*
X+8966199Y-8768635D01*
X+8966199Y-6853566D01*
X+9015832Y-6903199D01*
G37*
G36*
X+7788902Y-5402386D02*
X+7788901Y-7784101D01*
X+7610572Y-7784101D01*
X+7484101Y-7910572D01*
X+7484101Y-8089428D01*
X+7610572Y-8215899D01*
X+7789428Y-8215899D01*
X+7827000Y-8178327D01*
X+7834901Y-8186228D01*
X+7834901Y-8301534D01*
X+7830168Y-8296801D01*
X+7661832Y-8296801D01*
X+7542801Y-8415832D01*
X+7542801Y-8551737D01*
X+7518399Y-8527335D01*
X+7518399Y-8509374D01*
X+7429126Y-8420101D01*
X+7302874Y-8420101D01*
X+7213601Y-8509374D01*
X+7213601Y-8635626D01*
X+7302874Y-8724899D01*
X+7320835Y-8724899D01*
X+7404284Y-8808348D01*
X+7296801Y-8915832D01*
X+7296801Y-9067801D01*
X+6749365Y-9067801D01*
X+6687199Y-9005635D01*
X+6687199Y-8915832D01*
X+6568168Y-8796801D01*
X+6426199Y-8796801D01*
X+6426199Y-7378326D01*
X+6438899Y-7365626D01*
X+6438899Y-7239374D01*
X+6426199Y-7226674D01*
X+6426199Y-5409826D01*
X+6438899Y-5397126D01*
X+6438899Y-5308599D01*
X+7695115Y-5308599D01*
X+7788902Y-5402386D01*
G37*
G36*
X+6146801Y-8863635D02*
X+5926335Y-9084101D01*
X+5818572Y-9084101D01*
X+5781000Y-9121673D01*
X+5743428Y-9084101D01*
X+5564572Y-9084101D01*
X+5539699Y-9108974D01*
X+5539699Y-8517135D01*
X+5328365Y-8305801D01*
X+4881566Y-8305801D01*
X+4903199Y-8284168D01*
X+4903199Y-8115832D01*
X+4827066Y-8039699D01*
X+5534372Y-8039699D01*
X+5561653Y-8066980D01*
X+5512801Y-8115832D01*
X+5512801Y-8284168D01*
X+5631832Y-8403199D01*
X+5800168Y-8403199D01*
X+5919199Y-8284168D01*
X+5919199Y-8115832D01*
X+5855699Y-8052332D01*
X+5855699Y-8049628D01*
X+5915899Y-7989428D01*
X+5915899Y-7861899D01*
X+6043428Y-7861899D01*
X+6146801Y-7758526D01*
X+6146801Y-8863635D01*
G37*
G36*
X+6391434Y-9194801D02*
X+6355635Y-9194801D01*
X+5720635Y-9829801D01*
X+5359399Y-9829801D01*
X+5359399Y-9715874D01*
X+5346699Y-9703174D01*
X+5346699Y-9515899D01*
X+5489428Y-9515899D01*
X+5527000Y-9478327D01*
X+5564572Y-9515899D01*
X+5743428Y-9515899D01*
X+5781000Y-9478327D01*
X+5818572Y-9515899D01*
X+5997428Y-9515899D01*
X+6123899Y-9389428D01*
X+6123899Y-9281665D01*
X+6301098Y-9104466D01*
X+6391434Y-9194801D01*
G37*
G36*
X+8634901Y-9686228D02*
X+8634901Y-9801534D01*
X+8630168Y-9796801D01*
X+8461832Y-9796801D01*
X+8394699Y-9863934D01*
X+8394699Y-9700026D01*
X+8410572Y-9715899D01*
X+8589428Y-9715899D01*
X+8627000Y-9678327D01*
X+8634901Y-9686228D01*
G37*
G36*
X+7988301Y-10310201D02*
X+7914353Y-10310201D01*
X+7889699Y-10334855D01*
X+7889698Y-9963866D01*
X+7988301Y-9865263D01*
X+7988301Y-10310201D01*
G37*
G36*
X+8461832Y-10203199D02*
X+8630168Y-10203199D01*
X+8673000Y-10160367D01*
X+8689824Y-10177192D01*
X+8584901Y-10282115D01*
X+8584901Y-10379337D01*
X+8394699Y-10189135D01*
X+8394699Y-10136066D01*
X+8461832Y-10203199D01*
G37*
G36*
X+12769801Y-9052699D02*
X+12769801Y-10542341D01*
X+12598905Y-10542341D01*
X+12539699Y-10483135D01*
X+12539699Y-9865628D01*
X+12615899Y-9789428D01*
X+12615899Y-9610572D01*
X+12578327Y-9573000D01*
X+12615899Y-9535428D01*
X+12615899Y-9356572D01*
X+12578327Y-9319000D01*
X+12615899Y-9281428D01*
X+12615899Y-9173665D01*
X+12769801Y-9019763D01*
X+12769801Y-9052699D01*
G37*
G36*
X+12418335Y-8976101D02*
X+12310572Y-8976101D01*
X+12234372Y-9052301D01*
X+12149635Y-9052301D01*
X+12146835Y-9055101D01*
X+12128874Y-9055101D01*
X+12039601Y-9144374D01*
X+12039601Y-9270626D01*
X+12128874Y-9359899D01*
X+12184101Y-9359899D01*
X+12184101Y-9535428D01*
X+12208974Y-9560301D01*
X+12149635Y-9560301D01*
X+12146835Y-9563101D01*
X+12128874Y-9563101D01*
X+12039601Y-9652374D01*
X+12039601Y-9778626D01*
X+12128874Y-9867899D01*
X+12255126Y-9867899D01*
X+12258849Y-9864176D01*
X+12260301Y-9865628D01*
X+12260301Y-10598865D01*
X+12316737Y-10655301D01*
X+12047285Y-10655301D01*
X+11915899Y-10523915D01*
X+11915899Y-10416152D01*
X+11878327Y-10378580D01*
X+11915899Y-10341008D01*
X+11915899Y-10162152D01*
X+11878327Y-10124580D01*
X+11915899Y-10087008D01*
X+11915899Y-9908152D01*
X+11839699Y-9831952D01*
X+11839699Y-8820865D01*
X+11948225Y-8712339D01*
X+12682097Y-8712339D01*
X+12418335Y-8976101D01*
G37*
G36*
X+10784101Y-11056572D02*
X+10784101Y-11235428D01*
X+10808974Y-11260301D01*
X+10568865Y-11260301D01*
X+10502899Y-11194335D01*
X+10502899Y-11176374D01*
X+10490199Y-11163674D01*
X+10490199Y-11074399D01*
X+10540626Y-11074399D01*
X+10583326Y-11031699D01*
X+10808974Y-11031699D01*
X+10784101Y-11056572D01*
G37*
D11*
X+8953500Y-13716000D02*
X+8927500Y-13742000D01*
X+8750000Y-13742000D01*
X+4208000Y-5800000D02*
X+4208000Y-6921500D01*
X+4386500Y-7100000D01*
X+5700000Y-7100000D01*
X+2603500Y-6858000D02*
X+2603500Y-3746500D01*
X+2750000Y-3600000D01*
X+3600000Y-3600000D01*
X+5700000Y-7900000D02*
X+4127500Y-7900000D01*
X+3954000Y-7726500D01*
X+3954000Y-5800000D01*
X+5700000Y-7900000D02*
X+5716000Y-7916000D01*
X+5716000Y-8200000D01*
X+3111500Y-6985000D02*
X+3384000Y-7257500D01*
X+3384000Y-8200000D01*
X+3111500Y-6985000D02*
X+3111500Y-5016500D01*
X+3238500Y-4889500D01*
X+4059500Y-4889500D01*
X+4208000Y-5038000D01*
X+6484000Y-1500000D02*
X+6208000Y-1500000D01*
X+4108000Y-3600000D01*
X+6700000Y-400000D02*
X+6484000Y-616000D01*
X+6484000Y-1500000D01*
X+6684000Y-1100000D02*
X+6684000Y-1587500D01*
X+6557000Y-1714500D01*
X+6247500Y-1714500D01*
X+4362000Y-3600000D01*
X+6954000Y-400000D02*
X+6954000Y-830000D01*
X+6684000Y-1100000D01*
X+11684000Y-889000D02*
X+11544000Y-749000D01*
X+11544000Y+24000D01*
X+11798000Y-1500000D02*
X+11798000Y-1934562D01*
X+12509500Y-2646062D01*
X+12509500Y-5143500D01*
X+12636500Y-5270500D01*
X+13144500Y-5270500D01*
X+13276609Y-5138391D01*
X+13276609Y-4917240D01*
X+12052000Y-1500000D02*
X+12052000Y-1206500D01*
X+12509500Y-749000D01*
X+12509500Y+762000D01*
X+12382500Y+889000D01*
X+10607000Y+889000D01*
X+10246000Y+1250000D01*
D10*
X+750000Y-2610000D02*
X+1790000Y-2610000D01*
X+1800000Y-2600000D01*
X+1750000Y-2596000D01*
D11*
X+11854000Y-6000000D02*
X+11854000Y-7874000D01*
X+12001460Y-8021460D01*
X+12973000Y-8021460D01*
X+12973001Y-8021460D01*
X+9100000Y-6700000D02*
X+9100000Y-5715000D01*
X+6954000Y-3569000D01*
X+6954000Y-2800000D01*
X+1004000Y-7504000D02*
X+1000000Y-7508000D01*
X+1000000Y-8000000D01*
X+8255000Y-6286500D02*
X+8255000Y-10247000D01*
X+8750000Y-10742000D01*
X+7750000Y-10500000D02*
X+7750000Y-10742000D01*
X+7988000Y-10742000D01*
X+1004000Y-8504000D02*
X+1016000Y-8516000D01*
X+1016000Y-9000000D01*
X+8826500Y-6159500D02*
X+8826500Y-8826500D01*
X+9144000Y-9144000D01*
X+9144000Y-11811000D02*
X+9144000Y-9144000D01*
X+7750000Y-12000000D02*
X+7429500Y-12000000D01*
X+7302500Y-11873000D01*
X+7302500Y-9652000D01*
X+7150500Y-9500000D01*
X+6484000Y-9500000D01*
X+7750000Y-12000000D02*
X+7750000Y-12242000D01*
X+7988000Y-12242000D01*
X+1004000Y-9504000D02*
X+1016000Y-9516000D01*
X+1016000Y-10000000D01*
X+9715500Y-13271500D02*
X+9715500Y-7683500D01*
X+9588500Y-9144000D02*
X+9588500Y-13843000D01*
X+9435500Y-13996000D01*
X+8750000Y-13996000D01*
X+2254000Y-9504000D02*
X+2719500Y-9969500D01*
X+5778500Y-9969500D01*
X+6413500Y-9334500D01*
X+7810500Y-9334500D01*
X+2254000Y-9504000D02*
X+1980000Y-9504000D01*
X+1734000Y-9750000D01*
D10*
X+7954000Y-8000000D02*
X+7954000Y-5334000D01*
X+7763500Y-5143500D01*
X+5556500Y-5143500D01*
X+5200000Y-5500000D01*
X+100000Y-5100000D02*
X+100000Y-5588000D01*
X-16000Y-5704000D01*
X-16000Y-8000000D01*
X+3700000Y-5038000D02*
X+3700000Y-5400000D01*
X+3400000Y-5400000D01*
X+8754000Y-9500000D02*
X+8800000Y-9546000D01*
X+8800000Y-10000000D01*
X+7954000Y-8000000D02*
X+8000000Y-8046000D01*
X+8000000Y-8500000D01*
X+9454000Y-8000000D02*
X+9454000Y-8454000D01*
X+9500000Y-8500000D01*
X-16000Y-8000000D02*
X+0Y-8016000D01*
X+0Y-9000000D01*
X+9500000Y-8500000D02*
X+9500000Y-8890000D01*
X+9400000Y-8990000D01*
X+9400000Y-10400000D01*
X+9250000Y-12254000D02*
X+9250000Y-12763500D01*
X+9461500Y-12975000D01*
X+9461500Y-13665100D01*
X+9372600Y-13754000D01*
X+9250000Y-13754000D01*
X+7988000Y-12750000D02*
X+8191500Y-12953500D01*
X+8191500Y-14046500D01*
X+7988000Y-14250000D01*
X+0Y-9000000D02*
X+0Y-10000000D01*
X+9250000Y-12254000D02*
X+9372600Y-12254000D01*
X+9461500Y-12165100D01*
X+9461500Y-11112500D01*
X+1500000Y-346000D02*
X+1500000Y+825500D01*
X+1309500Y+1016000D01*
X+596000Y+1016000D01*
X+330000Y+750000D01*
X+2100000Y-908000D02*
X+2100000Y-1143000D01*
X+2159000Y-1202000D01*
X+2159000Y-4889500D01*
X+1948500Y-5100000D01*
X+1054000Y-5100000D01*
X+8750000Y-10488000D02*
X+8953500Y-10691500D01*
X+8953500Y-11988000D01*
X+9250000Y-12000000D02*
X+9283700Y-11966300D01*
X+9283700Y-10985500D01*
X+9400000Y-10869200D01*
X+9400000Y-10654000D01*
X+9017000Y-10287000D02*
X+9017000Y-9461500D01*
X+8636000Y-9080500D01*
X+8636000Y-5842000D01*
X+4462000Y-5800000D02*
X+4296900Y-5634900D01*
X+3419100Y-5634900D01*
X+3400000Y-5654000D01*
X+8750000Y-10488000D02*
X+8750000Y-10350500D01*
X+8813500Y-10287000D01*
X+9017000Y-10287000D01*
X+9250000Y-12000000D02*
X+9238000Y-11988000D01*
X+8953500Y-11988000D01*
X+750000Y-3450000D02*
X+1016000Y-3716000D01*
X+1016000Y-4064000D01*
X+571500Y-4508500D01*
X+571500Y-5588000D01*
X+762000Y-5778500D01*
X+2413000Y-5778500D01*
X+3400000Y-5654000D02*
X+3365500Y-5688500D01*
X+3365500Y-6032500D01*
X+8953500Y-11988000D02*
X+8750000Y-11988000D01*
D11*
X+12400000Y-9192000D02*
X+12742500Y-8849500D01*
X+12973000Y-8849500D01*
X+12973001Y-8849500D01*
X+7750000Y-14516000D02*
X+7750000Y-14234000D01*
X+7988000Y-13996000D01*
X+7750000Y-14516000D02*
X+9969500Y-14516000D01*
X+10096500Y-14389000D01*
X+10096500Y-9207500D01*
X+12400000Y-9192000D02*
X+12207500Y-9192000D01*
X+12192000Y-9207500D01*
X+5207000Y-8572500D02*
X+5207000Y-9779000D01*
X+8064500Y-9271000D02*
X+8064500Y-8953500D01*
X+7937500Y-8826500D01*
X+7620000Y-8826500D01*
X+7366000Y-8572500D01*
X+12400000Y-9700000D02*
X+12207500Y-9700000D01*
X+12192000Y-9715500D01*
X+11700000Y-9997580D02*
X+11700000Y-8763000D01*
X+11890360Y-8572640D01*
X+12973000Y-8572640D01*
X+12973001Y-8572640D01*
X+7988000Y-12496000D02*
X+7750000Y-12734000D01*
X+7750000Y-13016000D01*
X+3048000Y-9017000D02*
X+2159000Y-9017000D01*
X+2000000Y-8858000D01*
X+2000000Y-8250000D01*
X+7500000Y-9500000D02*
X+7785500Y-9500000D01*
X+7810500Y-9525000D01*
D10*
X+12763500Y-7175500D02*
X+12763500Y-6985000D01*
X+13271500Y-6985000D01*
X+13462000Y-7175500D01*
X+13462000Y-7607440D01*
X+13227000Y-7607440D01*
X+7516000Y+500000D02*
X+7516000Y-127000D01*
X+7462000Y-181000D01*
X+7462000Y-400000D01*
X+12973001Y-7470280D02*
X+12973000Y-7470280D01*
X+12763500Y-7470280D01*
X+12763500Y-7175500D01*
X+6159500Y-7874000D02*
X+6159500Y-8448000D01*
X+5654000Y-8953500D01*
X+5654000Y-9300000D01*
X+5954000Y-6846000D02*
X+5954000Y-7302500D01*
X+6159500Y-7508000D01*
X+6159500Y-7874000D01*
D11*
X+11754000Y-3750000D02*
X+10274000Y-2270000D01*
X+10274000Y-1500000D01*
X+3556000Y-6032500D02*
X+3556000Y-8944000D01*
X+2750000Y-9750000D01*
X+11754000Y-3750000D02*
X+11938000Y-3934000D01*
X+11938000Y-5207000D01*
X+2984500Y-4064000D02*
X+2984500Y-8515500D01*
X+2750000Y-8750000D01*
X+10504000Y-3750000D02*
X+10728000Y-3750000D01*
X+10731500Y-3746500D01*
X+10504000Y-3750000D02*
X+10504000Y-3048000D01*
X+10020000Y-2564000D01*
X+10020000Y-1500000D01*
X+9254000Y-3750000D02*
X+9766000Y-3238000D01*
X+9766000Y-1500000D01*
X+2794000Y-4254500D02*
X+2766000Y-4282500D01*
X+2766000Y-7750000D01*
X+9254000Y-3750000D02*
X+9254000Y-4174000D01*
X+9271000Y-4191000D01*
X+11625000Y-13675000D02*
X+10350500Y-13675000D01*
X+10223500Y-13548000D01*
X+10223500Y-7239000D01*
X+10084500Y-7100000D01*
X+9500000Y-7100000D01*
X+3800000Y-100000D02*
X+3800000Y+381000D01*
X+3250000Y+931000D01*
X+3250000Y+1500000D01*
X+3400000Y-100000D02*
X+2250000Y+1050000D01*
X+2250000Y+1500000D01*
X+4200000Y-100000D02*
X+4200000Y+698500D01*
X+4250000Y+748500D01*
X+4250000Y+1500000D01*
X+4600000Y-100000D02*
X+5250000Y+550000D01*
X+5250000Y+1500000D01*
X+6500000Y+500000D02*
X+6825500Y+825500D01*
X+8445500Y+825500D01*
X+8572500Y+698500D01*
X+8572500Y-698500D01*
X+8755760Y-881760D01*
X+10350500Y-881760D01*
X+10528000Y-1059260D01*
X+10528000Y-1500000D01*
X+6500000Y+500000D02*
X+6250000Y+750000D01*
X+6250000Y+1500000D01*
X+11000000Y-10892000D02*
X+11000000Y-8445500D01*
X+11147180Y-8298320D01*
X+12973000Y-8298320D01*
X+12973001Y-8298320D01*
X+7750000Y-11516000D02*
X+7750000Y-11234000D01*
X+7988000Y-10996000D01*
X+7750000Y-11516000D02*
X+8296000Y-11516000D01*
X+8382000Y-11430000D01*
X+11000000Y-10892000D02*
X+10507500Y-10892000D01*
X+10477500Y-10922000D01*
X+10350500Y-11239500D02*
X+10511000Y-11400000D01*
X+11000000Y-11400000D01*
X+7500000Y-9000000D02*
X+7920500Y-9000000D01*
X+7937500Y-9017000D01*
X+10350500Y-9017000D02*
X+10350500Y-8890000D01*
X+10350500Y-9017000D02*
X+10350500Y-11112500D01*
X+10350500Y-11239500D01*
X+10350500Y-6286500D02*
X+10350500Y-8890000D01*
X+13525500Y-8445500D02*
X+13515480Y-8435480D01*
X+13227000Y-8435480D01*
X+10500000Y+1250000D02*
X+13335000Y+1250000D01*
X+13462000Y+1123000D01*
X+13462000Y-4173049D01*
X+13276609Y-4358440D01*
X+2504000Y+1500000D02*
X+2162500Y+1841500D01*
X+2032000Y+1841500D01*
X+1905000Y+1714500D01*
X+1905000Y-459000D01*
X+2100000Y-654000D01*
X+8763000Y-2286000D02*
X+8750000Y-2273000D01*
X+8750000Y-1500000D01*
X+6286500Y-7175500D02*
X+6286500Y-7302500D01*
X+6286500Y-7175500D02*
X+6286500Y-5334000D01*
X+6286500Y-7302500D02*
X+6286500Y-8921500D01*
X+5908000Y-9300000D01*
X+4400000Y-8200000D02*
X+3873500Y-8200000D01*
X+3700000Y-8026500D01*
X+3700000Y-5800000D01*
X+4400000Y-8200000D02*
X+4645500Y-8445500D01*
X+5270500Y-8445500D01*
X+5400000Y-8575000D01*
X+5400000Y-9300000D01*
X+5446000Y-7646000D02*
X+5446000Y-7317500D01*
X+5461000Y-7302500D01*
D10*
X+330000Y+330000D02*
X+100000Y+100000D01*
X-368690Y-368690D01*
X-368690Y-4909444D01*
X-178134Y-5100000D01*
X+100000Y-5100000D01*
X+7208000Y-400000D02*
X+7208000Y-608000D01*
X+7700000Y-1100000D01*
X+7700000Y-1300000D01*
X+7500000Y-1500000D01*
X+7139800Y-1860200D01*
X+6877800Y-1860200D01*
X+6700000Y-2038000D01*
D11*
X+8100000Y-11684000D02*
X+8205910Y-11684000D01*
X+8318500Y-11796590D01*
X+8318500Y-12000000D01*
X+7500000Y-10000000D02*
X+7500000Y-11557000D01*
X+7627000Y-11684000D01*
X+8100000Y-11684000D01*
X+8318500Y-12000000D02*
X+8318500Y-13818500D01*
X+8750000Y-14250000D01*
X+7800000Y-9207500D02*
X+7845057Y-9207500D01*
X+7937500Y-9299943D01*
X+7937500Y-9344691D01*
X+7750000Y-10500000D02*
X+7750000Y-9906000D01*
X+7937500Y-9718500D01*
X+7937500Y-9344691D01*
X+7800000Y-9207500D02*
X+6691500Y-9207500D01*
X+6484000Y-9000000D01*
X+7750000Y-13500000D02*
X+7988000Y-13738000D01*
X+7988000Y-13742000D01*
D10*
X+8750000Y-13488000D02*
X+8750000Y-13143516D01*
X+8953500Y-12940016D01*
X+8953500Y-11988000D01*
X+8953500Y-12940016D02*
X+9146151Y-13132667D01*
X+9146151Y-13253454D01*
X+9146151Y-13396151D01*
X+9250000Y-13500000D01*
D11*
X+8750000Y-12750000D02*
X+8750000Y-12803114D01*
X+8662614Y-12890500D01*
X+8509000Y-12800000D02*
X+8599500Y-12890500D01*
X+8662614Y-12890500D01*
X+8509000Y-12800000D02*
X+8509000Y-11239500D01*
X+8128000Y-10858500D01*
X+8128000Y-9525000D01*
X+13400000Y-8709800D02*
X+13523431Y-8833231D01*
X+13525500Y-8833231D01*
X+11700000Y-10505580D02*
X+11989420Y-10795000D01*
X+13398500Y-10795000D01*
X+13525500Y-10668000D01*
X+13525500Y-8833231D01*
X+13400000Y-8709800D02*
X+13227000Y-8709800D01*
X+13300000Y-8986660D02*
X+13398500Y-9085160D01*
X+13398500Y-9130000D01*
X+12400000Y-9700000D02*
X+12400000Y-10541000D01*
X+12541040Y-10682040D01*
X+13271500Y-10682040D01*
X+13398500Y-10555040D01*
X+13398500Y-9130000D01*
X+13300000Y-8986660D02*
X+13227000Y-8986660D01*
D10*
X+7179782Y-2517782D02*
X+8290941Y-2517782D01*
X+8341843Y-2568684D01*
X+8405059Y-2631900D01*
X+8445500Y-2672341D01*
X+8445500Y-3050527D01*
X+8445500Y-2672341D02*
X+8445500Y-2631900D01*
X+8405059Y-2631900D01*
X+7179782Y-2517782D02*
X+6700000Y-2038000D01*
X+9800000Y-7493000D02*
X+9900000Y-7593000D01*
X+9900000Y-7644576D01*
X+9900000Y-11884000D02*
X+9900000Y-7644576D01*
X+9800000Y-7493000D02*
X+9525000Y-7493000D01*
X+9300000Y-7268000D01*
X+9300000Y-4953000D01*
X+8445500Y-4098500D01*
X+8445500Y-3050527D01*
D11*
X+10700000Y-7100000D02*
X+10773000Y-7027000D01*
X+10773000Y-6967242D01*
X+10773000Y-6800000D02*
X+10773000Y-6967242D01*
X+10700000Y-7100000D02*
X+10516000Y-7100000D01*
D10*
X+8189149Y-11869105D02*
X+8189149Y-12548851D01*
X+7988000Y-12750000D01*
D12*
X+8953500Y-13716000D03*
X+2603500Y-6858000D03*
X+3111500Y-6985000D03*
X+11684000Y-889000D03*
X+8255000Y-6286500D03*
X+8826500Y-6159500D03*
X+9144000Y-11811000D03*
X+9715500Y-7683500D03*
X+9715500Y-13271500D03*
X+9588500Y-9144000D03*
X+7810500Y-9334500D03*
X+9461500Y-11112500D03*
X+8636000Y-5842000D03*
X+2413000Y-5778500D03*
X+3365500Y-6032500D03*
X+10096500Y-9207500D03*
X+12192000Y-9207500D03*
X+5207000Y-9779000D03*
X+5207000Y-8572500D03*
X+7366000Y-8572500D03*
X+8064500Y-9271000D03*
X+12192000Y-9715500D03*
X+3048000Y-9017000D03*
X+7810500Y-9525000D03*
X+8128000Y-9525000D03*
X+3556000Y-6032500D03*
X+11938000Y-5207000D03*
X+2984500Y-4064000D03*
X+10731500Y-3746500D03*
X+2794000Y-4254500D03*
X+9271000Y-4191000D03*
X+8382000Y-11430000D03*
X+10477500Y-10922000D03*
X+10350500Y-11239500D03*
X+7937500Y-9017000D03*
X+10350500Y-8890000D03*
X+10350500Y-6286500D03*
X+13525500Y-8445500D03*
X+8763000Y-2286000D03*
X+6286500Y-7302500D03*
X+6286500Y-5334000D03*
X+5461000Y-7302500D03*
X+8189149Y-11869105D03*
D13*
X+13057101Y+1942033D02*
X+13057101Y+1657967D01*
X+13257967Y+1457101D01*
X+13542033Y+1457101D01*
X+13688240Y+1603308D01*
X+13688240Y-14503308D01*
X+13542033Y-14357101D01*
X+13257967Y-14357101D01*
X+13057101Y-14557967D01*
X+13057101Y-14842033D01*
X+13203308Y-14988240D01*
X-3308Y-14988240D01*
X+142899Y-14842033D01*
X+142899Y-14557967D01*
X-57967Y-14357101D01*
X-342033Y-14357101D01*
X-488240Y-14503308D01*
X-488240Y-5023378D01*
X-246519Y-5265099D01*
X-65099Y-5265099D01*
X-65099Y-5519615D01*
X-181099Y-5635615D01*
X-181099Y-7877732D01*
X-219199Y-7915832D01*
X-219199Y-8084168D01*
X-165099Y-8138268D01*
X-165099Y-8877732D01*
X-203199Y-8915832D01*
X-203199Y-9084168D01*
X-165099Y-9122268D01*
X-165099Y-9877732D01*
X-203199Y-9915832D01*
X-203199Y-10084168D01*
X-84168Y-10203199D01*
X+84168Y-10203199D01*
X+203199Y-10084168D01*
X+203199Y-9915832D01*
X+165099Y-9877732D01*
X+165099Y-9122268D01*
X+203199Y-9084168D01*
X+203199Y-8915832D01*
X+165099Y-8877732D01*
X+165099Y-8106268D01*
X+187199Y-8084168D01*
X+187199Y-7915832D01*
X+149099Y-7877732D01*
X+149099Y-5772385D01*
X+265099Y-5656385D01*
X+265099Y-5298466D01*
X+269832Y-5303199D01*
X+406401Y-5303199D01*
X+406401Y-5656385D01*
X+693615Y-5943599D01*
X+1996801Y-5943599D01*
X+1996801Y-6068168D01*
X+2115832Y-6187199D01*
X+2284168Y-6187199D01*
X+2403199Y-6068168D01*
X+2403199Y-5943599D01*
X+2463801Y-5943599D01*
X+2463801Y-6782174D01*
X+2451101Y-6794874D01*
X+2451101Y-6921126D01*
X+2540374Y-7010399D01*
X+2626301Y-7010399D01*
X+2626301Y-7062974D01*
X+2597428Y-7034101D01*
X+2418572Y-7034101D01*
X+2403199Y-7049474D01*
X+2403199Y-6915832D01*
X+2284168Y-6796801D01*
X+2115832Y-6796801D01*
X+1996801Y-6915832D01*
X+1996801Y-7034101D01*
X+1910572Y-7034101D01*
X+1784101Y-7160572D01*
X+1784101Y-7339428D01*
X+1910572Y-7465899D01*
X+2038101Y-7465899D01*
X+2038101Y-7593428D01*
X+2164572Y-7719899D01*
X+2343428Y-7719899D01*
X+2469899Y-7593428D01*
X+2469899Y-7465899D01*
X+2597428Y-7465899D01*
X+2626301Y-7437026D01*
X+2626301Y-7602332D01*
X+2562801Y-7665832D01*
X+2562801Y-7834168D01*
X+2681832Y-7953199D01*
X+2844801Y-7953199D01*
X+2844801Y-8457635D01*
X+2755635Y-8546801D01*
X+2665832Y-8546801D01*
X+2546801Y-8665832D01*
X+2546801Y-8834168D01*
X+2589934Y-8877301D01*
X+2216865Y-8877301D01*
X+2139699Y-8800135D01*
X+2139699Y-8695026D01*
X+2164572Y-8719899D01*
X+2343428Y-8719899D01*
X+2469899Y-8593428D01*
X+2469899Y-8465899D01*
X+2597428Y-8465899D01*
X+2723899Y-8339428D01*
X+2723899Y-8160572D01*
X+2597428Y-8034101D01*
X+2418572Y-8034101D01*
X+2292101Y-8160572D01*
X+2292101Y-8288101D01*
X+2215899Y-8288101D01*
X+2215899Y-8160572D01*
X+2089428Y-8034101D01*
X+1910572Y-8034101D01*
X+1784101Y-8160572D01*
X+1784101Y-8339428D01*
X+1860301Y-8415628D01*
X+1860301Y-8588934D01*
X+1818168Y-8546801D01*
X+1649832Y-8546801D01*
X+1530801Y-8665832D01*
X+1530801Y-8834168D01*
X+1649832Y-8953199D01*
X+1818168Y-8953199D01*
X+1860301Y-8911066D01*
X+1860301Y-8915865D01*
X+1978537Y-9034101D01*
X+1910572Y-9034101D01*
X+1784101Y-9160572D01*
X+1784101Y-9339428D01*
X+1865554Y-9420882D01*
X+1739635Y-9546801D01*
X+1649832Y-9546801D01*
X+1530801Y-9665832D01*
X+1530801Y-9834168D01*
X+1649832Y-9953199D01*
X+1818168Y-9953199D01*
X+1937199Y-9834168D01*
X+1937199Y-9744365D01*
X+2037865Y-9643699D01*
X+2088372Y-9643699D01*
X+2164572Y-9719899D01*
X+2272335Y-9719899D01*
X+2661635Y-10109199D01*
X+5836365Y-10109199D01*
X+6321098Y-9624466D01*
X+6399832Y-9703199D01*
X+6568168Y-9703199D01*
X+6631668Y-9639699D01*
X+7092635Y-9639699D01*
X+7162801Y-9709865D01*
X+7162801Y-11930865D01*
X+7371635Y-12139699D01*
X+7602332Y-12139699D01*
X+7610301Y-12147668D01*
X+7610301Y-12299865D01*
X+7692135Y-12381699D01*
X+7850855Y-12381699D01*
X+7810201Y-12422353D01*
X+7810201Y-12476235D01*
X+7610301Y-12676135D01*
X+7610301Y-12868332D01*
X+7546801Y-12931832D01*
X+7546801Y-13100168D01*
X+7665832Y-13219199D01*
X+7834168Y-13219199D01*
X+7953199Y-13100168D01*
X+7953199Y-12948683D01*
X+8026401Y-13021885D01*
X+8026401Y-13310201D01*
X+7914353Y-13310201D01*
X+7880960Y-13343594D01*
X+7834168Y-13296801D01*
X+7665832Y-13296801D01*
X+7546801Y-13415832D01*
X+7546801Y-13584168D01*
X+7665832Y-13703199D01*
X+7755635Y-13703199D01*
X+7810201Y-13757765D01*
X+7810201Y-13815647D01*
X+7863554Y-13869000D01*
X+7810201Y-13922353D01*
X+7810201Y-13976235D01*
X+7610301Y-14176135D01*
X+7610301Y-14368332D01*
X+7546801Y-14431832D01*
X+7546801Y-14600168D01*
X+7665832Y-14719199D01*
X+7834168Y-14719199D01*
X+7897668Y-14655699D01*
X+10027365Y-14655699D01*
X+10236199Y-14446865D01*
X+10236199Y-13758263D01*
X+10292635Y-13814699D01*
X+11423451Y-13814699D01*
X+11525051Y-13916299D01*
X+11633701Y-13916299D01*
X+11633701Y-14024949D01*
X+11775051Y-14166299D01*
X+11974949Y-14166299D01*
X+12116299Y-14024949D01*
X+12116299Y-13825051D01*
X+11974949Y-13683701D01*
X+11866299Y-13683701D01*
X+11866299Y-13575051D01*
X+11724949Y-13433701D01*
X+11525051Y-13433701D01*
X+11423451Y-13535301D01*
X+10408365Y-13535301D01*
X+10363199Y-13490135D01*
X+10363199Y-11449763D01*
X+10453135Y-11539699D01*
X+10834372Y-11539699D01*
X+10910572Y-11615899D01*
X+11089428Y-11615899D01*
X+11215899Y-11489428D01*
X+11215899Y-11310572D01*
X+11178327Y-11273000D01*
X+11215899Y-11235428D01*
X+11215899Y-11056572D01*
X+11178327Y-11019000D01*
X+11215899Y-10981428D01*
X+11215899Y-10802572D01*
X+11139699Y-10726372D01*
X+11139699Y-8503365D01*
X+11205045Y-8438019D01*
X+11827417Y-8438019D01*
X+11560301Y-8705135D01*
X+11560301Y-9831952D01*
X+11484101Y-9908152D01*
X+11484101Y-10087008D01*
X+11521673Y-10124580D01*
X+11484101Y-10162152D01*
X+11484101Y-10341008D01*
X+11521673Y-10378580D01*
X+11484101Y-10416152D01*
X+11484101Y-10595008D01*
X+11610572Y-10721479D01*
X+11718335Y-10721479D01*
X+11931555Y-10934699D01*
X+12753645Y-10934699D01*
X+12668201Y-11020143D01*
X+12668201Y-11377857D01*
X+12921143Y-11630799D01*
X+13278857Y-11630799D01*
X+13531799Y-11377857D01*
X+13531799Y-11020143D01*
X+13446355Y-10934699D01*
X+13456365Y-10934699D01*
X+13665199Y-10725865D01*
X+13665199Y-8775366D01*
X+13583365Y-8693532D01*
X+13581296Y-8693532D01*
X+13485663Y-8597899D01*
X+13588626Y-8597899D01*
X+13677899Y-8508626D01*
X+13677899Y-8382374D01*
X+13588626Y-8293101D01*
X+13462374Y-8293101D01*
X+13459694Y-8295781D01*
X+13430199Y-8295781D01*
X+13430199Y-7127381D01*
X+13176199Y-7127381D01*
X+13176199Y-6990221D01*
X+12769801Y-6990221D01*
X+12769801Y-7881761D01*
X+12059325Y-7881761D01*
X+11993699Y-7816135D01*
X+11993699Y-6165628D01*
X+12069899Y-6089428D01*
X+12069899Y-5910572D01*
X+11943428Y-5784101D01*
X+11764572Y-5784101D01*
X+11727000Y-5821673D01*
X+11689428Y-5784101D01*
X+11510572Y-5784101D01*
X+11384101Y-5910572D01*
X+11384101Y-6089428D01*
X+11510572Y-6215899D01*
X+11689428Y-6215899D01*
X+11714301Y-6191026D01*
X+11714301Y-7931865D01*
X+11941057Y-8158621D01*
X+11089315Y-8158621D01*
X+10860301Y-8387635D01*
X+10860301Y-10726372D01*
X+10834372Y-10752301D01*
X+10490199Y-10752301D01*
X+10490199Y-8965826D01*
X+10502899Y-8953126D01*
X+10502899Y-8826874D01*
X+10490199Y-8814174D01*
X+10490199Y-7303199D01*
X+10600168Y-7303199D01*
X+10663668Y-7239699D01*
X+10757865Y-7239699D01*
X+10912699Y-7084865D01*
X+10912699Y-6937145D01*
X+10953353Y-6977799D01*
X+11100647Y-6977799D01*
X+11204799Y-6873647D01*
X+11204799Y-6726353D01*
X+11100647Y-6622201D01*
X+11077799Y-6622201D01*
X+11077799Y-6599353D01*
X+10973647Y-6495201D01*
X+10826353Y-6495201D01*
X+10722201Y-6599353D01*
X+10722201Y-6622201D01*
X+10699353Y-6622201D01*
X+10595201Y-6726353D01*
X+10595201Y-6873647D01*
X+10633301Y-6911747D01*
X+10633301Y-6929934D01*
X+10600168Y-6896801D01*
X+10490199Y-6896801D01*
X+10490199Y-6362326D01*
X+10502899Y-6349626D01*
X+10502899Y-6223374D01*
X+10413626Y-6134101D01*
X+10287374Y-6134101D01*
X+10198101Y-6223374D01*
X+10198101Y-6349626D01*
X+10210801Y-6362326D01*
X+10210801Y-6507434D01*
X+10200168Y-6496801D01*
X+10031832Y-6496801D01*
X+9912801Y-6615832D01*
X+9912801Y-6784168D01*
X+10031832Y-6903199D01*
X+10200168Y-6903199D01*
X+10210801Y-6892566D01*
X+10210801Y-7028737D01*
X+10142365Y-6960301D01*
X+9647668Y-6960301D01*
X+9584168Y-6896801D01*
X+9465099Y-6896801D01*
X+9465099Y-4884615D01*
X+8610599Y-4030115D01*
X+8610599Y-2563515D01*
X+8513885Y-2466801D01*
X+8473444Y-2466801D01*
X+8359326Y-2352683D01*
X+7248167Y-2352683D01*
X+7069465Y-2173981D01*
X+7081000Y-2162446D01*
X+7134353Y-2215799D01*
X+7281647Y-2215799D01*
X+7335000Y-2162446D01*
X+7388353Y-2215799D01*
X+7535647Y-2215799D01*
X+7589000Y-2162446D01*
X+7642353Y-2215799D01*
X+7789647Y-2215799D01*
X+7843000Y-2162446D01*
X+7896353Y-2215799D01*
X+8043647Y-2215799D01*
X+8097000Y-2162446D01*
X+8150353Y-2215799D01*
X+8297647Y-2215799D01*
X+8401799Y-2111647D01*
X+8401799Y-1964353D01*
X+8297647Y-1860201D01*
X+8150353Y-1860201D01*
X+8097000Y-1913554D01*
X+8043647Y-1860201D01*
X+7896353Y-1860201D01*
X+7843000Y-1913554D01*
X+7789647Y-1860201D01*
X+7642353Y-1860201D01*
X+7589000Y-1913554D01*
X+7535647Y-1860201D01*
X+7388353Y-1860201D01*
X+7335000Y-1913554D01*
X+7327465Y-1906019D01*
X+7530285Y-1703199D01*
X+7584168Y-1703199D01*
X+7703199Y-1584168D01*
X+7703199Y-1530285D01*
X+7865099Y-1368385D01*
X+7865099Y-1222268D01*
X+7903199Y-1184168D01*
X+7903199Y-1015832D01*
X+7784168Y-896801D01*
X+7730285Y-896801D01*
X+7449383Y-615899D01*
X+7551428Y-615899D01*
X+7677899Y-489428D01*
X+7677899Y-310572D01*
X+7551428Y-184101D01*
X+7372572Y-184101D01*
X+7335000Y-221673D01*
X+7297428Y-184101D01*
X+7118572Y-184101D01*
X+7081000Y-221673D01*
X+7043428Y-184101D01*
X+6864572Y-184101D01*
X+6827000Y-221673D01*
X+6789428Y-184101D01*
X+6610572Y-184101D01*
X+6484101Y-310572D01*
X+6484101Y-418335D01*
X+6344301Y-558135D01*
X+6344301Y-1352332D01*
X+6336332Y-1360301D01*
X+6150135Y-1360301D01*
X+4126335Y-3384101D01*
X+4018572Y-3384101D01*
X+3981000Y-3421673D01*
X+3943428Y-3384101D01*
X+3764572Y-3384101D01*
X+3727000Y-3421673D01*
X+3689428Y-3384101D01*
X+3510572Y-3384101D01*
X+3434372Y-3460301D01*
X+2692135Y-3460301D01*
X+2463801Y-3688635D01*
X+2463801Y-5613401D01*
X+830385Y-5613401D01*
X+736599Y-5519615D01*
X+736599Y-5303199D01*
X+884168Y-5303199D01*
X+927000Y-5260367D01*
X+969832Y-5303199D01*
X+1138168Y-5303199D01*
X+1176268Y-5265099D01*
X+2016885Y-5265099D01*
X+2324099Y-4957885D01*
X+2324099Y-1133615D01*
X+2265099Y-1074615D01*
X+2265099Y-1048228D01*
X+2315899Y-997428D01*
X+2315899Y-818572D01*
X+2278327Y-781000D01*
X+2315899Y-743428D01*
X+2315899Y-564572D01*
X+2278327Y-527000D01*
X+2315899Y-489428D01*
X+2315899Y-310572D01*
X+2189428Y-184101D01*
X+2044699Y-184101D01*
X+2044699Y+1399974D01*
X+2110301Y+1334372D01*
X+2110301Y+992135D01*
X+3196801Y-94365D01*
X+3196801Y-184168D01*
X+3315832Y-303199D01*
X+3484168Y-303199D01*
X+3600000Y-187367D01*
X+3715832Y-303199D01*
X+3884168Y-303199D01*
X+4000000Y-187367D01*
X+4115832Y-303199D01*
X+4284168Y-303199D01*
X+4400000Y-187367D01*
X+4515832Y-303199D01*
X+4684168Y-303199D01*
X+4803199Y-184168D01*
X+4803199Y-94365D01*
X+5389699Y+492135D01*
X+5389699Y+1308974D01*
X+5414572Y+1284101D01*
X+5593428Y+1284101D01*
X+5719899Y+1410572D01*
X+5719899Y+1589428D01*
X+5593428Y+1715899D01*
X+5414572Y+1715899D01*
X+5377000Y+1678327D01*
X+5339428Y+1715899D01*
X+5160572Y+1715899D01*
X+5034101Y+1589428D01*
X+5034101Y+1410572D01*
X+5110301Y+1334372D01*
X+5110301Y+607865D01*
X+4605635Y+103199D01*
X+4515832Y+103199D01*
X+4400000Y-12633D01*
X+4339699Y+47668D01*
X+4339699Y+640635D01*
X+4389699Y+690635D01*
X+4389699Y+1308974D01*
X+4414572Y+1284101D01*
X+4593428Y+1284101D01*
X+4719899Y+1410572D01*
X+4719899Y+1589428D01*
X+4593428Y+1715899D01*
X+4414572Y+1715899D01*
X+4377000Y+1678327D01*
X+4339428Y+1715899D01*
X+4160572Y+1715899D01*
X+4034101Y+1589428D01*
X+4034101Y+1410572D01*
X+4110301Y+1334372D01*
X+4110301Y+806365D01*
X+4060301Y+756365D01*
X+4060301Y+47668D01*
X+4000000Y-12633D01*
X+3939699Y+47668D01*
X+3939699Y+438865D01*
X+3389699Y+988865D01*
X+3389699Y+1308974D01*
X+3414572Y+1284101D01*
X+3593428Y+1284101D01*
X+3719899Y+1410572D01*
X+3719899Y+1589428D01*
X+3593428Y+1715899D01*
X+3414572Y+1715899D01*
X+3377000Y+1678327D01*
X+3339428Y+1715899D01*
X+3160572Y+1715899D01*
X+3034101Y+1589428D01*
X+3034101Y+1410572D01*
X+3110301Y+1334372D01*
X+3110301Y+873135D01*
X+3660301Y+323135D01*
X+3660301Y+47668D01*
X+3600000Y-12633D01*
X+3484168Y+103199D01*
X+3394365Y+103199D01*
X+2389699Y+1107865D01*
X+2389699Y+1308974D01*
X+2414572Y+1284101D01*
X+2593428Y+1284101D01*
X+2719899Y+1410572D01*
X+2719899Y+1589428D01*
X+2593428Y+1715899D01*
X+2485665Y+1715899D01*
X+2220365Y+1981199D01*
X+1974135Y+1981199D01*
X+1765301Y+1772365D01*
X+1765301Y-516865D01*
X+1884101Y-635665D01*
X+1884101Y-743428D01*
X+1921673Y-781000D01*
X+1884101Y-818572D01*
X+1884101Y-997428D01*
X+1934901Y-1048228D01*
X+1934901Y-1211385D01*
X+1993901Y-1270385D01*
X+1993901Y-4821115D01*
X+1880115Y-4934901D01*
X+1176268Y-4934901D01*
X+1138168Y-4896801D01*
X+969832Y-4896801D01*
X+927000Y-4939633D01*
X+884168Y-4896801D01*
X+736599Y-4896801D01*
X+736599Y-4576885D01*
X+1181098Y-4132386D01*
X+1181098Y-3647614D01*
X+1016699Y-3483215D01*
X+1016699Y-3339530D01*
X+917169Y-3240000D01*
X+1016699Y-3140470D01*
X+1016699Y-2919530D01*
X+917169Y-2820000D01*
X+962070Y-2775099D01*
X+1534101Y-2775099D01*
X+1534101Y-2939428D01*
X+1660572Y-3065899D01*
X+1839428Y-3065899D01*
X+1965899Y-2939428D01*
X+1965899Y-2760572D01*
X+1928327Y-2723000D01*
X+1965899Y-2685428D01*
X+1965899Y-2667585D01*
X+1991421Y-2642063D01*
X+1965899Y-2572746D01*
X+1965899Y-2506572D01*
X+1927335Y-2468008D01*
X+1918440Y-2443849D01*
X+1900907Y-2441580D01*
X+1839428Y-2380101D01*
X+1660572Y-2380101D01*
X+1595772Y-2444901D01*
X+962070Y-2444901D01*
X+917169Y-2400000D01*
X+1016699Y-2300470D01*
X+1016699Y-2079530D01*
X+917169Y-1980000D01*
X+1016699Y-1880470D01*
X+1016699Y-1659530D01*
X+917169Y-1560000D01*
X+1016699Y-1460470D01*
X+1016699Y-1239530D01*
X+917169Y-1140000D01*
X+1016699Y-1040470D01*
X+1016699Y-819530D01*
X+917169Y-720000D01*
X+1016699Y-620470D01*
X+1016699Y-399530D01*
X+917169Y-300000D01*
X+1016699Y-200470D01*
X+1016699Y+20470D01*
X+917169Y+120000D01*
X+1016699Y+219530D01*
X+1016699Y+440470D01*
X+917169Y+540000D01*
X+1016699Y+639530D01*
X+1016699Y+850901D01*
X+1241115Y+850901D01*
X+1334901Y+757115D01*
X+1334901Y-223732D01*
X+1296801Y-261832D01*
X+1296801Y-430168D01*
X+1339633Y-473000D01*
X+1296801Y-515832D01*
X+1296801Y-684168D01*
X+1415832Y-803199D01*
X+1584168Y-803199D01*
X+1703199Y-684168D01*
X+1703199Y-515832D01*
X+1660367Y-473000D01*
X+1703199Y-430168D01*
X+1703199Y-261832D01*
X+1665099Y-223732D01*
X+1665099Y+893885D01*
X+1377885Y+1181099D01*
X+527615Y+1181099D01*
X+363215Y+1016699D01*
X+219530Y+1016699D01*
X+63301Y+860470D01*
X+63301Y+639530D01*
X+162831Y+540000D01*
X+63301Y+440470D01*
X+63301Y+296785D01*
X-488240Y-254756D01*
X-488240Y+1603308D01*
X-342033Y+1457101D01*
X-57967Y+1457101D01*
X+142899Y+1657967D01*
X+142899Y+1942033D01*
X-3308Y+2088240D01*
X+13203308Y+2088240D01*
X+13057101Y+1942033D01*
X+6719899Y+1589428D02*
X+6719899Y+1410572D01*
X+6593428Y+1284101D01*
X+6414572Y+1284101D01*
X+6389699Y+1308974D01*
X+6389699Y+807865D01*
X+6494365Y+703199D01*
X+6505635Y+703199D01*
X+6767635Y+965199D01*
X+8503365Y+965199D01*
X+8712199Y+756365D01*
X+8712199Y+288299D01*
X+12369801Y+288299D01*
X+12369801Y+704135D01*
X+12324635Y+749301D01*
X+10549135Y+749301D01*
X+10264335Y+1034101D01*
X+10156572Y+1034101D01*
X+10119000Y+1071673D01*
X+10081428Y+1034101D01*
X+9902572Y+1034101D01*
X+9776101Y+1160572D01*
X+9776101Y+1339428D01*
X+9902572Y+1465899D01*
X+10081428Y+1465899D01*
X+10119000Y+1428327D01*
X+10156572Y+1465899D01*
X+10335428Y+1465899D01*
X+10373000Y+1428327D01*
X+10410572Y+1465899D01*
X+10589428Y+1465899D01*
X+10665628Y+1389699D01*
X+13392865Y+1389699D01*
X+13601699Y+1180865D01*
X+13601699Y-4230914D01*
X+13469648Y-4362965D01*
X+13469648Y-4438399D01*
X+13409907Y-4498140D01*
X+13469648Y-4557881D01*
X+13469648Y-4717799D01*
X+13409907Y-4777540D01*
X+13469648Y-4837281D01*
X+13469648Y-4997199D01*
X+13416308Y-5050539D01*
X+13416308Y-5196256D01*
X+13202365Y-5410199D01*
X+12578635Y-5410199D01*
X+12369801Y-5201365D01*
X+12369801Y-2703927D01*
X+11658301Y-1992427D01*
X+11658301Y-1764299D01*
X+10413699Y-1764299D01*
X+10413699Y-2212135D01*
X+11735665Y-3534101D01*
X+11843428Y-3534101D01*
X+11969899Y-3660572D01*
X+11969899Y-3768335D01*
X+12077699Y-3876135D01*
X+12077699Y-5131174D01*
X+12090399Y-5143874D01*
X+12090399Y-5270126D01*
X+12001126Y-5359399D01*
X+11874874Y-5359399D01*
X+11785601Y-5270126D01*
X+11785601Y-5143874D01*
X+11798301Y-5131174D01*
X+11798301Y-3991865D01*
X+11772335Y-3965899D01*
X+11664572Y-3965899D01*
X+11627000Y-3928327D01*
X+11589428Y-3965899D01*
X+11410572Y-3965899D01*
X+11284101Y-3839428D01*
X+11284101Y-3660572D01*
X+11375554Y-3569118D01*
X+10159699Y-2353263D01*
X+10159699Y-2506135D01*
X+10643699Y-2990135D01*
X+10643699Y-3584372D01*
X+10660901Y-3601574D01*
X+10668374Y-3594101D01*
X+10794626Y-3594101D01*
X+10883899Y-3683374D01*
X+10883899Y-3809626D01*
X+10794626Y-3898899D01*
X+10668374Y-3898899D01*
X+10664401Y-3894926D01*
X+10593428Y-3965899D01*
X+10414572Y-3965899D01*
X+10377000Y-3928327D01*
X+10339428Y-3965899D01*
X+10160572Y-3965899D01*
X+10034101Y-3839428D01*
X+10034101Y-3660572D01*
X+10160572Y-3534101D01*
X+10339428Y-3534101D01*
X+10364301Y-3558974D01*
X+10364301Y-3105865D01*
X+9905699Y-2647263D01*
X+9905699Y-3295865D01*
X+9469899Y-3731665D01*
X+9469899Y-3839428D01*
X+9393699Y-3915628D01*
X+9393699Y-4098174D01*
X+9423399Y-4127874D01*
X+9423399Y-4254126D01*
X+9334126Y-4343399D01*
X+9207874Y-4343399D01*
X+9118601Y-4254126D01*
X+9118601Y-4236165D01*
X+9114301Y-4231865D01*
X+9114301Y-3941026D01*
X+9089428Y-3965899D01*
X+8910572Y-3965899D01*
X+8784101Y-3839428D01*
X+8784101Y-3660572D01*
X+8910572Y-3534101D01*
X+9089428Y-3534101D01*
X+9127000Y-3571673D01*
X+9164572Y-3534101D01*
X+9272335Y-3534101D01*
X+9626301Y-3180135D01*
X+9626301Y-1764299D01*
X+8889699Y-1764299D01*
X+8889699Y-2197174D01*
X+8915399Y-2222874D01*
X+8915399Y-2349126D01*
X+8826126Y-2438399D01*
X+8699874Y-2438399D01*
X+8610601Y-2349126D01*
X+8610601Y-2331165D01*
X+8610301Y-2330865D01*
X+8610301Y-1764299D01*
X+8549701Y-1764299D01*
X+8549701Y-1235701D01*
X+10388301Y-1235701D01*
X+10388301Y-1117125D01*
X+10292635Y-1021459D01*
X+8697895Y-1021459D01*
X+8432801Y-756365D01*
X+8432801Y+640635D01*
X+8387635Y+685801D01*
X+7617566Y+685801D01*
X+7719199Y+584168D01*
X+7719199Y+415832D01*
X+7600168Y+296801D01*
X+7431832Y+296801D01*
X+7312801Y+415832D01*
X+7312801Y+584168D01*
X+7414434Y+685801D01*
X+6883365Y+685801D01*
X+6703199Y+505635D01*
X+6703199Y+415832D01*
X+6584168Y+296801D01*
X+6415832Y+296801D01*
X+6296801Y+415832D01*
X+6296801Y+505635D01*
X+6110301Y+692135D01*
X+6110301Y+1334372D01*
X+6034101Y+1410572D01*
X+6034101Y+1589428D01*
X+6160572Y+1715899D01*
X+6339428Y+1715899D01*
X+6377000Y+1678327D01*
X+6414572Y+1715899D01*
X+6593428Y+1715899D01*
X+6719899Y+1589428D01*
X+4803199Y-1031832D02*
X+4803199Y-1200168D01*
X+4684168Y-1319199D01*
X+4515832Y-1319199D01*
X+4400000Y-1203367D01*
X+4284168Y-1319199D01*
X+4115832Y-1319199D01*
X+4000000Y-1203367D01*
X+3884168Y-1319199D01*
X+3715832Y-1319199D01*
X+3600000Y-1203367D01*
X+3484168Y-1319199D01*
X+3315832Y-1319199D01*
X+3196801Y-1200168D01*
X+3196801Y-1031832D01*
X+3315832Y-912801D01*
X+3484168Y-912801D01*
X+3600000Y-1028633D01*
X+3715832Y-912801D01*
X+3884168Y-912801D01*
X+4000000Y-1028633D01*
X+4115832Y-912801D01*
X+4284168Y-912801D01*
X+4400000Y-1028633D01*
X+4515832Y-912801D01*
X+4684168Y-912801D01*
X+4803199Y-1031832D01*
X+13215816Y-5907839D02*
X+13058002Y-5907839D01*
X+12946410Y-5796247D01*
X+12946410Y-5638433D01*
X+13058002Y-5526841D01*
X+13215816Y-5526841D01*
X+13327408Y-5638433D01*
X+13327408Y-5796247D01*
X+13215816Y-5907839D01*
X+12116299Y-12325051D02*
X+12116299Y-12524949D01*
X+11974949Y-12666299D01*
X+11866299Y-12666299D01*
X+11866299Y-12774949D01*
X+11724949Y-12916299D01*
X+11525051Y-12916299D01*
X+11383701Y-12774949D01*
X+11383701Y-12575051D01*
X+11525051Y-12433701D01*
X+11633701Y-12433701D01*
X+11633701Y-12325051D01*
X+11775051Y-12183701D01*
X+11974949Y-12183701D01*
X+12116299Y-12325051D01*
X+11974949Y-13416299D02*
X+11775051Y-13416299D01*
X+11633701Y-13274949D01*
X+11633701Y-13075051D01*
X+11775051Y-12933701D01*
X+11974949Y-12933701D01*
X+12116299Y-13075051D01*
X+12116299Y-13274949D01*
X+11974949Y-13416299D01*
X+13474949Y-13666299D02*
X+13275051Y-13666299D01*
X+13133701Y-13524949D01*
X+13133701Y-13325051D01*
X+13275051Y-13183701D01*
X+13474949Y-13183701D01*
X+13616299Y-13325051D01*
X+13616299Y-13524949D01*
X+13474949Y-13666299D01*
X+13474949Y-13166299D02*
X+13275051Y-13166299D01*
X+13133701Y-13024949D01*
X+13133701Y-12825051D01*
X+13275051Y-12683701D01*
X+13474949Y-12683701D01*
X+13616299Y-12825051D01*
X+13616299Y-13024949D01*
X+13474949Y-13166299D01*
X+12979216Y-14176599D02*
X+12770784Y-14176599D01*
X+12623401Y-14029216D01*
X+12623401Y-13820784D01*
X+12770784Y-13673401D01*
X+12979216Y-13673401D01*
X+13126599Y-13820784D01*
X+13126599Y-14029216D01*
X+12979216Y-14176599D01*
X+12979216Y-12676599D02*
X+12770784Y-12676599D01*
X+12623401Y-12529216D01*
X+12623401Y-12320784D01*
X+12770784Y-12173401D01*
X+12979216Y-12173401D01*
X+13126599Y-12320784D01*
X+13126599Y-12529216D01*
X+12979216Y-12676599D01*
X+167093Y+1410499D02*
X+324907Y+1410499D01*
X+436499Y+1298907D01*
X+436499Y+1141093D01*
X+324907Y+1029501D01*
X+167093Y+1029501D01*
X+55501Y+1141093D01*
X+55501Y+1298907D01*
X+167093Y+1410499D01*
X+1903199Y-4211832D02*
X+1903199Y-4380168D01*
X+1860367Y-4423000D01*
X+1903199Y-4465832D01*
X+1903199Y-4634168D01*
X+1784168Y-4753199D01*
X+1615832Y-4753199D01*
X+1496801Y-4634168D01*
X+1496801Y-4465832D01*
X+1539633Y-4423000D01*
X+1496801Y-4380168D01*
X+1496801Y-4211832D01*
X+1615832Y-4092801D01*
X+1784168Y-4092801D01*
X+1903199Y-4211832D01*
X+12921143Y-6068201D02*
X+13278857Y-6068201D01*
X+13531799Y-6321143D01*
X+13531799Y-6678857D01*
X+13278857Y-6931799D01*
X+12921143Y-6931799D01*
X+12668201Y-6678857D01*
X+12668201Y-6321143D01*
X+12921143Y-6068201D01*
X+965899Y-7160572D02*
X+965899Y-7288101D01*
X+1093428Y-7288101D01*
X+1219899Y-7414572D01*
X+1219899Y-7593428D01*
X+1139699Y-7673628D01*
X+1139699Y-7852332D01*
X+1203199Y-7915832D01*
X+1203199Y-8084168D01*
X+1084168Y-8203199D01*
X+965899Y-8203199D01*
X+965899Y-8288101D01*
X+1093428Y-8288101D01*
X+1219899Y-8414572D01*
X+1219899Y-8593428D01*
X+1155699Y-8657628D01*
X+1155699Y-8852332D01*
X+1219199Y-8915832D01*
X+1219199Y-9084168D01*
X+1100168Y-9203199D01*
X+965899Y-9203199D01*
X+965899Y-9288101D01*
X+1093428Y-9288101D01*
X+1219899Y-9414572D01*
X+1219899Y-9593428D01*
X+1155699Y-9657628D01*
X+1155699Y-9852332D01*
X+1219199Y-9915832D01*
X+1219199Y-10084168D01*
X+1100168Y-10203199D01*
X+931832Y-10203199D01*
X+812801Y-10084168D01*
X+812801Y-9915832D01*
X+876301Y-9852332D01*
X+876301Y-9681628D01*
X+788101Y-9593428D01*
X+788101Y-9465899D01*
X+711899Y-9465899D01*
X+711899Y-9593428D01*
X+585428Y-9719899D01*
X+406572Y-9719899D01*
X+280101Y-9593428D01*
X+280101Y-9414572D01*
X+406572Y-9288101D01*
X+534101Y-9288101D01*
X+534101Y-9160572D01*
X+660572Y-9034101D01*
X+812801Y-9034101D01*
X+812801Y-8915832D01*
X+876301Y-8852332D01*
X+876301Y-8681628D01*
X+788101Y-8593428D01*
X+788101Y-8465899D01*
X+711899Y-8465899D01*
X+711899Y-8593428D01*
X+585428Y-8719899D01*
X+406572Y-8719899D01*
X+280101Y-8593428D01*
X+280101Y-8414572D01*
X+406572Y-8288101D01*
X+534101Y-8288101D01*
X+534101Y-8160572D01*
X+660572Y-8034101D01*
X+796801Y-8034101D01*
X+796801Y-7915832D01*
X+860301Y-7852332D01*
X+860301Y-7665628D01*
X+788101Y-7593428D01*
X+788101Y-7465899D01*
X+711899Y-7465899D01*
X+711899Y-7593428D01*
X+585428Y-7719899D01*
X+406572Y-7719899D01*
X+280101Y-7593428D01*
X+280101Y-7414572D01*
X+406572Y-7288101D01*
X+534101Y-7288101D01*
X+534101Y-7160572D01*
X+660572Y-7034101D01*
X+839428Y-7034101D01*
X+965899Y-7160572D01*
X+1953199Y-7665832D02*
X+1953199Y-7834168D01*
X+1834168Y-7953199D01*
X+1665832Y-7953199D01*
X+1546801Y-7834168D01*
X+1546801Y-7665832D01*
X+1665832Y-7546801D01*
X+1834168Y-7546801D01*
X+1953199Y-7665832D01*
X+6687199Y-9915832D02*
X+6687199Y-10084168D01*
X+6568168Y-10203199D01*
X+6399832Y-10203199D01*
X+6280801Y-10084168D01*
X+6280801Y-9915832D01*
X+6399832Y-9796801D01*
X+6568168Y-9796801D01*
X+6687199Y-9915832D01*
X+12369801Y-691135D02*
X+11912302Y-1148634D01*
X+11912302Y-1235701D01*
X+10667699Y-1235701D01*
X+10667699Y-1001395D01*
X+10408365Y-742061D01*
X+8813625Y-742061D01*
X+8712199Y-640635D01*
X+8712199Y-240299D01*
X+11404301Y-240299D01*
X+11404301Y-806865D01*
X+11531601Y-934165D01*
X+11531601Y-952126D01*
X+11620874Y-1041399D01*
X+11747126Y-1041399D01*
X+11836399Y-952126D01*
X+11836399Y-825874D01*
X+11747126Y-736601D01*
X+11729165Y-736601D01*
X+11683699Y-691135D01*
X+11683699Y-240299D01*
X+12369801Y-240299D01*
X+12369801Y-691135D01*
X+13322301Y+1065135D02*
X+13322301Y-3194926D01*
X+13215816Y-3088441D01*
X+13058002Y-3088441D01*
X+12946410Y-3200033D01*
X+12946410Y-3357847D01*
X+13058002Y-3469439D01*
X+13215816Y-3469439D01*
X+13322301Y-3362954D01*
X+13322301Y-3886001D01*
X+13196650Y-3886001D01*
X+13190248Y-3892403D01*
X+13190248Y-3859381D01*
X+13077168Y-3746301D01*
X+12917250Y-3746301D01*
X+12804170Y-3859381D01*
X+12804170Y-4019299D01*
X+12863911Y-4079040D01*
X+12804170Y-4138781D01*
X+12804170Y-4298699D01*
X+12863911Y-4358440D01*
X+12804170Y-4418181D01*
X+12804170Y-4578099D01*
X+12863911Y-4637840D01*
X+12804170Y-4697581D01*
X+12804170Y-4857499D01*
X+12863911Y-4917240D01*
X+12804170Y-4976981D01*
X+12804170Y-5130801D01*
X+12694365Y-5130801D01*
X+12649199Y-5085635D01*
X+12649199Y-2588197D01*
X+11937699Y-1876697D01*
X+11937699Y-1764299D01*
X+12506299Y-1764299D01*
X+12506299Y-1235701D01*
X+12220363Y-1235701D01*
X+12649199Y-806865D01*
X+12649199Y+819865D01*
X+12440365Y+1028699D01*
X+10664865Y+1028699D01*
X+10624446Y+1069118D01*
X+10665628Y+1110301D01*
X+13277135Y+1110301D01*
X+13322301Y+1065135D01*
X+7496801Y-1130285D02*
X+7496801Y-1184168D01*
X+7534901Y-1222268D01*
X+7534901Y-1231615D01*
X+7469715Y-1296801D01*
X+7415832Y-1296801D01*
X+7296801Y-1415832D01*
X+7296801Y-1469715D01*
X+7071415Y-1695101D01*
X+6809415Y-1695101D01*
X+6644315Y-1860201D01*
X+6626353Y-1860201D01*
X+6522201Y-1964353D01*
X+6522201Y-2111647D01*
X+6626353Y-2215799D01*
X+6644315Y-2215799D01*
X+7092534Y-2664020D01*
X+7081000Y-2675554D01*
X+7027647Y-2622201D01*
X+6880353Y-2622201D01*
X+6877799Y-2624755D01*
X+6877799Y-2622201D01*
X+6522201Y-2622201D01*
X+6522201Y-2977799D01*
X+6814301Y-2977799D01*
X+6814301Y-3626865D01*
X+8960301Y-5772865D01*
X+8960301Y-6077776D01*
X+8889626Y-6007101D01*
X+8801099Y-6007101D01*
X+8801099Y-5773614D01*
X+8704386Y-5676901D01*
X+8567614Y-5676901D01*
X+8470901Y-5773614D01*
X+8470901Y-9148885D01*
X+8635344Y-9313328D01*
X+8627000Y-9321673D01*
X+8589428Y-9284101D01*
X+8410572Y-9284101D01*
X+8394699Y-9299974D01*
X+8394699Y-6362326D01*
X+8407399Y-6349626D01*
X+8407399Y-6223374D01*
X+8318126Y-6134101D01*
X+8191874Y-6134101D01*
X+8119098Y-6206877D01*
X+8119098Y-5265614D01*
X+7831885Y-4978401D01*
X+5488115Y-4978401D01*
X+5169715Y-5296801D01*
X+5115832Y-5296801D01*
X+4996801Y-5415832D01*
X+4996801Y-5584168D01*
X+5115832Y-5703199D01*
X+5284168Y-5703199D01*
X+5403199Y-5584168D01*
X+5403199Y-5530285D01*
X+5624885Y-5308599D01*
X+6134101Y-5308599D01*
X+6134101Y-5397126D01*
X+6146801Y-5409826D01*
X+6146801Y-6733474D01*
X+6043428Y-6630101D01*
X+5864572Y-6630101D01*
X+5738101Y-6756572D01*
X+5738101Y-6884101D01*
X+5661899Y-6884101D01*
X+5661899Y-6756572D01*
X+5535428Y-6630101D01*
X+5373266Y-6630101D01*
X+5403199Y-6600168D01*
X+5403199Y-6431832D01*
X+5284168Y-6312801D01*
X+5115832Y-6312801D01*
X+4996801Y-6431832D01*
X+4996801Y-6600168D01*
X+5115832Y-6719199D01*
X+5267474Y-6719199D01*
X+5230101Y-6756572D01*
X+5230101Y-6935428D01*
X+5254974Y-6960301D01*
X+4444365Y-6960301D01*
X+4347699Y-6863635D01*
X+4347699Y-5937145D01*
X+4388353Y-5977799D01*
X+4535647Y-5977799D01*
X+4639799Y-5873647D01*
X+4639799Y-5726353D01*
X+4535647Y-5622201D01*
X+4517685Y-5622201D01*
X+4365285Y-5469801D01*
X+3863683Y-5469801D01*
X+3865099Y-5468385D01*
X+3865099Y-5200545D01*
X+3880353Y-5215799D01*
X+4027647Y-5215799D01*
X+4081000Y-5162446D01*
X+4134353Y-5215799D01*
X+4281647Y-5215799D01*
X+4335000Y-5162446D01*
X+4388353Y-5215799D01*
X+4535647Y-5215799D01*
X+4639799Y-5111647D01*
X+4639799Y-4964353D01*
X+4535647Y-4860201D01*
X+4388353Y-4860201D01*
X+4335000Y-4913554D01*
X+4281647Y-4860201D01*
X+4227765Y-4860201D01*
X+4117365Y-4749801D01*
X+3180635Y-4749801D01*
X+3124199Y-4806237D01*
X+3124199Y-4139826D01*
X+3136899Y-4127126D01*
X+3136899Y-4000874D01*
X+3047626Y-3911601D01*
X+2921374Y-3911601D01*
X+2832101Y-4000874D01*
X+2832101Y-4102101D01*
X+2743199Y-4102101D01*
X+2743199Y-3804365D01*
X+2807865Y-3739699D01*
X+3434372Y-3739699D01*
X+3510572Y-3815899D01*
X+3689428Y-3815899D01*
X+3727000Y-3778327D01*
X+3764572Y-3815899D01*
X+3943428Y-3815899D01*
X+3981000Y-3778327D01*
X+4018572Y-3815899D01*
X+4197428Y-3815899D01*
X+4235000Y-3778327D01*
X+4272572Y-3815899D01*
X+4451428Y-3815899D01*
X+4489000Y-3778327D01*
X+4526572Y-3815899D01*
X+4705428Y-3815899D01*
X+4743000Y-3778327D01*
X+4780572Y-3815899D01*
X+4959428Y-3815899D01*
X+5085899Y-3689428D01*
X+5085899Y-3510572D01*
X+4959428Y-3384101D01*
X+4780572Y-3384101D01*
X+4743000Y-3421673D01*
X+4740446Y-3419118D01*
X+6305365Y-1854199D01*
X+6614865Y-1854199D01*
X+6823699Y-1645365D01*
X+6823699Y-1247668D01*
X+6887199Y-1184168D01*
X+6887199Y-1094365D01*
X+7093699Y-887865D01*
X+7093699Y-727183D01*
X+7496801Y-1130285D01*
X+8150353Y-2977799D02*
X+8280401Y-2977799D01*
X+8280401Y-4166885D01*
X+9134901Y-5021385D01*
X+9134901Y-5552337D01*
X+7093699Y-3511135D01*
X+7093699Y-2937145D01*
X+7134353Y-2977799D01*
X+7281647Y-2977799D01*
X+7335000Y-2924446D01*
X+7388353Y-2977799D01*
X+7535647Y-2977799D01*
X+7589000Y-2924446D01*
X+7642353Y-2977799D01*
X+7789647Y-2977799D01*
X+7843000Y-2924446D01*
X+7896353Y-2977799D01*
X+8043647Y-2977799D01*
X+8097000Y-2924446D01*
X+8150353Y-2977799D01*
X+63301Y-200470D02*
X+162831Y-300000D01*
X+63301Y-399530D01*
X+63301Y-620470D01*
X+162831Y-720000D01*
X+63301Y-819530D01*
X+63301Y-1040470D01*
X+162831Y-1140000D01*
X+63301Y-1239530D01*
X+63301Y-1460470D01*
X+162831Y-1560000D01*
X+63301Y-1659530D01*
X+63301Y-1880470D01*
X+162831Y-1980000D01*
X+63301Y-2079530D01*
X+63301Y-2300470D01*
X+162831Y-2400000D01*
X+63301Y-2499530D01*
X+63301Y-2720470D01*
X+162831Y-2820000D01*
X+63301Y-2919530D01*
X+63301Y-3140470D01*
X+162831Y-3240000D01*
X+63301Y-3339530D01*
X+63301Y-3560470D01*
X+162834Y-3660003D01*
X+63301Y-3759536D01*
X+63301Y-3980476D01*
X+219530Y-4136705D01*
X+440470Y-4136705D01*
X+540000Y-4037175D01*
X+639530Y-4136705D01*
X+709811Y-4136705D01*
X+406401Y-4440115D01*
X+406401Y-4896801D01*
X+269832Y-4896801D01*
X+227000Y-4939633D01*
X+184168Y-4896801D01*
X+15832Y-4896801D01*
X-22268Y-4934901D01*
X-109749Y-4934901D01*
X-203591Y-4841059D01*
X-203591Y-437075D01*
X+63301Y-170183D01*
X+63301Y-200470D01*
X+6146801Y-7117635D02*
X+6146801Y-7226674D01*
X+6134101Y-7239374D01*
X+6134101Y-7365626D01*
X+6146801Y-7378326D01*
X+6146801Y-7533474D01*
X+6043428Y-7430101D01*
X+5864572Y-7430101D01*
X+5738101Y-7556572D01*
X+5738101Y-7684101D01*
X+5661899Y-7684101D01*
X+5661899Y-7556572D01*
X+5585699Y-7480372D01*
X+5585699Y-7393326D01*
X+5613399Y-7365626D01*
X+5613399Y-7315899D01*
X+5789428Y-7315899D01*
X+5915899Y-7189428D01*
X+5915899Y-7061899D01*
X+6043428Y-7061899D01*
X+6146801Y-6958526D01*
X+6146801Y-7117635D01*
X+9015832Y-6903199D02*
X+9134901Y-6903199D01*
X+9134901Y-7336385D01*
X+9456615Y-7658099D01*
X+9563101Y-7658099D01*
X+9563101Y-7746626D01*
X+9575801Y-7759326D01*
X+9575801Y-7816474D01*
X+9543428Y-7784101D01*
X+9364572Y-7784101D01*
X+9327000Y-7821673D01*
X+9289428Y-7784101D01*
X+9110572Y-7784101D01*
X+8984101Y-7910572D01*
X+8984101Y-8089428D01*
X+9110572Y-8215899D01*
X+9288901Y-8215899D01*
X+9288901Y-8296801D01*
X+9161832Y-8296801D01*
X+9042801Y-8415832D01*
X+9042801Y-8584168D01*
X+9161832Y-8703199D01*
X+9330168Y-8703199D01*
X+9334901Y-8698466D01*
X+9334901Y-8821615D01*
X+9234901Y-8921615D01*
X+9234901Y-9037337D01*
X+8966199Y-8768635D01*
X+8966199Y-6853566D01*
X+9015832Y-6903199D01*
X+7788902Y-5402386D02*
X+7788901Y-7784101D01*
X+7610572Y-7784101D01*
X+7484101Y-7910572D01*
X+7484101Y-8089428D01*
X+7610572Y-8215899D01*
X+7789428Y-8215899D01*
X+7827000Y-8178327D01*
X+7834901Y-8186228D01*
X+7834901Y-8301534D01*
X+7830168Y-8296801D01*
X+7661832Y-8296801D01*
X+7542801Y-8415832D01*
X+7542801Y-8551737D01*
X+7518399Y-8527335D01*
X+7518399Y-8509374D01*
X+7429126Y-8420101D01*
X+7302874Y-8420101D01*
X+7213601Y-8509374D01*
X+7213601Y-8635626D01*
X+7302874Y-8724899D01*
X+7320835Y-8724899D01*
X+7404284Y-8808348D01*
X+7296801Y-8915832D01*
X+7296801Y-9067801D01*
X+6749365Y-9067801D01*
X+6687199Y-9005635D01*
X+6687199Y-8915832D01*
X+6568168Y-8796801D01*
X+6426199Y-8796801D01*
X+6426199Y-7378326D01*
X+6438899Y-7365626D01*
X+6438899Y-7239374D01*
X+6426199Y-7226674D01*
X+6426199Y-5409826D01*
X+6438899Y-5397126D01*
X+6438899Y-5308599D01*
X+7695115Y-5308599D01*
X+7788902Y-5402386D01*
X+6146801Y-8863635D02*
X+5926335Y-9084101D01*
X+5818572Y-9084101D01*
X+5781000Y-9121673D01*
X+5743428Y-9084101D01*
X+5564572Y-9084101D01*
X+5539699Y-9108974D01*
X+5539699Y-8517135D01*
X+5328365Y-8305801D01*
X+4881566Y-8305801D01*
X+4903199Y-8284168D01*
X+4903199Y-8115832D01*
X+4827066Y-8039699D01*
X+5534372Y-8039699D01*
X+5561653Y-8066980D01*
X+5512801Y-8115832D01*
X+5512801Y-8284168D01*
X+5631832Y-8403199D01*
X+5800168Y-8403199D01*
X+5919199Y-8284168D01*
X+5919199Y-8115832D01*
X+5855699Y-8052332D01*
X+5855699Y-8049628D01*
X+5915899Y-7989428D01*
X+5915899Y-7861899D01*
X+6043428Y-7861899D01*
X+6146801Y-7758526D01*
X+6146801Y-8863635D01*
X+6391434Y-9194801D02*
X+6355635Y-9194801D01*
X+5720635Y-9829801D01*
X+5359399Y-9829801D01*
X+5359399Y-9715874D01*
X+5346699Y-9703174D01*
X+5346699Y-9515899D01*
X+5489428Y-9515899D01*
X+5527000Y-9478327D01*
X+5564572Y-9515899D01*
X+5743428Y-9515899D01*
X+5781000Y-9478327D01*
X+5818572Y-9515899D01*
X+5997428Y-9515899D01*
X+6123899Y-9389428D01*
X+6123899Y-9281665D01*
X+6301098Y-9104466D01*
X+6391434Y-9194801D01*
X+8634901Y-9686228D02*
X+8634901Y-9801534D01*
X+8630168Y-9796801D01*
X+8461832Y-9796801D01*
X+8394699Y-9863934D01*
X+8394699Y-9700026D01*
X+8410572Y-9715899D01*
X+8589428Y-9715899D01*
X+8627000Y-9678327D01*
X+8634901Y-9686228D01*
X+7988301Y-10310201D02*
X+7914353Y-10310201D01*
X+7889699Y-10334855D01*
X+7889698Y-9963866D01*
X+7988301Y-9865263D01*
X+7988301Y-10310201D01*
X+8461832Y-10203199D02*
X+8630168Y-10203199D01*
X+8673000Y-10160367D01*
X+8689824Y-10177192D01*
X+8584901Y-10282115D01*
X+8584901Y-10379337D01*
X+8394699Y-10189135D01*
X+8394699Y-10136066D01*
X+8461832Y-10203199D01*
X+12769801Y-9052699D02*
X+12769801Y-10542341D01*
X+12598905Y-10542341D01*
X+12539699Y-10483135D01*
X+12539699Y-9865628D01*
X+12615899Y-9789428D01*
X+12615899Y-9610572D01*
X+12578327Y-9573000D01*
X+12615899Y-9535428D01*
X+12615899Y-9356572D01*
X+12578327Y-9319000D01*
X+12615899Y-9281428D01*
X+12615899Y-9173665D01*
X+12769801Y-9019763D01*
X+12769801Y-9052699D01*
X+12418335Y-8976101D02*
X+12310572Y-8976101D01*
X+12234372Y-9052301D01*
X+12149635Y-9052301D01*
X+12146835Y-9055101D01*
X+12128874Y-9055101D01*
X+12039601Y-9144374D01*
X+12039601Y-9270626D01*
X+12128874Y-9359899D01*
X+12184101Y-9359899D01*
X+12184101Y-9535428D01*
X+12208974Y-9560301D01*
X+12149635Y-9560301D01*
X+12146835Y-9563101D01*
X+12128874Y-9563101D01*
X+12039601Y-9652374D01*
X+12039601Y-9778626D01*
X+12128874Y-9867899D01*
X+12255126Y-9867899D01*
X+12258849Y-9864176D01*
X+12260301Y-9865628D01*
X+12260301Y-10598865D01*
X+12316737Y-10655301D01*
X+12047285Y-10655301D01*
X+11915899Y-10523915D01*
X+11915899Y-10416152D01*
X+11878327Y-10378580D01*
X+11915899Y-10341008D01*
X+11915899Y-10162152D01*
X+11878327Y-10124580D01*
X+11915899Y-10087008D01*
X+11915899Y-9908152D01*
X+11839699Y-9831952D01*
X+11839699Y-8820865D01*
X+11948225Y-8712339D01*
X+12682097Y-8712339D01*
X+12418335Y-8976101D01*
X+10784101Y-11056572D02*
X+10784101Y-11235428D01*
X+10808974Y-11260301D01*
X+10568865Y-11260301D01*
X+10502899Y-11194335D01*
X+10502899Y-11176374D01*
X+10490199Y-11163674D01*
X+10490199Y-11074399D01*
X+10540626Y-11074399D01*
X+10583326Y-11031699D01*
X+10808974Y-11031699D01*
X+10784101Y-11056572D01*
D14*
X+9004000Y-240299D02*
X+9004000Y+24000D01*
X+9004000Y+288299D02*
X+9004000Y+24000D01*
X+8784101Y-3750000D02*
X+9000000Y-3750000D01*
X+9000000Y-3965899D02*
X+9000000Y-3750000D01*
X+9000000Y-3534101D02*
X+9000000Y-3750000D01*
X+10034101Y-3750000D02*
X+10250000Y-3750000D01*
X+10250000Y-3965899D02*
X+10250000Y-3750000D01*
X+10250000Y-3534101D02*
X+10250000Y-3750000D01*
X+11284101Y-3750000D02*
X+11500000Y-3750000D01*
X+11500000Y-3965899D02*
X+11500000Y-3750000D01*
X+7312801Y+500000D02*
X+7516000Y+500000D01*
X+7719199Y+500000D02*
X+7516000Y+500000D01*
X+7516000Y+296801D02*
X+7516000Y+500000D01*
X+3400000Y-912801D02*
X+3400000Y-1116000D01*
X+3400000Y-1319199D02*
X+3400000Y-1116000D01*
X+3196801Y-1116000D02*
X+3400000Y-1116000D01*
X+4600000Y-912801D02*
X+4600000Y-1116000D01*
X+4600000Y-1319199D02*
X+4600000Y-1116000D01*
X+4803199Y-1116000D02*
X+4600000Y-1116000D01*
X+4200000Y-912801D02*
X+4200000Y-1116000D01*
X+4200000Y-1319199D02*
X+4200000Y-1116000D01*
X+3800000Y-912801D02*
X+3800000Y-1116000D01*
X+3800000Y-1319199D02*
X+3800000Y-1116000D01*
X+13276609Y-3886001D02*
X+13276609Y-4079040D01*
X+3854000Y-3815899D02*
X+3854000Y-3600000D01*
X+3854000Y-3384101D02*
X+3854000Y-3600000D01*
X+5085899Y-3600000D02*
X+4870000Y-3600000D01*
X+4870000Y-3815899D02*
X+4870000Y-3600000D01*
X+4870000Y-3384101D02*
X+4870000Y-3600000D01*
X+7484101Y-8000000D02*
X+7700000Y-8000000D01*
X+7700000Y-8215899D02*
X+7700000Y-8000000D01*
X+7700000Y-7784101D02*
X+7700000Y-8000000D01*
X+8984101Y-8000000D02*
X+9200000Y-8000000D01*
X+9200000Y-8215899D02*
X+9200000Y-8000000D01*
X+9200000Y-7784101D02*
X+9200000Y-8000000D01*
X+8500000Y-9715899D02*
X+8500000Y-9500000D01*
X+8500000Y-9284101D02*
X+8500000Y-9500000D01*
X+4639799Y-5038000D02*
X+4462000Y-5038000D01*
X+4462000Y-5215799D02*
X+4462000Y-5038000D01*
X+4462000Y-4860201D02*
X+4462000Y-5038000D01*
X+11875000Y-13416299D02*
X+11875000Y-13175000D01*
X+11875000Y-12933701D02*
X+11875000Y-13175000D01*
X+12116299Y-13175000D02*
X+11875000Y-13175000D01*
X+11633701Y-13175000D02*
X+11875000Y-13175000D01*
X+5738101Y-6846000D02*
X+5954000Y-6846000D01*
X+5954000Y-7061899D02*
X+5954000Y-6846000D01*
X+5954000Y-6630101D02*
X+5954000Y-6846000D01*
X+5654000Y-9515899D02*
X+5654000Y-9300000D01*
X+5654000Y-9084101D02*
X+5654000Y-9300000D01*
X+7542801Y-8500000D02*
X+7746000Y-8500000D01*
X+7746000Y-8296801D02*
X+7746000Y-8500000D01*
X+8546000Y-9796801D02*
X+8546000Y-10000000D01*
X+8546000Y-10203199D02*
X+8546000Y-10000000D01*
X+9042801Y-8500000D02*
X+9246000Y-8500000D01*
X+9246000Y-8296801D02*
X+9246000Y-8500000D01*
X+9246000Y-8703199D02*
X+9246000Y-8500000D01*
X+1016699Y-3030000D02*
X+750000Y-3030000D01*
X+1750000Y-3065899D02*
X+1750000Y-2850000D01*
X+1965899Y-2850000D02*
X+1750000Y-2850000D01*
X+1534101Y-2850000D02*
X+1750000Y-2850000D01*
X+1500000Y-803199D02*
X+1500000Y-600000D01*
X+1703199Y-600000D02*
X+1500000Y-600000D01*
X+1296801Y-600000D02*
X+1500000Y-600000D01*
X+800000Y-5303199D02*
X+800000Y-5100000D01*
X+800000Y-4896801D02*
X+800000Y-5100000D01*
X+1700000Y-4753199D02*
X+1700000Y-4550000D01*
X+1903199Y-4550000D02*
X+1700000Y-4550000D01*
X+1496801Y-4550000D02*
X+1700000Y-4550000D01*
X+354000Y-5303199D02*
X+354000Y-5100000D01*
X+354000Y-4896801D02*
X+354000Y-5100000D01*
X+9776101Y+1250000D02*
X+9992000Y+1250000D01*
X+9992000Y+1465899D02*
X+9992000Y+1250000D01*
X+9992000Y+1034101D02*
X+9992000Y+1250000D01*
X+7677899Y-400000D02*
X+7462000Y-400000D01*
X+7462000Y-615899D02*
X+7462000Y-400000D01*
X+7462000Y-184101D02*
X+7462000Y-400000D01*
X+12769801Y-7470280D02*
X+12973000Y-7470280D01*
X+13430199Y-7607440D02*
X+13227000Y-7607440D01*
X+11204799Y-6800000D02*
X+11027000Y-6800000D01*
X+11027000Y-6977799D02*
X+11027000Y-6800000D01*
X+8224000Y-2977799D02*
X+8224000Y-2800000D01*
X+711899Y-7504000D02*
X+496000Y-7504000D01*
X+280101Y-7504000D02*
X+496000Y-7504000D01*
X+496000Y-7288101D02*
X+496000Y-7504000D01*
X+496000Y-7719899D02*
X+496000Y-7504000D01*
X+711899Y-8504000D02*
X+496000Y-8504000D01*
X+280101Y-8504000D02*
X+496000Y-8504000D01*
X+496000Y-8288101D02*
X+496000Y-8504000D01*
X+496000Y-8719899D02*
X+496000Y-8504000D01*
X+711899Y-9504000D02*
X+496000Y-9504000D01*
X+280101Y-9504000D02*
X+496000Y-9504000D01*
X+496000Y-9288101D02*
X+496000Y-9504000D01*
X+496000Y-9719899D02*
X+496000Y-9504000D01*
X+7988000Y-10310201D02*
X+7988000Y-10488000D01*
X+7988000Y-13310201D02*
X+7988000Y-13488000D01*
X+11215899Y-11146000D02*
X+11000000Y-11146000D01*
X+10784101Y-11146000D02*
X+11000000Y-11146000D01*
X+11915899Y-10251580D02*
X+11700000Y-10251580D01*
X+11484101Y-10251580D02*
X+11700000Y-10251580D01*
X+12615899Y-9446000D02*
X+12400000Y-9446000D01*
X+12184101Y-9446000D02*
X+12400000Y-9446000D01*
D15*
X+8750000Y-1500000D03*
X+9004000Y-1500000D03*
X+9258000Y-1500000D03*
X+9512000Y-1500000D03*
X+9766000Y-1500000D03*
X+10020000Y-1500000D03*
X+10274000Y-1500000D03*
X+10528000Y-1500000D03*
X+10782000Y-1500000D03*
X+11036000Y-1500000D03*
X+11290000Y-1500000D03*
X+11544000Y-1500000D03*
X+11798000Y-1500000D03*
X+12052000Y-1500000D03*
X+12306000Y-1500000D03*
X+12306000Y+24000D03*
X+12052000Y+24000D03*
X+11798000Y+24000D03*
X+11544000Y+24000D03*
X+11290000Y+24000D03*
X+11036000Y+24000D03*
X+10782000Y+24000D03*
X+10528000Y+24000D03*
X+10274000Y+24000D03*
X+10020000Y+24000D03*
X+9766000Y+24000D03*
X+9512000Y+24000D03*
X+9258000Y+24000D03*
X+9004000Y+24000D03*
X+8750000Y+24000D03*
D16*
X+9000000Y-3750000D03*
X+9254000Y-3750000D03*
X+10250000Y-3750000D03*
X+10504000Y-3750000D03*
X+11500000Y-3750000D03*
X+11754000Y-3750000D03*
X+5250000Y+1500000D03*
X+5504000Y+1500000D03*
X+6250000Y+1500000D03*
X+6504000Y+1500000D03*
X+4250000Y+1500000D03*
X+4504000Y+1500000D03*
X+2250000Y+1500000D03*
X+2504000Y+1500000D03*
X+3250000Y+1500000D03*
X+3504000Y+1500000D03*
D17*
X+6500000Y+500000D03*
X+7516000Y+500000D03*
X+3400000Y-100000D03*
X+3400000Y-1116000D03*
X+4600000Y-100000D03*
X+4600000Y-1116000D03*
X+4200000Y-100000D03*
X+4200000Y-1116000D03*
X+3800000Y-100000D03*
X+3800000Y-1116000D03*
D18*
X+12997209Y-3939340D03*
X+12997209Y-4218740D03*
X+12997209Y-4498140D03*
X+12997209Y-4777540D03*
X+12997209Y-5056940D03*
X+13276609Y-4079040D03*
X+13276609Y-4358440D03*
X+13276609Y-4637840D03*
X+13276609Y-4917240D03*
D19*
X+13136909Y-3278940D03*
X+13136909Y-5717340D03*
D16*
X+3600000Y-3600000D03*
X+3854000Y-3600000D03*
X+4108000Y-3600000D03*
X+4362000Y-3600000D03*
X+4616000Y-3600000D03*
X+4870000Y-3600000D03*
X+7700000Y-8000000D03*
X+7954000Y-8000000D03*
X+9200000Y-8000000D03*
X+9454000Y-8000000D03*
X+8500000Y-9500000D03*
X+8754000Y-9500000D03*
D70*
X+3700000Y-5800000D03*
D71*
X+3954000Y-5800000D03*
X+4208000Y-5800000D03*
X+4462000Y-5800000D03*
X+4462000Y-5038000D03*
X+4208000Y-5038000D03*
X+3954000Y-5038000D03*
X+3700000Y-5038000D03*
D20*
X+11875000Y-12425000D03*
X+11875000Y-13175000D03*
X+11875000Y-13925000D03*
X+11625000Y-12675000D03*
X+11625000Y-13675000D03*
X+13375000Y-13425000D03*
X+13375000Y-12925000D03*
D16*
X+5446000Y-6846000D03*
X+5954000Y-6846000D03*
X+5700000Y-7100000D03*
D17*
X+5200000Y-5500000D03*
X+5200000Y-6516000D03*
D16*
X+5446000Y-7646000D03*
X+5954000Y-7646000D03*
X+5700000Y-7900000D03*
D17*
X+4700000Y-8200000D03*
X+5716000Y-8200000D03*
X+4400000Y-8200000D03*
X+3384000Y-8200000D03*
X+2200000Y-7000000D03*
X+2200000Y-5984000D03*
D16*
X+5400000Y-9300000D03*
X+5654000Y-9300000D03*
X+5908000Y-9300000D03*
D17*
X+3400000Y-5400000D03*
X+3400000Y-5654000D03*
X+9900000Y-12900000D03*
X+9900000Y-11884000D03*
X+8000000Y-8500000D03*
X+7746000Y-8500000D03*
X+8800000Y-10000000D03*
X+8546000Y-10000000D03*
X+9500000Y-8500000D03*
X+9246000Y-8500000D03*
D21*
X+750000Y+750000D03*
X+330000Y+750000D03*
X+750000Y+330000D03*
X+330000Y+330000D03*
X+750000Y-90000D03*
X+330000Y-90000D03*
X+750000Y-510000D03*
X+330000Y-510000D03*
X+750000Y-930000D03*
X+330000Y-930000D03*
X+750000Y-1350000D03*
X+330000Y-1350000D03*
X+750000Y-1770000D03*
X+330000Y-1770000D03*
X+750000Y-2190000D03*
X+330000Y-2190000D03*
X+750000Y-2610000D03*
X+330000Y-2610000D03*
X+750000Y-3030000D03*
X+330000Y-3030000D03*
X+750000Y-3450000D03*
X+330000Y-3450000D03*
X+750000Y-3870006D03*
X+330000Y-3870006D03*
D19*
X+246000Y+1220000D03*
D16*
X+1750000Y-2850000D03*
X+1750000Y-2596000D03*
D17*
X+1500000Y-600000D03*
X+1500000Y-346000D03*
X+800000Y-5100000D03*
X+1054000Y-5100000D03*
X+1700000Y-4550000D03*
X+1700000Y-4296000D03*
X+100000Y-5100000D03*
X+354000Y-5100000D03*
D16*
X+10500000Y+1250000D03*
X+10246000Y+1250000D03*
X+9992000Y+1250000D03*
D22*
X-200000Y+1800000D03*
X+13400000Y+1800000D03*
X+13400000Y-14700000D03*
X-200000Y-14700000D03*
D16*
X+6700000Y-400000D03*
X+6954000Y-400000D03*
X+7208000Y-400000D03*
X+7462000Y-400000D03*
X+2100000Y-400000D03*
X+2100000Y-654000D03*
X+2100000Y-908000D03*
D23*
X+12973000Y-7193420D03*
X+12973000Y-7470280D03*
X+12973000Y-7744600D03*
X+12973000Y-8021460D03*
X+12973000Y-8298320D03*
X+12973000Y-8572640D03*
X+12973000Y-8849500D03*
X+12973000Y-9126360D03*
X+12973000Y-9400680D03*
X+12973000Y-9677540D03*
X+12973000Y-9954400D03*
X+12973000Y-10228720D03*
X+12973000Y-10505580D03*
X+13227000Y-7330580D03*
X+13227000Y-7607440D03*
X+13227000Y-7881760D03*
X+13227000Y-8158620D03*
X+13227000Y-8435480D03*
X+13227000Y-8709800D03*
X+13227000Y-8986660D03*
X+13227000Y-9263520D03*
X+13227000Y-9537840D03*
X+13227000Y-9814700D03*
X+13227000Y-10091560D03*
X+13227000Y-10365880D03*
D24*
X+13100000Y-6500000D03*
X+13100000Y-11199000D03*
D16*
X+11600000Y-6000000D03*
X+11854000Y-6000000D03*
D71*
X+10773000Y-6800000D03*
X+10900000Y-6673000D03*
X+11027000Y-6800000D03*
D17*
X+9100000Y-6700000D03*
X+10116000Y-6700000D03*
X+9500000Y-7100000D03*
X+10516000Y-7100000D03*
D70*
X+6700000Y-2800000D03*
D71*
X+6954000Y-2800000D03*
X+7208000Y-2800000D03*
X+7462000Y-2800000D03*
X+7716000Y-2800000D03*
X+7970000Y-2800000D03*
X+8224000Y-2800000D03*
X+8224000Y-2038000D03*
X+7970000Y-2038000D03*
X+7716000Y-2038000D03*
X+7462000Y-2038000D03*
X+7208000Y-2038000D03*
X+6954000Y-2038000D03*
X+6700000Y-2038000D03*
D17*
X+7500000Y-1500000D03*
X+6484000Y-1500000D03*
X+7700000Y-1100000D03*
X+6684000Y-1100000D03*
D16*
X+1004000Y-7504000D03*
X+496000Y-7504000D03*
X+750000Y-7250000D03*
X+1004000Y-8504000D03*
X+496000Y-8504000D03*
X+750000Y-8250000D03*
X+1004000Y-9504000D03*
X+496000Y-9504000D03*
X+750000Y-9250000D03*
X+2000000Y-8250000D03*
X+2508000Y-8250000D03*
X+2254000Y-8504000D03*
X+2000000Y-7250000D03*
X+2508000Y-7250000D03*
X+2254000Y-7504000D03*
X+2000000Y-9250000D03*
X+2508000Y-9250000D03*
X+2254000Y-9504000D03*
D70*
X+8750000Y-11250000D03*
D71*
X+8750000Y-10996000D03*
X+8750000Y-10742000D03*
X+8750000Y-10488000D03*
X+7988000Y-10488000D03*
X+7988000Y-10742000D03*
X+7988000Y-10996000D03*
X+7988000Y-11250000D03*
D70*
X+8750000Y-12750000D03*
D71*
X+8750000Y-12496000D03*
X+8750000Y-12242000D03*
X+8750000Y-11988000D03*
X+7988000Y-11988000D03*
X+7988000Y-12242000D03*
X+7988000Y-12496000D03*
X+7988000Y-12750000D03*
D70*
X+8750000Y-14250000D03*
D71*
X+8750000Y-13996000D03*
X+8750000Y-13742000D03*
X+8750000Y-13488000D03*
X+7988000Y-13488000D03*
X+7988000Y-13742000D03*
X+7988000Y-13996000D03*
X+7988000Y-14250000D03*
D17*
X-16000Y-8000000D03*
X+1000000Y-8000000D03*
X+0Y-9000000D03*
X+1016000Y-9000000D03*
X+0Y-10000000D03*
X+1016000Y-10000000D03*
X+2766000Y-7750000D03*
X+1750000Y-7750000D03*
X+2750000Y-8750000D03*
X+1734000Y-8750000D03*
X+2750000Y-9750000D03*
X+1734000Y-9750000D03*
X+7500000Y-9000000D03*
X+6484000Y-9000000D03*
X+7500000Y-9500000D03*
X+6484000Y-9500000D03*
X+7500000Y-10000000D03*
X+6484000Y-10000000D03*
X+7750000Y-10500000D03*
X+7750000Y-11516000D03*
X+7750000Y-12000000D03*
X+7750000Y-13016000D03*
X+7750000Y-13500000D03*
X+7750000Y-14516000D03*
X+9250000Y-12254000D03*
X+9250000Y-12000000D03*
X+9250000Y-13754000D03*
X+9250000Y-13500000D03*
D16*
X+11000000Y-11400000D03*
X+11000000Y-11146000D03*
X+11000000Y-10892000D03*
X+11700000Y-10505580D03*
X+11700000Y-10251580D03*
X+11700000Y-9997580D03*
X+12400000Y-9700000D03*
X+12400000Y-9446000D03*
X+12400000Y-9192000D03*
D17*
X+9400000Y-10400000D03*
X+9400000Y-10654000D03*
D25*
X-600000Y-15100000D02*
X+13800000Y-15100000D01*
X+13800000Y+2200000D01*
X-600000Y+2200000D01*
X-600000Y-15100000D01*
M02*
