G04 PROTEUS GERBER X2 FILE*
%TF.GenerationSoftware,Labcenter,Proteus,8.13-SP0-Build31525*%
%TF.CreationDate,2025-10-31T19:39:43+00:00*%
%TF.FileFunction,Soldermask,Bot*%
%TF.FilePolarity,Negative*%
%TF.Part,Single*%
%TF.SameCoordinates,{e0fed4bd-df57-41ad-8a76-0b0c4bf3aebe}*%
%FSLAX45Y45*%
%MOMM*%
G01*
%TA.AperFunction,Material*%
%ADD28C,1.016000*%
%AMPPAD021*
4,1,8,
-0.607800,1.627000,
0.607800,1.627000,
0.987000,1.247800,
0.987000,-1.247800,
0.607800,-1.627000,
-0.607800,-1.627000,
-0.987000,-1.247800,
-0.987000,1.247800,
-0.607800,1.627000,
0*%
%TA.AperFunction,Material*%
%ADD29PPAD021*%
%TA.AperFunction,Material*%
%ADD72C,2.286000*%
%ADD73C,2.032000*%
%TA.AperFunction,Material*%
%ADD30C,0.787400*%
%ADD31C,1.524000*%
%AMPPAD026*
4,1,36,
-0.635000,0.762000,
0.635000,0.762000,
0.660970,0.759470,
0.684980,0.752200,
0.706580,0.740650,
0.725290,0.725290,
0.740650,0.706570,
0.752200,0.684980,
0.759470,0.660970,
0.762000,0.635000,
0.762000,-0.635000,
0.759470,-0.660970,
0.752200,-0.684980,
0.740650,-0.706570,
0.725290,-0.725290,
0.706580,-0.740650,
0.684980,-0.752200,
0.660970,-0.759470,
0.635000,-0.762000,
-0.635000,-0.762000,
-0.660970,-0.759470,
-0.684980,-0.752200,
-0.706580,-0.740650,
-0.725290,-0.725290,
-0.740650,-0.706570,
-0.752200,-0.684980,
-0.759470,-0.660970,
-0.762000,-0.635000,
-0.762000,0.635000,
-0.759470,0.660970,
-0.752200,0.684980,
-0.740650,0.706570,
-0.725290,0.725290,
-0.706580,0.740650,
-0.684980,0.752200,
-0.660970,0.759470,
-0.635000,0.762000,
0*%
%TA.AperFunction,Material*%
%ADD32PPAD026*%
%TA.AperFunction,Material*%
%ADD33C,2.794000*%
%TA.AperFunction,Material*%
%ADD34C,1.778000*%
%TA.AperFunction,Material*%
%ADD35C,2.540000*%
%TA.AperFunction,Material*%
%ADD36C,5.080000*%
%TA.AperFunction,Profile*%
%ADD23C,0.203200*%
%TD.AperFunction*%
D28*
X+3750000Y+750000D03*
X+3750000Y+200000D03*
X+4250000Y+1250000D03*
X+4250000Y+200000D03*
X+5250000Y+750000D03*
X+4700000Y+200000D03*
X+2900000Y-5700000D03*
X+2900000Y-6300000D03*
X+3200000Y-5800000D03*
X+3200000Y-6900000D03*
D29*
X+8750000Y-1500000D03*
X+9004000Y-1500000D03*
X+9258000Y-1500000D03*
X+9512000Y-1500000D03*
X+9766000Y-1500000D03*
X+10020000Y-1500000D03*
X+10274000Y-1500000D03*
X+10528000Y-1500000D03*
X+10782000Y-1500000D03*
X+11036000Y-1500000D03*
X+11290000Y-1500000D03*
X+11544000Y-1500000D03*
X+11798000Y-1500000D03*
X+12052000Y-1500000D03*
X+12306000Y-1500000D03*
X+12306000Y+24000D03*
X+12052000Y+24000D03*
X+11798000Y+24000D03*
X+11544000Y+24000D03*
X+11290000Y+24000D03*
X+11036000Y+24000D03*
X+10782000Y+24000D03*
X+10528000Y+24000D03*
X+10274000Y+24000D03*
X+10020000Y+24000D03*
X+9766000Y+24000D03*
X+9512000Y+24000D03*
X+9258000Y+24000D03*
X+9004000Y+24000D03*
X+8750000Y+24000D03*
D72*
X+9000000Y-3750000D03*
X+9254000Y-3750000D03*
X+10250000Y-3750000D03*
X+10504000Y-3750000D03*
X+11500000Y-3750000D03*
X+11754000Y-3750000D03*
X+5250000Y+1500000D03*
X+5504000Y+1500000D03*
X+6250000Y+1500000D03*
X+6504000Y+1500000D03*
X+4250000Y+1500000D03*
X+4504000Y+1500000D03*
X+2250000Y+1500000D03*
X+2504000Y+1500000D03*
X+3250000Y+1500000D03*
X+3504000Y+1500000D03*
D73*
X+6500000Y+500000D03*
X+7516000Y+500000D03*
X+3400000Y-100000D03*
X+3400000Y-1116000D03*
X+4600000Y-100000D03*
X+4600000Y-1116000D03*
X+4200000Y-100000D03*
X+4200000Y-1116000D03*
X+3800000Y-100000D03*
X+3800000Y-1116000D03*
D30*
X+12960300Y-8941200D03*
X+12960300Y-9220600D03*
X+12960300Y-9500000D03*
X+12960300Y-9779400D03*
X+12960300Y-10058800D03*
X+13239700Y-9080900D03*
X+13239700Y-9360300D03*
X+13239700Y-9639700D03*
X+13239700Y-9919100D03*
D31*
X+13100000Y-8280800D03*
X+13100000Y-10719200D03*
D72*
X+3600000Y-3600000D03*
X+3854000Y-3600000D03*
X+4108000Y-3600000D03*
X+4362000Y-3600000D03*
X+4616000Y-3600000D03*
X+4870000Y-3600000D03*
X+7700000Y-8000000D03*
X+7954000Y-8000000D03*
X+9200000Y-8000000D03*
X+9454000Y-8000000D03*
X+8500000Y-9500000D03*
X+8754000Y-9500000D03*
D32*
X+3700000Y-5800000D03*
D31*
X+3954000Y-5800000D03*
X+4208000Y-5800000D03*
X+4462000Y-5800000D03*
X+4462000Y-5038000D03*
X+4208000Y-5038000D03*
X+3954000Y-5038000D03*
X+3700000Y-5038000D03*
D33*
X+11875000Y-11625000D03*
X+11875000Y-12375000D03*
X+11875000Y-13125000D03*
X+11625000Y-11875000D03*
X+11625000Y-12875000D03*
X+13375000Y-12625000D03*
X+13375000Y-12125000D03*
D72*
X+5446000Y-6846000D03*
X+5954000Y-6846000D03*
X+5700000Y-7100000D03*
D73*
X+5200000Y-5500000D03*
X+5200000Y-6516000D03*
D72*
X+5446000Y-7646000D03*
X+5954000Y-7646000D03*
X+5700000Y-7900000D03*
D73*
X+4700000Y-8200000D03*
X+5716000Y-8200000D03*
X+4400000Y-8200000D03*
X+3384000Y-8200000D03*
X+2200000Y-7000000D03*
X+2200000Y-5984000D03*
D72*
X+5400000Y-9300000D03*
X+5654000Y-9300000D03*
X+5908000Y-9300000D03*
D73*
X+3400000Y-5400000D03*
X+3400000Y-5654000D03*
X+10900000Y-11900000D03*
X+9884000Y-11900000D03*
X+8000000Y-8500000D03*
X+7746000Y-8500000D03*
X+8800000Y-10000000D03*
X+8546000Y-10000000D03*
X+9500000Y-8500000D03*
X+9246000Y-8500000D03*
D34*
X+10396800Y-6400000D03*
X+10600000Y-6400000D03*
X+10803200Y-6400000D03*
D73*
X+10400000Y-6800000D03*
X+9384000Y-6800000D03*
X+10700000Y-6800000D03*
X+11716000Y-6800000D03*
X+10100000Y-7300000D03*
X+11116000Y-7300000D03*
D35*
X+750000Y+750000D03*
X+330000Y+750000D03*
X+750000Y+330000D03*
X+330000Y+330000D03*
X+750000Y-90000D03*
X+330000Y-90000D03*
X+750000Y-510000D03*
X+330000Y-510000D03*
X+750000Y-930000D03*
X+330000Y-930000D03*
X+750000Y-1350000D03*
X+330000Y-1350000D03*
X+750000Y-1770000D03*
X+330000Y-1770000D03*
X+750000Y-2190000D03*
X+330000Y-2190000D03*
X+750000Y-2610000D03*
X+330000Y-2610000D03*
X+750000Y-3030000D03*
X+330000Y-3030000D03*
X+750000Y-3450000D03*
X+330000Y-3450000D03*
X+750000Y-3870006D03*
X+330000Y-3870006D03*
D31*
X+246000Y+1220000D03*
D72*
X+1750000Y-2850000D03*
X+1750000Y-2596000D03*
D73*
X+1500000Y-600000D03*
X+1500000Y-346000D03*
X+800000Y-5100000D03*
X+1054000Y-5100000D03*
X+1700000Y-4550000D03*
X+1700000Y-4296000D03*
X+100000Y-5100000D03*
X+354000Y-5100000D03*
D72*
X+10500000Y+1250000D03*
X+10246000Y+1250000D03*
X+9992000Y+1250000D03*
D36*
X-200000Y+1800000D03*
X+13400000Y+1800000D03*
X+13400000Y-14700000D03*
X-200000Y-14700000D03*
D72*
X+6700000Y-400000D03*
X+6954000Y-400000D03*
X+7208000Y-400000D03*
X+7462000Y-400000D03*
X+2100000Y-400000D03*
X+2100000Y-654000D03*
X+2100000Y-908000D03*
D23*
X-600000Y-15100000D02*
X+13800000Y-15100000D01*
X+13800000Y+2200000D01*
X-600000Y+2200000D01*
X-600000Y-15100000D01*
M02*
